<svg width="18" height="22" viewBox="0 0 18 22" fill="none" xmlns="http://www.w3.org/2000/svg">
<path d="M2.25 17.75V7.25H5.25V4.25H12.75V10.25H15.75V17.75H9.75V14.75H8.25V17.75H2.25ZM3.75 16.25H5.25V14.75H3.75V16.25ZM3.75 13.25H5.25V11.75H3.75V13.25ZM3.75 10.25H5.25V8.75H3.75V10.25ZM6.75 13.25H8.25V11.75H6.75V13.25ZM6.75 10.25H8.25V8.75H6.75V10.25ZM6.75 7.25H8.25V5.75H6.75V7.25ZM9.75 13.25H11.25V11.75H9.75V13.25ZM9.75 10.25H11.25V8.75H9.75V10.25ZM9.75 7.25H11.25V5.75H9.75V7.25ZM12.75 16.25H14.25V14.75H12.75V16.25ZM12.75 13.25H14.25V11.75H12.75V13.25Z" fill="#0F172A"/>
</svg>
