<svg width="21" height="25" viewBox="0 0 21 25" fill="none" xmlns="http://www.w3.org/2000/svg">
<path d="M3.6297 18.6904C3.17079 18.6904 2.77793 18.527 2.45114 18.2002C2.12434 17.8734 1.96094 17.4806 1.96094 17.0217V7.00911C1.96094 6.5502 2.12434 6.15734 2.45114 5.83054C2.77793 5.50374 3.17079 5.34034 3.6297 5.34034H12.0569C12.0013 5.61847 11.9735 5.8966 11.9735 6.17472C11.9735 6.45285 12.0013 6.73098 12.0569 7.00911H3.6297L10.3047 11.181L13.3502 9.28279C13.5449 9.46357 13.757 9.62002 13.9864 9.75213C14.2159 9.88424 14.4558 9.99897 14.7061 10.0963L10.3047 12.8498L3.6297 8.67787V17.0217H16.9798V10.2632C17.2996 10.1937 17.5986 10.0963 17.8767 9.97116C18.1549 9.846 18.4121 9.69303 18.6485 9.51225V17.0217C18.6485 17.4806 18.4851 17.8734 18.1583 18.2002C17.8315 18.527 17.4387 18.6904 16.9798 18.6904H3.6297ZM16.1454 8.67787C15.4501 8.67787 14.8591 8.43451 14.3723 7.94778C13.8856 7.46106 13.6423 6.87004 13.6423 6.17472C13.6423 5.47941 13.8856 4.88839 14.3723 4.40167C14.8591 3.91494 15.4501 3.67158 16.1454 3.67158C16.8407 3.67158 17.4317 3.91494 17.9185 4.40167C18.4052 4.88839 18.6485 5.47941 18.6485 6.17472C18.6485 6.87004 18.4052 7.46106 17.9185 7.94778C17.4317 8.43451 16.8407 8.67787 16.1454 8.67787Z" fill="#5550FF"/>
</svg>
