<svg width="21" height="25" viewBox="0 0 21 25" fill="none" xmlns="http://www.w3.org/2000/svg">
<path d="M3.63263 18.6903C3.17372 18.6903 2.78086 18.5269 2.45407 18.2001C2.12727 17.8733 1.96387 17.4805 1.96387 17.0215V7.00899C1.96387 6.55008 2.12727 6.15722 2.45407 5.83042C2.78086 5.50362 3.17372 5.34022 3.63263 5.34022H12.0599C12.0042 5.61835 11.9764 5.89648 11.9764 6.1746C11.9764 6.45273 12.0042 6.73086 12.0599 7.00899H3.63263L10.3077 11.1809L13.3532 9.28267C13.5478 9.46345 13.7599 9.6199 13.9894 9.75201C14.2188 9.88412 14.4587 9.99885 14.709 10.0962L10.3077 12.8496L3.63263 8.67775V17.0215H16.9827V10.2631C17.3026 10.1935 17.6015 10.0962 17.8797 9.97104C18.1578 9.84588 18.4151 9.69291 18.6515 9.51213V17.0215C18.6515 17.4805 18.4881 17.8733 18.1613 18.2001C17.8345 18.5269 17.4416 18.6903 16.9827 18.6903H3.63263ZM16.1483 8.67775C15.453 8.67775 14.862 8.43439 14.3753 7.94766C13.8886 7.46094 13.6452 6.86992 13.6452 6.1746C13.6452 5.47929 13.8886 4.88827 14.3753 4.40155C14.862 3.91482 15.453 3.67146 16.1483 3.67146C16.8436 3.67146 17.4347 3.91482 17.9214 4.40155C18.4081 4.88827 18.6515 5.47929 18.6515 6.1746C18.6515 6.86992 18.4081 7.46094 17.9214 7.94766C17.4347 8.43439 16.8436 8.67775 16.1483 8.67775Z" fill="#581ADF"/>
</svg>
