<svg width="20" height="20" viewBox="0 0 20 20" fill="none" xmlns="http://www.w3.org/2000/svg">
<path d="M17.103 14.7678L16.0418 13.2908C15.8282 12.9854 15.5417 12.7381 15.2083 12.5714C14.8749 12.4047 14.5052 12.3239 14.1327 12.3362C13.7614 12.3436 13.3975 12.4413 13.0723 12.6208C12.7472 12.8002 12.4707 13.0562 12.2666 13.3664L12.0867 13.6382C12.0527 13.6912 12.0076 13.736 11.9544 13.7697C11.9013 13.8034 11.8414 13.825 11.779 13.8332C11.7167 13.8413 11.6533 13.8357 11.5932 13.8168C11.5332 13.7979 11.4781 13.7661 11.4316 13.7237C10.5423 12.836 9.72028 11.8834 8.97233 10.8738C8.25458 9.84213 7.61479 8.75841 7.05826 7.6316C7.03269 7.57468 7.02001 7.5128 7.02114 7.45041C7.02227 7.38802 7.03717 7.32664 7.06478 7.27068C7.09212 7.21351 7.13163 7.16301 7.18056 7.12273C7.22948 7.08245 7.28662 7.05337 7.34798 7.03752L7.66292 6.95533C8.02253 6.86104 8.3538 6.6807 8.62818 6.42985C8.90256 6.17901 9.1118 5.86519 9.23787 5.51545C9.36394 5.16572 9.40305 4.79057 9.35183 4.42236C9.3006 4.05414 9.16059 3.70391 8.94385 3.40186L7.84929 1.87721C7.64833 1.59724 7.38681 1.3662 7.0842 1.20129C6.78159 1.03637 6.44568 0.941836 6.10148 0.924707C5.75728 0.907579 5.41365 0.968302 5.09616 1.10236C4.77868 1.23641 4.49551 1.44035 4.26775 1.69898L3.53044 2.53643C2.85987 3.30186 2.40825 4.23404 2.2232 5.2347C2.03815 6.23535 2.12652 7.26739 2.47901 8.22201C3.16538 10.1037 4.10531 11.883 5.27279 13.5105C6.42839 15.1188 7.79509 16.5643 9.33612 17.8082C10.3495 18.627 11.6124 19.0744 12.9152 19.0761C13.6323 19.0766 14.3427 18.9387 15.0075 18.67L16.0996 18.2297C16.4215 18.0997 16.7095 17.8983 16.9422 17.6407C17.1748 17.3831 17.3459 17.076 17.4425 16.7426C17.5391 16.4092 17.5588 16.0582 17.5 15.7162C17.4412 15.3741 17.3054 15.0498 17.103 14.7678Z" fill="white"/>
<path d="M14.3375 10.4593C14.3026 10.4593 14.2677 10.4564 14.2333 10.4508C14.1523 10.4373 14.0748 10.4079 14.0052 10.3643C13.9355 10.3208 13.8752 10.264 13.8275 10.197C13.7799 10.1301 13.746 10.0545 13.7276 9.97446C13.7093 9.89442 13.7069 9.81154 13.7206 9.73058C13.7548 9.52953 13.7736 9.32616 13.7768 9.12224C13.7841 8.40291 13.5787 7.69745 13.1863 7.09452C12.7939 6.49159 12.2321 6.01811 11.5714 5.73357C11.4193 5.66752 11.2997 5.54378 11.2389 5.38956C11.1781 5.23534 11.181 5.06327 11.2471 4.91121C11.3131 4.75916 11.4368 4.63956 11.5911 4.57874C11.7453 4.51792 11.9174 4.52086 12.0694 4.5869C12.9561 4.9694 13.7099 5.60548 14.2361 6.41519C14.7623 7.22489 15.0374 8.17208 15.0268 9.13768C15.0227 9.40598 14.998 9.67357 14.9527 9.93806C14.9283 10.0836 14.8531 10.2158 14.7404 10.3112C14.6278 10.4067 14.4851 10.4591 14.3375 10.4593Z" fill="white"/>
<path d="M17.135 10.9482C17.0974 10.9482 17.0598 10.9449 17.0227 10.9385C16.8596 10.9088 16.715 10.8156 16.6205 10.6793C16.5261 10.5431 16.4895 10.3749 16.519 10.2117C16.5831 9.86181 16.6174 9.50708 16.6215 9.15135C16.6384 7.8693 16.2739 6.61115 15.5742 5.53676C14.8744 4.46237 13.8711 3.62025 12.6916 3.11741C12.6162 3.08514 12.5478 3.03832 12.4905 2.97962C12.4331 2.92093 12.3879 2.85152 12.3574 2.77535C12.2957 2.62151 12.2977 2.44948 12.3629 2.2971C12.428 2.14472 12.5511 2.02448 12.7049 1.96282C12.8588 1.90116 13.0308 1.90315 13.1832 1.96833C14.59 2.56795 15.7869 3.57224 16.6217 4.85362C17.4565 6.13499 17.8915 7.6356 17.8715 9.16478C17.8666 9.59077 17.8257 10.0156 17.7494 10.4347C17.7232 10.5786 17.6473 10.7088 17.5351 10.8026C17.4229 10.8964 17.2813 10.9479 17.135 10.9482Z" fill="white"/>
</svg>
