<svg width="48" height="48" viewBox="0 0 48 48" fill="none" xmlns="http://www.w3.org/2000/svg">
<rect width="48" height="48" rx="12" fill="#EEEEFF"/>
<path d="M30.25 31.5L28.5 29.75L34.1875 24L28.5 18.25L30.25 16.5L37.75 24L30.25 31.5ZM17.75 31.5L10.25 24L17.75 16.5L19.5 18.25L13.8125 24L19.5 29.75L17.75 31.5ZM19 25.25C18.6458 25.25 18.349 25.1302 18.1094 24.8906C17.8698 24.651 17.75 24.3542 17.75 24C17.75 23.6458 17.8698 23.349 18.1094 23.1094C18.349 22.8698 18.6458 22.75 19 22.75C19.3542 22.75 19.651 22.8698 19.8906 23.1094C20.1302 23.349 20.25 23.6458 20.25 24C20.25 24.3542 20.1302 24.651 19.8906 24.8906C19.651 25.1302 19.3542 25.25 19 25.25ZM24 25.25C23.6458 25.25 23.349 25.1302 23.1094 24.8906C22.8698 24.651 22.75 24.3542 22.75 24C22.75 23.6458 22.8698 23.349 23.1094 23.1094C23.349 22.8698 23.6458 22.75 24 22.75C24.3542 22.75 24.651 22.8698 24.8906 23.1094C25.1302 23.349 25.25 23.6458 25.25 24C25.25 24.3542 25.1302 24.651 24.8906 24.8906C24.651 25.1302 24.3542 25.25 24 25.25ZM29 25.25C28.6458 25.25 28.349 25.1302 28.1094 24.8906C27.8698 24.651 27.75 24.3542 27.75 24C27.75 23.6458 27.8698 23.349 28.1094 23.1094C28.349 22.8698 28.6458 22.75 29 22.75C29.3542 22.75 29.651 22.8698 29.8906 23.1094C30.1302 23.349 30.25 23.6458 30.25 24C30.25 24.3542 30.1302 24.651 29.8906 24.8906C29.651 25.1302 29.3542 25.25 29 25.25Z" fill="#581ADF"/>
</svg>
