<svg width="20" height="20" viewBox="0 0 20 20" fill="none" xmlns="http://www.w3.org/2000/svg">
<path d="M15 13.5938L11.3906 9.98438L15 6.375L13.5938 4.96875L9.98438 8.57812L6.375 4.96875L4.96875 6.375L8.57812 9.98438L4.96875 13.5938L6.375 15L9.98438 11.3906L13.5938 15L15 13.5938ZM2.90625 2.95312C4.875 0.984375 7.23438 0 9.98438 0C12.7344 0 15.0781 0.984375 17.0156 2.95312C18.9844 4.89062 19.9688 7.23438 19.9688 9.98438C19.9688 12.7344 18.9844 15.0938 17.0156 17.0625C15.0781 19 12.7344 19.9688 9.98438 19.9688C7.23438 19.9688 4.875 19 2.90625 17.0625C0.96875 15.0938 0 12.7344 0 9.98438C0 7.23438 0.96875 4.89062 2.90625 2.95312Z" fill="#FF5656"/>
</svg>
