<svg width="48" height="48" viewBox="0 0 48 48" fill="none" xmlns="http://www.w3.org/2000/svg">
<rect width="48" height="48" rx="12" fill="#EEEEFF"/>
<path d="M24 25.25C22.7708 25.25 21.7344 24.8281 20.8906 23.9844C20.0469 23.1406 19.625 22.1042 19.625 20.875C19.625 19.6458 20.0469 18.6094 20.8906 17.7656C21.7344 16.9219 22.7708 16.5 24 16.5C25.2292 16.5 26.2656 16.9219 27.1094 17.7656C27.9531 18.6094 28.375 19.6458 28.375 20.875C28.375 22.1042 27.9531 23.1406 27.1094 23.9844C26.2656 24.8281 25.2292 25.25 24 25.25ZM24 22.75C24.5417 22.75 24.9896 22.5729 25.3438 22.2188C25.6979 21.8646 25.875 21.4167 25.875 20.875C25.875 20.3333 25.6979 19.8854 25.3438 19.5312C24.9896 19.1771 24.5417 19 24 19C23.4583 19 23.0104 19.1771 22.6562 19.5312C22.3021 19.8854 22.125 20.3333 22.125 20.875C22.125 21.4167 22.3021 21.8646 22.6562 22.2188C23.0104 22.5729 23.4583 22.75 24 22.75ZM24 36.5C21.1042 35.7708 18.7135 34.1094 16.8281 31.5156C14.9427 28.9219 14 26.0417 14 22.875V15.25L24 11.5L34 15.25V22.875C34 26.0417 33.0573 28.9219 31.1719 31.5156C29.2865 34.1094 26.8958 35.7708 24 36.5ZM24 14.1562L16.5 16.9688V22.875C16.5 24 16.6562 25.0938 16.9688 26.1562C17.2812 27.2188 17.7083 28.2188 18.25 29.1562C19.125 28.7188 20.0417 28.375 21 28.125C21.9583 27.875 22.9583 27.75 24 27.75C25.0417 27.75 26.0417 27.875 27 28.125C27.9583 28.375 28.875 28.7188 29.75 29.1562C30.2917 28.2188 30.7188 27.2188 31.0312 26.1562C31.3438 25.0938 31.5 24 31.5 22.875V16.9688L24 14.1562ZM24 30.25C23.25 30.25 22.5208 30.3333 21.8125 30.5C21.1042 30.6667 20.4271 30.8958 19.7812 31.1875C20.3854 31.8125 21.0417 32.3542 21.75 32.8125C22.4583 33.2708 23.2083 33.625 24 33.875C24.7917 33.625 25.5417 33.2708 26.25 32.8125C26.9583 32.3542 27.6146 31.8125 28.2188 31.1875C27.5729 30.8958 26.8958 30.6667 26.1875 30.5C25.4792 30.3333 24.75 30.25 24 30.25Z" fill="#581ADF"/>
</svg>
