<svg width="112" height="128" viewBox="0 0 112 128" fill="none" xmlns="http://www.w3.org/2000/svg">
<g opacity="0.3">
<path d="M0 82C0 80.8954 0.895431 80 2 80H14C15.1046 80 16 80.8954 16 82V128H0V82Z" fill="#C7D2FE"/>
<path d="M24 34C24 32.8954 24.8954 32 26 32H38C39.1046 32 40 32.8954 40 34V128H24V34Z" fill="#A5B4FC"/>
<path d="M48 66C48 64.8954 48.8954 64 50 64H62C63.1046 64 64 64.8954 64 66V128H48V66Z" fill="#818CF8"/>
<path d="M72 2C72 0.895431 72.8954 0 74 0H86C87.1046 0 88 0.895431 88 2V128H72V2Z" fill="#4F46E5"/>
<path d="M96 50C96 48.8954 96.8954 48 98 48H110C111.105 48 112 48.8954 112 50V128H96V50Z" fill="#6366F1"/>
</g>
</svg>
