<svg width="21" height="25" viewBox="0 0 21 25" fill="none" xmlns="http://www.w3.org/2000/svg">
<path d="M10.3069 20.3574C8.3739 19.8707 6.77814 18.7617 5.51962 17.0303C4.2611 15.299 3.63184 13.3764 3.63184 11.2627V6.17296L10.3069 3.66982L16.9819 6.17296V11.2627C16.9819 13.3764 16.3527 15.299 15.0941 17.0303C13.8356 18.7617 12.2399 19.8707 10.3069 20.3574ZM10.3069 18.6052C11.7531 18.1463 12.9491 17.2285 13.8947 15.8518C14.8403 14.475 15.3132 12.9453 15.3132 11.2627V7.32023L10.3069 5.44287L5.3006 7.32023V11.2627C5.3006 12.9453 5.77341 14.475 6.71904 15.8518C7.66467 17.2285 8.86062 18.1463 10.3069 18.6052Z" fill="#581ADF"/>
</svg>
