<svg width="21" height="25" viewBox="0 0 21 25" fill="none" xmlns="http://www.w3.org/2000/svg">
<path d="M10.3079 20.3594C8.37487 19.8727 6.77912 18.7636 5.5206 17.0323C4.26207 15.3009 3.63281 13.3784 3.63281 11.2646V6.17491L10.3079 3.67177L16.9829 6.17491V11.2646C16.9829 13.3784 16.3536 15.3009 15.0951 17.0323C13.8366 18.7636 12.2408 19.8727 10.3079 20.3594ZM10.3079 18.6072C11.7541 18.1483 12.9501 17.2304 13.8957 15.8537C14.8413 14.477 15.3141 12.9473 15.3141 11.2646V7.32218L10.3079 5.44483L5.30157 7.32218V11.2646C5.30157 12.9473 5.77439 14.477 6.72002 15.8537C7.66565 17.2304 8.8616 18.1483 10.3079 18.6072Z" fill="#5550FF"/>
</svg>
