<svg width="231" height="167" viewBox="0 0 231 167" fill="none" xmlns="http://www.w3.org/2000/svg">
<rect width="231" height="167" rx="13.7315" fill="#F3F4F6"/>
<g filter="url(#filter0_d_528_4437)">
<mask id="path-2-inside-1_528_4437" fill="white">
<path d="M13.7314 27.7986C13.7314 22.1109 18.3423 17.5 24.0301 17.5H206.97C212.658 17.5 217.268 22.1109 217.268 27.7986V139.201C217.268 144.889 212.658 149.5 206.97 149.5H24.0301C18.3423 149.5 13.7314 144.889 13.7314 139.201V27.7986Z"/>
</mask>
<path d="M13.7314 27.7986C13.7314 22.1109 18.3423 17.5 24.0301 17.5H206.97C212.658 17.5 217.268 22.1109 217.268 27.7986V139.201C217.268 144.889 212.658 149.5 206.97 149.5H24.0301C18.3423 149.5 13.7314 144.889 13.7314 139.201V27.7986Z" fill="white" shape-rendering="crispEdges"/>
<path d="M24.0301 17.5V18.3582H206.97V17.5V16.6418H24.0301V17.5ZM217.268 27.7986H216.41V139.201H217.268H218.127V27.7986H217.268ZM206.97 149.5V148.642H24.0301V149.5V150.358H206.97V149.5ZM13.7314 139.201H14.5897V27.7986H13.7314H12.8732V139.201H13.7314ZM24.0301 149.5V148.642C18.8163 148.642 14.5897 144.415 14.5897 139.201H13.7314H12.8732C12.8732 145.363 17.8683 150.358 24.0301 150.358V149.5ZM217.268 139.201H216.41C216.41 144.415 212.184 148.642 206.97 148.642V149.5V150.358C213.132 150.358 218.127 145.363 218.127 139.201H217.268ZM206.97 17.5V18.3582C212.184 18.3582 216.41 22.5848 216.41 27.7986H217.268H218.127C218.127 21.6369 213.132 16.6418 206.97 16.6418V17.5ZM24.0301 17.5V16.6418C17.8683 16.6418 12.8732 21.6369 12.8732 27.7986H13.7314H14.5897C14.5897 22.5848 18.8163 18.3582 24.0301 18.3582V17.5Z" fill="#F3F4F6" mask="url(#path-2-inside-1_528_4437)"/>
<path d="M28.8156 40.0898V34.9749H30.484C31.0241 34.9749 31.4933 35.0847 31.8915 35.3044C32.2943 35.5195 32.6055 35.8193 32.8252 36.2038C33.0449 36.5837 33.1548 37.0254 33.1548 37.5289C33.1548 38.0278 33.0449 38.4718 32.8252 38.8609C32.6055 39.2454 32.2943 39.5474 31.8915 39.7672C31.4933 39.9823 31.0241 40.0898 30.484 40.0898H28.8156ZM29.7494 39.266H30.5046C30.8525 39.266 31.1523 39.195 31.404 39.0531C31.6603 38.9066 31.8594 38.7052 32.0013 38.4489C32.1432 38.188 32.2142 37.8814 32.2142 37.5289C32.2142 37.1719 32.1432 36.8652 32.0013 36.6089C31.8594 36.3526 31.6603 36.1535 31.404 36.0116C31.1523 35.8697 30.8525 35.7987 30.5046 35.7987H29.7494V39.266ZM33.8979 40.0898V34.9749H34.8316V37.6388L34.5776 37.5495L36.754 34.9749H37.9281L35.889 37.3916L35.9439 36.7325L37.9899 40.0898H36.8914L35.5182 37.8379L34.8316 38.6549V40.0898H33.8979ZM38.5578 40.0898V34.9749H39.4915V40.0898H38.5578ZM40.4753 40.0898V34.9749H41.3679L43.2834 37.577H42.8578L44.7321 34.9749H45.6247V40.0898H44.6841V36.039L45.0479 36.1283L43.1049 38.7167H42.9951L41.1001 36.1283L41.4091 36.039V40.0898H40.4753Z" fill="#9CA3AF"/>
<path d="M28.4157 53.0898L30.6213 46.6961H32.1318L34.3374 53.0898H33.0672L32.6124 51.7167H30.1407L29.6773 53.0898H28.4157ZM30.4754 50.6868H32.2777L31.2135 47.5028H31.5396L30.4754 50.6868ZM37.0355 53.1928C36.5721 53.1928 36.1544 53.087 35.7825 52.8753C35.4163 52.6579 35.1274 52.3661 34.9157 51.9999C34.704 51.628 34.5982 51.2103 34.5982 50.7469C34.5982 50.2835 34.704 49.8687 34.9157 49.5025C35.1274 49.1363 35.4163 48.8474 35.7825 48.6357C36.1544 48.424 36.5721 48.3181 37.0355 48.3181C37.3673 48.3181 37.6763 48.3782 37.9624 48.4984C38.2485 48.6128 38.4945 48.773 38.7005 48.979C38.9121 49.1792 39.0638 49.4195 39.1553 49.6999L38.1684 50.129C38.0825 49.8944 37.9366 49.7056 37.7307 49.5626C37.5304 49.4195 37.2987 49.348 37.0355 49.348C36.7895 49.348 36.5692 49.4081 36.3747 49.5282C36.1859 49.6484 36.0371 49.8143 35.9284 50.026C35.8197 50.2377 35.7653 50.4809 35.7653 50.7555C35.7653 51.0301 35.8197 51.2733 35.9284 51.485C36.0371 51.6967 36.1859 51.8626 36.3747 51.9827C36.5692 52.1029 36.7895 52.163 37.0355 52.163C37.3044 52.163 37.539 52.0914 37.7392 51.9484C37.9395 51.8054 38.0825 51.6137 38.1684 51.3734L39.1553 51.8197C39.0638 52.0829 38.915 52.3203 38.709 52.532C38.5031 52.738 38.257 52.901 37.971 53.0212C37.6849 53.1356 37.3731 53.1928 37.0355 53.1928ZM42.1367 53.1413C41.6104 53.1413 41.2013 52.9983 40.9095 52.7122C40.6234 52.4204 40.4804 52.0113 40.4804 51.485V49.4252H39.6737V48.4211H39.7595C39.9883 48.4211 40.1657 48.3611 40.2916 48.2409C40.4174 48.1208 40.4804 47.9462 40.4804 47.7174V47.3569H41.6047V48.4211H42.6774V49.4252H41.6047V51.4249C41.6047 51.5794 41.6304 51.711 41.6819 51.8197C41.7391 51.9284 41.8249 52.0113 41.9394 52.0686C42.0595 52.1258 42.2111 52.1544 42.3942 52.1544C42.4343 52.1544 42.48 52.1515 42.5315 52.1458C42.5887 52.1401 42.6431 52.1344 42.6946 52.1286V53.0898C42.6145 53.1013 42.5229 53.1127 42.42 53.1242C42.317 53.1356 42.2226 53.1413 42.1367 53.1413ZM43.5535 53.0898V48.4211H44.6778V53.0898H43.5535ZM43.5535 47.8976V46.6961H44.6778V47.8976H43.5535ZM47.1233 53.0898L45.2868 48.4211H46.514L47.8442 52.0943H47.3894L48.7282 48.4211H49.9555L48.1189 53.0898H47.1233ZM52.7073 53.1928C52.2267 53.1928 51.8061 53.0841 51.4457 52.8667C51.0852 52.6493 50.8049 52.3546 50.6046 51.9827C50.4044 51.6108 50.3043 51.1989 50.3043 50.7469C50.3043 50.2777 50.4044 49.8629 50.6046 49.5025C50.8106 49.1363 51.0881 48.8474 51.4371 48.6357C51.7918 48.424 52.1866 48.3181 52.6214 48.3181C52.9876 48.3181 53.308 48.3782 53.5827 48.4984C53.863 48.6185 54.1004 48.7844 54.295 48.9961C54.4895 49.2078 54.6383 49.451 54.7412 49.7256C54.8442 49.9945 54.8957 50.2863 54.8957 50.601C54.8957 50.6811 54.89 50.7641 54.8786 50.8499C54.8728 50.9357 54.8585 51.0101 54.8357 51.073H51.2311V50.2148H54.2006L53.6685 50.6182C53.72 50.355 53.7057 50.1204 53.6256 49.9144C53.5512 49.7085 53.4253 49.5454 53.2479 49.4252C53.0763 49.3051 52.8675 49.245 52.6214 49.245C52.3869 49.245 52.178 49.3051 51.9949 49.4252C51.8119 49.5397 51.6717 49.7113 51.5744 49.9402C51.4829 50.1633 51.4485 50.4351 51.4714 50.7555C51.4485 51.0416 51.4857 51.2962 51.583 51.5193C51.686 51.7367 51.8347 51.9055 52.0293 52.0257C52.2295 52.1458 52.4584 52.2059 52.7159 52.2059C52.9733 52.2059 53.1907 52.1515 53.3681 52.0428C53.5512 51.9341 53.6942 51.7882 53.7972 51.6051L54.7069 52.0514C54.6154 52.2745 54.4723 52.4719 54.2778 52.6436C54.0833 52.8152 53.8516 52.9497 53.5827 53.0469C53.3195 53.1442 53.0277 53.1928 52.7073 53.1928Z" fill="#111827"/>
<path d="M116.354 40.0898V34.9749H118.022C118.562 34.9749 119.031 35.0847 119.43 35.3044C119.832 35.5195 120.144 35.8193 120.363 36.2038C120.583 36.5837 120.693 37.0254 120.693 37.5289C120.693 38.0278 120.583 38.4718 120.363 38.8609C120.144 39.2454 119.832 39.5474 119.43 39.7672C119.031 39.9823 118.562 40.0898 118.022 40.0898H116.354ZM117.287 39.266H118.043C118.391 39.266 118.69 39.195 118.942 39.0531C119.198 38.9066 119.398 38.7052 119.539 38.4489C119.681 38.188 119.752 37.8814 119.752 37.5289C119.752 37.1719 119.681 36.8652 119.539 36.6089C119.398 36.3526 119.198 36.1535 118.942 36.0116C118.69 35.8697 118.391 35.7987 118.043 35.7987H117.287V39.266ZM121.436 40.0898V34.9749H122.329L124.244 37.577H123.818L125.693 34.9749H126.585V40.0898H125.645V36.039L126.009 36.1283L124.066 38.7167H123.956L122.061 36.1283L122.37 36.039V40.0898H121.436ZM127.145 40.0898L128.91 34.9749H130.118L131.883 40.0898H130.867L130.503 38.9913H128.525L128.155 40.0898H127.145ZM128.793 38.1674H130.235L129.384 35.6202H129.645L128.793 38.1674ZM132.452 40.0898V34.9749H134.354C134.702 34.9749 135.008 35.0389 135.274 35.1671C135.544 35.2907 135.754 35.4738 135.906 35.7164C136.057 35.9544 136.132 36.245 136.132 36.5883C136.132 36.9407 136.047 37.2406 135.878 37.4877C135.713 37.7349 135.489 37.918 135.205 38.037L136.379 40.0898H135.322L134.065 37.8447L134.67 38.2018H133.386V40.0898H132.452ZM133.386 37.3779H134.368C134.537 37.3779 134.683 37.3458 134.807 37.2817C134.931 37.2131 135.027 37.1193 135.095 37.0003C135.164 36.8812 135.198 36.7439 135.198 36.5883C135.198 36.4281 135.164 36.2908 135.095 36.1764C135.027 36.0574 134.931 35.9658 134.807 35.9017C134.683 35.8331 134.537 35.7987 134.368 35.7987H133.386V37.3779ZM139.394 40.1722C139.028 40.1722 138.689 40.1059 138.378 39.9731C138.071 39.8404 137.801 39.655 137.568 39.417C137.339 39.179 137.161 38.8998 137.032 38.5794C136.904 38.259 136.84 37.9088 136.84 37.5289C136.84 37.149 136.902 36.7989 137.026 36.4785C137.154 36.1535 137.332 35.8743 137.561 35.6408C137.795 35.4028 138.067 35.2197 138.378 35.0916C138.689 34.9588 139.028 34.8925 139.394 34.8925C139.76 34.8925 140.088 34.9543 140.376 35.0778C140.669 35.2014 140.916 35.3662 141.118 35.5722C141.319 35.7736 141.463 35.9956 141.55 36.2382L140.712 36.6295C140.616 36.3732 140.454 36.1626 140.225 35.9979C139.996 35.8285 139.719 35.7438 139.394 35.7438C139.074 35.7438 138.79 35.8193 138.543 35.9704C138.3 36.1214 138.11 36.3297 137.973 36.5952C137.84 36.8606 137.774 37.1719 137.774 37.5289C137.774 37.8859 137.84 38.1995 137.973 38.4695C138.11 38.735 138.3 38.9433 138.543 39.0943C138.79 39.2454 139.074 39.3209 139.394 39.3209C139.719 39.3209 139.996 39.2385 140.225 39.0737C140.454 38.9044 140.616 38.6915 140.712 38.4352L141.55 38.8265C141.463 39.0691 141.319 39.2934 141.118 39.4994C140.916 39.7008 140.669 39.8633 140.376 39.9869C140.088 40.1104 139.76 40.1722 139.394 40.1722Z" fill="#9CA3AF"/>
<path d="M116.477 53.0898V46.6961H120.725V47.726H117.644V49.3652H120.554V50.395H117.644V52.06H120.725V53.0898H116.477ZM121.487 53.0898V48.4211H122.543V49.3394L122.457 49.1764C122.565 48.896 122.743 48.6843 122.989 48.5413C123.241 48.3925 123.532 48.3181 123.864 48.3181C124.208 48.3181 124.511 48.3925 124.774 48.5413C125.043 48.69 125.252 48.8989 125.4 49.1678C125.549 49.431 125.624 49.7371 125.624 50.0861V53.0898H124.499V50.3521C124.499 50.1461 124.459 49.9688 124.379 49.82C124.299 49.6713 124.187 49.5568 124.044 49.4767C123.907 49.3909 123.744 49.348 123.555 49.348C123.372 49.348 123.209 49.3909 123.066 49.4767C122.923 49.5568 122.811 49.6713 122.731 49.82C122.651 49.9688 122.611 50.1461 122.611 50.3521V53.0898H121.487ZM127.99 53.1928C127.664 53.1928 127.381 53.1385 127.141 53.0298C126.9 52.9211 126.714 52.7666 126.583 52.5663C126.451 52.3604 126.385 52.1229 126.385 51.854C126.385 51.5965 126.443 51.3677 126.557 51.1674C126.672 50.9615 126.849 50.7898 127.089 50.6525C127.329 50.5152 127.633 50.4179 127.999 50.3607L129.527 50.1118V50.97L128.213 51.1932C127.99 51.2332 127.824 51.3047 127.716 51.4077C127.607 51.5107 127.553 51.6452 127.553 51.8111C127.553 51.9713 127.613 52.1 127.733 52.1973C127.859 52.2888 128.013 52.3346 128.196 52.3346C128.431 52.3346 128.637 52.286 128.814 52.1887C128.997 52.0857 129.137 51.9456 129.235 51.7682C129.338 51.5908 129.389 51.3963 129.389 51.1846V49.9831C129.389 49.7828 129.309 49.6169 129.149 49.4853C128.994 49.348 128.788 49.2793 128.531 49.2793C128.291 49.2793 128.076 49.3451 127.887 49.4767C127.704 49.6026 127.57 49.7714 127.484 49.9831L126.566 49.5368C126.657 49.2908 126.8 49.0791 126.995 48.9017C127.195 48.7186 127.43 48.5756 127.699 48.4726C127.967 48.3696 128.259 48.3181 128.574 48.3181C128.957 48.3181 129.295 48.3897 129.587 48.5327C129.878 48.67 130.104 48.8645 130.265 49.1163C130.431 49.3623 130.513 49.6512 130.513 49.9831V53.0898H129.449V52.2917L129.69 52.2745C129.569 52.4748 129.426 52.6436 129.26 52.7809C129.095 52.9125 128.906 53.0155 128.694 53.0898C128.482 53.1585 128.248 53.1928 127.99 53.1928ZM134.102 53.1928C133.764 53.1928 133.452 53.127 133.166 52.9954C132.886 52.8581 132.663 52.6636 132.497 52.4119L132.608 52.1887V53.0898H131.553V46.5931H132.677V49.348L132.505 49.1163C132.665 48.8645 132.883 48.67 133.157 48.5327C133.432 48.3897 133.75 48.3181 134.11 48.3181C134.551 48.3181 134.948 48.4268 135.303 48.6443C135.658 48.8617 135.938 49.1535 136.144 49.5196C136.356 49.8858 136.462 50.2978 136.462 50.7555C136.462 51.2075 136.359 51.6194 136.153 51.9913C135.947 52.3632 135.666 52.6579 135.312 52.8753C134.957 53.087 134.554 53.1928 134.102 53.1928ZM133.973 52.163C134.23 52.163 134.459 52.1029 134.659 51.9827C134.86 51.8626 135.014 51.6967 135.123 51.485C135.237 51.2733 135.294 51.0301 135.294 50.7555C135.294 50.4809 135.237 50.2406 135.123 50.0346C135.014 49.8229 134.86 49.657 134.659 49.5368C134.459 49.4109 134.23 49.348 133.973 49.348C133.727 49.348 133.504 49.4081 133.303 49.5282C133.109 49.6484 132.954 49.8172 132.84 50.0346C132.731 50.2463 132.677 50.4866 132.677 50.7555C132.677 51.0301 132.731 51.2733 132.84 51.485C132.954 51.6967 133.109 51.8626 133.303 51.9827C133.504 52.1029 133.727 52.163 133.973 52.163ZM137.319 53.0898V46.5931H138.443V53.0898H137.319ZM141.695 53.1928C141.215 53.1928 140.794 53.0841 140.434 52.8667C140.073 52.6493 139.793 52.3546 139.593 51.9827C139.392 51.6108 139.292 51.1989 139.292 50.7469C139.292 50.2777 139.392 49.8629 139.593 49.5025C139.799 49.1363 140.076 48.8474 140.425 48.6357C140.78 48.424 141.175 48.3181 141.609 48.3181C141.976 48.3181 142.296 48.3782 142.571 48.4984C142.851 48.6185 143.088 48.7844 143.283 48.9961C143.478 49.2078 143.626 49.451 143.729 49.7256C143.832 49.9945 143.884 50.2863 143.884 50.601C143.884 50.6811 143.878 50.7641 143.867 50.8499C143.861 50.9357 143.847 51.0101 143.824 51.073H140.219V50.2148H143.189L142.656 50.6182C142.708 50.355 142.694 50.1204 142.614 49.9144C142.539 49.7085 142.413 49.5454 142.236 49.4252C142.064 49.3051 141.855 49.245 141.609 49.245C141.375 49.245 141.166 49.3051 140.983 49.4252C140.8 49.5397 140.66 49.7113 140.562 49.9402C140.471 50.1633 140.437 50.4351 140.459 50.7555C140.437 51.0416 140.474 51.2962 140.571 51.5193C140.674 51.7367 140.823 51.9055 141.017 52.0257C141.218 52.1458 141.446 52.2059 141.704 52.2059C141.961 52.2059 142.179 52.1515 142.356 52.0428C142.539 51.9341 142.682 51.7882 142.785 51.6051L143.695 52.0514C143.603 52.2745 143.46 52.4719 143.266 52.6436C143.071 52.8152 142.84 52.9497 142.571 53.0469C142.307 53.1442 142.016 53.1928 141.695 53.1928ZM146.907 53.1928C146.455 53.1928 146.052 53.087 145.697 52.8753C145.342 52.6579 145.062 52.3632 144.856 51.9913C144.65 51.6194 144.547 51.2075 144.547 50.7555C144.547 50.2978 144.65 49.8858 144.856 49.5196C145.062 49.1535 145.342 48.8617 145.697 48.6443C146.058 48.4268 146.458 48.3181 146.899 48.3181C147.253 48.3181 147.568 48.3897 147.843 48.5327C148.123 48.67 148.343 48.8645 148.504 49.1163L148.332 49.348V46.5931H149.456V53.0898H148.392V52.1887L148.512 52.4119C148.352 52.6636 148.129 52.8581 147.843 52.9954C147.557 53.127 147.245 53.1928 146.907 53.1928ZM147.027 52.163C147.285 52.163 147.511 52.1029 147.705 51.9827C147.9 51.8626 148.052 51.6967 148.16 51.485C148.275 51.2733 148.332 51.0301 148.332 50.7555C148.332 50.4866 148.275 50.2463 148.16 50.0346C148.052 49.8172 147.9 49.6484 147.705 49.5282C147.511 49.4081 147.285 49.348 147.027 49.348C146.776 49.348 146.55 49.4109 146.349 49.5368C146.149 49.657 145.992 49.8229 145.877 50.0346C145.769 50.2406 145.714 50.4809 145.714 50.7555C145.714 51.0301 145.769 51.2733 145.877 51.485C145.992 51.6967 146.149 51.8626 146.349 51.9827C146.55 52.1029 146.776 52.163 147.027 52.163Z" fill="#111827"/>
<path d="M30.6419 77.0765C30.3169 77.0765 30.0148 77.017 29.7356 76.898C29.461 76.779 29.223 76.6142 29.0216 76.4037C28.8248 76.1886 28.6806 75.9391 28.5891 75.6553L29.3649 75.3189C29.4885 75.6118 29.667 75.843 29.9004 76.0123C30.1338 76.1771 30.397 76.2595 30.69 76.2595C30.8548 76.2595 30.9966 76.2343 31.1157 76.184C31.2392 76.1291 31.3331 76.0558 31.3971 75.9643C31.4658 75.8727 31.5001 75.7629 31.5001 75.6347C31.5001 75.4837 31.4544 75.3601 31.3628 75.264C31.2759 75.1633 31.1431 75.0855 30.9646 75.0305L29.9828 74.7147C29.5846 74.5911 29.2848 74.4057 29.0834 74.1586C28.882 73.9114 28.7813 73.6208 28.7813 73.2866C28.7813 72.9937 28.8522 72.7351 28.9941 72.5108C29.1406 72.2865 29.342 72.1126 29.5983 71.989C29.8592 71.8608 30.1567 71.7968 30.4909 71.7968C30.7975 71.7968 31.079 71.8517 31.3354 71.9615C31.5917 72.0668 31.8114 72.2156 31.9945 72.4078C32.1821 72.5955 32.3217 72.8175 32.4133 73.0738L31.6443 73.4171C31.5436 73.1608 31.3926 72.9639 31.1912 72.8266C30.9898 72.6847 30.7563 72.6138 30.4909 72.6138C30.3352 72.6138 30.1979 72.6412 30.0789 72.6962C29.9599 72.7465 29.8661 72.8198 29.7974 72.9159C29.7333 73.0074 29.7013 73.1173 29.7013 73.2454C29.7013 73.3873 29.7471 73.5132 29.8386 73.6231C29.9302 73.7283 30.0698 73.8107 30.2574 73.8702L31.198 74.1654C31.6054 74.2982 31.9098 74.4813 32.1112 74.7147C32.3172 74.9481 32.4201 75.2365 32.4201 75.5798C32.4201 75.8727 32.3446 76.1313 32.1936 76.3556C32.0425 76.5799 31.8343 76.7561 31.5688 76.8843C31.3033 77.0124 30.9944 77.0765 30.6419 77.0765ZM33.2609 76.9941V71.8792H35.1696C35.5175 71.8792 35.8242 71.9432 36.0896 72.0714C36.3597 72.195 36.5702 72.3781 36.7213 72.6207C36.8723 72.8587 36.9478 73.1493 36.9478 73.4926C36.9478 73.8313 36.87 74.122 36.7144 74.3646C36.5634 74.6026 36.3551 74.7857 36.0896 74.9138C35.8242 75.042 35.5175 75.1061 35.1696 75.1061H34.1947V76.9941H33.2609ZM34.1947 74.2822H35.1833C35.3527 74.2822 35.4992 74.2501 35.6228 74.186C35.7463 74.1174 35.8425 74.0236 35.9111 73.9045C35.9798 73.7855 36.0141 73.6482 36.0141 73.4926C36.0141 73.3324 35.9798 73.1951 35.9111 73.0807C35.8425 72.9617 35.7463 72.8701 35.6228 72.806C35.4992 72.7374 35.3527 72.703 35.1833 72.703H34.1947V74.2822ZM37.7129 76.9941V71.8792H41.1252V72.703H38.6467V74.1174H40.8163V74.9413H38.6467V76.9941H37.7129Z" fill="#9CA3AF"/>
<path d="M28.9392 89.9941V83.6004H31.3251C31.7599 83.6004 32.1432 83.6805 32.4751 83.8407C32.8126 83.9952 33.0758 84.224 33.2646 84.5273C33.4534 84.8248 33.5478 85.1881 33.5478 85.6172C33.5478 86.0406 33.4506 86.4039 33.2561 86.7072C33.0672 87.0047 32.8069 87.2335 32.4751 87.3937C32.1432 87.5539 31.7599 87.634 31.3251 87.634H30.1064V89.9941H28.9392ZM30.1064 86.6042H31.3422C31.5539 86.6042 31.737 86.5641 31.8915 86.484C32.046 86.3982 32.1661 86.2809 32.2519 86.1322C32.3378 85.9834 32.3807 85.8117 32.3807 85.6172C32.3807 85.417 32.3378 85.2453 32.2519 85.1023C32.1661 84.9535 32.046 84.8391 31.8915 84.759C31.737 84.6732 31.5539 84.6303 31.3422 84.6303H30.1064V86.6042ZM34.4098 89.9941V85.3254H35.4654V86.3639L35.3796 86.2094C35.4883 85.8604 35.6571 85.6172 35.886 85.4799C36.1205 85.3426 36.4009 85.2739 36.727 85.2739H37.0016V86.2695H36.5983C36.2779 86.2695 36.0204 86.3696 35.8259 86.5698C35.6314 86.7644 35.5341 87.039 35.5341 87.3937V89.9941H34.4098ZM39.9026 90.0971C39.4449 90.0971 39.0272 89.9913 38.6496 89.7796C38.2777 89.5679 37.9802 89.279 37.7571 88.9128C37.5397 88.5466 37.431 88.1289 37.431 87.6598C37.431 87.1906 37.5397 86.773 37.7571 86.4068C37.9802 86.0406 38.2777 85.7517 38.6496 85.54C39.0215 85.3283 39.4392 85.2224 39.9026 85.2224C40.3603 85.2224 40.7752 85.3283 41.147 85.54C41.5189 85.7517 41.8136 86.0406 42.031 86.4068C42.2542 86.7672 42.3657 87.1849 42.3657 87.6598C42.3657 88.1289 42.2542 88.5466 42.031 88.9128C41.8079 89.279 41.5104 89.5679 41.1385 89.7796C40.7666 89.9913 40.3546 90.0971 39.9026 90.0971ZM39.9026 89.0673C40.1544 89.0673 40.3747 89.0072 40.5635 88.887C40.758 88.7669 40.9096 88.601 41.0183 88.3893C41.1327 88.1719 41.19 87.9287 41.19 87.6598C41.19 87.3852 41.1327 87.1449 41.0183 86.9389C40.9096 86.7272 40.758 86.5613 40.5635 86.4411C40.3747 86.3152 40.1544 86.2523 39.9026 86.2523C39.6452 86.2523 39.4192 86.3152 39.2246 86.4411C39.0301 86.5613 38.8756 86.7272 38.7612 86.9389C38.6525 87.1449 38.5981 87.3852 38.5981 87.6598C38.5981 87.9287 38.6525 88.1719 38.7612 88.3893C38.8756 88.601 39.0301 88.7669 39.2246 88.887C39.4192 89.0072 39.6452 89.0673 39.9026 89.0673ZM45.2629 90.0456C44.7365 90.0456 44.3274 89.9026 44.0356 89.6165C43.7496 89.3247 43.6065 88.9156 43.6065 88.3893V86.3295H42.7998V85.3254H42.8856C43.1145 85.3254 43.2918 85.2653 43.4177 85.1452C43.5436 85.025 43.6065 84.8505 43.6065 84.6217V84.2612H44.7308V85.3254H45.8036V86.3295H44.7308V88.3292C44.7308 88.4837 44.7565 88.6153 44.808 88.724C44.8652 88.8327 44.9511 88.9156 45.0655 88.9729C45.1856 89.0301 45.3373 89.0587 45.5203 89.0587C45.5604 89.0587 45.6062 89.0558 45.6577 89.0501C45.7149 89.0444 45.7692 89.0387 45.8207 89.0329V89.9941C45.7406 90.0056 45.6491 90.017 45.5461 90.0285C45.4431 90.0399 45.3487 90.0456 45.2629 90.0456ZM48.852 90.0971C48.3714 90.0971 47.9509 89.9884 47.5904 89.771C47.2299 89.5536 46.9496 89.2589 46.7493 88.887C46.5491 88.5151 46.449 88.1032 46.449 87.6512C46.449 87.182 46.5491 86.7672 46.7493 86.4068C46.9553 86.0406 47.2328 85.7517 47.5818 85.54C47.9365 85.3283 48.3313 85.2224 48.7662 85.2224C49.1323 85.2224 49.4527 85.2825 49.7274 85.4027C50.0077 85.5228 50.2452 85.6887 50.4397 85.9004C50.6342 86.1121 50.783 86.3553 50.886 86.6299C50.9889 86.8988 51.0404 87.1906 51.0404 87.5053C51.0404 87.5854 51.0347 87.6684 51.0233 87.7542C51.0176 87.84 51.0033 87.9144 50.9804 87.9773H47.3758V87.1191H50.3453L49.8132 87.5225C49.8647 87.2593 49.8504 87.0247 49.7703 86.8187C49.6959 86.6128 49.57 86.4497 49.3927 86.3295C49.221 86.2094 49.0122 86.1493 48.7662 86.1493C48.5316 86.1493 48.3227 86.2094 48.1397 86.3295C47.9566 86.444 47.8164 86.6156 47.7191 86.8445C47.6276 87.0676 47.5933 87.3394 47.6161 87.6598C47.5933 87.9459 47.6304 88.2005 47.7277 88.4236C47.8307 88.641 47.9795 88.8098 48.174 88.9299C48.3742 89.0501 48.6031 89.1102 48.8606 89.1102C49.118 89.1102 49.3354 89.0558 49.5128 88.9471C49.6959 88.8384 49.8389 88.6925 49.9419 88.5094L50.8516 88.9557C50.7601 89.1788 50.6171 89.3762 50.4225 89.5479C50.228 89.7195 49.9963 89.854 49.7274 89.9512C49.4642 90.0485 49.1724 90.0971 48.852 90.0971ZM54.1412 90.0971C53.6778 90.0971 53.2601 89.9913 52.8882 89.7796C52.5221 89.5622 52.2331 89.2704 52.0214 88.9042C51.8097 88.5323 51.7039 88.1146 51.7039 87.6512C51.7039 87.1878 51.8097 86.773 52.0214 86.4068C52.2331 86.0406 52.5221 85.7517 52.8882 85.54C53.2601 85.3283 53.6778 85.2224 54.1412 85.2224C54.4731 85.2224 54.782 85.2825 55.0681 85.4027C55.3542 85.5171 55.6002 85.6773 55.8062 85.8833C56.0179 86.0835 56.1695 86.3238 56.261 86.6042L55.2741 87.0333C55.1883 86.7987 55.0424 86.6099 54.8364 86.4669C54.6361 86.3238 54.4044 86.2523 54.1412 86.2523C53.8952 86.2523 53.6749 86.3124 53.4804 86.4325C53.2916 86.5527 53.1428 86.7186 53.0341 86.9303C52.9254 87.142 52.8711 87.3852 52.8711 87.6598C52.8711 87.9344 52.9254 88.1776 53.0341 88.3893C53.1428 88.601 53.2916 88.7669 53.4804 88.887C53.6749 89.0072 53.8952 89.0673 54.1412 89.0673C54.4101 89.0673 54.6447 88.9957 54.845 88.8527C55.0452 88.7097 55.1883 88.518 55.2741 88.2777L56.261 88.724C56.1695 88.9872 56.0207 89.2246 55.8148 89.4363C55.6088 89.6423 55.3628 89.8053 55.0767 89.9255C54.7906 90.0399 54.4788 90.0971 54.1412 90.0971ZM59.2425 90.0456C58.7161 90.0456 58.307 89.9026 58.0152 89.6165C57.7291 89.3247 57.5861 88.9156 57.5861 88.3893V86.3295H56.7794V85.3254H56.8652C57.0941 85.3254 57.2714 85.2653 57.3973 85.1452C57.5232 85.025 57.5861 84.8505 57.5861 84.6217V84.2612H58.7104V85.3254H59.7832V86.3295H58.7104V88.3292C58.7104 88.4837 58.7361 88.6153 58.7876 88.724C58.8448 88.8327 58.9307 88.9156 59.0451 88.9729C59.1652 89.0301 59.3169 89.0587 59.4999 89.0587C59.54 89.0587 59.5858 89.0558 59.6373 89.0501C59.6945 89.0444 59.7488 89.0387 59.8003 89.0329V89.9941C59.7202 90.0056 59.6287 90.017 59.5257 90.0285C59.4227 90.0399 59.3283 90.0456 59.2425 90.0456ZM62.8316 90.0971C62.351 90.0971 61.9304 89.9884 61.57 89.771C61.2095 89.5536 60.9292 89.2589 60.7289 88.887C60.5287 88.5151 60.4286 88.1032 60.4286 87.6512C60.4286 87.182 60.5287 86.7672 60.7289 86.4068C60.9349 86.0406 61.2124 85.7517 61.5614 85.54C61.9161 85.3283 62.3109 85.2224 62.7458 85.2224C63.1119 85.2224 63.4323 85.2825 63.707 85.4027C63.9873 85.5228 64.2248 85.6887 64.4193 85.9004C64.6138 86.1121 64.7626 86.3553 64.8656 86.6299C64.9685 86.8988 65.02 87.1906 65.02 87.5053C65.02 87.5854 65.0143 87.6684 65.0029 87.7542C64.9972 87.84 64.9828 87.9144 64.96 87.9773H61.3554V87.1191H64.3249L63.7928 87.5225C63.8443 87.2593 63.83 87.0247 63.7499 86.8187C63.6755 86.6128 63.5496 86.4497 63.3723 86.3295C63.2006 86.2094 62.9918 86.1493 62.7458 86.1493C62.5112 86.1493 62.3023 86.2094 62.1193 86.3295C61.9362 86.444 61.796 86.6156 61.6987 86.8445C61.6072 87.0676 61.5729 87.3394 61.5957 87.6598C61.5729 87.9459 61.61 88.2005 61.7073 88.4236C61.8103 88.641 61.9591 88.8098 62.1536 88.9299C62.3538 89.0501 62.5827 89.1102 62.8402 89.1102C63.0976 89.1102 63.315 89.0558 63.4924 88.9471C63.6755 88.8384 63.8185 88.6925 63.9215 88.5094L64.8312 88.9557C64.7397 89.1788 64.5966 89.3762 64.4021 89.5479C64.2076 89.7195 63.9759 89.854 63.707 89.9512C63.4438 90.0485 63.152 90.0971 62.8316 90.0971ZM68.0436 90.0971C67.5916 90.0971 67.1882 89.9913 66.8335 89.7796C66.4788 89.5622 66.1984 89.2675 65.9924 88.8956C65.7865 88.5237 65.6835 88.1118 65.6835 87.6598C65.6835 87.2021 65.7865 86.7901 65.9924 86.4239C66.1984 86.0578 66.4788 85.766 66.8335 85.5486C67.194 85.3311 67.5945 85.2224 68.035 85.2224C68.3897 85.2224 68.7044 85.294 68.979 85.437C69.2594 85.5743 69.4797 85.7688 69.6399 86.0206L69.4682 86.2523V83.4974H70.5925V89.9941H69.5283V89.093L69.6485 89.3161C69.4883 89.5679 69.2651 89.7624 68.979 89.8997C68.693 90.0313 68.3812 90.0971 68.0436 90.0971ZM68.1637 89.0673C68.4212 89.0673 68.6472 89.0072 68.8417 88.887C69.0363 88.7669 69.1879 88.601 69.2966 88.3893C69.411 88.1776 69.4682 87.9344 69.4682 87.6598C69.4682 87.3909 69.411 87.1506 69.2966 86.9389C69.1879 86.7215 69.0363 86.5527 68.8417 86.4325C68.6472 86.3124 68.4212 86.2523 68.1637 86.2523C67.912 86.2523 67.686 86.3152 67.4857 86.4411C67.2855 86.5613 67.1282 86.7272 67.0137 86.9389C66.905 87.1449 66.8507 87.3852 66.8507 87.6598C66.8507 87.9344 66.905 88.1776 67.0137 88.3893C67.1282 88.601 67.2855 88.7669 67.4857 88.887C67.686 89.0072 67.912 89.0673 68.1637 89.0673Z" fill="#111827"/>
<path d="M116.354 76.9941V71.8792H118.256C118.603 71.8792 118.91 71.9432 119.176 72.0714C119.446 72.195 119.656 72.3781 119.807 72.6207C119.958 72.8587 120.034 73.1493 120.034 73.4926C120.034 73.845 119.949 74.1449 119.78 74.392C119.615 74.6392 119.391 74.8223 119.107 74.9413L120.281 76.9941H119.224L117.967 74.749L118.571 75.1061H117.287V76.9941H116.354ZM117.287 74.2822H118.269C118.439 74.2822 118.585 74.2501 118.709 74.186C118.832 74.1174 118.928 74.0236 118.997 73.9045C119.066 73.7855 119.1 73.6482 119.1 73.4926C119.1 73.3324 119.066 73.1951 118.997 73.0807C118.928 72.9617 118.832 72.8701 118.709 72.806C118.585 72.7374 118.439 72.703 118.269 72.703H117.287V74.2822ZM120.893 76.9941V71.8792H124.291V72.703H121.827V74.0144H124.154V74.8383H121.827V76.1702H124.291V76.9941H120.893ZM124.976 76.9941V71.8792H126.885C127.233 71.8792 127.539 71.9432 127.805 72.0714C128.075 72.195 128.285 72.3781 128.436 72.6207C128.588 72.8587 128.663 73.1493 128.663 73.4926C128.663 73.8313 128.585 74.122 128.43 74.3646C128.279 74.6026 128.07 74.7857 127.805 74.9138C127.539 75.042 127.233 75.1061 126.885 75.1061H125.91V76.9941H124.976ZM125.91 74.2822H126.899C127.068 74.2822 127.214 74.2501 127.338 74.186C127.462 74.1174 127.558 74.0236 127.626 73.9045C127.695 73.7855 127.729 73.6482 127.729 73.4926C127.729 73.3324 127.695 73.1951 127.626 73.0807C127.558 72.9617 127.462 72.8701 127.338 72.806C127.214 72.7374 127.068 72.703 126.899 72.703H125.91V74.2822ZM131.399 77.0765C131.005 77.0765 130.655 76.9941 130.348 76.8294C130.046 76.6646 129.808 76.438 129.634 76.1497C129.46 75.8613 129.373 75.534 129.373 75.1678V71.8792H130.307V75.1198C130.307 75.3303 130.353 75.5203 130.444 75.6896C130.54 75.859 130.671 75.9917 130.836 76.0879C131 76.1794 131.188 76.2252 131.399 76.2252C131.614 76.2252 131.801 76.1794 131.962 76.0879C132.126 75.9917 132.255 75.859 132.346 75.6896C132.442 75.5203 132.49 75.3303 132.49 75.1198V71.8792H133.424V75.1678C133.424 75.534 133.337 75.8613 133.163 76.1497C132.989 76.438 132.749 76.6646 132.442 76.8294C132.14 76.9941 131.792 77.0765 131.399 77.0765ZM135.262 76.9941V72.703H133.937V71.8792H137.508V72.703H136.203V76.9941H135.262ZM137.317 76.9941L139.081 71.8792H140.29L142.054 76.9941H141.038L140.674 75.8956H138.697L138.326 76.9941H137.317ZM138.964 75.0717H140.406L139.555 72.5245H139.816L138.964 75.0717ZM143.188 76.9941V72.703H141.863V71.8792H145.433V72.703H144.128V76.9941H143.188ZM146.003 76.9941V71.8792H146.936V76.9941H146.003ZM150.44 77.0765C150.065 77.0765 149.714 77.0102 149.389 76.8774C149.064 76.7447 148.781 76.5593 148.538 76.3213C148.295 76.0833 148.105 75.8041 147.968 75.4837C147.835 75.1587 147.769 74.8085 147.769 74.4332C147.769 74.0533 147.835 73.7032 147.968 73.3828C148.101 73.0623 148.289 72.7831 148.531 72.5451C148.774 72.3071 149.058 72.124 149.383 71.9959C149.707 71.8631 150.06 71.7968 150.44 71.7968C150.82 71.7968 151.172 71.8631 151.497 71.9959C151.822 72.1286 152.106 72.314 152.349 72.552C152.591 72.7854 152.779 73.0623 152.912 73.3828C153.049 73.7032 153.117 74.0533 153.117 74.4332C153.117 74.8085 153.049 75.1587 152.912 75.4837C152.774 75.8041 152.584 76.0833 152.342 76.3213C152.099 76.5593 151.815 76.7447 151.49 76.8774C151.17 77.0102 150.82 77.0765 150.44 77.0765ZM150.44 76.2252C150.692 76.2252 150.923 76.1817 151.133 76.0947C151.344 76.0032 151.527 75.8773 151.683 75.7171C151.843 75.5569 151.964 75.367 152.046 75.1473C152.133 74.9275 152.177 74.6895 152.177 74.4332C152.177 74.1769 152.133 73.9412 152.046 73.726C151.964 73.5063 151.843 73.3164 151.683 73.1562C151.527 72.9914 151.344 72.8655 151.133 72.7786C150.923 72.6916 150.692 72.6481 150.44 72.6481C150.193 72.6481 149.964 72.6916 149.753 72.7786C149.543 72.8655 149.357 72.9914 149.197 73.1562C149.042 73.3164 148.92 73.5063 148.833 73.726C148.746 73.9412 148.703 74.1769 148.703 74.4332C148.703 74.6895 148.746 74.9275 148.833 75.1473C148.92 75.367 149.042 75.5569 149.197 75.7171C149.357 75.8773 149.543 76.0032 149.753 76.0947C149.964 76.1817 150.193 76.2252 150.44 76.2252ZM153.948 76.9941V71.8792H154.676L157.49 75.669L157.113 75.7446V71.8792H158.047V76.9941H157.312L154.538 73.1768L154.882 73.1013V76.9941H153.948Z" fill="#9CA3AF"/>
<path d="M116.477 89.9941V83.6004H120.725V84.6303H117.644V86.2695H120.554V87.2993H117.644V88.9643H120.725V89.9941H116.477ZM121.066 89.9941L122.697 87.6512L121.058 85.3254H122.379L123.658 87.2135H123.066L124.345 85.3254H125.658L124.027 87.6512L125.649 89.9941H124.336L123.075 88.1146H123.65L122.388 89.9941H121.066ZM128.353 90.0971C127.89 90.0971 127.472 89.9913 127.1 89.7796C126.734 89.5622 126.445 89.2704 126.234 88.9042C126.022 88.5323 125.916 88.1146 125.916 87.6512C125.916 87.1878 126.022 86.773 126.234 86.4068C126.445 86.0406 126.734 85.7517 127.1 85.54C127.472 85.3283 127.89 85.2224 128.353 85.2224C128.685 85.2224 128.994 85.2825 129.28 85.4027C129.566 85.5171 129.812 85.6773 130.018 85.8833C130.23 86.0835 130.382 86.3238 130.473 86.6042L129.486 87.0333C129.4 86.7987 129.255 86.6099 129.049 86.4669C128.848 86.3238 128.617 86.2523 128.353 86.2523C128.107 86.2523 127.887 86.3124 127.693 86.4325C127.504 86.5527 127.355 86.7186 127.246 86.9303C127.138 87.142 127.083 87.3852 127.083 87.6598C127.083 87.9344 127.138 88.1776 127.246 88.3893C127.355 88.601 127.504 88.7669 127.693 88.887C127.887 89.0072 128.107 89.0673 128.353 89.0673C128.622 89.0673 128.857 88.9957 129.057 88.8527C129.257 88.7097 129.4 88.518 129.486 88.2777L130.473 88.724C130.382 88.9872 130.233 89.2246 130.027 89.4363C129.821 89.6423 129.575 89.8053 129.289 89.9255C129.003 90.0399 128.691 90.0971 128.353 90.0971ZM133.541 90.0971C133.06 90.0971 132.639 89.9884 132.279 89.771C131.918 89.5536 131.638 89.2589 131.438 88.887C131.238 88.5151 131.137 88.1032 131.137 87.6512C131.137 87.182 131.238 86.7672 131.438 86.4068C131.644 86.0406 131.921 85.7517 132.27 85.54C132.625 85.3283 133.02 85.2224 133.455 85.2224C133.821 85.2224 134.141 85.2825 134.416 85.4027C134.696 85.5228 134.934 85.6887 135.128 85.9004C135.323 86.1121 135.472 86.3553 135.574 86.6299C135.677 86.8988 135.729 87.1906 135.729 87.5053C135.729 87.5854 135.723 87.6684 135.712 87.7542C135.706 87.84 135.692 87.9144 135.669 87.9773H132.064V87.1191H135.034L134.502 87.5225C134.553 87.2593 134.539 87.0247 134.459 86.8187C134.384 86.6128 134.259 86.4497 134.081 86.3295C133.91 86.2094 133.701 86.1493 133.455 86.1493C133.22 86.1493 133.011 86.2094 132.828 86.3295C132.645 86.444 132.505 86.6156 132.408 86.8445C132.316 87.0676 132.282 87.3394 132.305 87.6598C132.282 87.9459 132.319 88.2005 132.416 88.4236C132.519 88.641 132.668 88.8098 132.863 88.9299C133.063 89.0501 133.292 89.1102 133.549 89.1102C133.807 89.1102 134.024 89.0558 134.201 88.9471C134.384 88.8384 134.527 88.6925 134.63 88.5094L135.54 88.9557C135.449 89.1788 135.306 89.3762 135.111 89.5479C134.917 89.7195 134.685 89.854 134.416 89.9512C134.153 90.0485 133.861 90.0971 133.541 90.0971ZM136.581 89.9941V83.4974H137.705V89.9941H136.581ZM138.744 89.9941V83.4974H139.868V89.9941H138.744ZM143.12 90.0971C142.639 90.0971 142.219 89.9884 141.858 89.771C141.498 89.5536 141.218 89.2589 141.017 88.887C140.817 88.5151 140.717 88.1032 140.717 87.6512C140.717 87.182 140.817 86.7672 141.017 86.4068C141.223 86.0406 141.501 85.7517 141.85 85.54C142.205 85.3283 142.599 85.2224 143.034 85.2224C143.4 85.2224 143.721 85.2825 143.995 85.4027C144.276 85.5228 144.513 85.6887 144.708 85.9004C144.902 86.1121 145.051 86.3553 145.154 86.6299C145.257 86.8988 145.309 87.1906 145.309 87.5053C145.309 87.5854 145.303 87.6684 145.291 87.7542C145.286 87.84 145.271 87.9144 145.248 87.9773H141.644V87.1191H144.613L144.081 87.5225C144.133 87.2593 144.118 87.0247 144.038 86.8187C143.964 86.6128 143.838 86.4497 143.661 86.3295C143.489 86.2094 143.28 86.1493 143.034 86.1493C142.8 86.1493 142.591 86.2094 142.408 86.3295C142.225 86.444 142.084 86.6156 141.987 86.8445C141.896 87.0676 141.861 87.3394 141.884 87.6598C141.861 87.9459 141.899 88.2005 141.996 88.4236C142.099 88.641 142.248 88.8098 142.442 88.9299C142.642 89.0501 142.871 89.1102 143.129 89.1102C143.386 89.1102 143.604 89.0558 143.781 88.9471C143.964 88.8384 144.107 88.6925 144.21 88.5094L145.12 88.9557C145.028 89.1788 144.885 89.3762 144.691 89.5479C144.496 89.7195 144.264 89.854 143.995 89.9512C143.732 90.0485 143.44 90.0971 143.12 90.0971ZM146.161 89.9941V85.3254H147.216V86.2437L147.131 86.0807C147.239 85.8003 147.417 85.5886 147.663 85.4456C147.914 85.2968 148.206 85.2224 148.538 85.2224C148.881 85.2224 149.185 85.2968 149.448 85.4456C149.717 85.5943 149.925 85.8032 150.074 86.0721C150.223 86.3353 150.297 86.6414 150.297 86.9904V89.9941H149.173V87.2564C149.173 87.0504 149.133 86.8731 149.053 86.7243C148.973 86.5756 148.861 86.4611 148.718 86.381C148.581 86.2952 148.418 86.2523 148.229 86.2523C148.046 86.2523 147.883 86.2952 147.74 86.381C147.597 86.4611 147.485 86.5756 147.405 86.7243C147.325 86.8731 147.285 87.0504 147.285 87.2564V89.9941H146.161ZM153.376 90.0456C152.85 90.0456 152.441 89.9026 152.149 89.6165C151.863 89.3247 151.72 88.9156 151.72 88.3893V86.3295H150.913V85.3254H150.999C151.228 85.3254 151.405 85.2653 151.531 85.1452C151.657 85.025 151.72 84.8505 151.72 84.6217V84.2612H152.844V85.3254H153.917V86.3295H152.844V88.3292C152.844 88.4837 152.87 88.6153 152.922 88.724C152.979 88.8327 153.065 88.9156 153.179 88.9729C153.299 89.0301 153.451 89.0587 153.634 89.0587C153.674 89.0587 153.72 89.0558 153.771 89.0501C153.828 89.0444 153.883 89.0387 153.934 89.0329V89.9941C153.854 90.0056 153.763 90.017 153.66 90.0285C153.557 90.0399 153.462 90.0456 153.376 90.0456Z" fill="#10B981"/>
</g>
<defs>
<filter id="filter0_d_528_4437" x="12.015" y="16.6418" width="206.97" height="135.433" filterUnits="userSpaceOnUse" color-interpolation-filters="sRGB">
<feFlood flood-opacity="0" result="BackgroundImageFix"/>
<feColorMatrix in="SourceAlpha" type="matrix" values="0 0 0 0 0 0 0 0 0 0 0 0 0 0 0 0 0 0 127 0" result="hardAlpha"/>
<feOffset dy="0.85822"/>
<feGaussianBlur stdDeviation="0.85822"/>
<feComposite in2="hardAlpha" operator="out"/>
<feColorMatrix type="matrix" values="0 0 0 0 0 0 0 0 0 0 0 0 0 0 0 0 0 0 0.05 0"/>
<feBlend mode="normal" in2="BackgroundImageFix" result="effect1_dropShadow_528_4437"/>
<feBlend mode="normal" in="SourceGraphic" in2="effect1_dropShadow_528_4437" result="shape"/>
</filter>
</defs>
</svg>
