<svg width="21" height="25" viewBox="0 0 21 25" fill="none" xmlns="http://www.w3.org/2000/svg">
<path d="M10.3069 20.3574C8.3739 19.8707 6.77814 18.7617 5.51962 17.0303C4.2611 15.299 3.63184 13.3764 3.63184 11.2627V6.17296L10.3069 3.66982L16.9819 6.17296V11.2627C16.9819 13.3764 16.3527 15.299 15.0941 17.0303C13.8356 18.7617 12.2399 19.8707 10.3069 20.3574ZM10.3069 18.6052C11.6558 18.188 12.7822 17.3641 13.6861 16.1334C14.59 14.9027 15.1185 13.5294 15.2714 12.0136H10.3069V5.44287L5.3006 7.32023V11.2627C5.3006 11.4156 5.3006 11.5408 5.3006 11.6381C5.3006 11.7355 5.3145 11.8606 5.34232 12.0136H10.3069V18.6052Z" fill="#581ADF"/>
</svg>
