<svg width="21" height="25" viewBox="0 0 21 25" fill="none" xmlns="http://www.w3.org/2000/svg">
<path d="M10.3079 20.3594C8.37487 19.8727 6.77912 18.7636 5.5206 17.0323C4.26207 15.3009 3.63281 13.3784 3.63281 11.2646V6.17491L10.3079 3.67177L16.9829 6.17491V11.2646C16.9829 13.3784 16.3536 15.3009 15.0951 17.0323C13.8366 18.7636 12.2408 19.8727 10.3079 20.3594ZM10.3079 18.6072C11.6568 18.19 12.7832 17.366 13.6871 16.1353C14.591 14.9046 15.1194 13.5314 15.2724 12.0156H10.3079V5.44483L5.30157 7.32218V11.2646C5.30157 11.4176 5.30157 11.5428 5.30157 11.6401C5.30157 11.7374 5.31548 11.8626 5.34329 12.0156H10.3079V18.6072Z" fill="#5550FF"/>
</svg>
