<svg width="32" height="32" viewBox="0 0 32 32" fill="none" xmlns="http://www.w3.org/2000/svg">
<mask id="path-1-inside-1_4022_237" fill="white">
<path d="M0 16C0 7.16344 7.16344 0 16 0C24.8366 0 32 7.16344 32 16C32 24.8366 24.8366 32 16 32C7.16344 32 0 24.8366 0 16Z"/>
</mask>
<path d="M0 16C0 7.16344 7.16344 0 16 0C24.8366 0 32 7.16344 32 16C32 24.8366 24.8366 32 16 32C7.16344 32 0 24.8366 0 16Z" fill="white"/>
<path d="M16 32V31C7.71573 31 1 24.2843 1 16H0H-1C-1 25.3888 6.61116 33 16 33V32ZM32 16H31C31 24.2843 24.2843 31 16 31V32V33C25.3888 33 33 25.3888 33 16H32ZM16 0V1C24.2843 1 31 7.71573 31 16H32H33C33 6.61116 25.3888 -1 16 -1V0ZM16 0V-1C6.61116 -1 -1 6.61116 -1 16H0H1C1 7.71573 7.71573 1 16 1V0Z" fill="#E2E8F0" mask="url(#path-1-inside-1_4022_237)"/>
<path d="M16 11.3242L15.1797 12.1445L18.4336 15.4258H11.3242V16.5742H18.4336L15.1797 19.8555L16 20.6758L20.6758 16L16 11.3242Z" fill="#94A3B8"/>
</svg>
