<svg width="48" height="48" viewBox="0 0 48 48" fill="none" xmlns="http://www.w3.org/2000/svg">
<rect width="48" height="48" rx="12" fill="#5550FF" fill-opacity="0.1"/>
<path d="M28.9375 36.5L23.625 31.1875L25.375 29.4375L28.9375 33L36 25.9375L37.75 27.6875L28.9375 36.5ZM24 22.75L34 16.5H14L24 22.75ZM24 25.25L14 19V31.5H20.4375L22.9375 34H14C13.3125 34 12.724 33.7552 12.2344 33.2656C11.7448 32.776 11.5 32.1875 11.5 31.5V16.5C11.5 15.8125 11.7448 15.224 12.2344 14.7344C12.724 14.2448 13.3125 14 14 14H34C34.6875 14 35.276 14.2448 35.7656 14.7344C36.2552 15.224 36.5 15.8125 36.5 16.5V21.9375L34 24.4375V19L24 25.25Z" fill="#5550FF"/>
</svg>
