<svg width="560" height="235" viewBox="0 0 560 235" fill="none" xmlns="http://www.w3.org/2000/svg">
<rect width="559.559" height="221.689" rx="20.5973" fill="#6366F1" fill-opacity="0.1"/>
<g filter="url(#filter0_d_528_4346)">
<mask id="path-2-inside-1_528_4346" fill="white">
<path d="M41.1943 54.9268C41.1943 47.3431 47.3421 41.1953 54.9259 41.1953H504.633C512.217 41.1953 518.365 47.3431 518.365 54.9268V166.764C518.365 174.348 512.217 180.495 504.633 180.495H54.9259C47.3422 180.495 41.1943 174.348 41.1943 166.764V54.9268Z"/>
</mask>
<path d="M41.1943 54.9268C41.1943 47.3431 47.3421 41.1953 54.9259 41.1953H504.633C512.217 41.1953 518.365 47.3431 518.365 54.9268V166.764C518.365 174.348 512.217 180.495 504.633 180.495H54.9259C47.3422 180.495 41.1943 174.348 41.1943 166.764V54.9268Z" fill="white"/>
<path d="M54.9259 41.1953V42.0535H504.633V41.1953V40.3371H54.9259V41.1953ZM518.365 54.9268H517.506V166.764H518.365H519.223V54.9268H518.365ZM504.633 180.495V179.637H54.9259V180.495V181.354H504.633V180.495ZM41.1943 166.764H42.0526V54.9268H41.1943H40.3361V166.764H41.1943ZM54.9259 180.495V179.637C47.8161 179.637 42.0526 173.874 42.0526 166.764H41.1943H40.3361C40.3361 174.822 46.8682 181.354 54.9259 181.354V180.495ZM518.365 166.764H517.506C517.506 173.874 511.743 179.637 504.633 179.637V180.495V181.354C512.691 181.354 519.223 174.822 519.223 166.764H518.365ZM504.633 41.1953V42.0535C511.743 42.0535 517.506 47.8171 517.506 54.9268H518.365H519.223C519.223 46.8691 512.691 40.3371 504.633 40.3371V41.1953ZM54.9259 41.1953V40.3371C46.8682 40.3371 40.3361 46.8691 40.3361 54.9268H41.1943H42.0526C42.0526 47.8171 47.8161 42.0535 54.9259 42.0535V41.1953Z" fill="#E5E7EB" mask="url(#path-2-inside-1_528_4346)"/>
<rect x="62.6494" y="62.6504" width="41.1945" height="41.1945" rx="10.2986" fill="#6366F1" fill-opacity="0.1"/>
<path d="M79.0748 87.4183H80.7436V83.2464H79.0748V87.4183ZM85.7499 87.4183H87.4186V79.0745H85.7499V87.4183ZM82.4123 87.4183H84.0811V84.9152H82.4123V87.4183ZM82.4123 83.2464H84.0811V81.5777H82.4123V83.2464ZM77.4061 90.7559C76.9472 90.7559 76.5543 90.5925 76.2275 90.2657C75.9007 89.9389 75.7373 89.546 75.7373 89.0871V77.4058C75.7373 76.9469 75.9007 76.554 76.2275 76.2272C76.5543 75.9004 76.9472 75.737 77.4061 75.737H89.0874C89.5463 75.737 89.9392 75.9004 90.266 76.2272C90.5928 76.554 90.7562 76.9469 90.7562 77.4058V89.0871C90.7562 89.546 90.5928 89.9389 90.266 90.2657C89.9392 90.5925 89.5463 90.7559 89.0874 90.7559H77.4061ZM77.4061 89.0871H89.0874V77.4058H77.4061V89.0871Z" fill="#6366F1"/>
<path d="M121.303 70.516V81.748H118.567V70.516H121.303ZM128.726 72.724C129.771 72.724 130.603 73.0654 131.222 73.748C131.851 74.42 132.166 75.348 132.166 76.532V81.748H129.446V76.9C129.446 76.3027 129.291 75.8387 128.982 75.508C128.673 75.1774 128.257 75.012 127.734 75.012C127.211 75.012 126.795 75.1774 126.486 75.508C126.177 75.8387 126.022 76.3027 126.022 76.9V81.748H123.286V72.82H126.022V74.004C126.299 73.6094 126.673 73.3 127.142 73.076C127.611 72.8414 128.139 72.724 128.726 72.724ZM138.547 75.092H137.075V81.748H134.339V75.092H133.347V72.82H134.339V72.564C134.339 71.4654 134.654 70.6334 135.283 70.068C135.913 69.492 136.835 69.204 138.051 69.204C138.254 69.204 138.403 69.2094 138.499 69.22V71.54C137.977 71.508 137.609 71.5827 137.395 71.764C137.182 71.9454 137.075 72.2707 137.075 72.74V72.82H138.547V75.092ZM142.569 74.308C142.889 73.8174 143.289 73.4334 143.769 73.156C144.249 72.868 144.782 72.724 145.369 72.724V75.62H144.617C143.934 75.62 143.422 75.7694 143.081 76.068C142.739 76.356 142.569 76.868 142.569 77.604V81.748H139.833V72.82H142.569V74.308ZM146.133 77.268C146.133 76.3507 146.303 75.5454 146.645 74.852C146.997 74.1587 147.471 73.6254 148.069 73.252C148.666 72.8787 149.333 72.692 150.069 72.692C150.698 72.692 151.247 72.82 151.717 73.076C152.197 73.332 152.565 73.668 152.821 74.084V72.82H155.557V81.748H152.821V80.484C152.554 80.9 152.181 81.236 151.701 81.492C151.231 81.748 150.682 81.876 150.053 81.876C149.327 81.876 148.666 81.6894 148.069 81.316C147.471 80.932 146.997 80.3934 146.645 79.7C146.303 78.996 146.133 78.1854 146.133 77.268ZM152.821 77.284C152.821 76.6014 152.629 76.0627 152.245 75.668C151.871 75.2734 151.413 75.076 150.869 75.076C150.325 75.076 149.861 75.2734 149.477 75.668C149.103 76.052 148.917 76.5854 148.917 77.268C148.917 77.9507 149.103 78.4947 149.477 78.9C149.861 79.2947 150.325 79.492 150.869 79.492C151.413 79.492 151.871 79.2947 152.245 78.9C152.629 78.5054 152.821 77.9667 152.821 77.284ZM161.168 81.876C160.389 81.876 159.696 81.7427 159.088 81.476C158.48 81.2094 158 80.8467 157.648 80.388C157.296 79.9187 157.099 79.396 157.056 78.82H159.76C159.792 79.1294 159.936 79.38 160.192 79.572C160.448 79.764 160.763 79.86 161.136 79.86C161.477 79.86 161.739 79.796 161.92 79.668C162.112 79.5294 162.208 79.3534 162.208 79.14C162.208 78.884 162.075 78.6974 161.808 78.58C161.541 78.452 161.109 78.3134 160.512 78.164C159.872 78.0147 159.339 77.86 158.912 77.7C158.485 77.5294 158.117 77.268 157.808 76.916C157.499 76.5534 157.344 76.068 157.344 75.46C157.344 74.948 157.483 74.484 157.76 74.068C158.048 73.6414 158.464 73.3054 159.008 73.06C159.563 72.8147 160.219 72.692 160.976 72.692C162.096 72.692 162.976 72.9694 163.616 73.524C164.267 74.0787 164.64 74.8147 164.736 75.732H162.208C162.165 75.4227 162.027 75.1774 161.792 74.996C161.568 74.8147 161.269 74.724 160.896 74.724C160.576 74.724 160.331 74.788 160.16 74.916C159.989 75.0334 159.904 75.1987 159.904 75.412C159.904 75.668 160.037 75.86 160.304 75.988C160.581 76.116 161.008 76.244 161.584 76.372C162.245 76.5427 162.784 76.7134 163.2 76.884C163.616 77.044 163.979 77.3107 164.288 77.684C164.608 78.0467 164.773 78.5374 164.784 79.156C164.784 79.6787 164.635 80.148 164.336 80.564C164.048 80.9694 163.627 81.2894 163.072 81.524C162.528 81.7587 161.893 81.876 161.168 81.876ZM171.434 79.428V81.748H170.042C169.05 81.748 168.276 81.508 167.722 81.028C167.167 80.5374 166.89 79.7427 166.89 78.644V75.092H165.802V72.82H166.89V70.644H169.626V72.82H171.418V75.092H169.626V78.676C169.626 78.9427 169.69 79.1347 169.818 79.252C169.946 79.3694 170.159 79.428 170.458 79.428H171.434ZM175.694 74.308C176.014 73.8174 176.414 73.4334 176.894 73.156C177.374 72.868 177.907 72.724 178.494 72.724V75.62H177.742C177.059 75.62 176.547 75.7694 176.206 76.068C175.864 76.356 175.694 76.868 175.694 77.604V81.748H172.958V72.82H175.694V74.308ZM188.618 72.82V81.748H185.882V80.532C185.604 80.9267 185.226 81.2467 184.746 81.492C184.276 81.7267 183.754 81.844 183.178 81.844C182.495 81.844 181.892 81.6947 181.37 81.396C180.847 81.0867 180.442 80.644 180.154 80.068C179.866 79.492 179.722 78.8147 179.722 78.036V72.82H182.442V77.668C182.442 78.2654 182.596 78.7294 182.906 79.06C183.215 79.3907 183.631 79.556 184.154 79.556C184.687 79.556 185.108 79.3907 185.418 79.06C185.727 78.7294 185.882 78.2654 185.882 77.668V72.82H188.618ZM190.039 77.284C190.039 76.356 190.225 75.5454 190.599 74.852C190.983 74.1587 191.511 73.6254 192.183 73.252C192.865 72.8787 193.644 72.692 194.519 72.692C195.639 72.692 196.572 72.9854 197.319 73.572C198.076 74.1587 198.572 74.9854 198.807 76.052H195.895C195.649 75.3694 195.175 75.028 194.471 75.028C193.969 75.028 193.569 75.2254 193.271 75.62C192.972 76.004 192.823 76.5587 192.823 77.284C192.823 78.0094 192.972 78.5694 193.271 78.964C193.569 79.348 193.969 79.54 194.471 79.54C195.175 79.54 195.649 79.1987 195.895 78.516H198.807C198.572 79.5614 198.076 80.3827 197.319 80.98C196.561 81.5774 195.628 81.876 194.519 81.876C193.644 81.876 192.865 81.6894 192.183 81.316C191.511 80.9427 190.983 80.4094 190.599 79.716C190.225 79.0227 190.039 78.212 190.039 77.284ZM205.246 79.428V81.748H203.854C202.862 81.748 202.089 81.508 201.534 81.028C200.98 80.5374 200.702 79.7427 200.702 78.644V75.092H199.614V72.82H200.702V70.644H203.438V72.82H205.23V75.092H203.438V78.676C203.438 78.9427 203.502 79.1347 203.63 79.252C203.758 79.3694 203.972 79.428 204.27 79.428H205.246ZM215.586 72.82V81.748H212.85V80.532C212.573 80.9267 212.194 81.2467 211.714 81.492C211.245 81.7267 210.722 81.844 210.146 81.844C209.464 81.844 208.861 81.6947 208.338 81.396C207.816 81.0867 207.41 80.644 207.122 80.068C206.834 79.492 206.69 78.8147 206.69 78.036V72.82H209.41V77.668C209.41 78.2654 209.565 78.7294 209.874 79.06C210.184 79.3907 210.6 79.556 211.122 79.556C211.656 79.556 212.077 79.3907 212.386 79.06C212.696 78.7294 212.85 78.2654 212.85 77.668V72.82H215.586ZM220.288 74.308C220.608 73.8174 221.008 73.4334 221.488 73.156C221.968 72.868 222.501 72.724 223.088 72.724V75.62H222.336C221.653 75.62 221.141 75.7694 220.8 76.068C220.458 76.356 220.288 76.868 220.288 77.604V81.748H217.552V72.82H220.288V74.308ZM232.811 77.14C232.811 77.396 232.795 77.6627 232.763 77.94H226.571C226.614 78.4947 226.79 78.9214 227.099 79.22C227.419 79.508 227.809 79.652 228.267 79.652C228.95 79.652 229.425 79.364 229.691 78.788H232.603C232.454 79.3747 232.182 79.9027 231.787 80.372C231.403 80.8414 230.918 81.2094 230.331 81.476C229.745 81.7427 229.089 81.876 228.363 81.876C227.489 81.876 226.71 81.6894 226.027 81.316C225.345 80.9427 224.811 80.4094 224.427 79.716C224.043 79.0227 223.851 78.212 223.851 77.284C223.851 76.356 224.038 75.5454 224.411 74.852C224.795 74.1587 225.329 73.6254 226.011 73.252C226.694 72.8787 227.478 72.692 228.363 72.692C229.227 72.692 229.995 72.8734 230.667 73.236C231.339 73.5987 231.862 74.116 232.235 74.788C232.619 75.46 232.811 76.244 232.811 77.14ZM230.011 76.42C230.011 75.9507 229.851 75.5774 229.531 75.3C229.211 75.0227 228.811 74.884 228.331 74.884C227.873 74.884 227.483 75.0174 227.163 75.284C226.854 75.5507 226.662 75.9294 226.587 76.42H230.011ZM247.373 70.516V81.748H244.637V77.124H240.381V81.748H237.645V70.516H240.381V74.916H244.637V70.516H247.373ZM257.764 77.14C257.764 77.396 257.748 77.6627 257.716 77.94H251.524C251.567 78.4947 251.743 78.9214 252.052 79.22C252.372 79.508 252.762 79.652 253.22 79.652C253.903 79.652 254.378 79.364 254.644 78.788H257.556C257.407 79.3747 257.135 79.9027 256.74 80.372C256.356 80.8414 255.871 81.2094 255.284 81.476C254.698 81.7427 254.042 81.876 253.316 81.876C252.442 81.876 251.663 81.6894 250.98 81.316C250.298 80.9427 249.764 80.4094 249.38 79.716C248.996 79.0227 248.804 78.212 248.804 77.284C248.804 76.356 248.991 75.5454 249.364 74.852C249.748 74.1587 250.282 73.6254 250.964 73.252C251.647 72.8787 252.431 72.692 253.316 72.692C254.18 72.692 254.948 72.8734 255.62 73.236C256.292 73.5987 256.815 74.116 257.188 74.788C257.572 75.46 257.764 76.244 257.764 77.14ZM254.964 76.42C254.964 75.9507 254.804 75.5774 254.484 75.3C254.164 75.0227 253.764 74.884 253.284 74.884C252.826 74.884 252.436 75.0174 252.116 75.284C251.807 75.5507 251.615 75.9294 251.54 76.42H254.964ZM258.664 77.268C258.664 76.3507 258.834 75.5454 259.176 74.852C259.528 74.1587 260.002 73.6254 260.6 73.252C261.197 72.8787 261.864 72.692 262.6 72.692C263.229 72.692 263.778 72.82 264.248 73.076C264.728 73.332 265.096 73.668 265.352 74.084V72.82H268.088V81.748H265.352V80.484C265.085 80.9 264.712 81.236 264.232 81.492C263.762 81.748 263.213 81.876 262.584 81.876C261.858 81.876 261.197 81.6894 260.6 81.316C260.002 80.932 259.528 80.3934 259.176 79.7C258.834 78.996 258.664 78.1854 258.664 77.268ZM265.352 77.284C265.352 76.6014 265.16 76.0627 264.776 75.668C264.402 75.2734 263.944 75.076 263.4 75.076C262.856 75.076 262.392 75.2734 262.008 75.668C261.634 76.052 261.448 76.5854 261.448 77.268C261.448 77.9507 261.634 78.4947 262.008 78.9C262.392 79.2947 262.856 79.492 263.4 79.492C263.944 79.492 264.402 79.2947 264.776 78.9C265.16 78.5054 265.352 77.9667 265.352 77.284ZM272.803 69.908V81.748H270.067V69.908H272.803ZM279.762 79.428V81.748H278.37C277.378 81.748 276.605 81.508 276.05 81.028C275.495 80.5374 275.218 79.7427 275.218 78.644V75.092H274.13V72.82H275.218V70.644H277.954V72.82H279.746V75.092H277.954V78.676C277.954 78.9427 278.018 79.1347 278.146 79.252C278.274 79.3694 278.487 79.428 278.786 79.428H279.762ZM286.774 72.724C287.798 72.724 288.619 73.0654 289.238 73.748C289.857 74.42 290.166 75.348 290.166 76.532V81.748H287.446V76.9C287.446 76.3027 287.291 75.8387 286.982 75.508C286.673 75.1774 286.257 75.012 285.734 75.012C285.211 75.012 284.795 75.1774 284.486 75.508C284.177 75.8387 284.022 76.3027 284.022 76.9V81.748H281.286V69.908H284.022V74.02C284.299 73.6254 284.678 73.3107 285.158 73.076C285.638 72.8414 286.177 72.724 286.774 72.724Z" fill="#111827"/>
<path d="M122.015 96.748L120.355 93.898H119.255V96.748H118.345V89.778H120.595C121.122 89.778 121.565 89.868 121.925 90.048C122.292 90.228 122.565 90.4714 122.745 90.778C122.925 91.0847 123.015 91.4347 123.015 91.828C123.015 92.308 122.875 92.7314 122.595 93.098C122.322 93.4647 121.909 93.708 121.355 93.828L123.105 96.748H122.015ZM119.255 93.168H120.595C121.089 93.168 121.459 93.048 121.705 92.808C121.952 92.5614 122.075 92.2347 122.075 91.828C122.075 91.4147 121.952 91.0947 121.705 90.868C121.465 90.6414 121.095 90.528 120.595 90.528H119.255V93.168ZM129.429 93.798C129.429 93.9714 129.419 94.1547 129.399 94.348H125.019C125.053 94.888 125.236 95.3114 125.569 95.618C125.909 95.918 126.319 96.068 126.799 96.068C127.193 96.068 127.519 95.978 127.779 95.798C128.046 95.6114 128.233 95.3647 128.339 95.058H129.319C129.173 95.5847 128.879 96.0147 128.439 96.348C127.999 96.6747 127.453 96.838 126.799 96.838C126.279 96.838 125.813 96.7214 125.399 96.488C124.993 96.2547 124.673 95.9247 124.439 95.498C124.206 95.0647 124.089 94.5647 124.089 93.998C124.089 93.4314 124.203 92.9347 124.429 92.508C124.656 92.0814 124.973 91.7547 125.379 91.528C125.793 91.2947 126.266 91.178 126.799 91.178C127.319 91.178 127.779 91.2914 128.179 91.518C128.579 91.7447 128.886 92.058 129.099 92.458C129.319 92.8514 129.429 93.298 129.429 93.798ZM128.489 93.608C128.489 93.2614 128.413 92.9647 128.259 92.718C128.106 92.4647 127.896 92.2747 127.629 92.148C127.369 92.0147 127.079 91.948 126.759 91.948C126.299 91.948 125.906 92.0947 125.579 92.388C125.259 92.6814 125.076 93.088 125.029 93.608H128.489ZM130.29 93.988C130.29 93.428 130.404 92.938 130.63 92.518C130.857 92.0914 131.167 91.7614 131.56 91.528C131.96 91.2947 132.404 91.178 132.89 91.178C133.37 91.178 133.787 91.2814 134.14 91.488C134.494 91.6947 134.757 91.9547 134.93 92.268V91.268H135.85V96.748H134.93V95.728C134.75 96.048 134.48 96.3147 134.12 96.528C133.767 96.7347 133.354 96.838 132.88 96.838C132.394 96.838 131.954 96.718 131.56 96.478C131.167 96.238 130.857 95.9014 130.63 95.468C130.404 95.0347 130.29 94.5414 130.29 93.988ZM134.93 93.998C134.93 93.5847 134.847 93.2247 134.68 92.918C134.514 92.6114 134.287 92.378 134 92.218C133.72 92.0514 133.41 91.968 133.07 91.968C132.73 91.968 132.42 92.048 132.14 92.208C131.86 92.368 131.637 92.6014 131.47 92.908C131.304 93.2147 131.22 93.5747 131.22 93.988C131.22 94.408 131.304 94.7747 131.47 95.088C131.637 95.3947 131.86 95.6314 132.14 95.798C132.42 95.958 132.73 96.038 133.07 96.038C133.41 96.038 133.72 95.958 134 95.798C134.287 95.6314 134.514 95.3947 134.68 95.088C134.847 94.7747 134.93 94.4114 134.93 93.998ZM138.298 89.348V96.748H137.388V89.348H138.298ZM143.649 92.698V93.468H139.659V92.698H143.649ZM146.467 92.018V95.248C146.467 95.5147 146.524 95.7047 146.637 95.818C146.75 95.9247 146.947 95.978 147.227 95.978H147.897V96.748H147.077C146.57 96.748 146.19 96.6314 145.937 96.398C145.684 96.1647 145.557 95.7814 145.557 95.248V92.018H144.847V91.268H145.557V89.888H146.467V91.268H147.897V92.018H146.467ZM149.469 90.378C149.296 90.378 149.149 90.318 149.029 90.198C148.909 90.078 148.849 89.9314 148.849 89.758C148.849 89.5847 148.909 89.438 149.029 89.318C149.149 89.198 149.296 89.138 149.469 89.138C149.636 89.138 149.776 89.198 149.889 89.318C150.009 89.438 150.069 89.5847 150.069 89.758C150.069 89.9314 150.009 90.078 149.889 90.198C149.776 90.318 149.636 90.378 149.469 90.378ZM149.909 91.268V96.748H148.999V91.268H149.909ZM158.05 91.168C158.477 91.168 158.857 91.258 159.19 91.438C159.524 91.6114 159.787 91.8747 159.98 92.228C160.174 92.5814 160.27 93.0114 160.27 93.518V96.748H159.37V93.648C159.37 93.1014 159.234 92.6847 158.96 92.398C158.694 92.1047 158.33 91.958 157.87 91.958C157.397 91.958 157.02 92.1114 156.74 92.418C156.46 92.718 156.32 93.1547 156.32 93.728V96.748H155.42V93.648C155.42 93.1014 155.284 92.6847 155.01 92.398C154.744 92.1047 154.38 91.958 153.92 91.958C153.447 91.958 153.07 92.1114 152.79 92.418C152.51 92.718 152.37 93.1547 152.37 93.728V96.748H151.46V91.268H152.37V92.058C152.55 91.7714 152.79 91.5514 153.09 91.398C153.397 91.2447 153.734 91.168 154.1 91.168C154.56 91.168 154.967 91.2714 155.32 91.478C155.674 91.6847 155.937 91.988 156.11 92.388C156.264 92.0014 156.517 91.7014 156.87 91.488C157.224 91.2747 157.617 91.168 158.05 91.168ZM166.763 93.798C166.763 93.9714 166.753 94.1547 166.733 94.348H162.353C162.386 94.888 162.57 95.3114 162.903 95.618C163.243 95.918 163.653 96.068 164.133 96.068C164.526 96.068 164.853 95.978 165.113 95.798C165.38 95.6114 165.566 95.3647 165.673 95.058H166.653C166.506 95.5847 166.213 96.0147 165.773 96.348C165.333 96.6747 164.786 96.838 164.133 96.838C163.613 96.838 163.146 96.7214 162.733 96.488C162.326 96.2547 162.006 95.9247 161.773 95.498C161.54 95.0647 161.423 94.5647 161.423 93.998C161.423 93.4314 161.536 92.9347 161.763 92.508C161.99 92.0814 162.306 91.7547 162.713 91.528C163.126 91.2947 163.6 91.178 164.133 91.178C164.653 91.178 165.113 91.2914 165.513 91.518C165.913 91.7447 166.22 92.058 166.433 92.458C166.653 92.8514 166.763 93.298 166.763 93.798ZM165.823 93.608C165.823 93.2614 165.746 92.9647 165.593 92.718C165.44 92.4647 165.23 92.2747 164.963 92.148C164.703 92.0147 164.413 91.948 164.093 91.948C163.633 91.948 163.24 92.0947 162.913 92.388C162.593 92.6814 162.41 93.088 162.363 93.608H165.823ZM172.57 96.838C172.15 96.838 171.774 96.768 171.44 96.628C171.107 96.4814 170.844 96.2814 170.65 96.028C170.457 95.768 170.35 95.4714 170.33 95.138H171.27C171.297 95.4114 171.424 95.6347 171.65 95.808C171.884 95.9814 172.187 96.068 172.56 96.068C172.907 96.068 173.18 95.9914 173.38 95.838C173.58 95.6847 173.68 95.4914 173.68 95.258C173.68 95.018 173.574 94.8414 173.36 94.728C173.147 94.608 172.817 94.4914 172.37 94.378C171.964 94.2714 171.63 94.1647 171.37 94.058C171.117 93.9447 170.897 93.7814 170.71 93.568C170.53 93.348 170.44 93.0614 170.44 92.708C170.44 92.428 170.524 92.1714 170.69 91.938C170.857 91.7047 171.094 91.5214 171.4 91.388C171.707 91.248 172.057 91.178 172.45 91.178C173.057 91.178 173.547 91.3314 173.92 91.638C174.294 91.9447 174.494 92.3647 174.52 92.898H173.61C173.59 92.6114 173.474 92.3814 173.26 92.208C173.054 92.0347 172.774 91.948 172.42 91.948C172.094 91.948 171.834 92.018 171.64 92.158C171.447 92.298 171.35 92.4814 171.35 92.708C171.35 92.888 171.407 93.038 171.52 93.158C171.64 93.2714 171.787 93.3647 171.96 93.438C172.14 93.5047 172.387 93.5814 172.7 93.668C173.094 93.7747 173.414 93.8814 173.66 93.988C173.907 94.088 174.117 94.2414 174.29 94.448C174.47 94.6547 174.564 94.9247 174.57 95.258C174.57 95.558 174.487 95.828 174.32 96.068C174.154 96.308 173.917 96.498 173.61 96.638C173.31 96.7714 172.964 96.838 172.57 96.838ZM176.965 92.018V95.248C176.965 95.5147 177.022 95.7047 177.135 95.818C177.248 95.9247 177.445 95.978 177.725 95.978H178.395V96.748H177.575C177.068 96.748 176.688 96.6314 176.435 96.398C176.182 96.1647 176.055 95.7814 176.055 95.248V92.018H175.345V91.268H176.055V89.888H176.965V91.268H178.395V92.018H176.965ZM179.158 93.988C179.158 93.428 179.271 92.938 179.498 92.518C179.724 92.0914 180.034 91.7614 180.428 91.528C180.828 91.2947 181.271 91.178 181.758 91.178C182.238 91.178 182.654 91.2814 183.008 91.488C183.361 91.6947 183.624 91.9547 183.798 92.268V91.268H184.718V96.748H183.798V95.728C183.618 96.048 183.348 96.3147 182.988 96.528C182.634 96.7347 182.221 96.838 181.748 96.838C181.261 96.838 180.821 96.718 180.428 96.478C180.034 96.238 179.724 95.9014 179.498 95.468C179.271 95.0347 179.158 94.5414 179.158 93.988ZM183.798 93.998C183.798 93.5847 183.714 93.2247 183.548 92.918C183.381 92.6114 183.154 92.378 182.868 92.218C182.588 92.0514 182.278 91.968 181.938 91.968C181.598 91.968 181.288 92.048 181.008 92.208C180.728 92.368 180.504 92.6014 180.338 92.908C180.171 93.2147 180.088 93.5747 180.088 93.988C180.088 94.408 180.171 94.7747 180.338 95.088C180.504 95.3947 180.728 95.6314 181.008 95.798C181.288 95.958 181.598 96.038 181.938 96.038C182.278 96.038 182.588 95.958 182.868 95.798C183.154 95.6314 183.381 95.3947 183.548 95.088C183.714 94.7747 183.798 94.4114 183.798 93.998ZM187.365 92.018V95.248C187.365 95.5147 187.422 95.7047 187.535 95.818C187.649 95.9247 187.845 95.978 188.125 95.978H188.795V96.748H187.975C187.469 96.748 187.089 96.6314 186.835 96.398C186.582 96.1647 186.455 95.7814 186.455 95.248V92.018H185.745V91.268H186.455V89.888H187.365V91.268H188.795V92.018H187.365ZM194.758 91.268V96.748H193.848V95.938C193.675 96.218 193.431 96.438 193.118 96.598C192.811 96.7514 192.471 96.828 192.098 96.828C191.671 96.828 191.288 96.7414 190.948 96.568C190.608 96.388 190.338 96.1214 190.138 95.768C189.945 95.4147 189.848 94.9847 189.848 94.478V91.268H190.748V94.358C190.748 94.898 190.885 95.3147 191.158 95.608C191.431 95.8947 191.805 96.038 192.278 96.038C192.765 96.038 193.148 95.888 193.428 95.588C193.708 95.288 193.848 94.8514 193.848 94.278V91.268H194.758ZM198.234 96.838C197.814 96.838 197.438 96.768 197.104 96.628C196.771 96.4814 196.508 96.2814 196.314 96.028C196.121 95.768 196.014 95.4714 195.994 95.138H196.934C196.961 95.4114 197.088 95.6347 197.314 95.808C197.548 95.9814 197.851 96.068 198.224 96.068C198.571 96.068 198.844 95.9914 199.044 95.838C199.244 95.6847 199.344 95.4914 199.344 95.258C199.344 95.018 199.238 94.8414 199.024 94.728C198.811 94.608 198.481 94.4914 198.034 94.378C197.628 94.2714 197.294 94.1647 197.034 94.058C196.781 93.9447 196.561 93.7814 196.374 93.568C196.194 93.348 196.104 93.0614 196.104 92.708C196.104 92.428 196.188 92.1714 196.354 91.938C196.521 91.7047 196.758 91.5214 197.064 91.388C197.371 91.248 197.721 91.178 198.114 91.178C198.721 91.178 199.211 91.3314 199.584 91.638C199.958 91.9447 200.158 92.3647 200.184 92.898H199.274C199.254 92.6114 199.138 92.3814 198.924 92.208C198.718 92.0347 198.438 91.948 198.084 91.948C197.758 91.948 197.498 92.018 197.304 92.158C197.111 92.298 197.014 92.4814 197.014 92.708C197.014 92.888 197.071 93.038 197.184 93.158C197.304 93.2714 197.451 93.3647 197.624 93.438C197.804 93.5047 198.051 93.5814 198.364 93.668C198.758 93.7747 199.078 93.8814 199.324 93.988C199.571 94.088 199.781 94.2414 199.954 94.448C200.134 94.6547 200.228 94.9247 200.234 95.258C200.234 95.558 200.151 95.828 199.984 96.068C199.818 96.308 199.581 96.498 199.274 96.638C198.974 96.7714 198.628 96.838 198.234 96.838ZM210.775 91.168C211.202 91.168 211.582 91.258 211.915 91.438C212.248 91.6114 212.512 91.8747 212.705 92.228C212.898 92.5814 212.995 93.0114 212.995 93.518V96.748H212.095V93.648C212.095 93.1014 211.958 92.6847 211.685 92.398C211.418 92.1047 211.055 91.958 210.595 91.958C210.122 91.958 209.745 92.1114 209.465 92.418C209.185 92.718 209.045 93.1547 209.045 93.728V96.748H208.145V93.648C208.145 93.1014 208.008 92.6847 207.735 92.398C207.468 92.1047 207.105 91.958 206.645 91.958C206.172 91.958 205.795 92.1114 205.515 92.418C205.235 92.718 205.095 93.1547 205.095 93.728V96.748H204.185V91.268H205.095V92.058C205.275 91.7714 205.515 91.5514 205.815 91.398C206.122 91.2447 206.458 91.168 206.825 91.168C207.285 91.168 207.692 91.2714 208.045 91.478C208.398 91.6847 208.662 91.988 208.835 92.388C208.988 92.0014 209.242 91.7014 209.595 91.488C209.948 91.2747 210.342 91.168 210.775 91.168ZM216.878 96.838C216.364 96.838 215.898 96.7214 215.478 96.488C215.064 96.2547 214.738 95.9247 214.498 95.498C214.264 95.0647 214.148 94.5647 214.148 93.998C214.148 93.438 214.268 92.9447 214.508 92.518C214.754 92.0847 215.088 91.7547 215.508 91.528C215.928 91.2947 216.398 91.178 216.918 91.178C217.438 91.178 217.908 91.2947 218.328 91.528C218.748 91.7547 219.078 92.0814 219.318 92.508C219.564 92.9347 219.688 93.4314 219.688 93.998C219.688 94.5647 219.561 95.0647 219.308 95.498C219.061 95.9247 218.724 96.2547 218.298 96.488C217.871 96.7214 217.398 96.838 216.878 96.838ZM216.878 96.038C217.204 96.038 217.511 95.9614 217.798 95.808C218.084 95.6547 218.314 95.4247 218.488 95.118C218.668 94.8114 218.758 94.438 218.758 93.998C218.758 93.558 218.671 93.1847 218.498 92.878C218.324 92.5714 218.098 92.3447 217.818 92.198C217.538 92.0447 217.234 91.968 216.908 91.968C216.574 91.968 216.268 92.0447 215.988 92.198C215.714 92.3447 215.494 92.5714 215.328 92.878C215.161 93.1847 215.078 93.558 215.078 93.998C215.078 94.4447 215.158 94.8214 215.318 95.128C215.484 95.4347 215.704 95.6647 215.978 95.818C216.251 95.9647 216.551 96.038 216.878 96.038ZM223.554 91.168C224.221 91.168 224.761 91.3714 225.174 91.778C225.588 92.178 225.794 92.758 225.794 93.518V96.748H224.894V93.648C224.894 93.1014 224.758 92.6847 224.484 92.398C224.211 92.1047 223.838 91.958 223.364 91.958C222.884 91.958 222.501 92.108 222.214 92.408C221.934 92.708 221.794 93.1447 221.794 93.718V96.748H220.884V91.268H221.794V92.048C221.974 91.768 222.218 91.5514 222.524 91.398C222.838 91.2447 223.181 91.168 223.554 91.168ZM227.751 90.378C227.577 90.378 227.431 90.318 227.311 90.198C227.191 90.078 227.131 89.9314 227.131 89.758C227.131 89.5847 227.191 89.438 227.311 89.318C227.431 89.198 227.577 89.138 227.751 89.138C227.917 89.138 228.057 89.198 228.171 89.318C228.291 89.438 228.351 89.5847 228.351 89.758C228.351 89.9314 228.291 90.078 228.171 90.198C228.057 90.318 227.917 90.378 227.751 90.378ZM228.191 91.268V96.748H227.281V91.268H228.191ZM230.852 92.018V95.248C230.852 95.5147 230.908 95.7047 231.022 95.818C231.135 95.9247 231.332 95.978 231.612 95.978H232.282V96.748H231.462C230.955 96.748 230.575 96.6314 230.322 96.398C230.068 96.1647 229.942 95.7814 229.942 95.248V92.018H229.232V91.268H229.942V89.888H230.852V91.268H232.282V92.018H230.852ZM235.774 96.838C235.261 96.838 234.794 96.7214 234.374 96.488C233.961 96.2547 233.634 95.9247 233.394 95.498C233.161 95.0647 233.044 94.5647 233.044 93.998C233.044 93.438 233.164 92.9447 233.404 92.518C233.651 92.0847 233.984 91.7547 234.404 91.528C234.824 91.2947 235.294 91.178 235.814 91.178C236.334 91.178 236.804 91.2947 237.224 91.528C237.644 91.7547 237.974 92.0814 238.214 92.508C238.461 92.9347 238.584 93.4314 238.584 93.998C238.584 94.5647 238.458 95.0647 238.204 95.498C237.958 95.9247 237.621 96.2547 237.194 96.488C236.768 96.7214 236.294 96.838 235.774 96.838ZM235.774 96.038C236.101 96.038 236.408 95.9614 236.694 95.808C236.981 95.6547 237.211 95.4247 237.384 95.118C237.564 94.8114 237.654 94.438 237.654 93.998C237.654 93.558 237.568 93.1847 237.394 92.878C237.221 92.5714 236.994 92.3447 236.714 92.198C236.434 92.0447 236.131 91.968 235.804 91.968C235.471 91.968 235.164 92.0447 234.884 92.198C234.611 92.3447 234.391 92.5714 234.224 92.878C234.058 93.1847 233.974 93.558 233.974 93.998C233.974 94.4447 234.054 94.8214 234.214 95.128C234.381 95.4347 234.601 95.6647 234.874 95.818C235.148 95.9647 235.448 96.038 235.774 96.038ZM240.691 92.158C240.851 91.8447 241.077 91.6014 241.371 91.428C241.671 91.2547 242.034 91.168 242.461 91.168V92.108H242.221C241.201 92.108 240.691 92.6614 240.691 93.768V96.748H239.781V91.268H240.691V92.158Z" fill="#9CA3AF"/>
<rect x="62.6494" y="124.443" width="434.259" height="6.86576" rx="3.43288" fill="#F3F4F6"/>
<rect x="62.6494" y="124.443" width="325.694" height="6.86576" rx="3.43288" fill="#581ADF"/>
<path d="M64.7503 156.041V149.604H62.7627V148.369H68.118V149.604H66.1612V156.041H64.7503ZM70.8747 156.165C70.3255 156.165 69.8243 156.038 69.3711 155.784C68.9249 155.53 68.5678 155.183 68.3001 154.743C68.0392 154.304 67.9087 153.803 67.9087 153.24C67.9087 152.677 68.0392 152.176 68.3001 151.736C68.5678 151.297 68.9249 150.95 69.3711 150.696C69.8174 150.442 70.3186 150.315 70.8747 150.315C71.424 150.315 71.9218 150.442 72.368 150.696C72.8143 150.95 73.1679 151.297 73.4288 151.736C73.6966 152.169 73.8304 152.67 73.8304 153.24C73.8304 153.803 73.6966 154.304 73.4288 154.743C73.161 155.183 72.804 155.53 72.3577 155.784C71.9115 156.038 71.4171 156.165 70.8747 156.165ZM70.8747 154.929C71.1768 154.929 71.4412 154.857 71.6677 154.712C71.9012 154.568 72.0831 154.369 72.2135 154.115C72.3509 153.854 72.4195 153.562 72.4195 153.24C72.4195 152.91 72.3509 152.622 72.2135 152.375C72.0831 152.121 71.9012 151.922 71.6677 151.777C71.4412 151.626 71.1768 151.551 70.8747 151.551C70.5658 151.551 70.2946 151.626 70.0611 151.777C69.8277 151.922 69.6423 152.121 69.505 152.375C69.3746 152.622 69.3093 152.91 69.3093 153.24C69.3093 153.562 69.3746 153.854 69.505 154.115C69.6423 154.369 69.8277 154.568 70.0611 154.712C70.2946 154.857 70.5658 154.929 70.8747 154.929ZM77.307 156.103C76.6754 156.103 76.1845 155.931 75.8343 155.588C75.491 155.238 75.3194 154.747 75.3194 154.115V151.643H74.3513V150.439H74.4543C74.7289 150.439 74.9418 150.366 75.0928 150.222C75.2439 150.078 75.3194 149.869 75.3194 149.594V149.162H76.6685V150.439H77.9558V151.643H76.6685V154.043C76.6685 154.228 76.6994 154.386 76.7612 154.517C76.8299 154.647 76.9328 154.747 77.0702 154.815C77.2143 154.884 77.3963 154.918 77.616 154.918C77.664 154.918 77.719 154.915 77.7808 154.908C77.8494 154.901 77.9146 154.894 77.9764 154.888V156.041C77.8803 156.055 77.7705 156.068 77.6469 156.082C77.5233 156.096 77.41 156.103 77.307 156.103ZM80.6864 156.165C80.295 156.165 79.9551 156.099 79.6668 155.969C79.3784 155.838 79.1553 155.653 78.9974 155.413C78.8395 155.166 78.7605 154.881 78.7605 154.558C78.7605 154.249 78.8292 153.974 78.9665 153.734C79.1038 153.487 79.3166 153.281 79.605 153.116C79.8934 152.951 80.2572 152.835 80.6966 152.766L82.5298 152.467V153.497L80.9541 153.765C80.6864 153.813 80.4872 153.899 80.3568 154.022C80.2263 154.146 80.1611 154.307 80.1611 154.507C80.1611 154.699 80.2332 154.853 80.3774 154.97C80.5284 155.08 80.7138 155.135 80.9335 155.135C81.215 155.135 81.4622 155.076 81.675 154.96C81.8947 154.836 82.0629 154.668 82.1797 154.455C82.3032 154.242 82.365 154.009 82.365 153.755V152.313C82.365 152.073 82.2689 151.874 82.0767 151.716C81.8913 151.551 81.6441 151.468 81.3352 151.468C81.0468 151.468 80.7893 151.547 80.5628 151.705C80.3431 151.856 80.1817 152.059 80.0787 152.313L78.9768 151.777C79.0866 151.482 79.2583 151.228 79.4917 151.015C79.732 150.796 80.0135 150.624 80.3362 150.5C80.6589 150.377 81.009 150.315 81.3867 150.315C81.8467 150.315 82.2517 150.401 82.6019 150.572C82.9521 150.737 83.2232 150.971 83.4155 151.273C83.6146 151.568 83.7142 151.915 83.7142 152.313V156.041H82.4371V155.083L82.7255 155.063C82.5813 155.303 82.4097 155.505 82.2105 155.67C82.0114 155.828 81.7849 155.952 81.5308 156.041C81.2768 156.123 80.9953 156.165 80.6864 156.165ZM84.9611 156.041V148.245H86.3102V156.041H84.9611ZM89.4996 156.041V148.369H92.0021C92.8123 148.369 93.516 148.533 94.1134 148.863C94.7175 149.186 95.1844 149.635 95.514 150.212C95.8435 150.782 96.0083 151.444 96.0083 152.2C96.0083 152.948 95.8435 153.614 95.514 154.198C95.1844 154.774 94.7175 155.227 94.1134 155.557C93.516 155.88 92.8123 156.041 92.0021 156.041H89.4996ZM90.9002 154.805H92.033C92.5548 154.805 93.0045 154.699 93.3822 154.486C93.7666 154.266 94.0653 153.964 94.2781 153.58C94.491 153.188 94.5974 152.728 94.5974 152.2C94.5974 151.664 94.491 151.204 94.2781 150.82C94.0653 150.435 93.7666 150.136 93.3822 149.924C93.0045 149.711 92.5548 149.604 92.033 149.604H90.9002V154.805ZM99.6667 156.165C99.09 156.165 98.5854 156.034 98.1528 155.773C97.7203 155.512 97.3839 155.159 97.1436 154.712C96.9033 154.266 96.7831 153.772 96.7831 153.229C96.7831 152.666 96.9033 152.169 97.1436 151.736C97.3907 151.297 97.7237 150.95 98.1425 150.696C98.5682 150.442 99.042 150.315 99.5638 150.315C100.003 150.315 100.388 150.387 100.717 150.531C101.054 150.675 101.339 150.875 101.572 151.129C101.805 151.383 101.984 151.674 102.108 152.004C102.231 152.327 102.293 152.677 102.293 153.054C102.293 153.151 102.286 153.25 102.272 153.353C102.265 153.456 102.248 153.545 102.221 153.621H97.8954V152.591H101.459L100.82 153.075C100.882 152.759 100.865 152.478 100.769 152.231C100.679 151.983 100.528 151.788 100.316 151.643C100.11 151.499 99.859 151.427 99.5638 151.427C99.2823 151.427 99.0317 151.499 98.812 151.643C98.5922 151.781 98.424 151.987 98.3073 152.261C98.1975 152.529 98.1563 152.855 98.1837 153.24C98.1563 153.583 98.2009 153.889 98.3176 154.156C98.4412 154.417 98.6197 154.62 98.8531 154.764C99.0934 154.908 99.3681 154.98 99.677 154.98C99.986 154.98 100.247 154.915 100.46 154.785C100.679 154.654 100.851 154.479 100.975 154.259L102.066 154.795C101.956 155.063 101.785 155.3 101.551 155.505C101.318 155.711 101.04 155.873 100.717 155.99C100.401 156.106 100.051 156.165 99.6667 156.165ZM103.316 156.041V148.245H104.665V156.041H103.316ZM105.91 156.041V150.439H107.259V156.041H105.91ZM105.91 149.81V148.369H107.259V149.81H105.91ZM110.194 156.041L107.99 150.439H109.463L111.059 154.846H110.513L112.12 150.439H113.593L111.389 156.041H110.194ZM116.895 156.165C116.318 156.165 115.813 156.034 115.381 155.773C114.948 155.512 114.612 155.159 114.372 154.712C114.131 154.266 114.011 153.772 114.011 153.229C114.011 152.666 114.131 152.169 114.372 151.736C114.619 151.297 114.952 150.95 115.371 150.696C115.796 150.442 116.27 150.315 116.792 150.315C117.231 150.315 117.616 150.387 117.945 150.531C118.282 150.675 118.567 150.875 118.8 151.129C119.034 151.383 119.212 151.674 119.336 152.004C119.459 152.327 119.521 152.677 119.521 153.054C119.521 153.151 119.514 153.25 119.5 153.353C119.494 153.456 119.476 153.545 119.449 153.621H115.123V152.591H118.687L118.048 153.075C118.11 152.759 118.093 152.478 117.997 152.231C117.908 151.983 117.756 151.788 117.544 151.643C117.338 151.499 117.087 151.427 116.792 151.427C116.51 151.427 116.26 151.499 116.04 151.643C115.82 151.781 115.652 151.987 115.535 152.261C115.426 152.529 115.384 152.855 115.412 153.24C115.384 153.583 115.429 153.889 115.546 154.156C115.669 154.417 115.848 154.62 116.081 154.764C116.322 154.908 116.596 154.98 116.905 154.98C117.214 154.98 117.475 154.915 117.688 154.785C117.908 154.654 118.079 154.479 118.203 154.259L119.294 154.795C119.185 155.063 119.013 155.3 118.779 155.505C118.546 155.711 118.268 155.873 117.945 155.99C117.629 156.106 117.279 156.165 116.895 156.165ZM120.544 156.041V150.439H121.81V151.685L121.707 151.499C121.838 151.081 122.04 150.789 122.315 150.624C122.597 150.459 122.933 150.377 123.324 150.377H123.654V151.571H123.17C122.785 151.571 122.476 151.692 122.243 151.932C122.01 152.165 121.893 152.495 121.893 152.921V156.041H120.544ZM126.095 156.165C125.704 156.165 125.364 156.099 125.075 155.969C124.787 155.838 124.564 155.653 124.406 155.413C124.248 155.166 124.169 154.881 124.169 154.558C124.169 154.249 124.238 153.974 124.375 153.734C124.512 153.487 124.725 153.281 125.014 153.116C125.302 152.951 125.666 152.835 126.105 152.766L127.938 152.467V153.497L126.363 153.765C126.095 153.813 125.896 153.899 125.765 154.022C125.635 154.146 125.57 154.307 125.57 154.507C125.57 154.699 125.642 154.853 125.786 154.97C125.937 155.08 126.122 155.135 126.342 155.135C126.624 155.135 126.871 155.076 127.084 154.96C127.303 154.836 127.471 154.668 127.588 154.455C127.712 154.242 127.774 154.009 127.774 153.755V152.313C127.774 152.073 127.677 151.874 127.485 151.716C127.3 151.551 127.053 151.468 126.744 151.468C126.455 151.468 126.198 151.547 125.971 151.705C125.752 151.856 125.59 152.059 125.487 152.313L124.385 151.777C124.495 151.482 124.667 151.228 124.9 151.015C125.141 150.796 125.422 150.624 125.745 150.5C126.067 150.377 126.418 150.315 126.795 150.315C127.255 150.315 127.66 150.401 128.01 150.572C128.361 150.737 128.632 150.971 128.824 151.273C129.023 151.568 129.123 151.915 129.123 152.313V156.041H127.846V155.083L128.134 155.063C127.99 155.303 127.818 155.505 127.619 155.67C127.42 155.828 127.193 155.952 126.939 156.041C126.685 156.123 126.404 156.165 126.095 156.165ZM133.428 156.165C133.023 156.165 132.649 156.086 132.306 155.928C131.969 155.763 131.702 155.53 131.502 155.227L131.636 154.96V156.041H130.37V148.245H131.719V151.551L131.513 151.273C131.705 150.971 131.966 150.737 132.295 150.572C132.625 150.401 133.006 150.315 133.439 150.315C133.967 150.315 134.444 150.445 134.87 150.706C135.296 150.967 135.632 151.317 135.879 151.757C136.133 152.196 136.26 152.691 136.26 153.24C136.26 153.782 136.137 154.277 135.89 154.723C135.643 155.169 135.306 155.523 134.88 155.784C134.455 156.038 133.971 156.165 133.428 156.165ZM133.274 154.929C133.583 154.929 133.857 154.857 134.098 154.712C134.338 154.568 134.523 154.369 134.654 154.115C134.791 153.861 134.86 153.569 134.86 153.24C134.86 152.91 134.791 152.622 134.654 152.375C134.523 152.121 134.338 151.922 134.098 151.777C133.857 151.626 133.583 151.551 133.274 151.551C132.979 151.551 132.711 151.623 132.471 151.767C132.237 151.911 132.052 152.114 131.914 152.375C131.784 152.629 131.719 152.917 131.719 153.24C131.719 153.569 131.784 153.861 131.914 154.115C132.052 154.369 132.237 154.568 132.471 154.712C132.711 154.857 132.979 154.929 133.274 154.929ZM137.289 156.041V150.439H138.638V156.041H137.289ZM137.289 149.81V148.369H138.638V149.81H137.289ZM139.884 156.041V148.245H141.233V156.041H139.884ZM142.479 156.041V150.439H143.828V156.041H142.479ZM142.479 149.81V148.369H143.828V149.81H142.479ZM147.627 156.103C146.996 156.103 146.505 155.931 146.155 155.588C145.811 155.238 145.64 154.747 145.64 154.115V151.643H144.672V150.439H144.775C145.049 150.439 145.262 150.366 145.413 150.222C145.564 150.078 145.64 149.869 145.64 149.594V149.162H146.989V150.439H148.276V151.643H146.989V154.043C146.989 154.228 147.02 154.386 147.082 154.517C147.15 154.647 147.253 154.747 147.391 154.815C147.535 154.884 147.717 154.918 147.936 154.918C147.984 154.918 148.039 154.915 148.101 154.908C148.17 154.901 148.235 154.894 148.297 154.888V156.041C148.201 156.055 148.091 156.068 147.967 156.082C147.844 156.096 147.73 156.103 147.627 156.103ZM150.007 158.307C149.856 158.307 149.709 158.293 149.564 158.266C149.42 158.245 149.29 158.204 149.173 158.142V157.019C149.262 157.04 149.369 157.061 149.492 157.081C149.623 157.102 149.743 157.112 149.853 157.112C150.162 157.112 150.385 157.04 150.522 156.896C150.666 156.758 150.793 156.573 150.903 156.34L151.274 155.475L151.253 156.607L148.813 150.439H150.265L151.974 154.991H151.459L153.159 150.439H154.621L152.18 156.607C152.036 156.964 151.861 157.27 151.655 157.524C151.449 157.778 151.209 157.97 150.934 158.101C150.666 158.238 150.357 158.307 150.007 158.307Z" fill="#0F172A"/>
<path d="M463.876 156.041L466.482 152.684L466.719 152.931C466.616 153.006 466.516 153.068 466.42 153.116C466.324 153.164 466.221 153.199 466.111 153.219C466.001 153.24 465.885 153.25 465.761 153.25C465.294 153.25 464.879 153.144 464.515 152.931C464.151 152.718 463.863 152.43 463.65 152.066C463.444 151.695 463.341 151.276 463.341 150.809C463.341 150.315 463.454 149.876 463.681 149.491C463.914 149.107 464.23 148.805 464.628 148.585C465.033 148.358 465.493 148.245 466.008 148.245C466.53 148.245 466.99 148.355 467.388 148.575C467.786 148.794 468.099 149.096 468.325 149.481C468.559 149.858 468.675 150.294 468.675 150.789C468.675 151.036 468.648 151.283 468.593 151.53C468.538 151.777 468.439 152.042 468.294 152.323C468.157 152.598 467.958 152.91 467.697 153.26L465.555 156.041H463.876ZM466.008 152.076C466.248 152.076 466.461 152.025 466.647 151.922C466.839 151.812 466.99 151.661 467.1 151.468C467.21 151.269 467.265 151.046 467.265 150.799C467.265 150.538 467.206 150.312 467.089 150.119C466.98 149.927 466.832 149.776 466.647 149.666C466.461 149.556 466.248 149.501 466.008 149.501C465.775 149.501 465.562 149.556 465.37 149.666C465.177 149.776 465.023 149.927 464.906 150.119C464.796 150.312 464.741 150.538 464.741 150.799C464.741 151.046 464.796 151.269 464.906 151.468C465.023 151.661 465.177 151.812 465.37 151.922C465.562 152.025 465.775 152.076 466.008 152.076ZM472.358 156.165C471.802 156.165 471.318 156.062 470.906 155.856C470.501 155.643 470.185 155.358 469.958 155.001C469.739 154.644 469.629 154.252 469.629 153.827C469.629 153.326 469.763 152.903 470.03 152.56C470.298 152.21 470.686 151.952 471.194 151.788L471.112 152.128C470.748 152.011 470.459 151.784 470.247 151.448C470.041 151.111 469.938 150.741 469.938 150.336C469.938 149.93 470.041 149.57 470.247 149.254C470.453 148.938 470.738 148.691 471.101 148.513C471.465 148.334 471.884 148.245 472.358 148.245C472.825 148.245 473.237 148.334 473.594 148.513C473.958 148.691 474.242 148.938 474.448 149.254C474.661 149.57 474.768 149.93 474.768 150.336C474.768 150.748 474.661 151.122 474.448 151.458C474.242 151.788 473.958 152.014 473.594 152.138L473.522 151.777C474.03 151.956 474.418 152.22 474.685 152.57C474.953 152.914 475.087 153.336 475.087 153.837C475.087 154.263 474.974 154.654 474.747 155.011C474.527 155.361 474.212 155.643 473.8 155.856C473.395 156.062 472.914 156.165 472.358 156.165ZM472.358 154.98C472.626 154.98 472.859 154.932 473.058 154.836C473.257 154.733 473.412 154.592 473.522 154.414C473.631 154.228 473.686 154.019 473.686 153.786C473.686 153.545 473.631 153.339 473.522 153.168C473.412 152.989 473.257 152.852 473.058 152.756C472.859 152.653 472.626 152.601 472.358 152.601C472.09 152.601 471.857 152.653 471.658 152.756C471.465 152.852 471.314 152.989 471.204 153.168C471.095 153.339 471.04 153.545 471.04 153.786C471.04 154.019 471.095 154.228 471.204 154.414C471.314 154.592 471.465 154.733 471.658 154.836C471.857 154.932 472.09 154.98 472.358 154.98ZM472.358 151.417C472.557 151.417 472.732 151.372 472.883 151.283C473.034 151.194 473.151 151.077 473.233 150.933C473.322 150.782 473.367 150.61 473.367 150.418C473.367 150.226 473.322 150.058 473.233 149.913C473.151 149.762 473.034 149.646 472.883 149.563C472.732 149.474 472.557 149.429 472.358 149.429C472.159 149.429 471.98 149.474 471.822 149.563C471.671 149.646 471.551 149.762 471.462 149.913C471.379 150.058 471.338 150.226 471.338 150.418C471.338 150.61 471.379 150.782 471.462 150.933C471.551 151.077 471.671 151.194 471.822 151.283C471.98 151.372 472.159 151.417 472.358 151.417ZM476.877 156.041V154.599H478.237V156.041H476.877ZM479.976 156.041V154.98L482.057 152.807C482.469 152.375 482.785 152.031 483.004 151.777C483.231 151.516 483.389 151.293 483.478 151.108C483.567 150.923 483.612 150.734 483.612 150.542C483.612 150.219 483.509 149.965 483.303 149.779C483.104 149.594 482.846 149.501 482.53 149.501C482.201 149.501 481.916 149.598 481.676 149.79C481.435 149.975 481.26 150.25 481.15 150.614L479.925 150.233C480.007 149.828 480.176 149.477 480.43 149.182C480.684 148.88 480.993 148.65 481.356 148.492C481.727 148.327 482.119 148.245 482.53 148.245C483.025 148.245 483.457 148.334 483.828 148.513C484.206 148.691 484.498 148.942 484.703 149.265C484.916 149.587 485.023 149.965 485.023 150.397C485.023 150.672 484.971 150.943 484.868 151.211C484.765 151.479 484.611 151.753 484.405 152.035C484.199 152.309 483.931 152.618 483.602 152.962L481.799 154.857H485.126V156.041H479.976ZM487.223 156.041L493.444 148.369H494.886L488.665 156.041H487.223ZM488.428 152.261C488.044 152.261 487.697 152.172 487.388 151.994C487.086 151.808 486.846 151.565 486.667 151.262C486.489 150.96 486.399 150.624 486.399 150.253C486.399 149.882 486.489 149.546 486.667 149.244C486.846 148.935 487.086 148.691 487.388 148.513C487.697 148.334 488.04 148.245 488.418 148.245C488.802 148.245 489.146 148.334 489.448 148.513C489.75 148.691 489.99 148.935 490.169 149.244C490.347 149.546 490.437 149.882 490.437 150.253C490.437 150.624 490.347 150.96 490.169 151.262C489.99 151.565 489.75 151.808 489.448 151.994C489.146 152.172 488.806 152.261 488.428 152.261ZM488.418 151.221C488.624 151.221 488.796 151.177 488.933 151.087C489.07 150.991 489.173 150.871 489.242 150.727C489.317 150.576 489.355 150.418 489.355 150.253C489.355 150.082 489.317 149.924 489.242 149.779C489.173 149.635 489.07 149.515 488.933 149.419C488.796 149.323 488.624 149.275 488.418 149.275C488.226 149.275 488.058 149.323 487.913 149.419C487.776 149.515 487.67 149.639 487.594 149.79C487.519 149.934 487.481 150.088 487.481 150.253C487.481 150.411 487.519 150.566 487.594 150.717C487.67 150.868 487.776 150.991 487.913 151.087C488.058 151.177 488.226 151.221 488.418 151.221ZM493.65 156.165C493.272 156.165 492.929 156.075 492.62 155.897C492.318 155.711 492.077 155.468 491.899 155.166C491.72 154.864 491.631 154.527 491.631 154.156C491.631 153.786 491.72 153.449 491.899 153.147C492.077 152.838 492.318 152.594 492.62 152.416C492.929 152.237 493.272 152.148 493.65 152.148C494.034 152.148 494.377 152.237 494.68 152.416C494.982 152.594 495.222 152.838 495.4 153.147C495.579 153.449 495.668 153.786 495.668 154.156C495.668 154.527 495.579 154.864 495.4 155.166C495.222 155.468 494.982 155.711 494.68 155.897C494.377 156.075 494.034 156.165 493.65 156.165ZM493.65 155.124C493.849 155.124 494.017 155.08 494.154 154.991C494.299 154.894 494.405 154.774 494.474 154.63C494.549 154.479 494.587 154.321 494.587 154.156C494.587 153.985 494.549 153.827 494.474 153.683C494.405 153.538 494.299 153.418 494.154 153.322C494.017 153.226 493.849 153.178 493.65 153.178C493.457 153.178 493.289 153.226 493.145 153.322C493.008 153.418 492.901 153.542 492.826 153.693C492.75 153.837 492.713 153.992 492.713 154.156C492.713 154.314 492.75 154.469 492.826 154.62C492.901 154.771 493.008 154.894 493.145 154.991C493.289 155.08 493.457 155.124 493.65 155.124Z" fill="#6366F1"/>
</g>
<defs>
<filter id="filter0_d_528_4346" x="8.58199" y="30.0385" width="542.395" height="204.525" filterUnits="userSpaceOnUse" color-interpolation-filters="sRGB">
<feFlood flood-opacity="0" result="BackgroundImageFix"/>
<feColorMatrix in="SourceAlpha" type="matrix" values="0 0 0 0 0 0 0 0 0 0 0 0 0 0 0 0 0 0 127 0" result="hardAlpha"/>
<feMorphology radius="10.2986" operator="erode" in="SourceAlpha" result="effect1_dropShadow_528_4346"/>
<feOffset dy="21.4555"/>
<feGaussianBlur stdDeviation="21.4555"/>
<feComposite in2="hardAlpha" operator="out"/>
<feColorMatrix type="matrix" values="0 0 0 0 0 0 0 0 0 0 0 0 0 0 0 0 0 0 0.25 0"/>
<feBlend mode="normal" in2="BackgroundImageFix" result="effect1_dropShadow_528_4346"/>
<feBlend mode="normal" in="SourceGraphic" in2="effect1_dropShadow_528_4346" result="shape"/>
</filter>
</defs>
</svg>
