<svg width="32" height="32" viewBox="0 0 32 32" fill="none" xmlns="http://www.w3.org/2000/svg">
<rect width="32" height="32" rx="16" fill="#F1F5F9"/>
<path d="M13.8076 11.7273H15.3275L14.4894 16.8089C14.4089 17.2801 14.2385 17.6873 13.9781 18.0305C13.7177 18.3714 13.3874 18.6354 12.9873 18.8224C12.5872 19.0071 12.141 19.0994 11.6485 19.0994C11.2058 19.0994 10.8176 19.0213 10.4838 18.8651C10.1523 18.7088 9.90729 18.4721 9.74867 18.1548C9.59242 17.8376 9.55336 17.4375 9.63148 16.9545H11.1514C11.1277 17.151 11.1395 17.3168 11.1869 17.4517C11.2366 17.5866 11.3206 17.6896 11.439 17.7607C11.5574 17.8317 11.7053 17.8672 11.8829 17.8672C12.0747 17.8672 12.2451 17.8258 12.3943 17.7429C12.5434 17.66 12.6665 17.5381 12.7636 17.3771C12.863 17.2161 12.9329 17.0196 12.9731 16.7876L13.8076 11.7273ZM18.0051 19H15.3914L16.5988 11.7273H19.1627C19.8943 11.7273 20.5015 11.8764 20.9845 12.1747C21.4698 12.473 21.8119 12.9003 22.0107 13.4567C22.2096 14.0107 22.2451 14.6723 22.1173 15.4418C21.9942 16.1851 21.7491 16.8232 21.3822 17.3558C21.0152 17.8861 20.5453 18.2933 19.9724 18.5774C19.3995 18.8591 18.7437 19 18.0051 19ZM17.1492 17.6825H18.0938C18.5508 17.6825 18.9508 17.5973 19.2941 17.4268C19.6398 17.2564 19.9227 16.9936 20.1428 16.6385C20.3654 16.2834 20.5228 15.8288 20.6151 15.2749C20.7027 14.7493 20.6968 14.3232 20.5974 13.9964C20.5003 13.6674 20.3121 13.4271 20.0328 13.2756C19.7534 13.1217 19.3865 13.0447 18.9319 13.0447H17.9198L17.1492 17.6825Z" fill="#64748B"/>
</svg>
