<svg width="16" height="15" viewBox="0 0 16 15" fill="none" xmlns="http://www.w3.org/2000/svg">
<path d="M11.984 6.59766H3.154C2.45734 6.59766 1.89258 7.13472 1.89258 7.79722V11.9957C1.89258 12.6582 2.45734 13.1952 3.154 13.1952H11.984C12.6806 13.1952 13.2454 12.6582 13.2454 11.9957V7.79722C13.2454 7.13472 12.6806 6.59766 11.984 6.59766Z" stroke="white" stroke-width="1.19956" stroke-linecap="round" stroke-linejoin="round"/>
<path d="M4.41504 6.59724V4.19812C4.41504 3.40276 4.74729 2.63998 5.33869 2.07758C5.9301 1.51517 6.73222 1.19922 7.56859 1.19922C8.40497 1.19922 9.20709 1.51517 9.79849 2.07758C10.3899 2.63998 10.7221 3.40276 10.7221 4.19812V6.59724" stroke="white" stroke-width="1.19956" stroke-linecap="round" stroke-linejoin="round"/>
</svg>
