<svg width="204" height="41" viewBox="0 0 204 41" fill="none" xmlns="http://www.w3.org/2000/svg">
<rect width="39.072" height="40.7" rx="19.536" fill="#581ADF"/>
<path fill-rule="evenodd" clip-rule="evenodd" d="M30.5255 18.7932C30.4465 16.4622 29.9757 14.706 29.0637 13.3414C28.6512 12.7241 27.8358 11.9191 27.1988 11.5002C25.9364 10.6708 24.3858 10.1401 22.238 9.80147C20.8999 9.59101 16.8324 9.47401 16.7501 9.64318C16.7273 9.69042 16.8483 11.2907 16.9397 12.1513L16.9585 12.3275L17.7504 12.3369C19.2201 12.3535 20.7045 12.5304 21.9194 12.8329C24.9243 13.5795 26.6312 15.3267 27.1325 18.1687C27.307 19.1557 27.336 19.7909 27.2693 21.1553C27.2354 21.8482 27.2198 22.416 27.2345 22.4167C27.2493 22.4174 27.8758 22.5179 28.6269 22.6388C29.378 22.7597 30.0376 22.8549 30.0928 22.8508C30.1838 22.8438 30.2005 22.7929 30.2761 22.2976C30.3615 21.7375 30.5403 19.2254 30.5255 18.7932ZM29.8953 24.1686C29.8696 24.1674 23.8491 23.2197 23.2796 23.1265L23.0428 23.0884L23.0589 23.2363C23.0678 23.3188 23.1061 23.7622 23.1441 24.2236C23.2418 25.4093 23.2302 25.3447 23.3529 25.3741C23.4117 25.3881 24.0617 25.4896 24.7973 25.5997C25.5329 25.7097 26.8664 25.9121 27.7608 26.0499C28.6549 26.1877 29.4028 26.286 29.4228 26.2678C29.5068 26.1943 29.962 24.1717 29.8953 24.1686ZM26.2073 27.1452C24.6351 26.9079 23.3351 26.7127 23.3186 26.7131C23.3019 26.7134 23.2355 27.489 23.1709 28.4378C23.0837 29.717 23.0654 30.2296 23.0997 30.4234C23.2523 31.2835 24.0327 32.0621 24.9612 32.2824C25.5115 32.4118 26.1253 32.3599 26.6633 32.1359C27.0516 31.9756 27.5342 31.5826 27.7473 31.2533C27.9539 30.9349 28.7298 28.7905 29.0295 27.709L29.0657 27.5781L26.2073 27.1452ZM25.8491 19.8734C25.7924 17.9154 25.2927 16.4984 24.318 15.5342C23.3164 14.5429 21.809 13.984 19.4802 13.7424C18.5225 13.6432 17.0862 13.6157 17.0823 13.6976C17.0809 13.7267 17.1306 14.3089 17.1926 14.9917C17.2546 15.6745 17.3045 16.2511 17.3035 16.2724C17.3024 16.2948 17.4594 16.3539 17.6523 16.4058C19.1061 16.7947 20.4623 17.4668 21.1359 18.1313C21.7987 18.7852 22.3837 19.9838 22.7005 21.3371C22.7473 21.5371 22.7893 21.7043 22.7936 21.709C22.8116 21.7267 25.7031 22.1747 25.7182 22.1619C25.763 22.1247 25.8636 20.3685 25.8491 19.8734ZM15.6891 14.5532C15.6292 13.8975 15.5076 12.5488 15.4191 11.5569C15.3306 10.5638 15.2488 9.73739 15.2375 9.71888C15.2156 9.683 15.2093 9.68382 13.8366 9.83019C13.3357 9.88293 12.9079 9.94024 12.8857 9.95717C12.8637 9.97411 12.8809 10.4031 12.9239 10.9108C12.967 11.4174 13.0659 12.6278 13.1437 13.5979C13.2216 14.568 13.2934 15.4063 13.3034 15.4607C13.3243 15.573 13.254 15.5562 14.5606 15.7562C15.0686 15.8341 15.5554 15.9099 15.6422 15.9253C15.8345 15.9591 15.83 16.0937 15.6891 14.5532ZM11.6094 12.668C11.4977 11.3209 11.3921 10.2046 11.375 10.1858C11.2945 10.0977 7.65821 10.7877 7.19445 10.9793C6.76173 11.1577 6.31701 11.5345 6.08053 11.9234C5.68146 12.5788 5.65099 13.2358 5.98684 13.9406C6.15461 14.2935 6.68457 14.804 7.07823 14.9923C7.58312 15.233 7.70865 15.2479 9.84219 15.3218L11.8105 15.3891L11.8116 15.2531C11.8122 15.179 11.7212 14.015 11.6094 12.668Z" fill="white"/>
<path d="M58.1485 13.6282C60.0955 13.6282 61.7533 14.3703 63.1218 15.8545C64.5098 17.3196 65.2037 19.1219 65.2037 21.2616C65.2037 23.4013 64.5098 25.2133 63.1218 26.6976C61.7533 28.1625 60.0955 28.8951 58.1485 28.8951C56.1245 28.8951 54.5631 28.1914 53.4644 26.7843V28.4903H49.7344V8.25H53.4644V15.7389C54.5631 14.3317 56.1245 13.6282 58.1485 13.6282ZM54.592 24.2109C55.3438 24.9627 56.298 25.3385 57.4546 25.3385C58.6111 25.3385 59.5654 24.9627 60.3171 24.2109C61.0882 23.4398 61.4737 22.4567 61.4737 21.2616C61.4737 20.0664 61.0882 19.093 60.3171 18.3412C59.5654 17.5701 58.6111 17.1846 57.4546 17.1846C56.298 17.1846 55.3438 17.5701 54.592 18.3412C53.8403 19.093 53.4644 20.0664 53.4644 21.2616C53.4644 22.4567 53.8403 23.4398 54.592 24.2109Z" fill="#581ADF"/>
<path d="M79.96 26.6964C78.4758 28.1613 76.6638 28.8938 74.5241 28.8938C72.3844 28.8938 70.5724 28.1613 69.0882 26.6964C67.6231 25.212 66.8906 23.4001 66.8906 21.2604C66.8906 19.1207 67.6231 17.3184 69.0882 15.8533C70.5724 14.3691 72.3844 13.627 74.5241 13.627C76.6638 13.627 78.4758 14.3691 79.96 15.8533C81.4444 17.3184 82.1865 19.1207 82.1865 21.2604C82.1865 23.4001 81.4444 25.212 79.96 26.6964ZM71.7194 24.1229C72.4712 24.8747 73.406 25.2506 74.5241 25.2506C75.6421 25.2506 76.5771 24.8747 77.3288 24.1229C78.0806 23.3712 78.4565 22.4169 78.4565 21.2604C78.4565 20.1038 78.0806 19.1496 77.3288 18.3978C76.5771 17.6461 75.6421 17.2702 74.5241 17.2702C73.406 17.2702 72.4712 17.6461 71.7194 18.3978C70.9869 19.1496 70.6206 20.1038 70.6206 21.2604C70.6206 22.4169 70.9869 23.3712 71.7194 24.1229Z" fill="#581ADF"/>
<path d="M97.0538 26.6964C95.5695 28.1613 93.7575 28.8938 91.6178 28.8938C89.4781 28.8938 87.6662 28.1613 86.1819 26.6964C84.7169 25.212 83.9844 23.4001 83.9844 21.2604C83.9844 19.1207 84.7169 17.3184 86.1819 15.8533C87.6662 14.3691 89.4781 13.627 91.6178 13.627C93.7575 13.627 95.5695 14.3691 97.0538 15.8533C98.5381 17.3184 99.2802 19.1207 99.2802 21.2604C99.2802 23.4001 98.5381 25.212 97.0538 26.6964ZM88.8131 24.1229C89.5649 24.8747 90.4998 25.2506 91.6178 25.2506C92.7359 25.2506 93.6708 24.8747 94.4225 24.1229C95.1744 23.3712 95.5503 22.4169 95.5503 21.2604C95.5503 20.1038 95.1744 19.1496 94.4225 18.3978C93.6708 17.6461 92.7359 17.2702 91.6178 17.2702C90.4998 17.2702 89.5649 17.6461 88.8131 18.3978C88.0807 19.1496 87.7144 20.1038 87.7144 21.2604C87.7144 22.4169 88.0807 23.3712 88.8131 24.1229Z" fill="#581ADF"/>
<path d="M117.818 13.627C119.476 13.627 120.796 14.1666 121.779 15.2462C122.782 16.3256 123.283 17.7714 123.283 19.5833V28.489H119.553V19.8436C119.553 18.9762 119.341 18.3014 118.917 17.8195C118.493 17.3377 117.895 17.0967 117.124 17.0967C116.276 17.0967 115.611 17.3762 115.129 17.9352C114.666 18.4942 114.435 19.3038 114.435 20.364V28.489H110.705V19.8436C110.705 18.9762 110.493 18.3014 110.069 17.8195C109.645 17.3377 109.047 17.0967 108.276 17.0967C107.447 17.0967 106.782 17.3762 106.281 17.9352C105.799 18.4942 105.558 19.3038 105.558 20.364V28.489H101.828V14.0318H105.558V15.5642C106.426 14.2727 107.765 13.627 109.577 13.627C111.351 13.627 112.661 14.3209 113.51 15.7088C114.473 14.3209 115.91 13.627 117.818 13.627Z" fill="#581ADF"/>
<path d="M129.4 22.7928C129.9 24.6049 131.26 25.5109 133.476 25.5109C134.903 25.5109 135.983 25.0289 136.715 24.0651L139.722 25.8C138.295 27.8626 136.194 28.8938 133.419 28.8938C131.029 28.8938 129.11 28.171 127.665 26.7253C126.219 25.2795 125.496 23.4579 125.496 21.2604C125.496 19.0821 126.209 17.2702 127.636 15.8244C129.062 14.3594 130.894 13.627 133.13 13.627C135.25 13.627 136.994 14.3594 138.363 15.8244C139.751 17.2895 140.445 19.1014 140.445 21.2604C140.445 21.7423 140.397 22.2532 140.3 22.7928H129.4ZM129.342 19.9014H136.715C136.503 18.9183 136.059 18.1858 135.385 17.7039C134.729 17.222 133.978 16.981 133.13 16.981C132.128 16.981 131.298 17.2413 130.643 17.7617C129.988 18.2629 129.554 18.9762 129.342 19.9014Z" fill="#581ADF"/>
<path d="M146.261 16.518C146.608 15.5927 147.177 14.8988 147.967 14.4362C148.776 13.9735 149.673 13.7422 150.656 13.7422V17.906C149.519 17.771 148.497 18.0023 147.591 18.5999C146.705 19.1975 146.261 20.1902 146.261 21.5781V28.4887H142.531V14.0314H146.261V16.518Z" fill="#581ADF"/>
<path d="M163.286 14.0318H167.016V28.489H163.286V26.7831C162.169 28.1902 160.598 28.8938 158.573 28.8938C156.646 28.8938 154.988 28.1613 153.6 26.6964C152.231 25.212 151.547 23.4001 151.547 21.2604C151.547 19.1207 152.231 17.3184 153.6 15.8533C154.988 14.3691 156.646 13.627 158.573 13.627C160.598 13.627 162.169 14.3305 163.286 15.7377V14.0318ZM156.405 24.2097C157.156 24.9615 158.111 25.3373 159.268 25.3373C160.424 25.3373 161.378 24.9615 162.13 24.2097C162.901 23.4386 163.286 22.4555 163.286 21.2604C163.286 20.0652 162.901 19.0918 162.13 18.34C161.378 17.5689 160.424 17.1834 159.268 17.1834C158.111 17.1834 157.156 17.5689 156.405 18.34C155.653 19.0918 155.277 20.0652 155.277 21.2604C155.277 22.4555 155.653 23.4386 156.405 24.2097Z" fill="#581ADF"/>
<path d="M178.245 13.627C179.826 13.627 181.127 14.157 182.148 15.2172C183.19 16.2774 183.71 17.7425 183.71 19.6122V28.489H179.98V20.0749C179.98 19.111 179.719 18.3785 179.199 17.8773C178.679 17.3569 177.985 17.0967 177.117 17.0967C176.153 17.0967 175.382 17.3954 174.805 17.993C174.226 18.5906 173.937 19.4869 173.937 20.6821V28.489H170.207V14.0318H173.937V15.651C174.843 14.3016 176.279 13.627 178.245 13.627Z" fill="#581ADF"/>
<path d="M197.56 14.44H201.204V28.2033C201.204 30.4394 200.461 32.1454 198.977 33.3213C197.512 34.4971 195.738 35.085 193.657 35.085C192.096 35.085 190.717 34.7862 189.522 34.1887C188.347 33.5911 187.441 32.714 186.804 31.5574L189.985 29.7358C190.717 31.0851 191.98 31.7598 193.773 31.7598C194.948 31.7598 195.874 31.4514 196.548 30.8346C197.223 30.2177 197.56 29.3406 197.56 28.2033V26.6419C196.461 28.1069 194.92 28.8395 192.934 28.8395C190.891 28.8395 189.175 28.1262 187.787 26.6998C186.419 25.254 185.734 23.4999 185.734 21.4373C185.734 19.394 186.428 17.6495 187.816 16.2037C189.204 14.758 190.91 14.0352 192.934 14.0352C194.92 14.0352 196.461 14.7677 197.56 16.2326V14.44ZM190.592 24.2999C191.363 25.0324 192.337 25.3986 193.512 25.3986C194.688 25.3986 195.652 25.0324 196.403 24.2999C197.175 23.548 197.56 22.5939 197.56 21.4373C197.56 20.3 197.175 19.3651 196.403 18.6325C195.652 17.8808 194.688 17.5049 193.512 17.5049C192.337 17.5049 191.363 17.8808 190.592 18.6325C189.84 19.3651 189.464 20.3 189.464 21.4373C189.464 22.5939 189.84 23.548 190.592 24.2999Z" fill="#581ADF"/>
</svg>
