<svg width="223" height="45" viewBox="0 0 223 45" fill="none" xmlns="http://www.w3.org/2000/svg">
<rect width="42.816" height="44.6" rx="21.408" fill="white"/>
<path fill-rule="evenodd" clip-rule="evenodd" d="M33.4501 20.5936C33.3635 18.0392 32.8476 16.1148 31.8482 14.6194C31.3962 13.9429 30.5027 13.0608 29.8046 12.6018C28.4213 11.6928 26.7221 11.1113 24.3684 10.7402C22.9022 10.5096 18.4449 10.3814 18.3547 10.5668C18.3298 10.6185 18.4623 12.3722 18.5625 13.3153L18.583 13.5083L19.4508 13.5186C21.0614 13.5368 22.688 13.7307 24.0193 14.0621C27.3122 14.8803 29.1826 16.7949 29.732 19.9092C29.9232 20.9908 29.955 21.6869 29.8819 23.182C29.8447 23.9413 29.8276 24.5636 29.8438 24.5643C29.86 24.5651 30.5465 24.6751 31.3696 24.8076C32.1927 24.9401 32.9155 25.0445 32.976 25.04C33.0757 25.0324 33.094 24.9766 33.1768 24.4338C33.2704 23.82 33.4663 21.0672 33.4501 20.5936ZM32.7596 26.484C32.7314 26.4827 26.134 25.4443 25.5099 25.3421L25.2504 25.3003L25.2681 25.4625C25.2778 25.5528 25.3198 26.0387 25.3614 26.5444C25.4685 27.8436 25.4558 27.7728 25.5902 27.8051C25.6546 27.8204 26.3669 27.9317 27.173 28.0523C27.9791 28.1729 29.4404 28.3947 30.4204 28.5457C31.4003 28.6967 32.2198 28.8044 32.2417 28.7845C32.3338 28.7039 32.8326 26.4875 32.7596 26.484ZM28.7181 29.7459C26.9953 29.4859 25.5707 29.272 25.5526 29.2724C25.5343 29.2727 25.4616 30.1227 25.3907 31.1623C25.2952 32.5641 25.2752 33.1259 25.3127 33.3382C25.48 34.2808 26.3351 35.1339 27.3527 35.3754C27.9556 35.5172 28.6283 35.4603 29.2178 35.2148C29.6433 35.0391 30.1721 34.6085 30.4057 34.2476C30.6321 33.8988 31.4824 31.5488 31.8108 30.3637L31.8505 30.2203L28.7181 29.7459ZM28.3256 21.7773C28.2635 19.6317 27.7159 18.0789 26.6478 17.0223C25.5502 15.936 23.8984 15.3235 21.3464 15.0588C20.297 14.9501 18.723 14.92 18.7188 15.0097C18.7173 15.0416 18.7717 15.6796 18.8396 16.4278C18.9075 17.176 18.9623 17.8079 18.9612 17.8312C18.96 17.8558 19.132 17.9206 19.3433 17.9774C20.9365 18.4036 22.4226 19.1401 23.1608 19.8683C23.8871 20.5848 24.5281 21.8982 24.8753 23.3813C24.9266 23.6004 24.9726 23.7836 24.9773 23.7888C24.9971 23.8082 28.1656 24.2991 28.1821 24.2851C28.2313 24.2443 28.3414 22.3199 28.3256 21.7773ZM17.192 15.9473C17.1264 15.2287 16.9932 13.7509 16.8962 12.6639C16.7992 11.5756 16.7096 10.67 16.6972 10.6497C16.6732 10.6104 16.6662 10.6113 15.162 10.7717C14.6131 10.8295 14.1443 10.8923 14.12 10.9109C14.0959 10.9294 14.1147 11.3995 14.1619 11.9558C14.2091 12.511 14.3174 13.8374 14.4028 14.9005C14.4881 15.9635 14.5668 16.8822 14.5777 16.9418C14.6006 17.0648 14.5236 17.0464 15.9554 17.2655C16.5121 17.351 17.0455 17.434 17.1407 17.4509C17.3514 17.4879 17.3464 17.6354 17.192 15.9473ZM12.7214 13.8814C12.599 12.4053 12.4833 11.182 12.4646 11.1614C12.3763 11.0649 8.39161 11.821 7.88341 12.0309C7.40923 12.2265 6.9219 12.6394 6.66275 13.0655C6.22544 13.7837 6.19206 14.5037 6.56008 15.2759C6.74393 15.6627 7.32468 16.2221 7.75606 16.4284C8.30933 16.6923 8.44689 16.7086 10.7849 16.7896L12.9418 16.8632L12.943 16.7143C12.9437 16.633 12.844 15.3575 12.7214 13.8814Z" fill="#5550FF"/>
<path d="M63.7204 14.9326C65.8539 14.9326 67.6706 15.7458 69.1703 17.3723C70.6912 18.9777 71.4517 20.9528 71.4517 23.2975C71.4517 25.6422 70.6912 27.6278 69.1703 29.2544C67.6706 30.8597 65.8539 31.6624 63.7204 31.6624C61.5025 31.6624 59.7915 30.8913 58.5874 29.3493V31.2188H54.5V9.03906H58.5874V17.2455C59.7915 15.7035 61.5025 14.9326 63.7204 14.9326ZM59.8231 26.5294C60.647 27.3532 61.6926 27.7651 62.96 27.7651C64.2274 27.7651 65.2731 27.3532 66.0968 26.5294C66.9418 25.6844 67.3643 24.6071 67.3643 23.2975C67.3643 21.9878 66.9418 20.9211 66.0968 20.0973C65.2731 19.2523 64.2274 18.8298 62.96 18.8298C61.6926 18.8298 60.647 19.2523 59.8231 20.0973C58.9993 20.9211 58.5874 21.9878 58.5874 23.2975C58.5874 24.6071 58.9993 25.6844 59.8231 26.5294Z" fill="white"/>
<path d="M87.6186 29.2554C85.9922 30.8607 84.0065 31.6634 81.6618 31.6634C79.3171 31.6634 77.3315 30.8607 75.705 29.2554C74.0996 27.6288 73.2969 25.6432 73.2969 23.2985C73.2969 20.9538 74.0996 18.9787 75.705 17.3733C77.3315 15.7468 79.3171 14.9336 81.6618 14.9336C84.0065 14.9336 85.9922 15.7468 87.6186 17.3733C89.2452 18.9787 90.0584 20.9538 90.0584 23.2985C90.0584 25.6432 89.2452 27.6288 87.6186 29.2554ZM78.5883 26.4353C79.4122 27.2592 80.4366 27.6711 81.6618 27.6711C82.8869 27.6711 83.9115 27.2592 84.7353 26.4353C85.5591 25.6115 85.971 24.5659 85.971 23.2985C85.971 22.0311 85.5591 20.9855 84.7353 20.1616C83.9115 19.3378 82.8869 18.9259 81.6618 18.9259C80.4366 18.9259 79.4122 19.3378 78.5883 20.1616C77.7857 20.9855 77.3843 22.0311 77.3843 23.2985C77.3843 24.5659 77.7857 25.6115 78.5883 26.4353Z" fill="white"/>
<path d="M106.353 29.2554C104.727 30.8607 102.741 31.6634 100.396 31.6634C98.0514 31.6634 96.0659 30.8607 94.4394 29.2554C92.834 27.6288 92.0312 25.6432 92.0312 23.2985C92.0312 20.9538 92.834 18.9787 94.4394 17.3733C96.0659 15.7468 98.0514 14.9336 100.396 14.9336C102.741 14.9336 104.727 15.7468 106.353 17.3733C107.98 18.9787 108.793 20.9538 108.793 23.2985C108.793 25.6432 107.98 27.6288 106.353 29.2554ZM97.3227 26.4353C98.1465 27.2592 99.171 27.6711 100.396 27.6711C101.621 27.6711 102.646 27.2592 103.47 26.4353C104.293 25.6115 104.705 24.5659 104.705 23.2985C104.705 22.0311 104.293 20.9855 103.47 20.1616C102.646 19.3378 101.621 18.9259 100.396 18.9259C99.171 18.9259 98.1465 19.3378 97.3227 20.1616C96.5201 20.9855 96.1187 22.0311 96.1187 23.2985C96.1187 24.5659 96.5201 25.6115 97.3227 26.4353Z" fill="white"/>
<path d="M129.108 14.9336C130.924 14.9336 132.371 15.525 133.449 16.708C134.547 17.8908 135.096 19.4751 135.096 21.4607V31.2198H131.009V21.7459C131.009 20.7954 130.777 20.056 130.312 19.5279C129.847 18.9999 129.192 18.7358 128.348 18.7358C127.418 18.7358 126.689 19.0421 126.161 19.6547C125.654 20.2672 125.401 21.1544 125.401 22.3162V31.2198H121.313V21.7459C121.313 20.7954 121.081 20.056 120.616 19.5279C120.152 18.9999 119.497 18.7358 118.652 18.7358C117.743 18.7358 117.015 19.0421 116.465 19.6547C115.937 20.2672 115.673 21.1544 115.673 22.3162V31.2198H111.586V15.3772H115.673V17.0565C116.624 15.6412 118.092 14.9336 120.078 14.9336C122.021 14.9336 123.457 15.694 124.387 17.2149C125.443 15.694 127.017 14.9336 129.108 14.9336Z" fill="white"/>
<path d="M141.801 24.9778C142.35 26.9635 143.84 27.9563 146.268 27.9563C147.832 27.9563 149.015 27.4281 149.818 26.372L153.113 28.2731C151.549 30.5333 149.247 31.6634 146.205 31.6634C143.586 31.6634 141.484 30.8713 139.9 29.287C138.316 27.7028 137.523 25.7065 137.523 23.2985C137.523 20.9115 138.305 18.9259 139.868 17.3416C141.431 15.7362 143.438 14.9336 145.888 14.9336C148.212 14.9336 150.124 15.7362 151.623 17.3416C153.144 18.9471 153.905 20.9327 153.905 23.2985C153.905 23.8266 153.852 24.3864 153.746 24.9778H141.801ZM141.738 21.8093H149.818C149.585 20.7319 149.099 19.9292 148.36 19.4012C147.641 18.8731 146.818 18.6091 145.888 18.6091C144.79 18.6091 143.881 18.8943 143.163 19.4646C142.445 20.0138 141.97 20.7954 141.738 21.8093Z" fill="white"/>
<path d="M160.275 18.1004C160.655 17.0865 161.278 16.326 162.144 15.8191C163.031 15.3121 164.014 15.0586 165.091 15.0586V19.6214C163.844 19.4735 162.725 19.727 161.732 20.3818C160.761 21.0366 160.275 22.1245 160.275 23.6453V31.2182H156.188V15.3755H160.275V18.1004Z" fill="white"/>
<path d="M178.931 15.3772H183.018V31.2198H178.931V29.3504C177.706 30.8924 175.985 31.6634 173.766 31.6634C171.654 31.6634 169.837 30.8607 168.316 29.2554C166.817 27.6288 166.066 25.6432 166.066 23.2985C166.066 20.9538 166.817 18.9787 168.316 17.3733C169.837 15.7468 171.654 14.9336 173.766 14.9336C175.985 14.9336 177.706 15.7045 178.931 17.2465V15.3772ZM171.39 26.5304C172.213 27.3542 173.259 27.7661 174.527 27.7661C175.794 27.7661 176.84 27.3542 177.663 26.5304C178.508 25.6854 178.931 24.6081 178.931 23.2985C178.931 21.9888 178.508 20.9221 177.663 20.0983C176.84 19.2533 175.794 18.8308 174.527 18.8308C173.259 18.8308 172.213 19.2533 171.39 20.0983C170.566 20.9221 170.154 21.9888 170.154 23.2985C170.154 24.6081 170.566 25.6854 171.39 26.5304Z" fill="white"/>
<path d="M195.324 14.9336C197.056 14.9336 198.482 15.5145 199.601 16.6762C200.742 17.838 201.312 19.4435 201.312 21.4924V31.2198H197.225V21.9994C197.225 20.9432 196.94 20.1405 196.37 19.5913C195.8 19.0209 195.039 18.7358 194.088 18.7358C193.032 18.7358 192.187 19.0632 191.554 19.718C190.919 20.3728 190.603 21.3551 190.603 22.6647V31.2198H186.516V15.3772H190.603V17.1516C191.596 15.6729 193.169 14.9336 195.324 14.9336Z" fill="white"/>
<path d="M216.49 15.8225H220.483V30.9047C220.483 33.355 219.669 35.2245 218.043 36.5131C216.438 37.8016 214.494 38.4459 212.213 38.4459C210.502 38.4459 208.991 38.1184 207.682 37.4636C206.394 36.8088 205.401 35.8476 204.703 34.5802L208.189 32.5841C208.991 34.0626 210.376 34.802 212.34 34.802C213.628 34.802 214.642 34.464 215.381 33.7881C216.121 33.1121 216.49 32.151 216.49 30.9047V29.1937C215.286 30.7991 213.597 31.6018 211.421 31.6018C209.182 31.6018 207.302 30.8202 205.781 29.2571C204.281 27.6728 203.531 25.7505 203.531 23.4903C203.531 21.2512 204.291 19.3396 205.812 17.7553C207.333 16.171 209.203 15.3789 211.421 15.3789C213.597 15.3789 215.286 16.1816 216.49 17.7869V15.8225ZM208.855 26.6272C209.699 27.4299 210.766 27.8312 212.054 27.8312C213.343 27.8312 214.399 27.4299 215.223 26.6272C216.068 25.8034 216.49 24.7578 216.49 23.4903C216.49 22.2441 216.068 21.2195 215.223 20.4168C214.399 19.5931 213.343 19.1811 212.054 19.1811C210.766 19.1811 209.699 19.5931 208.855 20.4168C208.03 21.2195 207.618 22.2441 207.618 23.4903C207.618 24.7578 208.03 25.8034 208.855 26.6272Z" fill="white"/>
</svg>
