<svg width="205" height="41" viewBox="0 0 205 41" fill="none" xmlns="http://www.w3.org/2000/svg">
<rect y="0.00195312" width="39.3162" height="40.9544" rx="19.6581" fill="#5550FF"/>
<path fill-rule="evenodd" clip-rule="evenodd" d="M30.7182 18.9137C30.6387 16.5682 30.1649 14.801 29.2473 13.4279C28.8322 12.8067 28.0117 11.9967 27.3707 11.5752C26.1004 10.7405 24.5401 10.2066 22.3788 9.86579C21.0324 9.65401 16.9395 9.53629 16.8567 9.70651C16.8338 9.75405 16.9555 11.3643 17.0475 12.2303L17.0664 12.4076L17.8632 12.417C19.3422 12.4338 20.8358 12.6118 22.0583 12.9161C25.082 13.6674 26.7995 15.4255 27.304 18.2853C27.4795 19.2785 27.5087 19.9176 27.4417 21.2906C27.4075 21.9878 27.3918 22.5592 27.4066 22.5599C27.4215 22.5606 28.052 22.6617 28.8077 22.7833C29.5635 22.905 30.2272 23.0008 30.2828 22.9967C30.3744 22.9897 30.3912 22.9385 30.4672 22.44C30.5532 21.8764 30.7331 19.3486 30.7182 18.9137ZM30.0841 24.3227C30.0582 24.3215 24.0001 23.3679 23.427 23.2741L23.1887 23.2357L23.205 23.3846C23.2139 23.4676 23.2525 23.9138 23.2907 24.3781C23.389 25.5712 23.3773 25.5061 23.5008 25.5357C23.5599 25.5498 24.214 25.652 24.9542 25.7627C25.6944 25.8735 27.0363 26.0771 27.9362 26.2158C28.8359 26.3545 29.5885 26.4534 29.6085 26.4351C29.6931 26.3611 30.1512 24.3259 30.0841 24.3227ZM26.373 27.3179C24.791 27.0792 23.4828 26.8828 23.4663 26.8831C23.4494 26.8834 23.3826 27.6639 23.3176 28.6186C23.2298 29.9057 23.2115 30.4216 23.2459 30.6166C23.3995 31.4821 24.1848 32.2655 25.1192 32.4872C25.6728 32.6174 26.2905 32.5652 26.8318 32.3398C27.2225 32.1785 27.7082 31.783 27.9226 31.4517C28.1305 31.1313 28.9113 28.9735 29.2128 27.8852L29.2493 27.7535L26.373 27.3179ZM26.0126 20.0007C25.9555 18.0305 25.4527 16.6046 24.4719 15.6344C23.464 14.6369 21.9472 14.0744 19.6039 13.8313C18.6402 13.7315 17.1949 13.7039 17.191 13.7863C17.1896 13.8156 17.2396 14.4014 17.302 15.0885C17.3643 15.7755 17.4146 16.3557 17.4136 16.3772C17.4125 16.3997 17.5704 16.4592 17.7645 16.5114C19.2274 16.9028 20.5921 17.579 21.2699 18.2477C21.9368 18.9057 22.5255 20.1117 22.8442 21.4735C22.8914 21.6748 22.9336 21.843 22.938 21.8477C22.9561 21.8656 25.8657 22.3163 25.8808 22.3035C25.9259 22.266 26.0271 20.4989 26.0126 20.0007ZM15.7891 14.6472C15.7288 13.9874 15.6065 12.6303 15.5174 11.6322C15.4284 10.6329 15.3461 9.80131 15.3347 9.78268C15.3126 9.74659 15.3062 9.74741 13.9249 9.8947C13.4209 9.94776 12.9904 10.0054 12.9681 10.0225C12.946 10.0395 12.9633 10.4711 13.0066 10.982C13.05 11.4918 13.1494 12.7098 13.2278 13.686C13.3061 14.6621 13.3784 15.5057 13.3884 15.5604C13.4095 15.6734 13.3387 15.6565 14.6535 15.8577C15.1647 15.9361 15.6545 16.0124 15.7419 16.0279C15.9354 16.0619 15.9308 16.1974 15.7891 14.6472ZM11.6839 12.7502C11.5715 11.3948 11.4652 10.2714 11.448 10.2525C11.367 10.1639 7.70798 10.8582 7.24132 11.051C6.8059 11.2305 6.3584 11.6097 6.12044 12.001C5.71888 12.6604 5.68822 13.3216 6.02616 14.0307C6.19498 14.3859 6.72826 14.8996 7.12438 15.089C7.63242 15.3313 7.75874 15.3463 9.90561 15.4207L11.8863 15.4883L11.8873 15.3515C11.888 15.2769 11.7964 14.1057 11.6839 12.7502Z" fill="white"/>
<path d="M58.5136 13.7145C60.4727 13.7145 62.1409 14.4613 63.518 15.9548C64.9146 17.429 65.6129 19.2426 65.6129 21.3957C65.6129 23.5487 64.9146 25.372 63.518 26.8656C62.1409 28.3397 60.4727 29.0768 58.5136 29.0768C56.477 29.0768 54.9058 28.3688 53.8002 26.9528V28.6695H50.0469V8.30273H53.8002V15.8384C54.9058 14.4224 56.477 13.7145 58.5136 13.7145ZM54.9349 24.3634C55.6914 25.1199 56.6515 25.4981 57.8154 25.4981C58.9791 25.4981 59.9393 25.1199 60.6958 24.3634C61.4717 23.5875 61.8596 22.5983 61.8596 21.3957C61.8596 20.193 61.4717 19.2135 60.6958 18.457C59.9393 17.6811 58.9791 17.2932 57.8154 17.2932C56.6515 17.2932 55.6914 17.6811 54.9349 18.457C54.1784 19.2135 53.8002 20.193 53.8002 21.3957C53.8002 22.5983 54.1784 23.5875 54.9349 24.3634Z" fill="#5550FF"/>
<path d="M80.4597 26.864C78.9662 28.3381 77.1428 29.0752 74.9898 29.0752C72.8367 29.0752 71.0134 28.3381 69.5199 26.864C68.0457 25.3704 67.3086 23.5471 67.3086 21.394C67.3086 19.241 68.0457 17.4274 69.5199 15.9532C71.0134 14.4597 72.8367 13.7129 74.9898 13.7129C77.1428 13.7129 78.9662 14.4597 80.4597 15.9532C81.9533 17.4274 82.7001 19.241 82.7001 21.394C82.7001 23.5471 81.9533 25.3704 80.4597 26.864ZM72.1675 24.2744C72.924 25.031 73.8647 25.4092 74.9898 25.4092C76.1148 25.4092 77.0556 25.031 77.812 24.2744C78.5685 23.518 78.9468 22.5578 78.9468 21.394C78.9468 20.2302 78.5685 19.2701 77.812 18.5136C77.0556 17.7571 76.1148 17.3789 74.9898 17.3789C73.8647 17.3789 72.924 17.7571 72.1675 18.5136C71.4305 19.2701 71.0619 20.2302 71.0619 21.394C71.0619 22.5578 71.4305 23.518 72.1675 24.2744Z" fill="#5550FF"/>
<path d="M97.6589 26.864C96.1654 28.3381 94.342 29.0752 92.189 29.0752C90.0359 29.0752 88.2126 28.3381 86.7191 26.864C85.2449 25.3704 84.5078 23.5471 84.5078 21.394C84.5078 19.241 85.2449 17.4274 86.7191 15.9532C88.2126 14.4597 90.0359 13.7129 92.189 13.7129C94.342 13.7129 96.1654 14.4597 97.6589 15.9532C99.1525 17.4274 99.8993 19.241 99.8993 21.394C99.8993 23.5471 99.1525 25.3704 97.6589 26.864ZM89.3667 24.2744C90.1232 25.031 91.064 25.4092 92.189 25.4092C93.314 25.4092 94.2548 25.031 95.0112 24.2744C95.7677 23.518 96.146 22.5578 96.146 21.394C96.146 20.2302 95.7677 19.2701 95.0112 18.5136C94.2548 17.7571 93.314 17.3789 92.189 17.3789C91.064 17.3789 90.1232 17.7571 89.3667 18.5136C88.6297 19.2701 88.2611 20.2302 88.2611 21.394C88.2611 22.5578 88.6297 23.518 89.3667 24.2744Z" fill="#5550FF"/>
<path d="M118.555 13.7129C120.223 13.7129 121.551 14.2559 122.541 15.3422C123.549 16.4284 124.054 17.8832 124.054 19.7065V28.6679H120.3V19.9683C120.3 19.0955 120.087 18.4166 119.66 17.9317C119.233 17.4468 118.632 17.2043 117.856 17.2043C117.003 17.2043 116.334 17.4855 115.849 18.0481C115.383 18.6105 115.15 19.4252 115.15 20.4921V28.6679H111.397V19.9683C111.397 19.0955 111.184 18.4166 110.757 17.9317C110.33 17.4468 109.729 17.2043 108.953 17.2043C108.119 17.2043 107.45 17.4855 106.945 18.0481C106.461 18.6105 106.218 19.4252 106.218 20.4921V28.6679H102.465V14.1202H106.218V15.6622C107.091 14.3627 108.439 13.7129 110.262 13.7129C112.047 13.7129 113.366 14.4112 114.219 15.8077C115.189 14.4112 116.634 13.7129 118.555 13.7129Z" fill="#5550FF"/>
<path d="M130.209 22.9361C130.713 24.7594 132.081 25.6711 134.311 25.6711C135.747 25.6711 136.833 25.1861 137.571 24.2163L140.596 25.962C139.16 28.0375 137.046 29.0752 134.253 29.0752C131.848 29.0752 129.918 28.3479 128.463 26.8931C127.009 25.4383 126.281 23.6053 126.281 21.394C126.281 19.2022 126.999 17.3789 128.434 15.9241C129.87 14.4499 131.712 13.7129 133.962 13.7129C136.096 13.7129 137.852 14.4499 139.228 15.9241C140.625 17.3983 141.324 19.2216 141.324 21.394C141.324 21.8789 141.275 22.393 141.178 22.9361H130.209ZM130.151 20.0266H137.571C137.357 19.0373 136.91 18.3002 136.232 17.8153C135.572 17.3304 134.816 17.0879 133.962 17.0879C132.954 17.0879 132.12 17.3498 131.46 17.8735C130.801 18.3778 130.364 19.0955 130.151 20.0266Z" fill="#5550FF"/>
<path d="M147.175 16.6213C147.524 15.6902 148.096 14.992 148.892 14.5265C149.706 14.0609 150.609 13.8281 151.597 13.8281V18.0179C150.453 17.8821 149.425 18.1149 148.513 18.7162C147.621 19.3175 147.175 20.3164 147.175 21.713V28.6668H143.422V14.1191H147.175V16.6213Z" fill="#5550FF"/>
<path d="M164.305 14.1202H168.058V28.6679H164.305V26.9512C163.18 28.3672 161.6 29.0752 159.563 29.0752C157.623 29.0752 155.954 28.3381 154.558 26.864C153.181 25.3704 152.492 23.5471 152.492 21.394C152.492 19.241 153.181 17.4274 154.558 15.9532C155.954 14.4597 157.623 13.7129 159.563 13.7129C161.6 13.7129 163.18 14.4208 164.305 15.8368V14.1202ZM157.381 24.3618C158.137 25.1183 159.097 25.4964 160.261 25.4964C161.424 25.4964 162.385 25.1183 163.141 24.3618C163.917 23.5858 164.305 22.5966 164.305 21.394C164.305 20.1914 163.917 19.2119 163.141 18.4554C162.385 17.6795 161.424 17.2916 160.261 17.2916C159.097 17.2916 158.137 17.6795 157.381 18.4554C156.624 19.2119 156.246 20.1914 156.246 21.394C156.246 22.5966 156.624 23.5858 157.381 24.3618Z" fill="#5550FF"/>
<path d="M179.358 13.7129C180.949 13.7129 182.258 14.2463 183.286 15.3131C184.333 16.3799 184.857 17.8541 184.857 19.7356V28.6679H181.104V20.2011C181.104 19.2312 180.841 18.4941 180.318 17.9898C179.795 17.4661 179.096 17.2043 178.223 17.2043C177.253 17.2043 176.477 17.5049 175.896 18.1062C175.313 18.7075 175.023 19.6095 175.023 20.8121V28.6679H171.27V14.1202H175.023V15.7496C175.934 14.3917 177.379 13.7129 179.358 13.7129Z" fill="#5550FF"/>
<path d="M198.794 14.5304H202.46V28.3798C202.46 30.6298 201.713 32.3464 200.22 33.5297C198.746 34.7129 196.961 35.3045 194.867 35.3045C193.296 35.3045 191.908 35.0038 190.706 34.4025C189.523 33.8012 188.611 32.9186 187.971 31.7548L191.172 29.9219C191.908 31.2796 193.179 31.9585 194.983 31.9585C196.166 31.9585 197.097 31.6482 197.776 31.0275C198.455 30.4068 198.794 29.5242 198.794 28.3798V26.8086C197.688 28.2828 196.137 29.0199 194.139 29.0199C192.083 29.0199 190.357 28.3022 188.96 26.8668C187.583 25.412 186.895 23.6469 186.895 21.5714C186.895 19.5153 187.592 17.76 188.989 16.3052C190.385 14.8504 192.102 14.123 194.139 14.123C196.137 14.123 197.688 14.8601 198.794 16.3343V14.5304ZM191.783 24.4519C192.559 25.189 193.538 25.5575 194.721 25.5575C195.905 25.5575 196.874 25.189 197.63 24.4519C198.407 23.6954 198.794 22.7353 198.794 21.5714C198.794 20.4271 198.407 19.4863 197.63 18.7492C196.874 17.9927 195.905 17.6145 194.721 17.6145C193.538 17.6145 192.559 17.9927 191.783 18.7492C191.026 19.4863 190.648 20.4271 190.648 21.5714C190.648 22.7353 191.026 23.6954 191.783 24.4519Z" fill="#5550FF"/>
</svg>
