<svg width="20" height="20" viewBox="0 0 20 20" fill="none" xmlns="http://www.w3.org/2000/svg">
<path d="M9.40747 9.66137C9.58179 9.78142 9.78846 9.84571 10.0001 9.84571C10.2118 9.84571 10.4185 9.78142 10.5928 9.66137L18.485 4.19781C18.2072 3.74352 17.8177 3.36798 17.3536 3.107C16.8894 2.84603 16.3661 2.70832 15.8337 2.70703H4.16699C3.6345 2.70832 3.11122 2.84603 2.64708 3.10701C2.18293 3.368 1.79339 3.74356 1.51562 4.19786L9.40747 9.66137Z" fill="white"/>
<path d="M11.3054 10.688C10.9217 10.952 10.4669 11.0933 10.0011 11.0933C9.53533 11.0933 9.08053 10.952 8.69678 10.688L1.08468 5.41804C1.06148 5.55455 1.04755 5.69248 1.04297 5.83087V14.1642C1.04387 14.9927 1.3734 15.7871 1.95926 16.3729C2.54511 16.9588 3.33944 17.2883 4.16797 17.2892H15.8346C16.6632 17.2883 17.4575 16.9588 18.0433 16.3729C18.6292 15.7871 18.9587 14.9927 18.9596 14.1642V5.83087C18.955 5.69246 18.941 5.55452 18.918 5.41797L11.3054 10.688Z" fill="white"/>
</svg>
