<svg width="21" height="25" viewBox="0 0 21 25" fill="none" xmlns="http://www.w3.org/2000/svg">
<path d="M9.01438 14.9347C9.34813 15.2685 9.77923 15.4319 10.3077 15.4249C10.8361 15.418 11.2255 15.2268 11.4758 14.8513L16.1483 7.84251L9.13954 12.515C8.76407 12.7654 8.5659 13.1478 8.54504 13.6623C8.52418 14.1768 8.68063 14.601 9.01438 14.9347ZM10.3077 5.33937C11.1281 5.33937 11.9173 5.4541 12.6752 5.68355C13.4331 5.91301 14.1458 6.25719 14.8133 6.7161L13.228 7.71735C12.7691 7.48095 12.2928 7.30364 11.7991 7.18544C11.3054 7.06723 10.8083 7.00813 10.3077 7.00813C8.45813 7.00813 6.88323 7.65825 5.58299 8.95849C4.28275 10.2587 3.63263 11.8336 3.63263 13.6832C3.63263 14.2672 3.71259 14.8444 3.87251 15.4145C4.03243 15.9847 4.25841 16.5201 4.55045 17.0207H16.0649C16.3847 16.4923 16.6177 15.943 16.7637 15.3728C16.9097 14.8026 16.9827 14.2116 16.9827 13.5997C16.9827 13.0991 16.9236 12.6124 16.8054 12.1396C16.6872 11.6668 16.5099 11.2078 16.2735 10.7628L17.2747 9.17752C17.6919 9.83112 18.0222 10.5264 18.2656 11.2635C18.5089 12.0005 18.6376 12.7654 18.6515 13.558C18.6654 14.3507 18.575 15.1086 18.3803 15.8317C18.1856 16.5548 17.9005 17.2432 17.5251 17.8968C17.3721 18.1471 17.1635 18.3418 16.8993 18.4809C16.6351 18.6199 16.3569 18.6895 16.0649 18.6895H4.55045C4.25841 18.6895 3.98029 18.6199 3.71607 18.4809C3.45185 18.3418 3.24325 18.1471 3.09028 17.8968C2.72872 17.271 2.45059 16.607 2.2559 15.9047C2.06121 15.2024 1.96387 14.4619 1.96387 13.6832C1.96387 12.5289 2.18289 11.4477 2.62094 10.4395C3.05899 9.43131 3.65696 8.54826 4.41486 7.79036C5.17275 7.03247 6.05928 6.43449 7.07445 5.99644C8.08961 5.55839 9.16735 5.33937 10.3077 5.33937Z" fill="#581ADF"/>
</svg>
