<svg width="21" height="25" viewBox="0 0 21 25" fill="none" xmlns="http://www.w3.org/2000/svg">
<path d="M9.01145 14.9357C9.3452 15.2695 9.7763 15.4329 10.3047 15.4259C10.8332 15.419 11.2226 15.2278 11.4729 14.8523L16.1454 7.84349L9.13661 12.516C8.76114 12.7663 8.56297 13.1488 8.54211 13.6633C8.52125 14.1778 8.6777 14.602 9.01145 14.9357ZM10.3047 5.34035C11.1252 5.34035 11.9144 5.45507 12.6723 5.68453C13.4302 5.91398 14.1429 6.25816 14.8104 6.71707L13.2251 7.71833C12.7662 7.48192 12.2899 7.30462 11.7962 7.18641C11.3025 7.06821 10.8054 7.00911 10.3047 7.00911C8.4552 7.00911 6.8803 7.65923 5.58006 8.95947C4.27982 10.2597 3.6297 11.8346 3.6297 13.6841C3.6297 14.2682 3.70966 14.8453 3.86958 15.4155C4.02951 15.9856 4.25548 16.521 4.54752 17.0217H16.062C16.3818 16.4932 16.6147 15.9439 16.7608 15.3738C16.9068 14.8036 16.9798 14.2126 16.9798 13.6007C16.9798 13.1001 16.9207 12.6134 16.8025 12.1405C16.6843 11.6677 16.507 11.2088 16.2706 10.7638L17.2718 9.1785C17.689 9.83209 18.0193 10.5274 18.2626 11.2644C18.506 12.0015 18.6346 12.7663 18.6485 13.559C18.6624 14.3517 18.5721 15.1095 18.3774 15.8327C18.1827 16.5558 17.8976 17.2442 17.5221 17.8978C17.3692 18.1481 17.1606 18.3428 16.8963 18.4818C16.6321 18.6209 16.354 18.6904 16.062 18.6904H4.54752C4.25548 18.6904 3.97736 18.6209 3.71314 18.4818C3.44892 18.3428 3.24032 18.1481 3.08735 17.8978C2.72579 17.272 2.44766 16.608 2.25297 15.9057C2.05828 15.2034 1.96094 14.4629 1.96094 13.6841C1.96094 12.5299 2.17996 11.4487 2.61801 10.4405C3.05606 9.43229 3.65403 8.54923 4.41193 7.79134C5.16982 7.03344 6.05635 6.43547 7.07152 5.99742C8.08668 5.55937 9.16442 5.34035 10.3047 5.34035Z" fill="#5550FF"/>
</svg>
