<svg width="232" height="168" viewBox="0 0 232 168" fill="none" xmlns="http://www.w3.org/2000/svg">
<rect width="231.719" height="167.73" rx="13.7315" fill="#FAF5FF"/>
<g filter="url(#filter0_d_2097_4547)">
<mask id="path-2-inside-1_2097_4547" fill="white">
<path d="M13.7344 24.0301C13.7344 18.3423 18.3452 13.7314 24.033 13.7314H207.692C213.38 13.7314 217.991 18.3423 217.991 24.0301V143.433C217.991 149.121 213.38 153.731 207.692 153.731H24.033C18.3452 153.731 13.7344 149.121 13.7344 143.433V24.0301Z"/>
</mask>
<path d="M13.7344 24.0301C13.7344 18.3423 18.3452 13.7314 24.033 13.7314H207.692C213.38 13.7314 217.991 18.3423 217.991 24.0301V143.433C217.991 149.121 213.38 153.731 207.692 153.731H24.033C18.3452 153.731 13.7344 149.121 13.7344 143.433V24.0301Z" fill="white" shape-rendering="crispEdges"/>
<path d="M24.033 13.7314V14.5897H207.692V13.7314V12.8732H24.033V13.7314ZM217.991 24.0301H217.132V143.433H217.991H218.849V24.0301H217.991ZM207.692 153.731V152.873H24.033V153.731V154.59H207.692V153.731ZM13.7344 143.433H14.5926V24.0301H13.7344H12.8762V143.433H13.7344ZM24.033 153.731V152.873C18.8192 152.873 14.5926 148.647 14.5926 143.433H13.7344H12.8762C12.8762 149.595 17.8712 154.59 24.033 154.59V153.731ZM217.991 143.433H217.132C217.132 148.647 212.906 152.873 207.692 152.873V153.731V154.59C213.854 154.59 218.849 149.595 218.849 143.433H217.991ZM207.692 13.7314V14.5897C212.906 14.5897 217.132 18.8163 217.132 24.0301H217.991H218.849C218.849 17.8683 213.854 12.8732 207.692 12.8732V13.7314ZM24.033 13.7314V12.8732C17.8712 12.8732 12.8762 17.8683 12.8762 24.0301H13.7344H14.5926C14.5926 18.8163 18.8192 14.5897 24.033 14.5897V13.7314Z" fill="#F3F4F6" mask="url(#path-2-inside-1_2097_4547)"/>
<path d="M29.3909 37.5527V32.6944H28.2787V31.7984H30.4414V37.5527H29.3909ZM33.9042 37.6454C33.4459 37.6454 33.0443 37.5218 32.6993 37.2747C32.3543 37.0275 32.0839 36.6799 31.8883 36.2319C31.6977 35.7839 31.6025 35.2639 31.6025 34.6717C31.6025 34.0744 31.6977 33.5543 31.8883 33.1114C32.0788 32.6686 32.3465 32.3236 32.6915 32.0764C33.0366 31.8293 33.4382 31.7057 33.8965 31.7057C34.3651 31.7057 34.7693 31.8293 35.1092 32.0764C35.4542 32.3236 35.7245 32.6712 35.9202 33.1192C36.1158 33.562 36.2137 34.0795 36.2137 34.6717C36.2137 35.2639 36.1158 35.7839 35.9202 36.2319C35.7296 36.6748 35.4619 37.0224 35.1169 37.2747C34.7719 37.5218 34.3677 37.6454 33.9042 37.6454ZM33.9119 36.6876C34.1746 36.6876 34.3985 36.6078 34.5839 36.4482C34.7693 36.2834 34.9109 36.0517 35.0087 35.753C35.1117 35.4492 35.1632 35.0888 35.1632 34.6717C35.1632 34.2546 35.1117 33.8967 35.0087 33.5981C34.9109 33.2942 34.7667 33.0625 34.5762 32.9029C34.3908 32.7433 34.1643 32.6635 33.8965 32.6635C33.639 32.6635 33.4176 32.7433 33.2322 32.9029C33.0469 33.0625 32.9027 33.2942 32.7997 33.5981C32.7018 33.8967 32.6529 34.2546 32.6529 34.6717C32.6529 35.0836 32.7018 35.4415 32.7997 35.7453C32.9027 36.044 33.0469 36.2757 33.2322 36.4405C33.4228 36.6053 33.6493 36.6876 33.9119 36.6876ZM39.3728 37.6454C38.9146 37.6454 38.5129 37.5218 38.1679 37.2747C37.8229 37.0275 37.5526 36.6799 37.3569 36.2319C37.1664 35.7839 37.0711 35.2639 37.0711 34.6717C37.0711 34.0744 37.1664 33.5543 37.3569 33.1114C37.5474 32.6686 37.8152 32.3236 38.1602 32.0764C38.5052 31.8293 38.9068 31.7057 39.3651 31.7057C39.8337 31.7057 40.2379 31.8293 40.5778 32.0764C40.9228 32.3236 41.1931 32.6712 41.3888 33.1192C41.5845 33.562 41.6823 34.0795 41.6823 34.6717C41.6823 35.2639 41.5845 35.7839 41.3888 36.2319C41.1983 36.6748 40.9305 37.0224 40.5855 37.2747C40.2405 37.5218 39.8363 37.6454 39.3728 37.6454ZM39.3806 36.6876C39.6432 36.6876 39.8672 36.6078 40.0526 36.4482C40.2379 36.2834 40.3795 36.0517 40.4774 35.753C40.5804 35.4492 40.6319 35.0888 40.6319 34.6717C40.6319 34.2546 40.5804 33.8967 40.4774 33.5981C40.3795 33.2942 40.2354 33.0625 40.0448 32.9029C39.8595 32.7433 39.6329 32.6635 39.3651 32.6635C39.1077 32.6635 38.8862 32.7433 38.7009 32.9029C38.5155 33.0625 38.3713 33.2942 38.2683 33.5981C38.1705 33.8967 38.1216 34.2546 38.1216 34.6717C38.1216 35.0836 38.1705 35.4415 38.2683 35.7453C38.3713 36.044 38.5155 36.2757 38.7009 36.4405C38.8914 36.6053 39.118 36.6876 39.3806 36.6876ZM44.0361 37.5527V31.7984H45.0403L47.1952 34.7258H46.7164L48.825 31.7984H49.8291V37.5527H48.7709V32.9956L49.1803 33.096L46.9944 36.0079H46.8708L44.739 33.096L45.0866 32.9956V37.5527H44.0361ZM50.4592 37.5527L52.4443 31.7984H53.8037L55.7888 37.5527H54.6456L54.2363 36.3169H52.0118L51.5947 37.5527H50.4592ZM52.313 35.39H53.935L52.9772 32.5244H53.2708L52.313 35.39ZM56.4292 37.5527V31.7984H57.4797V37.5527H56.4292ZM58.5865 37.5527V31.7984H59.6369V36.6259H62.1009V37.5527H58.5865ZM62.7804 37.5527V31.7984H65.2057C65.5867 31.7984 65.9111 31.8653 66.1789 31.9992C66.4518 32.1279 66.6604 32.3133 66.8046 32.5553C66.9539 32.7922 67.0285 33.0806 67.0285 33.4204C67.0285 33.683 66.9565 33.9302 66.8123 34.1619C66.6732 34.3885 66.4493 34.5764 66.1403 34.7258V34.2391C66.4235 34.3473 66.6475 34.4812 66.8123 34.6408C66.9771 34.8004 67.0929 34.9781 67.1599 35.1737C67.2268 35.3694 67.2603 35.5754 67.2603 35.7917C67.2603 36.3426 67.0775 36.7752 66.7119 37.0893C66.3514 37.3983 65.8494 37.5527 65.2057 37.5527H62.7804ZM63.8308 36.6259H65.3138C65.5867 36.6259 65.803 36.5512 65.9626 36.4019C66.1274 36.2474 66.2098 36.044 66.2098 35.7917C66.2098 35.5394 66.1274 35.336 65.9626 35.1815C65.803 35.027 65.5867 34.9498 65.3138 34.9498H63.8308V36.6259ZM63.8308 34.0306H65.2598C65.476 34.0306 65.6485 33.9688 65.7773 33.8452C65.906 33.7165 65.9704 33.5517 65.9704 33.3509C65.9704 33.1501 65.906 32.9904 65.7773 32.872C65.6485 32.7536 65.476 32.6944 65.2598 32.6944H63.8308V34.0306ZM70.9555 37.6454C70.5332 37.6454 70.1393 37.5708 69.7737 37.4214C69.4081 37.2721 69.0888 37.0635 68.8159 36.7958C68.543 36.528 68.3293 36.2139 68.1748 35.8535C68.0255 35.4879 67.9508 35.0939 67.9508 34.6717C67.9508 34.2443 68.0255 33.8504 68.1748 33.4899C68.3242 33.1295 68.5353 32.8154 68.8082 32.5476C69.0811 32.2798 69.4004 32.0739 69.766 31.9297C70.1316 31.7803 70.5281 31.7057 70.9555 31.7057C71.3829 31.7057 71.7794 31.7803 72.145 31.9297C72.5106 32.079 72.8298 32.2876 73.1027 32.5553C73.3756 32.8179 73.5868 33.1295 73.7361 33.4899C73.8906 33.8504 73.9678 34.2443 73.9678 34.6717C73.9678 35.0939 73.8906 35.4879 73.7361 35.8535C73.5816 36.2139 73.3679 36.528 73.095 36.7958C72.8221 37.0635 72.5028 37.2721 72.1372 37.4214C71.7768 37.5708 71.3829 37.6454 70.9555 37.6454ZM70.9555 36.6876C71.2387 36.6876 71.4987 36.6387 71.7356 36.5409C71.9725 36.4379 72.1784 36.2963 72.3535 36.1161C72.5337 35.9358 72.6702 35.7222 72.7629 35.475C72.8607 35.2278 72.9096 34.9601 72.9096 34.6717C72.9096 34.3833 72.8607 34.1181 72.7629 33.8761C72.6702 33.629 72.5337 33.4153 72.3535 33.235C72.1784 33.0497 71.9725 32.908 71.7356 32.8102C71.4987 32.7124 71.2387 32.6635 70.9555 32.6635C70.6774 32.6635 70.4199 32.7124 70.1831 32.8102C69.9462 32.908 69.7377 33.0497 69.5574 33.235C69.3824 33.4153 69.2459 33.629 69.1481 33.8761C69.0502 34.1181 69.0013 34.3833 69.0013 34.6717C69.0013 34.9601 69.0502 35.2278 69.1481 35.475C69.2459 35.7222 69.3824 35.9358 69.5574 36.1161C69.7377 36.2963 69.9462 36.4379 70.1831 36.5409C70.4199 36.6387 70.6774 36.6876 70.9555 36.6876ZM74.1969 37.5527L76.0815 34.6562L74.2123 31.7984H75.4173L76.9466 34.1387H76.3905L77.9121 31.7984H79.1171L77.2556 34.6562L79.1325 37.5527H77.9276L76.3905 35.1815H76.9466L75.4018 37.5527H74.1969ZM79.7746 37.5527V31.7984H83.598V32.7252H80.8251V34.2005H83.4435V35.1274H80.8251V36.6259H83.598V37.5527H79.7746ZM86.4229 37.6454C86.0573 37.6454 85.7174 37.5785 85.4033 37.4446C85.0943 37.3107 84.8266 37.1253 84.6 36.8885C84.3786 36.6465 84.2164 36.3658 84.1134 36.0466L84.9862 35.6681C85.1252 35.9976 85.326 36.2577 85.5887 36.4482C85.8513 36.6336 86.1474 36.7263 86.4769 36.7263C86.6623 36.7263 86.8219 36.6979 86.9558 36.6413C87.0948 36.5795 87.2004 36.4971 87.2725 36.3941C87.3497 36.2912 87.3884 36.1676 87.3884 36.0234C87.3884 35.8535 87.3369 35.7144 87.2339 35.6063C87.136 35.493 86.9867 35.4055 86.7859 35.3437L85.6814 34.9884C85.2334 34.8493 84.8961 34.6408 84.6695 34.3627C84.4429 34.0847 84.3297 33.7577 84.3297 33.3818C84.3297 33.0522 84.4095 32.7613 84.5691 32.509C84.7339 32.2567 84.9604 32.061 85.2488 31.922C85.5423 31.7778 85.877 31.7057 86.2529 31.7057C86.5979 31.7057 86.9146 31.7675 87.203 31.8911C87.4913 32.0095 87.7385 32.1768 87.9445 32.3931C88.1556 32.6042 88.3127 32.854 88.4156 33.1423L87.5506 33.5285C87.4373 33.2402 87.2673 33.0188 87.0408 32.8643C86.8142 32.7047 86.5516 32.6248 86.2529 32.6248C86.0778 32.6248 85.9234 32.6557 85.7895 32.7175C85.6556 32.7742 85.55 32.8566 85.4728 32.9647C85.4007 33.0677 85.3647 33.1913 85.3647 33.3354C85.3647 33.4951 85.4162 33.6367 85.5191 33.7603C85.6221 33.8787 85.7792 33.9714 85.9903 34.0383L87.0485 34.3705C87.5068 34.5198 87.8492 34.7258 88.0758 34.9884C88.3075 35.251 88.4234 35.5754 88.4234 35.9616C88.4234 36.2912 88.3384 36.5821 88.1685 36.8344C87.9985 37.0867 87.7643 37.285 87.4656 37.4292C87.1669 37.5733 86.8194 37.6454 86.4229 37.6454Z" fill="#9CA3AF"/>
<path d="M183.94 38.0527L186.111 35.2549L186.308 35.4609C186.222 35.5238 186.139 35.5753 186.059 35.6154C185.979 35.6554 185.893 35.684 185.802 35.7012C185.71 35.7184 185.613 35.727 185.51 35.727C185.121 35.727 184.775 35.6383 184.472 35.4609C184.168 35.2835 183.928 35.0432 183.751 34.74C183.579 34.431 183.493 34.082 183.493 33.693C183.493 33.281 183.588 32.9149 183.776 32.5945C183.971 32.2741 184.234 32.0223 184.566 31.8392C184.904 31.6504 185.287 31.556 185.716 31.556C186.151 31.556 186.534 31.6476 186.866 31.8306C187.198 32.0137 187.458 32.2655 187.647 32.5859C187.842 32.9006 187.939 33.2639 187.939 33.6758C187.939 33.8818 187.916 34.0878 187.87 34.2937C187.824 34.4997 187.741 34.72 187.621 34.9546C187.507 35.1834 187.341 35.4437 187.124 35.7355L185.338 38.0527H183.94ZM185.716 34.7486C185.916 34.7486 186.094 34.7057 186.248 34.6199C186.408 34.5283 186.534 34.4024 186.626 34.2422C186.717 34.0763 186.763 33.8904 186.763 33.6844C186.763 33.467 186.714 33.2782 186.617 33.118C186.526 32.9578 186.403 32.8319 186.248 32.7404C186.094 32.6488 185.916 32.603 185.716 32.603C185.522 32.603 185.344 32.6488 185.184 32.7404C185.024 32.8319 184.895 32.9578 184.798 33.118C184.706 33.2782 184.66 33.467 184.66 33.6844C184.66 33.8904 184.706 34.0763 184.798 34.2422C184.895 34.4024 185.024 34.5283 185.184 34.6199C185.344 34.7057 185.522 34.7486 185.716 34.7486ZM191.406 38.0527V36.6453H188.47V35.6669L191.337 31.659H192.556V35.6669H193.491V36.6453H192.556V38.0527H191.406ZM189.329 36.0874L189.123 35.6669H191.406V32.5773L191.706 32.6717L189.329 36.0874ZM195.09 38.0527L200.273 31.659H201.475L196.291 38.0527H195.09ZM196.094 34.9031C195.774 34.9031 195.485 34.8287 195.227 34.6799C194.975 34.5255 194.775 34.3223 194.626 34.0706C194.478 33.8189 194.403 33.5385 194.403 33.2295C194.403 32.9206 194.478 32.6402 194.626 32.3885C194.775 32.131 194.975 31.9279 195.227 31.7791C195.485 31.6304 195.771 31.556 196.085 31.556C196.406 31.556 196.692 31.6304 196.944 31.7791C197.195 31.9279 197.396 32.131 197.544 32.3885C197.693 32.6402 197.767 32.9206 197.767 33.2295C197.767 33.5385 197.693 33.8189 197.544 34.0706C197.396 34.3223 197.195 34.5255 196.944 34.6799C196.692 34.8287 196.409 34.9031 196.094 34.9031ZM196.085 34.0363C196.257 34.0363 196.4 33.9991 196.514 33.9247C196.629 33.8446 196.715 33.7445 196.772 33.6243C196.835 33.4984 196.866 33.3669 196.866 33.2295C196.866 33.0865 196.835 32.9549 196.772 32.8348C196.715 32.7146 196.629 32.6145 196.514 32.5344C196.4 32.4543 196.257 32.4142 196.085 32.4142C195.925 32.4142 195.785 32.4543 195.665 32.5344C195.55 32.6145 195.462 32.7175 195.399 32.8433C195.336 32.9635 195.304 33.0922 195.304 33.2295C195.304 33.3611 195.336 33.4899 195.399 33.6157C195.462 33.7416 195.55 33.8446 195.665 33.9247C195.785 33.9991 195.925 34.0363 196.085 34.0363ZM200.445 38.1557C200.13 38.1557 199.844 38.0813 199.587 37.9326C199.335 37.7781 199.135 37.575 198.986 37.3232C198.837 37.0715 198.763 36.7912 198.763 36.4822C198.763 36.1732 198.837 35.8929 198.986 35.6411C199.135 35.3837 199.335 35.1806 199.587 35.0318C199.844 34.883 200.13 34.8087 200.445 34.8087C200.766 34.8087 201.052 34.883 201.303 35.0318C201.555 35.1806 201.755 35.3837 201.904 35.6411C202.053 35.8929 202.127 36.1732 202.127 36.4822C202.127 36.7912 202.053 37.0715 201.904 37.3232C201.755 37.575 201.555 37.7781 201.303 37.9326C201.052 38.0813 200.766 38.1557 200.445 38.1557ZM200.445 37.2889C200.611 37.2889 200.751 37.2517 200.866 37.1774C200.986 37.0972 201.074 36.9971 201.132 36.877C201.195 36.7511 201.226 36.6195 201.226 36.4822C201.226 36.3392 201.195 36.2076 201.132 36.0874C201.074 35.9673 200.986 35.8671 200.866 35.787C200.751 35.7069 200.611 35.6669 200.445 35.6669C200.285 35.6669 200.145 35.7069 200.025 35.787C199.91 35.8671 199.821 35.9701 199.759 36.096C199.696 36.2161 199.664 36.3449 199.664 36.4822C199.664 36.6138 199.696 36.7425 199.759 36.8684C199.821 36.9943 199.91 37.0972 200.025 37.1774C200.145 37.2517 200.285 37.2889 200.445 37.2889Z" fill="#111827"/>
<g clip-path="url(#clip0_2097_4547)">
<rect x="28.0547" y="51.3516" width="175.077" height="5.14932" rx="2.57466" fill="#F3F4F6"/>
<rect x="28.0547" y="51.3516" width="164.564" height="5" fill="#5550FF"/>
</g>
<rect x="28.0547" y="70.2314" width="84.1055" height="32.4404" rx="10.2986" fill="#FAF5FF"/>
<path d="M35.7744 81.5946C35.458 81.5946 35.1676 81.5385 34.9033 81.4263C34.6389 81.3102 34.4086 81.15 34.2124 80.9457C34.0202 80.7375 33.87 80.4932 33.7618 80.2128C33.6537 79.9325 33.5996 79.6241 33.5996 79.2877C33.5996 78.9512 33.6537 78.6428 33.7618 78.3625C33.87 78.0821 34.0202 77.8378 34.2124 77.6296C34.4086 77.4213 34.6389 77.2611 34.9033 77.149C35.1676 77.0328 35.458 76.9748 35.7744 76.9748C36.0787 76.9748 36.3511 77.0288 36.5914 77.137C36.8357 77.2451 37.0399 77.3853 37.2041 77.5575C37.3724 77.7257 37.4925 77.9039 37.5646 78.0922L37.114 78.2904C37.0019 78.0301 36.8297 77.8218 36.5974 77.6656C36.3691 77.5054 36.0948 77.4253 35.7744 77.4253C35.4459 77.4253 35.1536 77.5034 34.8973 77.6596C34.6409 77.8158 34.4407 78.0341 34.2965 78.3144C34.1523 78.5908 34.0802 78.9152 34.0802 79.2877C34.0802 79.6561 34.1523 79.9805 34.2965 80.2609C34.4407 80.5412 34.6409 80.7595 34.8973 80.9157C35.1536 81.0679 35.4459 81.144 35.7744 81.144C36.0948 81.144 36.3691 81.0659 36.5974 80.9097C36.8297 80.7535 37.0019 80.5452 37.114 80.2849L37.5646 80.4832C37.4925 80.6674 37.3724 80.8456 37.2041 81.0178C37.0399 81.186 36.8357 81.3242 36.5914 81.4323C36.3511 81.5405 36.0787 81.5946 35.7744 81.5946ZM40.5338 81.5946C40.2214 81.5946 39.9291 81.5385 39.6567 81.4263C39.3884 81.3102 39.1521 81.15 38.9478 80.9457C38.7436 80.7375 38.5834 80.4932 38.4672 80.2128C38.3511 79.9285 38.293 79.6181 38.293 79.2816C38.293 78.9452 38.3511 78.6368 38.4672 78.3565C38.5834 78.0721 38.7436 77.8278 38.9478 77.6236C39.1521 77.4153 39.3884 77.2551 39.6567 77.143C39.9291 77.0308 40.2214 76.9748 40.5338 76.9748C40.8462 76.9748 41.1366 77.0328 41.4049 77.149C41.6773 77.2611 41.9156 77.4213 42.1198 77.6296C42.3241 77.8338 42.4843 78.0761 42.6004 78.3565C42.7166 78.6368 42.7746 78.9452 42.7746 79.2816C42.7746 79.6181 42.7166 79.9285 42.6004 80.2128C42.4843 80.4932 42.3241 80.7375 42.1198 80.9457C41.9156 81.15 41.6773 81.3102 41.4049 81.4263C41.1366 81.5385 40.8462 81.5946 40.5338 81.5946ZM40.5338 81.144C40.7942 81.144 41.0304 81.0959 41.2427 80.9998C41.459 80.9037 41.6452 80.7695 41.8014 80.5973C41.9576 80.4251 42.0778 80.2268 42.1619 80.0026C42.25 79.7783 42.294 79.538 42.294 79.2816C42.294 79.0293 42.25 78.791 42.1619 78.5668C42.0778 78.3425 41.9576 78.1442 41.8014 77.972C41.6452 77.7998 41.459 77.6656 41.2427 77.5695C41.0304 77.4734 40.7942 77.4253 40.5338 77.4253C40.2735 77.4253 40.0352 77.4734 39.8189 77.5695C39.6067 77.6656 39.4224 77.7998 39.2662 77.972C39.11 78.1442 38.9879 78.3425 38.8998 78.5668C38.8157 78.791 38.7736 79.0293 38.7736 79.2816C38.7736 79.538 38.8157 79.7783 38.8998 80.0026C38.9879 80.2268 39.11 80.4251 39.2662 80.5973C39.4224 80.7695 39.6087 80.9037 39.8249 80.9998C40.0412 81.0959 40.2775 81.144 40.5338 81.144ZM43.6994 81.5225V77.0468H44.1199L46.7452 80.8136H46.583V77.0468H47.0636V81.5225H46.6431L44.0178 77.7317H44.18V81.5225H43.6994ZM48.1229 81.5225V77.0468H50.8864V77.4974H48.6035V79.0534H50.7061V79.5039H48.6035V81.5225H48.1229ZM51.6136 81.5225V77.0468H52.0942V81.5225H51.6136ZM55.1933 81.5946C54.8769 81.5946 54.5865 81.5385 54.3222 81.4263C54.0578 81.3102 53.8275 81.15 53.6313 80.9457C53.439 80.7375 53.2889 80.4932 53.1807 80.2128C53.0726 79.9325 53.0185 79.6241 53.0185 79.2877C53.0185 78.9512 53.0726 78.6428 53.1807 78.3625C53.2889 78.0821 53.439 77.8378 53.6313 77.6296C53.8275 77.4213 54.0578 77.2611 54.3222 77.149C54.5865 77.0328 54.8769 76.9748 55.1933 76.9748C55.4976 76.9748 55.77 77.0288 56.0103 77.137C56.2546 77.2451 56.4588 77.3853 56.623 77.5575C56.7913 77.7257 56.9114 77.9039 56.9835 78.0922L56.551 78.3024C56.4388 78.0301 56.2666 77.8158 56.0343 77.6596C55.802 77.5034 55.5217 77.4253 55.1933 77.4253C54.8648 77.4253 54.5725 77.5034 54.3162 77.6596C54.0598 77.8158 53.8596 78.0341 53.7154 78.3144C53.5712 78.5908 53.4991 78.9152 53.4991 79.2877C53.4991 79.6561 53.5712 79.9805 53.7154 80.2609C53.8596 80.5412 54.0598 80.7595 54.3162 80.9157C54.5725 81.0679 54.8648 81.144 55.1933 81.144C55.4856 81.144 55.7479 81.0799 55.9802 80.9517C56.2165 80.8236 56.4028 80.6494 56.5389 80.4291C56.6751 80.2048 56.7432 79.9485 56.7432 79.6601V79.4138L56.9595 79.6301H55.1933V79.2096H57.2238V79.582C57.2238 79.8744 57.1717 80.1447 57.0676 80.393C56.9635 80.6374 56.8193 80.8496 56.6351 81.0298C56.4508 81.2101 56.2346 81.3502 55.9862 81.4504C55.7419 81.5465 55.4776 81.5946 55.1933 81.5946ZM59.6586 81.5946C59.3422 81.5946 59.0638 81.5285 58.8235 81.3963C58.5832 81.2641 58.397 81.0839 58.2648 80.8556C58.1327 80.6233 58.0666 80.359 58.0666 80.0626V77.0468H58.5472V80.0626C58.5472 80.2789 58.5933 80.4691 58.6854 80.6333C58.7815 80.7935 58.9117 80.9197 59.0759 81.0118C59.2441 81.0999 59.4383 81.144 59.6586 81.144C59.8789 81.144 60.0711 81.0999 60.2353 81.0118C60.4035 80.9197 60.5337 80.7935 60.6258 80.6333C60.7219 80.4691 60.77 80.2789 60.77 80.0626V77.0468H61.2506V80.0626C61.2506 80.359 61.1845 80.6233 61.0523 80.8556C60.9202 81.0839 60.7339 81.2641 60.4936 81.3963C60.2573 81.5285 59.979 81.5946 59.6586 81.5946ZM62.2911 81.5225V77.0468H63.829C64.1214 77.0468 64.3777 77.1049 64.598 77.2211C64.8182 77.3332 64.9884 77.4934 65.1086 77.7017C65.2328 77.9059 65.2948 78.1442 65.2948 78.4166C65.2948 78.733 65.2107 79.0033 65.0425 79.2276C64.8783 79.4519 64.654 79.6101 64.3697 79.7022L65.415 81.5225H64.8503L63.7569 79.594L64.0813 79.7803H62.7717V81.5225H62.2911ZM62.7717 79.3297H63.853C64.0453 79.3297 64.2135 79.2937 64.3577 79.2216C64.5018 79.1455 64.614 79.0393 64.6941 78.9032C64.7742 78.763 64.8142 78.5988 64.8142 78.4106C64.8142 78.2223 64.7742 78.0601 64.6941 77.9239C64.614 77.7878 64.5018 77.6836 64.3577 77.6116C64.2135 77.5355 64.0453 77.4974 63.853 77.4974H62.7717V79.3297ZM66.1396 81.5225V77.0468H69.0233V77.4974H66.6202V79.0534H68.9031V79.5039H66.6202V81.0719H69.0233V81.5225H66.1396ZM69.8181 81.5225V77.0468H71.2899C71.7345 77.0468 72.121 77.139 72.4494 77.3232C72.7778 77.5034 73.0321 77.7617 73.2123 78.0982C73.3926 78.4306 73.4827 78.8251 73.4827 79.2816C73.4827 79.7342 73.3926 80.1287 73.2123 80.4651C73.0321 80.8016 72.7778 81.0619 72.4494 81.2461C72.121 81.4303 71.7345 81.5225 71.2899 81.5225H69.8181ZM70.2987 81.0719H71.2899C71.6344 81.0719 71.9327 80.9998 72.1851 80.8556C72.4374 80.7074 72.6316 80.4992 72.7678 80.2308C72.908 79.9625 72.978 79.6461 72.978 79.2816C72.978 78.9172 72.908 78.6028 72.7678 78.3385C72.6276 78.0701 72.4314 77.8639 72.179 77.7197C71.9267 77.5715 71.6304 77.4974 71.2899 77.4974H70.2987V81.0719Z" fill="#9CA3AF"/>
<path d="M34.0099 94.5225L36.1811 91.7247L36.3785 91.9306C36.2927 91.9936 36.2098 92.0451 36.1297 92.0851C36.0496 92.1252 35.9637 92.1538 35.8722 92.1709C35.7806 92.1881 35.6834 92.1967 35.5804 92.1967C35.1913 92.1967 34.8452 92.108 34.5419 91.9306C34.2387 91.7533 33.9984 91.513 33.821 91.2097C33.6494 90.9008 33.5636 90.5518 33.5636 90.1627C33.5636 89.7508 33.658 89.3846 33.8468 89.0642C34.0413 88.7438 34.3045 88.492 34.6364 88.3089C34.9739 88.1201 35.3573 88.0257 35.7864 88.0257C36.2212 88.0257 36.6045 88.1173 36.9364 88.3004C37.2682 88.4835 37.5286 88.7352 37.7174 89.0556C37.9119 89.3703 38.0092 89.7336 38.0092 90.1455C38.0092 90.3515 37.9863 90.5575 37.9405 90.7635C37.8947 90.9694 37.8118 91.1897 37.6916 91.4243C37.5772 91.6531 37.4113 91.9135 37.1938 92.2053L35.4087 94.5225H34.0099ZM35.7864 91.2183C35.9866 91.2183 36.164 91.1754 36.3185 91.0896C36.4787 90.998 36.6045 90.8722 36.6961 90.712C36.7876 90.546 36.8334 90.3601 36.8334 90.1541C36.8334 89.9367 36.7848 89.7479 36.6875 89.5877C36.596 89.4275 36.4729 89.3016 36.3185 89.2101C36.164 89.1185 35.9866 89.0728 35.7864 89.0728C35.5918 89.0728 35.4145 89.1185 35.2543 89.2101C35.0941 89.3016 34.9653 89.4275 34.8681 89.5877C34.7765 89.7479 34.7308 89.9367 34.7308 90.1541C34.7308 90.3601 34.7765 90.546 34.8681 90.712C34.9653 90.8722 35.0941 90.998 35.2543 91.0896C35.4145 91.1754 35.5918 91.2183 35.7864 91.2183ZM41.4758 94.5225V93.115H38.5407V92.1366L41.4072 88.1287H42.6258V92.1366H43.5613V93.115H42.6258V94.5225H41.4758ZM39.3989 92.5571L39.193 92.1366H41.4758V89.047L41.7762 89.1414L39.3989 92.5571Z" fill="#111827"/>
<rect x="119.023" y="70.2314" width="84.1055" height="32.4404" rx="10.2986" fill="#FAF5FF"/>
<path d="M124.701 81.5225V77.0468H126.238C126.531 77.0468 126.787 77.1049 127.007 77.2211C127.228 77.3332 127.398 77.4934 127.518 77.7017C127.642 77.9059 127.704 78.1442 127.704 78.4166C127.704 78.733 127.62 79.0033 127.452 79.2276C127.288 79.4519 127.064 79.6101 126.779 79.7022L127.824 81.5225H127.26L126.166 79.594L126.491 79.7803H125.181V81.5225H124.701ZM125.181 79.3297H126.262C126.455 79.3297 126.623 79.2937 126.767 79.2216C126.911 79.1455 127.023 79.0393 127.104 78.9032C127.184 78.763 127.224 78.5988 127.224 78.4106C127.224 78.2223 127.184 78.0601 127.104 77.9239C127.023 77.7878 126.911 77.6836 126.767 77.6116C126.623 77.5355 126.455 77.4974 126.262 77.4974H125.181V79.3297ZM128.549 81.5225V77.0468H131.433V77.4974H129.03V79.0534H131.313V79.5039H129.03V81.0719H131.433V81.5225H128.549ZM132.228 81.5225V77.0468H132.648L134.33 79.4859H134.096L135.772 77.0468H136.193V81.5225H135.712V77.6957L135.868 77.7557L134.222 80.1407H134.198L132.558 77.7557L132.708 77.6957V81.5225H132.228ZM136.787 81.5225L138.421 77.0468H138.938L140.572 81.5225H140.067L139.683 80.4291H137.682L137.292 81.5225H136.787ZM137.838 79.9785H139.514L138.607 77.4073H138.751L137.838 79.9785ZM141.168 81.5225V77.0468H141.649V81.5225H141.168ZM142.706 81.5225V77.0468H143.126L145.751 80.8136H145.589V77.0468H146.07V81.5225H145.649L143.024 77.7317H143.186V81.5225H142.706ZM147.129 81.5225V77.0468H147.61V81.5225H147.129ZM148.666 81.5225V77.0468H149.087L151.712 80.8136H151.55V77.0468H152.03V81.5225H151.61L148.985 77.7317H149.147V81.5225H148.666ZM155.132 81.5946C154.816 81.5946 154.525 81.5385 154.261 81.4263C153.997 81.3102 153.767 81.15 153.57 80.9457C153.378 80.7375 153.228 80.4932 153.12 80.2128C153.012 79.9325 152.958 79.6241 152.958 79.2877C152.958 78.9512 153.012 78.6428 153.12 78.3625C153.228 78.0821 153.378 77.8378 153.57 77.6296C153.767 77.4213 153.997 77.2611 154.261 77.149C154.525 77.0328 154.816 76.9748 155.132 76.9748C155.437 76.9748 155.709 77.0288 155.949 77.137C156.194 77.2451 156.398 77.3853 156.562 77.5575C156.73 77.7257 156.85 77.9039 156.922 78.0922L156.49 78.3024C156.378 78.0301 156.206 77.8158 155.973 77.6596C155.741 77.5034 155.461 77.4253 155.132 77.4253C154.804 77.4253 154.511 77.5034 154.255 77.6596C153.999 77.8158 153.799 78.0341 153.654 78.3144C153.51 78.5908 153.438 78.9152 153.438 79.2877C153.438 79.6561 153.51 79.9805 153.654 80.2609C153.799 80.5412 153.999 80.7595 154.255 80.9157C154.511 81.0679 154.804 81.144 155.132 81.144C155.425 81.144 155.687 81.0799 155.919 80.9517C156.156 80.8236 156.342 80.6494 156.478 80.4291C156.614 80.2048 156.682 79.9485 156.682 79.6601V79.4138L156.898 79.6301H155.132V79.2096H157.163V79.582C157.163 79.8744 157.111 80.1447 157.007 80.393C156.902 80.6374 156.758 80.8496 156.574 81.0298C156.39 81.2101 156.174 81.3502 155.925 81.4504C155.681 81.5465 155.417 81.5946 155.132 81.5946Z" fill="#9CA3AF"/>
<path d="M126.764 94.6254C126.329 94.6254 125.943 94.5339 125.605 94.3508C125.273 94.162 125.013 93.9103 124.824 93.5956C124.635 93.2752 124.541 92.9119 124.541 92.5056C124.541 92.2997 124.561 92.0937 124.601 91.8877C124.647 91.6818 124.727 91.4615 124.841 91.2269C124.961 90.9923 125.133 90.732 125.356 90.4459L127.141 88.1287H128.532L126.36 90.9179L126.172 90.712C126.252 90.649 126.335 90.6004 126.42 90.5661C126.506 90.526 126.592 90.4974 126.678 90.4802C126.769 90.4631 126.864 90.4545 126.961 90.4545C127.35 90.4545 127.696 90.5432 128 90.7205C128.303 90.8979 128.54 91.1411 128.712 91.45C128.889 91.7533 128.978 92.0966 128.978 92.4799C128.978 92.8918 128.884 93.2609 128.695 93.587C128.506 93.9074 128.243 94.162 127.905 94.3508C127.573 94.5339 127.193 94.6254 126.764 94.6254ZM126.764 93.5698C126.958 93.5698 127.133 93.5269 127.287 93.4411C127.447 93.3496 127.573 93.2208 127.665 93.0549C127.762 92.889 127.811 92.703 127.811 92.4971C127.811 92.2796 127.762 92.0937 127.665 91.9392C127.573 91.779 127.45 91.6531 127.296 91.5616C127.141 91.4701 126.964 91.4243 126.764 91.4243C126.569 91.4243 126.392 91.4701 126.232 91.5616C126.071 91.6531 125.943 91.779 125.845 91.9392C125.754 92.0937 125.708 92.2796 125.708 92.4971C125.708 92.703 125.754 92.889 125.845 93.0549C125.943 93.2208 126.071 93.3496 126.232 93.4411C126.392 93.5269 126.569 93.5698 126.764 93.5698Z" fill="#111827"/>
</g>
<defs>
<filter id="filter0_d_2097_4547" x="12.0179" y="12.8732" width="207.691" height="143.433" filterUnits="userSpaceOnUse" color-interpolation-filters="sRGB">
<feFlood flood-opacity="0" result="BackgroundImageFix"/>
<feColorMatrix in="SourceAlpha" type="matrix" values="0 0 0 0 0 0 0 0 0 0 0 0 0 0 0 0 0 0 127 0" result="hardAlpha"/>
<feOffset dy="0.85822"/>
<feGaussianBlur stdDeviation="0.85822"/>
<feComposite in2="hardAlpha" operator="out"/>
<feColorMatrix type="matrix" values="0 0 0 0 0 0 0 0 0 0 0 0 0 0 0 0 0 0 0.05 0"/>
<feBlend mode="normal" in2="BackgroundImageFix" result="effect1_dropShadow_2097_4547"/>
<feBlend mode="normal" in="SourceGraphic" in2="effect1_dropShadow_2097_4547" result="shape"/>
</filter>
<clipPath id="clip0_2097_4547">
<rect x="28.0547" y="51.3516" width="175.077" height="5.14932" rx="2.57466" fill="white"/>
</clipPath>
</defs>
</svg>
