<svg width="231" height="167" viewBox="0 0 231 167" fill="none" xmlns="http://www.w3.org/2000/svg">
<rect width="231" height="167" rx="13.7315" fill="#FAF5FF"/>
<g filter="url(#filter0_d_528_4470)">
<mask id="path-2-inside-1_528_4470" fill="white">
<path d="M13.7314 29.2986C13.7314 23.6109 18.3423 19 24.0301 19H206.97C212.658 19 217.268 23.6109 217.268 29.2986V137.701C217.268 143.389 212.658 148 206.97 148H24.0301C18.3423 148 13.7314 143.389 13.7314 137.701V29.2986Z"/>
</mask>
<path d="M13.7314 29.2986C13.7314 23.6109 18.3423 19 24.0301 19H206.97C212.658 19 217.268 23.6109 217.268 29.2986V137.701C217.268 143.389 212.658 148 206.97 148H24.0301C18.3423 148 13.7314 143.389 13.7314 137.701V29.2986Z" fill="white" shape-rendering="crispEdges"/>
<path d="M24.0301 19V19.8582H206.97V19V18.1418H24.0301V19ZM217.268 29.2986H216.41V137.701H217.268H218.127V29.2986H217.268ZM206.97 148V147.142H24.0301V148V148.858H206.97V148ZM13.7314 137.701H14.5897V29.2986H13.7314H12.8732V137.701H13.7314ZM24.0301 148V147.142C18.8163 147.142 14.5897 142.915 14.5897 137.701H13.7314H12.8732C12.8732 143.863 17.8683 148.858 24.0301 148.858V148ZM217.268 137.701H216.41C216.41 142.915 212.184 147.142 206.97 147.142V148V148.858C213.132 148.858 218.127 143.863 218.127 137.701H217.268ZM206.97 19V19.8582C212.184 19.8582 216.41 24.0848 216.41 29.2986H217.268H218.127C218.127 23.1369 213.132 18.1418 206.97 18.1418V19ZM24.0301 19V18.1418C17.8683 18.1418 12.8732 23.1369 12.8732 29.2986H13.7314H14.5897C14.5897 24.0848 18.8163 19.8582 24.0301 19.8582V19Z" fill="#F3F4F6" mask="url(#path-2-inside-1_528_4470)"/>
<path d="M29.6575 43.0898V38.2315H28.5453V37.3355H30.708V43.0898H29.6575ZM34.1708 43.1825C33.7125 43.1825 33.3109 43.0589 32.9659 42.8118C32.6209 42.5646 32.3505 42.217 32.1549 41.769C31.9643 41.3211 31.8691 40.801 31.8691 40.2088C31.8691 39.6115 31.9643 39.0914 32.1549 38.6486C32.3454 38.2057 32.6131 37.8607 32.9581 37.6135C33.3032 37.3664 33.7048 37.2428 34.1631 37.2428C34.6317 37.2428 35.0359 37.3664 35.3758 37.6135C35.7208 37.8607 35.9911 38.2083 36.1868 38.6563C36.3824 39.0991 36.4803 39.6166 36.4803 40.2088C36.4803 40.801 36.3824 41.3211 36.1868 41.769C35.9962 42.2119 35.7285 42.5595 35.3835 42.8118C35.0385 43.0589 34.6343 43.1825 34.1708 43.1825ZM34.1785 42.2248C34.4412 42.2248 34.6651 42.1449 34.8505 41.9853C35.0359 41.8205 35.1775 41.5888 35.2753 41.2902C35.3783 40.9863 35.4298 40.6259 35.4298 40.2088C35.4298 39.7917 35.3783 39.4338 35.2753 39.1352C35.1775 38.8314 35.0333 38.5996 34.8428 38.44C34.6574 38.2804 34.4309 38.2006 34.1631 38.2006C33.9056 38.2006 33.6842 38.2804 33.4988 38.44C33.3135 38.5996 33.1693 38.8314 33.0663 39.1352C32.9684 39.4338 32.9195 39.7917 32.9195 40.2088C32.9195 40.6207 32.9684 40.9786 33.0663 41.2824C33.1693 41.5811 33.3135 41.8128 33.4988 41.9776C33.6894 42.1424 33.9159 42.2248 34.1785 42.2248ZM39.6395 43.1825C39.1812 43.1825 38.7795 43.0589 38.4345 42.8118C38.0895 42.5646 37.8192 42.217 37.6235 41.769C37.433 41.3211 37.3377 40.801 37.3377 40.2088C37.3377 39.6115 37.433 39.0914 37.6235 38.6486C37.814 38.2057 38.0818 37.8607 38.4268 37.6135C38.7718 37.3664 39.1734 37.2428 39.6317 37.2428C40.1003 37.2428 40.5045 37.3664 40.8444 37.6135C41.1894 37.8607 41.4597 38.2083 41.6554 38.6563C41.8511 39.0991 41.9489 39.6166 41.9489 40.2088C41.9489 40.801 41.8511 41.3211 41.6554 41.769C41.4649 42.2119 41.1971 42.5595 40.8521 42.8118C40.5071 43.0589 40.1029 43.1825 39.6395 43.1825ZM39.6472 42.2248C39.9098 42.2248 40.1338 42.1449 40.3192 41.9853C40.5045 41.8205 40.6461 41.5888 40.744 41.2902C40.847 40.9863 40.8985 40.6259 40.8985 40.2088C40.8985 39.7917 40.847 39.4338 40.744 39.1352C40.6461 38.8314 40.502 38.5996 40.3114 38.44C40.1261 38.2804 39.8995 38.2006 39.6317 38.2006C39.3743 38.2006 39.1528 38.2804 38.9675 38.44C38.7821 38.5996 38.6379 38.8314 38.5349 39.1352C38.4371 39.4338 38.3882 39.7917 38.3882 40.2088C38.3882 40.6207 38.4371 40.9786 38.5349 41.2824C38.6379 41.5811 38.7821 41.8128 38.9675 41.9776C39.158 42.1424 39.3846 42.2248 39.6472 42.2248ZM44.3027 43.0898V37.3355H45.3069L47.4618 40.2629H46.983L49.0916 37.3355H50.0957V43.0898H49.0375V38.5327L49.4469 38.6331L47.261 41.545H47.1374L45.0056 38.6331L45.3532 38.5327V43.0898H44.3027ZM50.7258 43.0898L52.7109 37.3355H54.0703L56.0554 43.0898H54.9122L54.5029 41.854H52.2784L51.8613 43.0898H50.7258ZM52.5796 40.9271H54.2016L53.2438 38.0615H53.5374L52.5796 40.9271ZM56.6958 43.0898V37.3355H57.7463V43.0898H56.6958ZM58.8531 43.0898V37.3355H59.9035V42.163H62.3675V43.0898H58.8531ZM63.047 43.0898V37.3355H65.4723C65.8533 37.3355 66.1777 37.4024 66.4455 37.5363C66.7184 37.665 66.927 37.8504 67.0712 38.0924C67.2205 38.3293 67.2952 38.6177 67.2952 38.9575C67.2952 39.2201 67.2231 39.4673 67.0789 39.699C66.9398 39.9256 66.7159 40.1135 66.4069 40.2629V39.7763C66.6901 39.8844 66.9141 40.0183 67.0789 40.1779C67.2437 40.3375 67.3595 40.5152 67.4265 40.7109C67.4934 40.9065 67.5269 41.1125 67.5269 41.3288C67.5269 41.8798 67.3441 42.3123 66.9785 42.6264C66.618 42.9354 66.116 43.0898 65.4723 43.0898H63.047ZM64.0974 42.163H65.5804C65.8533 42.163 66.0696 42.0883 66.2292 41.939C66.394 41.7845 66.4764 41.5811 66.4764 41.3288C66.4764 41.0765 66.394 40.8731 66.2292 40.7186C66.0696 40.5641 65.8533 40.4869 65.5804 40.4869H64.0974V42.163ZM64.0974 39.5677H65.5264C65.7426 39.5677 65.9151 39.5059 66.0439 39.3823C66.1726 39.2536 66.237 39.0888 66.237 38.888C66.237 38.6872 66.1726 38.5275 66.0439 38.4091C65.9151 38.2907 65.7426 38.2315 65.5264 38.2315H64.0974V39.5677ZM71.2221 43.1825C70.7998 43.1825 70.4059 43.1079 70.0403 42.9585C69.6747 42.8092 69.3554 42.6007 69.0825 42.3329C68.8096 42.0651 68.5959 41.751 68.4414 41.3906C68.2921 41.025 68.2174 40.631 68.2174 40.2088C68.2174 39.7814 68.2921 39.3875 68.4414 39.027C68.5908 38.6666 68.8019 38.3525 69.0748 38.0847C69.3477 37.8169 69.667 37.611 70.0326 37.4668C70.3982 37.3175 70.7947 37.2428 71.2221 37.2428C71.6495 37.2428 72.046 37.3175 72.4116 37.4668C72.7772 37.6161 73.0964 37.8247 73.3693 38.0924C73.6423 38.355 73.8534 38.6666 74.0027 39.027C74.1572 39.3875 74.2344 39.7814 74.2344 40.2088C74.2344 40.631 74.1572 41.025 74.0027 41.3906C73.8482 41.751 73.6345 42.0651 73.3616 42.3329C73.0887 42.6007 72.7694 42.8092 72.4038 42.9585C72.0434 43.1079 71.6495 43.1825 71.2221 43.1825ZM71.2221 42.2248C71.5053 42.2248 71.7653 42.1758 72.0022 42.078C72.2391 41.975 72.445 41.8334 72.6201 41.6532C72.8003 41.473 72.9368 41.2593 73.0295 41.0121C73.1273 40.7649 73.1762 40.4972 73.1762 40.2088C73.1762 39.9204 73.1273 39.6552 73.0295 39.4132C72.9368 39.1661 72.8003 38.9524 72.6201 38.7721C72.445 38.5868 72.2391 38.4452 72.0022 38.3473C71.7653 38.2495 71.5053 38.2006 71.2221 38.2006C70.944 38.2006 70.6865 38.2495 70.4497 38.3473C70.2128 38.4452 70.0043 38.5868 69.824 38.7721C69.649 38.9524 69.5125 39.1661 69.4147 39.4132C69.3168 39.6552 69.2679 39.9204 69.2679 40.2088C69.2679 40.4972 69.3168 40.7649 69.4147 41.0121C69.5125 41.2593 69.649 41.473 69.824 41.6532C70.0043 41.8334 70.2128 41.975 70.4497 42.078C70.6865 42.1758 70.944 42.2248 71.2221 42.2248ZM74.4635 43.0898L76.3481 40.1934L74.4789 37.3355H75.6839L77.2132 39.6758H76.6571L78.1787 37.3355H79.3837L77.5222 40.1934L79.3991 43.0898H78.1942L76.6571 40.7186H77.2132L75.6684 43.0898H74.4635ZM80.0412 43.0898V37.3355H83.8646V38.2624H81.0917V39.7376H83.7101V40.6645H81.0917V42.163H83.8646V43.0898H80.0412ZM86.6895 43.1825C86.3239 43.1825 85.984 43.1156 85.6699 42.9817C85.3609 42.8478 85.0932 42.6625 84.8666 42.4256C84.6452 42.1836 84.483 41.9029 84.38 41.5837L85.2528 41.2052C85.3918 41.5347 85.5927 41.7948 85.8553 41.9853C86.1179 42.1707 86.414 42.2634 86.7435 42.2634C86.9289 42.2634 87.0885 42.2351 87.2224 42.1784C87.3614 42.1166 87.467 42.0342 87.5391 41.9312C87.6163 41.8283 87.655 41.7047 87.655 41.5605C87.655 41.3906 87.6035 41.2515 87.5005 41.1434C87.4026 41.0301 87.2533 40.9426 87.0525 40.8808L85.948 40.5255C85.5 40.3865 85.1627 40.1779 84.9361 39.8998C84.7095 39.6218 84.5963 39.2948 84.5963 38.9189C84.5963 38.5893 84.6761 38.2984 84.8357 38.0461C85.0005 37.7938 85.227 37.5981 85.5154 37.4591C85.8089 37.3149 86.1436 37.2428 86.5195 37.2428C86.8645 37.2428 87.1812 37.3046 87.4696 37.4282C87.7579 37.5466 88.0051 37.714 88.2111 37.9302C88.4222 38.1413 88.5793 38.3911 88.6822 38.6795L87.8172 39.0657C87.7039 38.7773 87.5339 38.5559 87.3074 38.4014C87.0808 38.2418 86.8182 38.1619 86.5195 38.1619C86.3445 38.1619 86.19 38.1928 86.0561 38.2546C85.9222 38.3113 85.8166 38.3937 85.7394 38.5018C85.6673 38.6048 85.6313 38.7284 85.6313 38.8726C85.6313 39.0322 85.6828 39.1738 85.7857 39.2974C85.8887 39.4158 86.0458 39.5085 86.2569 39.5754L87.3151 39.9076C87.7734 40.0569 88.1158 40.2629 88.3424 40.5255C88.5741 40.7881 88.69 41.1125 88.69 41.4987C88.69 41.8283 88.605 42.1192 88.4351 42.3715C88.2651 42.6238 88.0309 42.8221 87.7322 42.9663C87.4335 43.1104 87.086 43.1825 86.6895 43.1825Z" fill="#9CA3AF"/>
<path d="M184.205 43.5898L186.376 40.792L186.574 40.998C186.488 41.061 186.405 41.1124 186.325 41.1525C186.245 41.1925 186.159 41.2212 186.068 41.2383C185.976 41.2555 185.879 41.2641 185.776 41.2641C185.387 41.2641 185.04 41.1754 184.737 40.998C184.434 40.8207 184.194 40.5804 184.016 40.2771C183.845 39.9682 183.759 39.6191 183.759 39.2301C183.759 38.8181 183.853 38.452 184.042 38.1316C184.237 37.8112 184.5 37.5594 184.832 37.3763C185.169 37.1875 185.553 37.0931 185.982 37.0931C186.417 37.0931 186.8 37.1847 187.132 37.3678C187.464 37.5508 187.724 37.8026 187.913 38.123C188.107 38.4377 188.204 38.801 188.204 39.2129C188.204 39.4189 188.182 39.6249 188.136 39.8308C188.09 40.0368 188.007 40.2571 187.887 40.4917C187.772 40.7205 187.607 40.9809 187.389 41.2727L185.604 43.5898H184.205ZM185.982 40.2857C186.182 40.2857 186.359 40.2428 186.514 40.157C186.674 40.0654 186.8 39.9395 186.891 39.7793C186.983 39.6134 187.029 39.4275 187.029 39.2215C187.029 39.0041 186.98 38.8153 186.883 38.6551C186.791 38.4949 186.668 38.369 186.514 38.2775C186.359 38.1859 186.182 38.1401 185.982 38.1401C185.787 38.1401 185.61 38.1859 185.45 38.2775C185.289 38.369 185.161 38.4949 185.063 38.6551C184.972 38.8153 184.926 39.0041 184.926 39.2215C184.926 39.4275 184.972 39.6134 185.063 39.7793C185.161 39.9395 185.289 40.0654 185.45 40.157C185.61 40.2428 185.787 40.2857 185.982 40.2857ZM191.671 43.5898V42.1824H188.736V41.204L191.602 37.1961H192.821V41.204H193.757V42.1824H192.821V43.5898H191.671ZM189.594 41.6245L189.388 41.204H191.671V38.1144L191.972 38.2088L189.594 41.6245ZM195.355 43.5898L200.539 37.1961H201.741L196.557 43.5898H195.355ZM196.36 40.4402C196.039 40.4402 195.75 40.3658 195.493 40.217C195.241 40.0626 195.041 39.8594 194.892 39.6077C194.743 39.356 194.669 39.0756 194.669 38.7666C194.669 38.4577 194.743 38.1773 194.892 37.9256C195.041 37.6681 195.241 37.465 195.493 37.3163C195.75 37.1675 196.036 37.0931 196.351 37.0931C196.671 37.0931 196.957 37.1675 197.209 37.3163C197.461 37.465 197.661 37.6681 197.81 37.9256C197.959 38.1773 198.033 38.4577 198.033 38.7666C198.033 39.0756 197.959 39.356 197.81 39.6077C197.661 39.8594 197.461 40.0626 197.209 40.217C196.957 40.3658 196.674 40.4402 196.36 40.4402ZM196.351 39.5734C196.523 39.5734 196.666 39.5362 196.78 39.4618C196.895 39.3817 196.98 39.2816 197.038 39.1614C197.1 39.0356 197.132 38.904 197.132 38.7666C197.132 38.6236 197.1 38.492 197.038 38.3719C196.98 38.2517 196.895 38.1516 196.78 38.0715C196.666 37.9914 196.523 37.9513 196.351 37.9513C196.191 37.9513 196.051 37.9914 195.93 38.0715C195.816 38.1516 195.727 38.2546 195.664 38.3804C195.601 38.5006 195.57 38.6293 195.57 38.7666C195.57 38.8982 195.601 39.027 195.664 39.1528C195.727 39.2787 195.816 39.3817 195.93 39.4618C196.051 39.5362 196.191 39.5734 196.351 39.5734ZM200.711 43.6928C200.396 43.6928 200.11 43.6185 199.853 43.4697C199.601 43.3152 199.401 43.1121 199.252 42.8604C199.103 42.6086 199.029 42.3283 199.029 42.0193C199.029 41.7103 199.103 41.43 199.252 41.1782C199.401 40.9208 199.601 40.7177 199.853 40.5689C200.11 40.4202 200.396 40.3458 200.711 40.3458C201.031 40.3458 201.317 40.4202 201.569 40.5689C201.821 40.7177 202.021 40.9208 202.17 41.1782C202.318 41.43 202.393 41.7103 202.393 42.0193C202.393 42.3283 202.318 42.6086 202.17 42.8604C202.021 43.1121 201.821 43.3152 201.569 43.4697C201.317 43.6185 201.031 43.6928 200.711 43.6928ZM200.711 42.826C200.877 42.826 201.017 42.7888 201.131 42.7145C201.251 42.6344 201.34 42.5342 201.397 42.4141C201.46 42.2882 201.492 42.1566 201.492 42.0193C201.492 41.8763 201.46 41.7447 201.397 41.6245C201.34 41.5044 201.251 41.4042 201.131 41.3241C201.017 41.244 200.877 41.204 200.711 41.204C200.551 41.204 200.41 41.244 200.29 41.3241C200.176 41.4042 200.087 41.5072 200.024 41.6331C199.961 41.7533 199.93 41.882 199.93 42.0193C199.93 42.1509 199.961 42.2796 200.024 42.4055C200.087 42.5314 200.176 42.6344 200.29 42.7145C200.41 42.7888 200.551 42.826 200.711 42.826Z" fill="#111827"/>
<g clip-path="url(#clip0_528_4470)">
<rect x="28.3213" y="56.8887" width="175.077" height="5.14932" rx="2.57466" fill="#F3F4F6"/>
<rect x="28.3213" y="56.8887" width="164.564" height="5" fill="#581ADF"/>
</g>
<rect x="28.3213" y="75.7695" width="84.1055" height="32.4404" rx="10.2986" fill="#FAF5FF"/>
<path d="M36.0419 87.1326C35.7255 87.1326 35.4352 87.0766 35.1708 86.9644C34.9065 86.8483 34.6762 86.6881 34.48 86.4838C34.2877 86.2756 34.1375 86.0313 34.0294 85.7509C33.9213 85.4706 33.8672 85.1622 33.8672 84.8257C33.8672 84.4893 33.9213 84.1809 34.0294 83.9006C34.1375 83.6202 34.2877 83.3759 34.48 83.1677C34.6762 82.9594 34.9065 82.7992 35.1708 82.6871C35.4352 82.5709 35.7255 82.5128 36.0419 82.5128C36.3463 82.5128 36.6187 82.5669 36.859 82.675C37.1033 82.7832 37.3075 82.9234 37.4717 83.0956C37.6399 83.2638 37.7601 83.442 37.8322 83.6302L37.3816 83.8285C37.2695 83.5682 37.0973 83.3599 36.865 83.2037C36.6367 83.0435 36.3623 82.9634 36.0419 82.9634C35.7135 82.9634 35.4212 83.0415 35.1648 83.1977C34.9085 83.3539 34.7083 83.5722 34.5641 83.8525C34.4199 84.1289 34.3478 84.4533 34.3478 84.8257C34.3478 85.1942 34.4199 85.5186 34.5641 85.799C34.7083 86.0793 34.9085 86.2976 35.1648 86.4538C35.4212 86.606 35.7135 86.6821 36.0419 86.6821C36.3623 86.6821 36.6367 86.604 36.865 86.4478C37.0973 86.2916 37.2695 86.0833 37.3816 85.823L37.8322 86.0212C37.7601 86.2055 37.6399 86.3837 37.4717 86.5559C37.3075 86.7241 37.1033 86.8623 36.859 86.9704C36.6187 87.0786 36.3463 87.1326 36.0419 87.1326ZM40.8014 87.1326C40.489 87.1326 40.1966 87.0766 39.9243 86.9644C39.656 86.8483 39.4197 86.6881 39.2154 86.4838C39.0112 86.2756 38.851 86.0313 38.7348 85.7509C38.6187 85.4665 38.5606 85.1562 38.5606 84.8197C38.5606 84.4833 38.6187 84.1749 38.7348 83.8946C38.851 83.6102 39.0112 83.3659 39.2154 83.1617C39.4197 82.9534 39.656 82.7932 39.9243 82.6811C40.1966 82.5689 40.489 82.5128 40.8014 82.5128C41.1138 82.5128 41.4042 82.5709 41.6725 82.6871C41.9448 82.7992 42.1831 82.9594 42.3874 83.1677C42.5916 83.3719 42.7518 83.6142 42.868 83.8946C42.9841 84.1749 43.0422 84.4833 43.0422 84.8197C43.0422 85.1562 42.9841 85.4665 42.868 85.7509C42.7518 86.0313 42.5916 86.2756 42.3874 86.4838C42.1831 86.6881 41.9448 86.8483 41.6725 86.9644C41.4042 87.0766 41.1138 87.1326 40.8014 87.1326ZM40.8014 86.6821C41.0617 86.6821 41.298 86.634 41.5103 86.5379C41.7266 86.4418 41.9128 86.3076 42.069 86.1354C42.2252 85.9632 42.3453 85.7649 42.4294 85.5406C42.5176 85.3164 42.5616 85.0761 42.5616 84.8197C42.5616 84.5674 42.5176 84.3291 42.4294 84.1048C42.3453 83.8806 42.2252 83.6823 42.069 83.5101C41.9128 83.3379 41.7266 83.2037 41.5103 83.1076C41.298 83.0115 41.0617 82.9634 40.8014 82.9634C40.5411 82.9634 40.3028 83.0115 40.0865 83.1076C39.8742 83.2037 39.69 83.3379 39.5338 83.5101C39.3776 83.6823 39.2555 83.8806 39.1674 84.1048C39.0832 84.3291 39.0412 84.5674 39.0412 84.8197C39.0412 85.0761 39.0832 85.3164 39.1674 85.5406C39.2555 85.7649 39.3776 85.9632 39.5338 86.1354C39.69 86.3076 39.8762 86.4418 40.0925 86.5379C40.3088 86.634 40.5451 86.6821 40.8014 86.6821ZM43.967 87.0605V82.5849H44.3875L47.0128 86.3517H46.8506V82.5849H47.3312V87.0605H46.9106L44.2854 83.2698H44.4476V87.0605H43.967ZM48.3905 87.0605V82.5849H51.1539V83.0355H48.8711V84.5914H50.9737V85.042H48.8711V87.0605H48.3905ZM51.8812 87.0605V82.5849H52.3618V87.0605H51.8812ZM55.4608 87.1326C55.1444 87.1326 54.8541 87.0766 54.5897 86.9644C54.3254 86.8483 54.0951 86.6881 53.8989 86.4838C53.7066 86.2756 53.5564 86.0313 53.4483 85.7509C53.3402 85.4706 53.2861 85.1622 53.2861 84.8257C53.2861 84.4893 53.3402 84.1809 53.4483 83.9006C53.5564 83.6202 53.7066 83.3759 53.8989 83.1677C54.0951 82.9594 54.3254 82.7992 54.5897 82.6871C54.8541 82.5709 55.1444 82.5128 55.4608 82.5128C55.7652 82.5128 56.0376 82.5669 56.2779 82.675C56.5222 82.7832 56.7264 82.9234 56.8906 83.0956C57.0588 83.2638 57.179 83.442 57.2511 83.6302L56.8185 83.8405C56.7064 83.5682 56.5342 83.3539 56.3019 83.1977C56.0696 83.0415 55.7892 82.9634 55.4608 82.9634C55.1324 82.9634 54.8401 83.0415 54.5837 83.1977C54.3274 83.3539 54.1272 83.5722 53.983 83.8525C53.8388 84.1289 53.7667 84.4533 53.7667 84.8257C53.7667 85.1942 53.8388 85.5186 53.983 85.799C54.1272 86.0793 54.3274 86.2976 54.5837 86.4538C54.8401 86.606 55.1324 86.6821 55.4608 86.6821C55.7532 86.6821 56.0155 86.618 56.2478 86.4898C56.4841 86.3617 56.6703 86.1875 56.8065 85.9672C56.9427 85.7429 57.0108 85.4866 57.0108 85.1982V84.9519L57.227 85.1682H55.4608V84.7476H57.4914V85.1201C57.4914 85.4125 57.4393 85.6828 57.3352 85.9311C57.2311 86.1754 57.0869 86.3877 56.9026 86.5679C56.7184 86.7482 56.5021 86.8883 56.2538 86.9885C56.0095 87.0846 55.7452 87.1326 55.4608 87.1326ZM59.9262 87.1326C59.6098 87.1326 59.3314 87.0666 59.0911 86.9344C58.8508 86.8022 58.6646 86.622 58.5324 86.3937C58.4003 86.1614 58.3342 85.8971 58.3342 85.6007V82.5849H58.8148V85.6007C58.8148 85.817 58.8608 86.0072 58.9529 86.1714C59.0491 86.3316 59.1792 86.4578 59.3434 86.5499C59.5116 86.638 59.7059 86.6821 59.9262 86.6821C60.1464 86.6821 60.3387 86.638 60.5029 86.5499C60.6711 86.4578 60.8013 86.3316 60.8934 86.1714C60.9895 86.0072 61.0376 85.817 61.0376 85.6007V82.5849H61.5182V85.6007C61.5182 85.8971 61.4521 86.1614 61.3199 86.3937C61.1877 86.622 61.0015 86.8022 60.7612 86.9344C60.5249 87.0666 60.2466 87.1326 59.9262 87.1326ZM62.5586 87.0605V82.5849H64.0966C64.3889 82.5849 64.6453 82.643 64.8655 82.7591C65.0858 82.8713 65.256 83.0315 65.3762 83.2398C65.5003 83.444 65.5624 83.6823 65.5624 83.9546C65.5624 84.271 65.4783 84.5414 65.3101 84.7657C65.1459 84.9899 64.9216 85.1481 64.6372 85.2403L65.6826 87.0605H65.1179L64.0245 85.1321L64.3489 85.3184H63.0392V87.0605H62.5586ZM63.0392 84.8678H64.1206C64.3128 84.8678 64.4811 84.8318 64.6252 84.7597C64.7694 84.6836 64.8816 84.5774 64.9617 84.4413C65.0418 84.3011 65.0818 84.1369 65.0818 83.9486C65.0818 83.7604 65.0418 83.5982 64.9617 83.462C64.8816 83.3259 64.7694 83.2217 64.6252 83.1496C64.4811 83.0735 64.3128 83.0355 64.1206 83.0355H63.0392V84.8678ZM66.4072 87.0605V82.5849H69.2908V83.0355H66.8878V84.5914H69.1707V85.042H66.8878V86.61H69.2908V87.0605H66.4072ZM70.0857 87.0605V82.5849H71.5575C72.0021 82.5849 72.3886 82.677 72.717 82.8613C73.0454 83.0415 73.2997 83.2998 73.4799 83.6362C73.6601 83.9687 73.7503 84.3632 73.7503 84.8197C73.7503 85.2723 73.6601 85.6668 73.4799 86.0032C73.2997 86.3396 73.0454 86.6 72.717 86.7842C72.3886 86.9684 72.0021 87.0605 71.5575 87.0605H70.0857ZM70.5663 86.61H71.5575C71.9019 86.61 72.2003 86.5379 72.4526 86.3937C72.7049 86.2455 72.8992 86.0373 73.0354 85.7689C73.1755 85.5006 73.2456 85.1842 73.2456 84.8197C73.2456 84.4553 73.1755 84.1409 73.0354 83.8766C72.8952 83.6082 72.6989 83.402 72.4466 83.2578C72.1943 83.1096 71.8979 83.0355 71.5575 83.0355H70.5663V86.61Z" fill="#9CA3AF"/>
<path d="M34.2774 100.061L36.4487 97.2628L36.6461 97.4687C36.5603 97.5317 36.4773 97.5832 36.3972 97.6232C36.3171 97.6633 36.2313 97.6919 36.1398 97.709C36.0482 97.7262 35.951 97.7348 35.848 97.7348C35.4589 97.7348 35.1128 97.6461 34.8095 97.4687C34.5063 97.2914 34.266 97.0511 34.0886 96.7478C33.917 96.4389 33.8312 96.0899 33.8312 95.7008C33.8312 95.2888 33.9256 94.9227 34.1144 94.6023C34.3089 94.2819 34.5721 94.0301 34.9039 93.847C35.2415 93.6582 35.6248 93.5638 36.0539 93.5638C36.4888 93.5638 36.8721 93.6554 37.204 93.8385C37.5358 94.0215 37.7961 94.2733 37.9849 94.5937C38.1795 94.9084 38.2767 95.2717 38.2767 95.6836C38.2767 95.8896 38.2538 96.0956 38.2081 96.3015C38.1623 96.5075 38.0793 96.7278 37.9592 96.9624C37.8448 97.1912 37.6788 97.4516 37.4614 97.7434L35.6763 100.061H34.2774ZM36.0539 96.7564C36.2542 96.7564 36.4316 96.7135 36.586 96.6277C36.7462 96.5361 36.8721 96.4103 36.9637 96.2501C37.0552 96.0841 37.101 95.8982 37.101 95.6922C37.101 95.4748 37.0523 95.286 36.9551 95.1258C36.8635 94.9656 36.7405 94.8397 36.586 94.7482C36.4316 94.6566 36.2542 94.6109 36.0539 94.6109C35.8594 94.6109 35.682 94.6566 35.5218 94.7482C35.3616 94.8397 35.2329 94.9656 35.1356 95.1258C35.0441 95.286 34.9983 95.4748 34.9983 95.6922C34.9983 95.8982 35.0441 96.0841 35.1356 96.2501C35.2329 96.4103 35.3616 96.5361 35.5218 96.6277C35.682 96.7135 35.8594 96.7564 36.0539 96.7564ZM41.7434 100.061V98.6531H38.8083V97.6747L41.6747 93.6668H42.8934V97.6747H43.8289V98.6531H42.8934V100.061H41.7434ZM39.6665 98.0952L39.4605 97.6747H41.7434V94.5851L42.0438 94.6795L39.6665 98.0952Z" fill="#111827"/>
<rect x="119.293" y="75.7695" width="84.1055" height="32.4404" rx="10.2986" fill="#FAF5FF"/>
<path d="M124.971 87.0605V82.5849H126.509C126.801 82.5849 127.058 82.643 127.278 82.7591C127.498 82.8713 127.668 83.0315 127.789 83.2398C127.913 83.444 127.975 83.6823 127.975 83.9546C127.975 84.271 127.891 84.5414 127.722 84.7657C127.558 84.9899 127.334 85.1481 127.05 85.2403L128.095 87.0605H127.53L126.437 85.1321L126.761 85.3184H125.452V87.0605H124.971ZM125.452 84.8678H126.533C126.725 84.8678 126.893 84.8318 127.038 84.7597C127.182 84.6836 127.294 84.5774 127.374 84.4413C127.454 84.3011 127.494 84.1369 127.494 83.9486C127.494 83.7604 127.454 83.5982 127.374 83.462C127.294 83.3259 127.182 83.2217 127.038 83.1496C126.893 83.0735 126.725 83.0355 126.533 83.0355H125.452V84.8678ZM128.82 87.0605V82.5849H131.703V83.0355H129.3V84.5914H131.583V85.042H129.3V86.61H131.703V87.0605H128.82ZM132.498 87.0605V82.5849H132.919L134.601 85.024H134.366L136.043 82.5849H136.463V87.0605H135.982V83.2337L136.139 83.2938L134.493 85.6788H134.469L132.828 83.2938L132.979 83.2337V87.0605H132.498ZM137.057 87.0605L138.691 82.5849H139.208L140.842 87.0605H140.338L139.953 85.9672H137.953L137.562 87.0605H137.057ZM138.109 85.5166H139.785L138.878 82.9454H139.022L138.109 85.5166ZM141.439 87.0605V82.5849H141.92V87.0605H141.439ZM142.976 87.0605V82.5849H143.397L146.022 86.3517H145.86V82.5849H146.34V87.0605H145.92L143.294 83.2698H143.457V87.0605H142.976ZM147.4 87.0605V82.5849H147.88V87.0605H147.4ZM148.937 87.0605V82.5849H149.357L151.982 86.3517H151.82V82.5849H152.301V87.0605H151.88L149.255 83.2698H149.417V87.0605H148.937ZM155.403 87.1326C155.086 87.1326 154.796 87.0766 154.532 86.9644C154.267 86.8483 154.037 86.6881 153.841 86.4838C153.649 86.2756 153.498 86.0313 153.39 85.7509C153.282 85.4706 153.228 85.1622 153.228 84.8257C153.228 84.4893 153.282 84.1809 153.39 83.9006C153.498 83.6202 153.649 83.3759 153.841 83.1677C154.037 82.9594 154.267 82.7992 154.532 82.6871C154.796 82.5709 155.086 82.5128 155.403 82.5128C155.707 82.5128 155.979 82.5669 156.22 82.675C156.464 82.7832 156.668 82.9234 156.833 83.0956C157.001 83.2638 157.121 83.442 157.193 83.6302L156.76 83.8405C156.648 83.5682 156.476 83.3539 156.244 83.1977C156.012 83.0415 155.731 82.9634 155.403 82.9634C155.074 82.9634 154.782 83.0415 154.526 83.1977C154.269 83.3539 154.069 83.5722 153.925 83.8525C153.781 84.1289 153.709 84.4533 153.709 84.8257C153.709 85.1942 153.781 85.5186 153.925 85.799C154.069 86.0793 154.269 86.2976 154.526 86.4538C154.782 86.606 155.074 86.6821 155.403 86.6821C155.695 86.6821 155.957 86.618 156.19 86.4898C156.426 86.3617 156.612 86.1875 156.748 85.9672C156.885 85.7429 156.953 85.4866 156.953 85.1982V84.9519L157.169 85.1682H155.403V84.7476H157.433V85.1201C157.433 85.4125 157.381 85.6828 157.277 85.9311C157.173 86.1754 157.029 86.3877 156.845 86.5679C156.66 86.7482 156.444 86.8883 156.196 86.9885C155.951 87.0846 155.687 87.1326 155.403 87.1326Z" fill="#9CA3AF"/>
<path d="M127.034 100.164C126.599 100.164 126.213 100.072 125.876 99.8889C125.544 99.7001 125.283 99.4484 125.095 99.1337C124.906 98.8133 124.811 98.45 124.811 98.0437C124.811 97.8378 124.831 97.6318 124.871 97.4258C124.917 97.2198 124.997 96.9996 125.112 96.765C125.232 96.5304 125.404 96.2701 125.627 95.984L127.412 93.6668H128.802L126.631 96.456L126.442 96.2501C126.522 96.1871 126.605 96.1385 126.691 96.1042C126.777 96.0641 126.863 96.0355 126.948 96.0183C127.04 96.0012 127.134 95.9926 127.232 95.9926C127.621 95.9926 127.967 96.0813 128.27 96.2586C128.573 96.436 128.811 96.6792 128.982 96.9881C129.16 97.2914 129.248 97.6346 129.248 98.018C129.248 98.4299 129.154 98.799 128.965 99.1251C128.776 99.4455 128.513 99.7001 128.176 99.8889C127.844 100.072 127.463 100.164 127.034 100.164ZM127.034 99.1079C127.229 99.1079 127.403 99.065 127.558 98.9792C127.718 98.8876 127.844 98.7589 127.935 98.593C128.033 98.4271 128.081 98.2411 128.081 98.0351C128.081 97.8177 128.033 97.6318 127.935 97.4773C127.844 97.3171 127.721 97.1912 127.566 97.0997C127.412 97.0081 127.234 96.9624 127.034 96.9624C126.84 96.9624 126.662 97.0081 126.502 97.0997C126.342 97.1912 126.213 97.3171 126.116 97.4773C126.024 97.6318 125.979 97.8177 125.979 98.0351C125.979 98.2411 126.024 98.4271 126.116 98.593C126.213 98.7589 126.342 98.8876 126.502 98.9792C126.662 99.065 126.84 99.1079 127.034 99.1079Z" fill="#111827"/>
</g>
<defs>
<filter id="filter0_d_528_4470" x="12.015" y="18.1418" width="206.97" height="132.433" filterUnits="userSpaceOnUse" color-interpolation-filters="sRGB">
<feFlood flood-opacity="0" result="BackgroundImageFix"/>
<feColorMatrix in="SourceAlpha" type="matrix" values="0 0 0 0 0 0 0 0 0 0 0 0 0 0 0 0 0 0 127 0" result="hardAlpha"/>
<feOffset dy="0.85822"/>
<feGaussianBlur stdDeviation="0.85822"/>
<feComposite in2="hardAlpha" operator="out"/>
<feColorMatrix type="matrix" values="0 0 0 0 0 0 0 0 0 0 0 0 0 0 0 0 0 0 0.05 0"/>
<feBlend mode="normal" in2="BackgroundImageFix" result="effect1_dropShadow_528_4470"/>
<feBlend mode="normal" in="SourceGraphic" in2="effect1_dropShadow_528_4470" result="shape"/>
</filter>
<clipPath id="clip0_528_4470">
<rect x="28.3213" y="56.8887" width="175.077" height="5.14932" rx="2.57466" fill="white"/>
</clipPath>
</defs>
</svg>
