<svg width="232" height="167" viewBox="0 0 232 167" fill="none" xmlns="http://www.w3.org/2000/svg">
<rect width="232" height="167" rx="13.7315" fill="#FAF5FF"/>
<mask id="path-2-inside-1_528_4405" fill="white">
<path d="M10.2988 20.5005C10.2988 16.7087 13.3727 13.6348 17.1646 13.6348H214.836C218.628 13.6348 221.702 16.7087 221.702 20.5005V48.769C221.702 52.5609 218.628 55.6348 214.836 55.6348H17.1646C13.3727 55.6348 10.2988 52.5609 10.2988 48.769V20.5005Z"/>
</mask>
<path d="M10.2988 20.5005C10.2988 16.7087 13.3727 13.6348 17.1646 13.6348H214.836C218.628 13.6348 221.702 16.7087 221.702 20.5005V48.769C221.702 52.5609 218.628 55.6348 214.836 55.6348H17.1646C13.3727 55.6348 10.2988 52.5609 10.2988 48.769V20.5005Z" fill="white"/>
<path d="M17.1646 13.6348V14.493H214.836V13.6348V12.7765H17.1646V13.6348ZM221.702 20.5005H220.843V48.769H221.702H222.56V20.5005H221.702ZM214.836 55.6348V54.7765H17.1646V55.6348V56.493H214.836V55.6348ZM10.2988 48.769H11.157V20.5005H10.2988H9.44061V48.769H10.2988ZM17.1646 55.6348V54.7765C13.8467 54.7765 11.157 52.0869 11.157 48.769H10.2988H9.44061C9.44061 53.0348 12.8987 56.493 17.1646 56.493V55.6348ZM221.702 48.769H220.843C220.843 52.0869 218.154 54.7765 214.836 54.7765V55.6348V56.493C219.102 56.493 222.56 53.0348 222.56 48.769H221.702ZM214.836 13.6348V14.493C218.154 14.493 220.843 17.1827 220.843 20.5005H221.702H222.56C222.56 16.2347 219.102 12.7765 214.836 12.7765V13.6348ZM17.1646 13.6348V12.7765C12.8988 12.7765 9.44061 16.2347 9.44061 20.5005H10.2988H11.157C11.157 17.1827 13.8467 14.493 17.1646 14.493V13.6348Z" fill="#F3F4F6" mask="url(#path-2-inside-1_528_4405)"/>
<rect x="19.7393" y="31.2012" width="6.86576" height="6.86576" rx="3.43288" fill="#10B981"/>
<path d="M36.5431 38.2378C36.2056 38.2378 35.8937 38.172 35.6077 38.0404C35.3273 37.903 35.1042 37.7085 34.9383 37.4568L35.0498 37.2336V38.1348H33.9942V31.638H35.1185V34.3929L34.9468 34.1612C35.107 33.9095 35.3245 33.7149 35.5991 33.5776C35.8737 33.4346 36.1913 33.3631 36.5517 33.3631C36.9923 33.3631 37.3899 33.4718 37.7446 33.6892C38.0994 33.9066 38.3797 34.1984 38.5857 34.5646C38.7974 34.9307 38.9032 35.3427 38.9032 35.8004C38.9032 36.2524 38.8002 36.6643 38.5943 37.0362C38.3883 37.4081 38.108 37.7028 37.7532 37.9202C37.3985 38.1319 36.9951 38.2378 36.5431 38.2378ZM36.4144 37.2079C36.6719 37.2079 36.9007 37.1478 37.101 37.0277C37.3012 36.9075 37.4557 36.7416 37.5644 36.5299C37.6788 36.3182 37.7361 36.075 37.7361 35.8004C37.7361 35.5258 37.6788 35.2855 37.5644 35.0795C37.4557 34.8678 37.3012 34.7019 37.101 34.5817C36.9007 34.4559 36.6719 34.3929 36.4144 34.3929C36.1684 34.3929 35.9452 34.453 35.745 34.5732C35.5505 34.6933 35.396 34.8621 35.2815 35.0795C35.1728 35.2912 35.1185 35.5315 35.1185 35.8004C35.1185 36.075 35.1728 36.3182 35.2815 36.5299C35.396 36.7416 35.5505 36.9075 35.745 37.0277C35.9452 37.1478 36.1684 37.2079 36.4144 37.2079ZM41.1764 38.2378C40.8503 38.2378 40.5671 38.1834 40.3268 38.0747C40.0865 37.966 39.9006 37.8115 39.769 37.6113C39.6374 37.4053 39.5716 37.1678 39.5716 36.8989C39.5716 36.6415 39.6288 36.4126 39.7432 36.2124C39.8576 36.0064 40.035 35.8347 40.2753 35.6974C40.5156 35.5601 40.8189 35.4628 41.185 35.4056L42.7127 35.1567V36.015L41.3996 36.2381C41.1764 36.2782 41.0105 36.3497 40.9018 36.4527C40.7931 36.5556 40.7388 36.6901 40.7388 36.856C40.7388 37.0162 40.7988 37.145 40.919 37.2422C41.0448 37.3338 41.1993 37.3795 41.3824 37.3795C41.617 37.3795 41.823 37.3309 42.0003 37.2336C42.1834 37.1306 42.3236 36.9905 42.4209 36.8131C42.5238 36.6357 42.5753 36.4412 42.5753 36.2295V35.028C42.5753 34.8278 42.4952 34.6618 42.335 34.5302C42.1806 34.3929 41.9746 34.3243 41.7171 34.3243C41.4768 34.3243 41.2623 34.3901 41.0735 34.5217C40.8904 34.6475 40.7559 34.8163 40.6701 35.028L39.7518 34.5817C39.8433 34.3357 39.9864 34.124 40.1809 33.9467C40.3812 33.7636 40.6157 33.6205 40.8846 33.5175C41.1536 33.4146 41.4454 33.3631 41.76 33.3631C42.1434 33.3631 42.4809 33.4346 42.7727 33.5776C43.0645 33.7149 43.2905 33.9095 43.4507 34.1612C43.6166 34.4072 43.6996 34.6962 43.6996 35.028V38.1348H42.6354V37.3366L42.8757 37.3195C42.7556 37.5197 42.6125 37.6885 42.4466 37.8258C42.2807 37.9574 42.0919 38.0604 41.8802 38.1348C41.6685 38.2034 41.4339 38.2378 41.1764 38.2378ZM46.5152 38.2378C46.0175 38.2378 45.5826 38.1205 45.2107 37.8859C44.8446 37.6456 44.5928 37.3223 44.4555 36.9161L45.2966 36.5127C45.4167 36.7759 45.5826 36.9819 45.7943 37.1306C46.0118 37.2794 46.2521 37.3538 46.5152 37.3538C46.7212 37.3538 46.8843 37.308 47.0044 37.2165C47.1246 37.1249 47.1847 37.0048 47.1847 36.856C47.1847 36.7645 47.1589 36.6901 47.1074 36.6329C47.0616 36.5699 46.9958 36.5185 46.91 36.4784C46.8299 36.4326 46.7412 36.3954 46.644 36.3668L45.8802 36.1523C45.4854 36.0378 45.185 35.8633 44.979 35.6288C44.7788 35.3942 44.6787 35.1167 44.6787 34.7963C44.6787 34.5102 44.7502 34.2613 44.8932 34.0496C45.042 33.8322 45.2451 33.6634 45.5025 33.5433C45.7657 33.4231 46.0661 33.3631 46.4037 33.3631C46.8442 33.3631 47.2333 33.4689 47.5709 33.6806C47.9084 33.8923 48.1487 34.1898 48.2918 34.5732L47.4335 34.9765C47.3534 34.7648 47.219 34.596 47.0302 34.4702C46.8414 34.3443 46.6297 34.2814 46.3951 34.2814C46.2063 34.2814 46.0575 34.3243 45.9488 34.4101C45.8401 34.4959 45.7858 34.6075 45.7858 34.7448C45.7858 34.8306 45.8086 34.905 45.8544 34.9679C45.9002 35.0309 45.9631 35.0824 46.0432 35.1224C46.129 35.1625 46.2263 35.1997 46.335 35.234L47.0817 35.4571C47.465 35.5715 47.7597 35.7432 47.9656 35.9721C48.1773 36.2009 48.2832 36.4813 48.2832 36.8131C48.2832 37.0935 48.2088 37.3423 48.06 37.5598C47.9113 37.7715 47.7053 37.9374 47.4421 38.0575C47.1789 38.1777 46.87 38.2378 46.5152 38.2378ZM51.3614 38.2378C50.8808 38.2378 50.4602 38.129 50.0998 37.9116C49.7393 37.6942 49.459 37.3996 49.2587 37.0277C49.0585 36.6558 48.9584 36.2438 48.9584 35.7918C48.9584 35.3227 49.0585 34.9079 49.2587 34.5474C49.4647 34.1812 49.7422 33.8923 50.0912 33.6806C50.4459 33.4689 50.8407 33.3631 51.2755 33.3631C51.6417 33.3631 51.9621 33.4231 52.2368 33.5433C52.5171 33.6634 52.7545 33.8294 52.9491 34.0411C53.1436 34.2528 53.2924 34.4959 53.3953 34.7705C53.4983 35.0395 53.5498 35.3312 53.5498 35.6459C53.5498 35.726 53.5441 35.809 53.5327 35.8948C53.5269 35.9806 53.5126 36.055 53.4898 36.1179H49.8852V35.2597H52.8547L52.3226 35.6631C52.3741 35.3999 52.3598 35.1653 52.2797 34.9594C52.2053 34.7534 52.0794 34.5903 51.902 34.4702C51.7304 34.35 51.5216 34.2899 51.2755 34.2899C51.041 34.2899 50.8321 34.35 50.649 34.4702C50.466 34.5846 50.3258 34.7562 50.2285 34.9851C50.137 35.2082 50.1026 35.48 50.1255 35.8004C50.1026 36.0865 50.1398 36.3411 50.2371 36.5642C50.3401 36.7816 50.4888 36.9504 50.6834 37.0706C50.8836 37.1907 51.1125 37.2508 51.3699 37.2508C51.6274 37.2508 51.8448 37.1964 52.0222 37.0877C52.2053 36.979 52.3483 36.8331 52.4513 36.65L53.361 37.0963C53.2695 37.3195 53.1264 37.5168 52.9319 37.6885C52.7374 37.8601 52.5057 37.9946 52.2368 38.0919C51.9736 38.1891 51.6818 38.2378 51.3614 38.2378ZM56.951 38.2378C56.6134 38.2378 56.3016 38.172 56.0155 38.0404C55.7352 37.903 55.512 37.7085 55.3461 37.4568L55.4577 37.2336V38.1348H54.4021V31.638H55.5263V34.3929L55.3547 34.1612C55.5149 33.9095 55.7323 33.7149 56.0069 33.5776C56.2816 33.4346 56.5991 33.3631 56.9596 33.3631C57.4001 33.3631 57.7978 33.4718 58.1525 33.6892C58.5072 33.9066 58.7876 34.1984 58.9936 34.5646C59.2052 34.9307 59.3111 35.3427 59.3111 35.8004C59.3111 36.2524 59.2081 36.6643 59.0021 37.0362C58.7962 37.4081 58.5158 37.7028 58.1611 37.9202C57.8064 38.1319 57.403 38.2378 56.951 38.2378ZM56.8223 37.2079C57.0797 37.2079 57.3086 37.1478 57.5088 37.0277C57.7091 36.9075 57.8636 36.7416 57.9723 36.5299C58.0867 36.3182 58.1439 36.075 58.1439 35.8004C58.1439 35.5258 58.0867 35.2855 57.9723 35.0795C57.8636 34.8678 57.7091 34.7019 57.5088 34.5817C57.3086 34.4559 57.0797 34.3929 56.8223 34.3929C56.5762 34.3929 56.3531 34.453 56.1528 34.5732C55.9583 34.6933 55.8038 34.8621 55.6894 35.0795C55.5807 35.2912 55.5263 35.5315 55.5263 35.8004C55.5263 36.075 55.5807 36.3182 55.6894 36.5299C55.8038 36.7416 55.9583 36.9075 56.1528 37.0277C56.3531 37.1478 56.5762 37.2079 56.8223 37.2079ZM61.5843 38.2378C61.2582 38.2378 60.975 38.1834 60.7347 38.0747C60.4944 37.966 60.3084 37.8115 60.1768 37.6113C60.0452 37.4053 59.9794 37.1678 59.9794 36.8989C59.9794 36.6415 60.0366 36.4126 60.1511 36.2124C60.2655 36.0064 60.4429 35.8347 60.6832 35.6974C60.9235 35.5601 61.2267 35.4628 61.5929 35.4056L63.1205 35.1567V36.015L61.8074 36.2381C61.5843 36.2782 61.4184 36.3497 61.3097 36.4527C61.201 36.5556 61.1466 36.6901 61.1466 36.856C61.1466 37.0162 61.2067 37.145 61.3268 37.2422C61.4527 37.3338 61.6072 37.3795 61.7903 37.3795C62.0249 37.3795 62.2308 37.3309 62.4082 37.2336C62.5913 37.1306 62.7315 36.9905 62.8287 36.8131C62.9317 36.6357 62.9832 36.4412 62.9832 36.2295V35.028C62.9832 34.8278 62.9031 34.6618 62.7429 34.5302C62.5884 34.3929 62.3825 34.3243 62.125 34.3243C61.8847 34.3243 61.6701 34.3901 61.4813 34.5217C61.2982 34.6475 61.1638 34.8163 61.078 35.028L60.1597 34.5817C60.2512 34.3357 60.3942 34.124 60.5888 33.9467C60.789 33.7636 61.0236 33.6205 61.2925 33.5175C61.5614 33.4146 61.8532 33.3631 62.1679 33.3631C62.5512 33.3631 62.8888 33.4346 63.1806 33.5776C63.4724 33.7149 63.6984 33.9095 63.8586 34.1612C64.0245 34.4072 64.1075 34.6962 64.1075 35.028V38.1348H63.0433V37.3366L63.2836 37.3195C63.1634 37.5197 63.0204 37.6885 62.8545 37.8258C62.6885 37.9574 62.4997 38.0604 62.288 38.1348C62.0764 38.2034 61.8418 38.2378 61.5843 38.2378ZM65.1466 38.1348V31.638H66.2709V38.1348H65.1466ZM67.3089 38.1348V31.638H68.4332V38.1348H67.3089ZM70.0033 38.1348V36.9333H71.1362V38.1348H70.0033ZM74.9632 38.2378C74.4998 38.2378 74.0821 38.1319 73.7102 37.9202C73.344 37.7028 73.0551 37.411 72.8434 37.0448C72.6317 36.6729 72.5259 36.2553 72.5259 35.7918C72.5259 35.3284 72.6317 34.9136 72.8434 34.5474C73.0551 34.1812 73.344 33.8923 73.7102 33.6806C74.0821 33.4689 74.4998 33.3631 74.9632 33.3631C75.2951 33.3631 75.604 33.4231 75.8901 33.5433C76.1762 33.6577 76.4222 33.8179 76.6282 34.0239C76.8399 34.2241 76.9915 34.4644 77.083 34.7448L76.0961 35.1739C76.0102 34.9393 75.8643 34.7505 75.6584 34.6075C75.4581 34.4644 75.2264 34.3929 74.9632 34.3929C74.7172 34.3929 74.4969 34.453 74.3024 34.5732C74.1136 34.6933 73.9648 34.8592 73.8561 35.0709C73.7474 35.2826 73.693 35.5258 73.693 35.8004C73.693 36.075 73.7474 36.3182 73.8561 36.5299C73.9648 36.7416 74.1136 36.9075 74.3024 37.0277C74.4969 37.1478 74.7172 37.2079 74.9632 37.2079C75.2321 37.2079 75.4667 37.1364 75.667 36.9933C75.8672 36.8503 76.0102 36.6586 76.0961 36.4183L77.083 36.8646C76.9915 37.1278 76.8427 37.3652 76.6367 37.5769C76.4308 37.7829 76.1847 37.946 75.8987 38.0661C75.6126 38.1805 75.3008 38.2378 74.9632 38.2378ZM80.2189 38.2378C79.7612 38.2378 79.3436 38.1319 78.9659 37.9202C78.594 37.7085 78.2965 37.4196 78.0734 37.0534C77.856 36.6872 77.7473 36.2696 77.7473 35.8004C77.7473 35.3312 77.856 34.9136 78.0734 34.5474C78.2965 34.1812 78.594 33.8923 78.9659 33.6806C79.3378 33.4689 79.7555 33.3631 80.2189 33.3631C80.6767 33.3631 81.0915 33.4689 81.4634 33.6806C81.8353 33.8923 82.1299 34.1812 82.3473 34.5474C82.5705 34.9079 82.682 35.3255 82.682 35.8004C82.682 36.2696 82.5705 36.6872 82.3473 37.0534C82.1242 37.4196 81.8267 37.7085 81.4548 37.9202C81.0829 38.1319 80.6709 38.2378 80.2189 38.2378ZM80.2189 37.2079C80.4707 37.2079 80.691 37.1478 80.8798 37.0277C81.0743 36.9075 81.2259 36.7416 81.3346 36.5299C81.4491 36.3125 81.5063 36.0693 81.5063 35.8004C81.5063 35.5258 81.4491 35.2855 81.3346 35.0795C81.2259 34.8678 81.0743 34.7019 80.8798 34.5817C80.691 34.4559 80.4707 34.3929 80.2189 34.3929C79.9615 34.3929 79.7355 34.4559 79.5409 34.5817C79.3464 34.7019 79.1919 34.8678 79.0775 35.0795C78.9688 35.2855 78.9144 35.5258 78.9144 35.8004C78.9144 36.0693 78.9688 36.3125 79.0775 36.5299C79.1919 36.7416 79.3464 36.9075 79.5409 37.0277C79.7355 37.1478 79.9615 37.2079 80.2189 37.2079ZM83.5346 38.1348V33.4661H84.5902V34.5474L84.4701 34.3672C84.5559 34.0296 84.7275 33.7779 84.985 33.6119C85.2425 33.446 85.5457 33.3631 85.8947 33.3631C86.2781 33.3631 86.6156 33.4632 86.9074 33.6634C87.1992 33.8637 87.388 34.1269 87.4738 34.453L87.1563 34.4787C87.2993 34.1069 87.5139 33.8294 87.8 33.6463C88.086 33.4575 88.415 33.3631 88.7869 33.3631C89.1188 33.3631 89.4134 33.4374 89.6709 33.5862C89.9341 33.735 90.14 33.9438 90.2888 34.2127C90.4376 34.4759 90.5119 34.782 90.5119 35.131V38.1348H89.3877V35.397C89.3877 35.1911 89.3505 35.0137 89.2761 34.8649C89.2017 34.7162 89.0987 34.6018 88.9671 34.5217C88.8356 34.4358 88.6754 34.3929 88.4865 34.3929C88.3092 34.3929 88.1518 34.4358 88.0145 34.5217C87.8772 34.6018 87.7714 34.7162 87.697 34.8649C87.6226 35.0137 87.5854 35.1911 87.5854 35.397V38.1348H86.4611V35.397C86.4611 35.1911 86.424 35.0137 86.3496 34.8649C86.2752 34.7162 86.1693 34.6018 86.032 34.5217C85.9004 34.4358 85.7431 34.3929 85.56 34.3929C85.3826 34.3929 85.2253 34.4358 85.088 34.5217C84.9507 34.6018 84.8448 34.7162 84.7705 34.8649C84.6961 35.0137 84.6589 35.1911 84.6589 35.397V38.1348H83.5346Z" fill="#111827"/>
<rect x="172.963" y="26.918" width="39.2986" height="15.4329" rx="7.71644" fill="#D1FAE5"/>
<path d="M178.792 37.6348V31.8804H179.41V34.4679H182.5V31.8804H183.117V37.6348H182.5V35.0472H179.41V37.6348H178.792ZM186.279 37.7275C185.893 37.7275 185.543 37.6348 185.229 37.4494C184.92 37.2589 184.675 36.9988 184.495 36.6693C184.315 36.3397 184.225 35.9664 184.225 35.5493C184.225 35.1322 184.312 34.764 184.487 34.4448C184.662 34.1204 184.899 33.8655 185.198 33.6801C185.502 33.4947 185.841 33.402 186.217 33.402C186.516 33.402 186.781 33.4587 187.013 33.572C187.25 33.6801 187.451 33.8294 187.615 34.0199C187.78 34.2053 187.906 34.4164 187.994 34.6533C188.081 34.885 188.125 35.1245 188.125 35.3716C188.125 35.4231 188.123 35.4824 188.117 35.5493C188.112 35.6111 188.105 35.6754 188.094 35.7424H184.595V35.2017H187.762L187.484 35.4334C187.53 35.1502 187.497 34.8979 187.384 34.6765C187.275 34.4499 187.118 34.2723 186.912 34.1435C186.706 34.0096 186.475 33.9427 186.217 33.9427C185.96 33.9427 185.72 34.0096 185.499 34.1435C185.283 34.2774 185.113 34.4654 184.989 34.7074C184.866 34.9442 184.817 35.2275 184.842 35.557C184.817 35.8866 184.868 36.1749 184.997 36.4221C185.131 36.6641 185.311 36.8521 185.538 36.986C185.769 37.1198 186.016 37.1868 186.279 37.1868C186.583 37.1868 186.838 37.1147 187.044 36.9705C187.25 36.8263 187.417 36.6461 187.546 36.4298L188.04 36.6924C187.958 36.8778 187.832 37.0503 187.662 37.2099C187.492 37.3644 187.288 37.4906 187.051 37.5884C186.82 37.6811 186.562 37.7275 186.279 37.7275ZM190.268 37.7275C190.006 37.7275 189.771 37.6785 189.565 37.5807C189.359 37.4777 189.197 37.3387 189.079 37.1636C188.96 36.9885 188.901 36.7877 188.901 36.5611C188.901 36.3449 188.947 36.1492 189.04 35.9741C189.133 35.7939 189.277 35.642 189.473 35.5184C189.668 35.3948 189.918 35.3073 190.222 35.2558L191.844 34.9854V35.5107L190.361 35.7578C190.062 35.8093 189.846 35.9046 189.712 36.0436C189.583 36.1827 189.519 36.3474 189.519 36.538C189.519 36.7233 189.591 36.8804 189.735 37.0091C189.885 37.1379 190.075 37.2022 190.307 37.2022C190.59 37.2022 190.837 37.143 191.048 37.0246C191.26 36.901 191.424 36.7362 191.543 36.5302C191.661 36.3243 191.72 36.0951 191.72 35.8428V34.7923C191.72 34.5452 191.63 34.3444 191.45 34.1899C191.27 34.0354 191.036 33.9582 190.747 33.9582C190.495 33.9582 190.273 34.0225 190.083 34.1513C189.892 34.2748 189.751 34.437 189.658 34.6379L189.133 34.3521C189.21 34.177 189.331 34.0174 189.496 33.8732C189.666 33.729 189.859 33.6157 190.075 33.5333C190.291 33.4458 190.515 33.402 190.747 33.402C191.051 33.402 191.319 33.4612 191.55 33.5797C191.787 33.6981 191.97 33.8629 192.099 34.074C192.233 34.28 192.3 34.5194 192.3 34.7923V37.6348H191.72V36.8083L191.805 36.8933C191.733 37.0477 191.62 37.1893 191.465 37.3181C191.316 37.4417 191.139 37.5421 190.933 37.6193C190.732 37.6914 190.51 37.7275 190.268 37.7275ZM193.491 37.6348V31.7877H194.071V37.6348H193.491ZM196.84 37.6811C196.469 37.6811 196.183 37.573 195.982 37.3567C195.782 37.1404 195.681 36.8315 195.681 36.4298V34.074H194.916V33.4947H195.11C195.285 33.4947 195.424 33.4381 195.527 33.3248C195.63 33.2064 195.681 33.0596 195.681 32.8845V32.5369H196.26V33.4947H197.172V34.074H196.26V36.4298C196.26 36.5689 196.281 36.6924 196.322 36.8006C196.363 36.9036 196.433 36.986 196.531 37.0477C196.634 37.1095 196.77 37.1404 196.94 37.1404C196.981 37.1404 197.03 37.1379 197.087 37.1327C197.144 37.1276 197.192 37.1224 197.234 37.1173V37.6348C197.172 37.6502 197.102 37.6605 197.025 37.6657C196.948 37.676 196.886 37.6811 196.84 37.6811ZM198.251 37.6348V31.7877H198.83V34.298L198.699 34.2671C198.802 33.9993 198.969 33.7882 199.201 33.6337C199.438 33.4793 199.711 33.402 200.02 33.402C200.313 33.402 200.576 33.469 200.807 33.6028C201.044 33.7367 201.23 33.9221 201.364 34.159C201.503 34.3907 201.572 34.6533 201.572 34.9468V37.6348H200.993V35.1708C200.993 34.9185 200.946 34.7048 200.854 34.5297C200.761 34.3546 200.632 34.2208 200.468 34.1281C200.308 34.0302 200.125 33.9813 199.919 33.9813C199.713 33.9813 199.528 34.0302 199.363 34.1281C199.198 34.2208 199.067 34.3572 198.969 34.5375C198.876 34.7125 198.83 34.9236 198.83 35.1708V37.6348H198.251ZM202.688 39.334C202.606 39.334 202.521 39.3263 202.433 39.3109C202.351 39.3006 202.268 39.28 202.186 39.2491V38.7084C202.238 38.7135 202.302 38.7213 202.379 38.7316C202.461 38.747 202.544 38.7547 202.626 38.7547C202.879 38.7547 203.072 38.7007 203.206 38.5925C203.339 38.4896 203.471 38.2887 203.599 37.9901L203.862 37.3722L203.847 37.8819L202.093 33.4947H202.719L204.156 37.1173H203.993L205.422 33.4947H206.063L204.171 38.16C204.089 38.3608 203.983 38.5513 203.854 38.7316C203.731 38.9118 203.574 39.056 203.383 39.1641C203.193 39.2774 202.961 39.334 202.688 39.334Z" fill="#059669"/>
<mask id="path-8-inside-2_528_4405" fill="white">
<path d="M10.2988 69.3658C10.2988 65.5739 13.3727 62.5 17.1646 62.5H214.836C218.628 62.5 221.702 65.5739 221.702 69.3658V97.6342C221.702 101.426 218.628 104.5 214.836 104.5H17.1646C13.3727 104.5 10.2988 101.426 10.2988 97.6342V69.3658Z"/>
</mask>
<path d="M10.2988 69.3658C10.2988 65.5739 13.3727 62.5 17.1646 62.5H214.836C218.628 62.5 221.702 65.5739 221.702 69.3658V97.6342C221.702 101.426 218.628 104.5 214.836 104.5H17.1646C13.3727 104.5 10.2988 101.426 10.2988 97.6342V69.3658Z" fill="white"/>
<path d="M17.1646 62.5V63.3582H214.836V62.5V61.6418H17.1646V62.5ZM221.702 69.3658H220.843V97.6342H221.702H222.56V69.3658H221.702ZM214.836 104.5V103.642H17.1646V104.5V105.358H214.836V104.5ZM10.2988 97.6342H11.157V69.3658H10.2988H9.44061V97.6342H10.2988ZM17.1646 104.5V103.642C13.8467 103.642 11.157 100.952 11.157 97.6342H10.2988H9.44061C9.44061 101.9 12.8987 105.358 17.1646 105.358V104.5ZM221.702 97.6342H220.843C220.843 100.952 218.154 103.642 214.836 103.642V104.5V105.358C219.102 105.358 222.56 101.9 222.56 97.6342H221.702ZM214.836 62.5V63.3582C218.154 63.3582 220.843 66.0479 220.843 69.3658H221.702H222.56C222.56 65.0999 219.102 61.6418 214.836 61.6418V62.5ZM17.1646 62.5V61.6418C12.8988 61.6418 9.44061 65.0999 9.44061 69.3658H10.2988H11.157C11.157 66.0479 13.8467 63.3582 17.1646 63.3582V62.5Z" fill="#F3F4F6" mask="url(#path-8-inside-2_528_4405)"/>
<rect x="19.7393" y="80.0664" width="6.86576" height="6.86576" rx="3.43288" fill="#10B981"/>
<path d="M36.1226 87.0515C35.5962 87.0515 35.1871 86.9085 34.8953 86.6224C34.6093 86.3306 34.4662 85.9215 34.4662 85.3951V83.3354H33.6595V82.3313H33.7453C33.9742 82.3313 34.1516 82.2712 34.2774 82.1511C34.4033 82.0309 34.4662 81.8564 34.4662 81.6275V81.2671H35.5905V82.3313H36.6633V83.3354H35.5905V85.3351C35.5905 85.4895 35.6163 85.6211 35.6677 85.7298C35.725 85.8385 35.8108 85.9215 35.9252 85.9787C36.0454 86.0359 36.197 86.0645 36.3801 86.0645C36.4201 86.0645 36.4659 86.0617 36.5174 86.056C36.5746 86.0502 36.629 86.0445 36.6804 86.0388V87C36.6003 87.0114 36.5088 87.0229 36.4058 87.0343C36.3028 87.0458 36.2084 87.0515 36.1226 87.0515ZM37.5394 87V80.5033H38.6637V83.2496L38.5092 83.0865C38.6179 82.8062 38.7953 82.5945 39.0413 82.4514C39.293 82.3027 39.5848 82.2283 39.9167 82.2283C40.26 82.2283 40.5632 82.3027 40.8264 82.4514C41.0953 82.6002 41.3041 82.809 41.4529 83.0779C41.6016 83.3411 41.676 83.6472 41.676 83.9962V87H40.5518V84.2623C40.5518 84.0563 40.5117 83.8789 40.4316 83.7302C40.3515 83.5814 40.2399 83.467 40.0969 83.3869C39.9596 83.3011 39.7965 83.2582 39.6077 83.2582C39.4246 83.2582 39.2616 83.3011 39.1185 83.3869C38.9755 83.467 38.8639 83.5814 38.7838 83.7302C38.7037 83.8789 38.6637 84.0563 38.6637 84.2623V87H37.5394ZM44.8409 87.103C44.3603 87.103 43.9398 86.9943 43.5793 86.7769C43.2189 86.5594 42.9385 86.2648 42.7383 85.8929C42.538 85.521 42.4379 85.1091 42.4379 84.6571C42.4379 84.1879 42.538 83.7731 42.7383 83.4126C42.9442 83.0465 43.2217 82.7575 43.5707 82.5458C43.9255 82.3341 44.3203 82.2283 44.7551 82.2283C45.1213 82.2283 45.4417 82.2884 45.7163 82.4085C45.9966 82.5287 46.2341 82.6946 46.4286 82.9063C46.6231 83.118 46.7719 83.3611 46.8749 83.6358C46.9779 83.9047 47.0294 84.1965 47.0294 84.5112C47.0294 84.5913 47.0236 84.6742 47.0122 84.76C47.0065 84.8459 46.9922 84.9202 46.9693 84.9832H43.3648V84.125H46.3342L45.8021 84.5283C45.8536 84.2651 45.8393 84.0306 45.7592 83.8246C45.6848 83.6186 45.559 83.4556 45.3816 83.3354C45.2099 83.2153 45.0011 83.1552 44.7551 83.1552C44.5205 83.1552 44.3117 83.2153 44.1286 83.3354C43.9455 83.4498 43.8053 83.6215 43.7081 83.8503C43.6165 84.0735 43.5822 84.3452 43.6051 84.6656C43.5822 84.9517 43.6194 85.2063 43.7166 85.4295C43.8196 85.6469 43.9684 85.8157 44.1629 85.9358C44.3632 86.056 44.592 86.116 44.8495 86.116C45.107 86.116 45.3244 86.0617 45.5017 85.953C45.6848 85.8443 45.8279 85.6984 45.9308 85.5153L46.8406 85.9616C46.749 86.1847 46.606 86.3821 46.4114 86.5537C46.2169 86.7254 45.9852 86.8598 45.7163 86.9571C45.4531 87.0544 45.1613 87.103 44.8409 87.103ZM50.4305 87.103C50.093 87.103 49.7811 87.0372 49.4951 86.9056C49.2147 86.7683 48.9916 86.5738 48.8257 86.322L48.9372 86.0989V87H47.8816V80.5033H49.0059V83.2582L48.8342 83.0264C48.9944 82.7747 49.2119 82.5802 49.4865 82.4429C49.7611 82.2998 50.0787 82.2283 50.4391 82.2283C50.8797 82.2283 51.2773 82.337 51.632 82.5544C51.9868 82.7718 52.2671 83.0636 52.4731 83.4298C52.6848 83.796 52.7906 84.2079 52.7906 84.6656C52.7906 85.1176 52.6877 85.5296 52.4817 85.9015C52.2757 86.2734 51.9954 86.568 51.6406 86.7854C51.2859 86.9971 50.8825 87.103 50.4305 87.103ZM50.3018 86.0731C50.5593 86.0731 50.7881 86.013 50.9884 85.8929C51.1886 85.7727 51.3431 85.6068 51.4518 85.3951C51.5662 85.1834 51.6235 84.9403 51.6235 84.6656C51.6235 84.391 51.5662 84.1507 51.4518 83.9447C51.3431 83.733 51.1886 83.5671 50.9884 83.447C50.7881 83.3211 50.5593 83.2582 50.3018 83.2582C50.0558 83.2582 49.8326 83.3182 49.6324 83.4384C49.4379 83.5585 49.2834 83.7273 49.169 83.9447C49.0602 84.1564 49.0059 84.3967 49.0059 84.6656C49.0059 84.9403 49.0602 85.1834 49.169 85.3951C49.2834 85.6068 49.4379 85.7727 49.6324 85.8929C49.8326 86.013 50.0558 86.0731 50.3018 86.0731ZM55.9306 87.103C55.4729 87.103 55.0553 86.9971 54.6776 86.7854C54.3058 86.5738 54.0082 86.2848 53.7851 85.9186C53.5677 85.5525 53.459 85.1348 53.459 84.6656C53.459 84.1965 53.5677 83.7788 53.7851 83.4126C54.0082 83.0465 54.3058 82.7575 54.6776 82.5458C55.0495 82.3341 55.4672 82.2283 55.9306 82.2283C56.3884 82.2283 56.8032 82.3341 57.1751 82.5458C57.547 82.7575 57.8416 83.0465 58.059 83.4126C58.2822 83.7731 58.3937 84.1908 58.3937 84.6656C58.3937 85.1348 58.2822 85.5525 58.059 85.9186C57.8359 86.2848 57.5384 86.5738 57.1665 86.7854C56.7946 86.9971 56.3826 87.103 55.9306 87.103ZM55.9306 86.0731C56.1824 86.0731 56.4027 86.013 56.5915 85.8929C56.786 85.7727 56.9376 85.6068 57.0463 85.3951C57.1608 85.1777 57.218 84.9346 57.218 84.6656C57.218 84.391 57.1608 84.1507 57.0463 83.9447C56.9376 83.733 56.786 83.5671 56.5915 83.447C56.4027 83.3211 56.1824 83.2582 55.9306 83.2582C55.6732 83.2582 55.4472 83.3211 55.2527 83.447C55.0581 83.5671 54.9036 83.733 54.7892 83.9447C54.6805 84.1507 54.6262 84.391 54.6262 84.6656C54.6262 84.9346 54.6805 85.1777 54.7892 85.3951C54.9036 85.6068 55.0581 85.7727 55.2527 85.8929C55.4472 86.013 55.6732 86.0731 55.9306 86.0731ZM61.5292 87.103C61.0715 87.103 60.6538 86.9971 60.2762 86.7854C59.9043 86.5738 59.6068 86.2848 59.3836 85.9186C59.1662 85.5525 59.0575 85.1348 59.0575 84.6656C59.0575 84.1965 59.1662 83.7788 59.3836 83.4126C59.6068 83.0465 59.9043 82.7575 60.2762 82.5458C60.6481 82.3341 61.0658 82.2283 61.5292 82.2283C61.9869 82.2283 62.4017 82.3341 62.7736 82.5458C63.1455 82.7575 63.4402 83.0465 63.6576 83.4126C63.8807 83.7731 63.9923 84.1908 63.9923 84.6656C63.9923 85.1348 63.8807 85.5525 63.6576 85.9186C63.4344 86.2848 63.1369 86.5738 62.765 86.7854C62.3931 86.9971 61.9812 87.103 61.5292 87.103ZM61.5292 86.0731C61.7809 86.0731 62.0012 86.013 62.19 85.8929C62.3846 85.7727 62.5362 85.6068 62.6449 85.3951C62.7593 85.1777 62.8165 84.9346 62.8165 84.6656C62.8165 84.391 62.7593 84.1507 62.6449 83.9447C62.5362 83.733 62.3846 83.5671 62.19 83.447C62.0012 83.3211 61.7809 83.2582 61.5292 83.2582C61.2717 83.2582 61.0457 83.3211 60.8512 83.447C60.6567 83.5671 60.5022 83.733 60.3878 83.9447C60.2791 84.1507 60.2247 84.391 60.2247 84.6656C60.2247 84.9346 60.2791 85.1777 60.3878 85.3951C60.5022 85.6068 60.6567 85.7727 60.8512 85.8929C61.0457 86.013 61.2717 86.0731 61.5292 86.0731ZM64.8449 87V82.3313H65.9005V83.4126L65.7803 83.2324C65.8662 82.8948 66.0378 82.6431 66.2953 82.4772C66.5527 82.3113 66.856 82.2283 67.205 82.2283C67.5883 82.2283 67.9259 82.3284 68.2177 82.5287C68.5095 82.7289 68.6983 82.9921 68.7841 83.3182L68.4666 83.344C68.6096 82.9721 68.8241 82.6946 69.1102 82.5115C69.3963 82.3227 69.7253 82.2283 70.0972 82.2283C70.429 82.2283 70.7237 82.3027 70.9811 82.4514C71.2443 82.6002 71.4503 82.809 71.5991 83.0779C71.7478 83.3411 71.8222 83.6472 71.8222 83.9962V87H70.6979V84.2623C70.6979 84.0563 70.6607 83.8789 70.5864 83.7302C70.512 83.5814 70.409 83.467 70.2774 83.3869C70.1458 83.3011 69.9856 83.2582 69.7968 83.2582C69.6194 83.2582 69.4621 83.3011 69.3248 83.3869C69.1875 83.467 69.0816 83.5814 69.0072 83.7302C68.9329 83.8789 68.8957 84.0563 68.8957 84.2623V87H67.7714V84.2623C67.7714 84.0563 67.7342 83.8789 67.6598 83.7302C67.5855 83.5814 67.4796 83.467 67.3423 83.3869C67.2107 83.3011 67.0534 83.2582 66.8703 83.2582C66.6929 83.2582 66.5356 83.3011 66.3982 83.3869C66.2609 83.467 66.1551 83.5814 66.0807 83.7302C66.0063 83.8789 65.9691 84.0563 65.9691 84.2623V87H64.8449ZM74.9876 87.103C74.507 87.103 74.0864 86.9943 73.726 86.7769C73.3655 86.5594 73.0852 86.2648 72.8849 85.8929C72.6847 85.521 72.5845 85.1091 72.5845 84.6571C72.5845 84.1879 72.6847 83.7731 72.8849 83.4126C73.0909 83.0465 73.3684 82.7575 73.7174 82.5458C74.0721 82.3341 74.4669 82.2283 74.9017 82.2283C75.2679 82.2283 75.5883 82.2884 75.8629 82.4085C76.1433 82.5287 76.3807 82.6946 76.5753 82.9063C76.7698 83.118 76.9185 83.3611 77.0215 83.6358C77.1245 83.9047 77.176 84.1965 77.176 84.5112C77.176 84.5913 77.1703 84.6742 77.1588 84.76C77.1531 84.8459 77.1388 84.9202 77.1159 84.9832H73.5114V84.125H76.4809L75.9488 84.5283C76.0003 84.2651 75.9859 84.0306 75.9058 83.8246C75.8315 83.6186 75.7056 83.4556 75.5282 83.3354C75.3566 83.2153 75.1478 83.1552 74.9017 83.1552C74.6672 83.1552 74.4583 83.2153 74.2752 83.3354C74.0921 83.4498 73.952 83.6215 73.8547 83.8503C73.7632 84.0735 73.7288 84.3452 73.7517 84.6656C73.7288 84.9517 73.766 85.2063 73.8633 85.4295C73.9663 85.6469 74.115 85.8157 74.3096 85.9358C74.5098 86.056 74.7387 86.116 74.9961 86.116C75.2536 86.116 75.471 86.0617 75.6484 85.953C75.8315 85.8443 75.9745 85.6984 76.0775 85.5153L76.9872 85.9616C76.8957 86.1847 76.7526 86.3821 76.5581 86.5537C76.3636 86.7254 76.1318 86.8598 75.8629 86.9571C75.5998 87.0544 75.308 87.103 74.9876 87.103ZM78.0283 87V82.3313H79.0839V83.3697L78.9981 83.2153C79.1068 82.8662 79.2755 82.6231 79.5044 82.4858C79.739 82.3484 80.0193 82.2798 80.3455 82.2798H80.6201V83.2753H80.2167C79.8963 83.2753 79.6389 83.3755 79.4443 83.5757C79.2498 83.7702 79.1525 84.0449 79.1525 84.3996V87H78.0283ZM82.6543 87.103C82.3281 87.103 82.0449 87.0486 81.8046 86.9399C81.5643 86.8312 81.3784 86.6767 81.2468 86.4765C81.1152 86.2705 81.0494 86.0331 81.0494 85.7642C81.0494 85.5067 81.1066 85.2778 81.221 85.0776C81.3355 84.8716 81.5128 84.7 81.7531 84.5627C81.9934 84.4253 82.2967 84.3281 82.6629 84.2709L84.1905 84.022V84.8802L82.8774 85.1033C82.6543 85.1434 82.4883 85.2149 82.3796 85.3179C82.2709 85.4209 82.2166 85.5553 82.2166 85.7213C82.2166 85.8815 82.2767 86.0102 82.3968 86.1075C82.5227 86.199 82.6772 86.2448 82.8602 86.2448C83.0948 86.2448 83.3008 86.1961 83.4782 86.0989C83.6612 85.9959 83.8014 85.8557 83.8987 85.6783C84.0017 85.501 84.0532 85.3064 84.0532 85.0948V83.8932C84.0532 83.693 83.9731 83.5271 83.8129 83.3955C83.6584 83.2582 83.4524 83.1895 83.1949 83.1895C82.9546 83.1895 82.7401 83.2553 82.5513 83.3869C82.3682 83.5128 82.2337 83.6816 82.1479 83.8932L81.2296 83.447C81.3212 83.2009 81.4642 82.9893 81.6587 82.8119C81.859 82.6288 82.0936 82.4858 82.3625 82.3828C82.6314 82.2798 82.9232 82.2283 83.2379 82.2283C83.6212 82.2283 83.9588 82.2998 84.2506 82.4429C84.5424 82.5802 84.7683 82.7747 84.9286 83.0264C85.0945 83.2725 85.1774 83.5614 85.1774 83.8932V87H84.1132V86.2019L84.3535 86.1847C84.2334 86.3849 84.0904 86.5537 83.9244 86.691C83.7585 86.8226 83.5697 86.9256 83.358 87C83.1463 87.0687 82.9117 87.103 82.6543 87.103ZM86.2166 87V82.3313H87.2722V83.2496L87.1863 83.0865C87.295 82.8062 87.4724 82.5945 87.7184 82.4514C87.9702 82.3027 88.262 82.2283 88.5938 82.2283C88.9371 82.2283 89.2403 82.3027 89.5035 82.4514C89.7724 82.6002 89.9813 82.809 90.13 83.0779C90.2788 83.3411 90.3532 83.6472 90.3532 83.9962V87H89.2289V84.2623C89.2289 84.0563 89.1889 83.8789 89.1088 83.7302C89.0287 83.5814 88.9171 83.467 88.774 83.3869C88.6367 83.3011 88.4737 83.2582 88.2849 83.2582C88.1018 83.2582 87.9387 83.3011 87.7957 83.3869C87.6526 83.467 87.5411 83.5814 87.461 83.7302C87.3809 83.8789 87.3408 84.0563 87.3408 84.2623V87H86.2166ZM93.5695 88.8881C93.2205 88.8881 92.8973 88.8309 92.5998 88.7164C92.3022 88.602 92.0448 88.4418 91.8274 88.2358C91.6157 88.0356 91.4612 87.7981 91.3639 87.5235L92.411 87.1287C92.4796 87.3461 92.6141 87.5207 92.8143 87.6522C93.0203 87.7896 93.272 87.8582 93.5695 87.8582C93.7984 87.8582 93.9987 87.8153 94.1703 87.7295C94.3477 87.6437 94.485 87.5178 94.5822 87.3519C94.6795 87.1917 94.7281 86.9971 94.7281 86.7683V85.7041L94.9427 85.9616C94.7825 86.2419 94.5679 86.4536 94.299 86.5966C94.0301 86.7397 93.724 86.8112 93.3807 86.8112C92.9459 86.8112 92.5568 86.7111 92.2136 86.5108C91.8703 86.3106 91.6014 86.0359 91.4068 85.6869C91.2123 85.3379 91.115 84.946 91.115 84.5112C91.115 84.0706 91.2123 83.6787 91.4068 83.3354C91.6014 82.9921 91.8674 82.7232 92.205 82.5287C92.5425 82.3284 92.9259 82.2283 93.355 82.2283C93.704 82.2283 94.0101 82.3027 94.2733 82.4514C94.5422 82.5945 94.7653 82.8033 94.9427 83.0779L94.7882 83.3611V82.3313H95.8524V86.7683C95.8524 87.1745 95.7523 87.5378 95.552 87.8582C95.3575 88.1786 95.0886 88.4304 94.7453 88.6135C94.4077 88.7965 94.0158 88.8881 93.5695 88.8881ZM93.5181 85.7727C93.7584 85.7727 93.9672 85.7213 94.1446 85.6183C94.3276 85.5096 94.4707 85.3608 94.5737 85.172C94.6767 84.9832 94.7281 84.7658 94.7281 84.5197C94.7281 84.2794 94.6738 84.0649 94.5651 83.8761C94.4621 83.6816 94.3191 83.5299 94.136 83.4212C93.9586 83.3125 93.7526 83.2582 93.5181 83.2582C93.2835 83.2582 93.0718 83.3125 92.883 83.4212C92.6942 83.5299 92.5454 83.6816 92.4367 83.8761C92.3337 84.0649 92.2822 84.2794 92.2822 84.5197C92.2822 84.76 92.3337 84.9746 92.4367 85.1634C92.5454 85.3522 92.6913 85.501 92.8744 85.6097C93.0632 85.7184 93.2778 85.7727 93.5181 85.7727ZM97.4345 87V85.7985H98.5673V87H97.4345ZM102.394 87.103C101.931 87.103 101.513 86.9971 101.141 86.7854C100.775 86.568 100.486 86.2762 100.275 85.9101C100.063 85.5382 99.9571 85.1205 99.9571 84.6571C99.9571 84.1936 100.063 83.7788 100.275 83.4126C100.486 83.0465 100.775 82.7575 101.141 82.5458C101.513 82.3341 101.931 82.2283 102.394 82.2283C102.726 82.2283 103.035 82.2884 103.321 82.4085C103.607 82.523 103.853 82.6832 104.059 82.8891C104.271 83.0894 104.423 83.3297 104.514 83.61L103.527 84.0391C103.441 83.8046 103.296 83.6158 103.09 83.4727C102.889 83.3297 102.658 83.2582 102.394 83.2582C102.148 83.2582 101.928 83.3182 101.734 83.4384C101.545 83.5585 101.396 83.7245 101.287 83.9362C101.179 84.1478 101.124 84.391 101.124 84.6656C101.124 84.9403 101.179 85.1834 101.287 85.3951C101.396 85.6068 101.545 85.7727 101.734 85.8929C101.928 86.013 102.148 86.0731 102.394 86.0731C102.663 86.0731 102.898 86.0016 103.098 85.8586C103.298 85.7155 103.441 85.5239 103.527 85.2836L104.514 85.7298C104.423 85.993 104.274 86.2305 104.068 86.4422C103.862 86.6481 103.616 86.8112 103.33 86.9313C103.044 87.0458 102.732 87.103 102.394 87.103ZM107.65 87.103C107.192 87.103 106.775 86.9971 106.397 86.7854C106.025 86.5738 105.728 86.2848 105.505 85.9186C105.287 85.5525 105.178 85.1348 105.178 84.6656C105.178 84.1965 105.287 83.7788 105.505 83.4126C105.728 83.0465 106.025 82.7575 106.397 82.5458C106.769 82.3341 107.187 82.2283 107.65 82.2283C108.108 82.2283 108.523 82.3341 108.895 82.5458C109.266 82.7575 109.561 83.0465 109.779 83.4126C110.002 83.7731 110.113 84.1908 110.113 84.6656C110.113 85.1348 110.002 85.5525 109.779 85.9186C109.555 86.2848 109.258 86.5738 108.886 86.7854C108.514 86.9971 108.102 87.103 107.65 87.103ZM107.65 86.0731C107.902 86.0731 108.122 86.013 108.311 85.8929C108.505 85.7727 108.657 85.6068 108.766 85.3951C108.88 85.1777 108.937 84.9346 108.937 84.6656C108.937 84.391 108.88 84.1507 108.766 83.9447C108.657 83.733 108.505 83.5671 108.311 83.447C108.122 83.3211 107.902 83.2582 107.65 83.2582C107.393 83.2582 107.167 83.3211 106.972 83.447C106.778 83.5671 106.623 83.733 106.509 83.9447C106.4 84.1507 106.346 84.391 106.346 84.6656C106.346 84.9346 106.4 85.1777 106.509 85.3951C106.623 85.6068 106.778 85.7727 106.972 85.8929C107.167 86.013 107.393 86.0731 107.65 86.0731Z" fill="#111827"/>
<rect x="172.963" y="75.7832" width="39.2986" height="15.4329" rx="7.71644" fill="#D1FAE5"/>
<path d="M178.792 86.5V80.7456H179.41V83.3332H182.5V80.7456H183.117V86.5H182.5V83.9125H179.41V86.5H178.792ZM186.279 86.5927C185.893 86.5927 185.543 86.5 185.229 86.3146C184.92 86.1241 184.675 85.8641 184.495 85.5345C184.315 85.2049 184.225 84.8316 184.225 84.4145C184.225 83.9974 184.312 83.6293 184.487 83.31C184.662 82.9856 184.899 82.7307 185.198 82.5453C185.502 82.3599 185.841 82.2673 186.217 82.2673C186.516 82.2673 186.781 82.3239 187.013 82.4372C187.25 82.5453 187.451 82.6947 187.615 82.8852C187.78 83.0706 187.906 83.2817 187.994 83.5185C188.081 83.7503 188.125 83.9897 188.125 84.2369C188.125 84.2884 188.123 84.3476 188.117 84.4145C188.112 84.4763 188.105 84.5407 188.094 84.6076H184.595V84.0669H187.762L187.484 84.2987C187.53 84.0155 187.497 83.7631 187.384 83.5417C187.275 83.3151 187.118 83.1375 186.912 83.0088C186.706 82.8749 186.475 82.8079 186.217 82.8079C185.96 82.8079 185.72 82.8749 185.499 83.0088C185.283 83.1426 185.113 83.3306 184.989 83.5726C184.866 83.8095 184.817 84.0927 184.842 84.4222C184.817 84.7518 184.868 85.0402 184.997 85.2873C185.131 85.5294 185.311 85.7173 185.538 85.8512C185.769 85.9851 186.016 86.052 186.279 86.052C186.583 86.052 186.838 85.9799 187.044 85.8357C187.25 85.6916 187.417 85.5113 187.546 85.2951L188.04 85.5577C187.958 85.7431 187.832 85.9156 187.662 86.0752C187.492 86.2297 187.288 86.3558 187.051 86.4537C186.82 86.5463 186.562 86.5927 186.279 86.5927ZM190.268 86.5927C190.006 86.5927 189.771 86.5438 189.565 86.4459C189.359 86.3429 189.197 86.2039 189.079 86.0288C188.96 85.8538 188.901 85.6529 188.901 85.4264C188.901 85.2101 188.947 85.0144 189.04 84.8393C189.133 84.6591 189.277 84.5072 189.473 84.3836C189.668 84.26 189.918 84.1725 190.222 84.121L191.844 83.8507V84.3759L190.361 84.6231C190.062 84.6746 189.846 84.7698 189.712 84.9089C189.583 85.0479 189.519 85.2127 189.519 85.4032C189.519 85.5886 189.591 85.7456 189.735 85.8744C189.885 86.0031 190.075 86.0675 190.307 86.0675C190.59 86.0675 190.837 86.0082 191.048 85.8898C191.26 85.7662 191.424 85.6014 191.543 85.3955C191.661 85.1895 191.72 84.9604 191.72 84.708V83.6576C191.72 83.4104 191.63 83.2096 191.45 83.0551C191.27 82.9006 191.036 82.8234 190.747 82.8234C190.495 82.8234 190.273 82.8878 190.083 83.0165C189.892 83.1401 189.751 83.3023 189.658 83.5031L189.133 83.2173C189.21 83.0422 189.331 82.8826 189.496 82.7384C189.666 82.5942 189.859 82.481 190.075 82.3986C190.291 82.311 190.515 82.2673 190.747 82.2673C191.051 82.2673 191.319 82.3265 191.55 82.4449C191.787 82.5633 191.97 82.7281 192.099 82.9392C192.233 83.1452 192.3 83.3847 192.3 83.6576V86.5H191.72V85.6735L191.805 85.7585C191.733 85.913 191.62 86.0546 191.465 86.1833C191.316 86.3069 191.139 86.4073 190.933 86.4846C190.732 86.5566 190.51 86.5927 190.268 86.5927ZM193.491 86.5V80.6529H194.071V86.5H193.491ZM196.84 86.5463C196.469 86.5463 196.183 86.4382 195.982 86.2219C195.782 86.0057 195.681 85.6967 195.681 85.2951V82.9392H194.916V82.3599H195.11C195.285 82.3599 195.424 82.3033 195.527 82.19C195.63 82.0716 195.681 81.9248 195.681 81.7498V81.4022H196.26V82.3599H197.172V82.9392H196.26V85.2951C196.26 85.4341 196.281 85.5577 196.322 85.6658C196.363 85.7688 196.433 85.8512 196.531 85.913C196.634 85.9748 196.77 86.0057 196.94 86.0057C196.981 86.0057 197.03 86.0031 197.087 85.9979C197.144 85.9928 197.192 85.9876 197.234 85.9825V86.5C197.172 86.5154 197.102 86.5257 197.025 86.5309C196.948 86.5412 196.886 86.5463 196.84 86.5463ZM198.251 86.5V80.6529H198.83V83.1632L198.699 83.1323C198.802 82.8646 198.969 82.6535 199.201 82.499C199.438 82.3445 199.711 82.2673 200.02 82.2673C200.313 82.2673 200.576 82.3342 200.807 82.4681C201.044 82.602 201.23 82.7873 201.364 83.0242C201.503 83.2559 201.572 83.5185 201.572 83.8121V86.5H200.993V84.0361C200.993 83.7837 200.946 83.57 200.854 83.395C200.761 83.2199 200.632 83.086 200.468 82.9933C200.308 82.8955 200.125 82.8466 199.919 82.8466C199.713 82.8466 199.528 82.8955 199.363 82.9933C199.198 83.086 199.067 83.2225 198.969 83.4027C198.876 83.5778 198.83 83.7889 198.83 84.0361V86.5H198.251ZM202.688 88.1993C202.606 88.1993 202.521 88.1916 202.433 88.1761C202.351 88.1658 202.268 88.1452 202.186 88.1143V87.5736C202.238 87.5788 202.302 87.5865 202.379 87.5968C202.461 87.6123 202.544 87.62 202.626 87.62C202.879 87.62 203.072 87.5659 203.206 87.4578C203.339 87.3548 203.471 87.154 203.599 86.8553L203.862 86.2374L203.847 86.7472L202.093 82.3599H202.719L204.156 85.9825H203.993L205.422 82.3599H206.063L204.171 87.0252C204.089 87.2261 203.983 87.4166 203.854 87.5968C203.731 87.777 203.574 87.9212 203.383 88.0293C203.193 88.1426 202.961 88.1993 202.688 88.1993Z" fill="#059669"/>
<g opacity="0.6">
<mask id="path-14-inside-3_528_4405" fill="white">
<path d="M10.2988 118.231C10.2988 114.439 13.3727 111.365 17.1646 111.365H214.836C218.628 111.365 221.702 114.439 221.702 118.231V146.499C221.702 150.291 218.628 153.365 214.836 153.365H17.1646C13.3727 153.365 10.2988 150.291 10.2988 146.499V118.231Z"/>
</mask>
<path d="M10.2988 118.231C10.2988 114.439 13.3727 111.365 17.1646 111.365H214.836C218.628 111.365 221.702 114.439 221.702 118.231V146.499C221.702 150.291 218.628 153.365 214.836 153.365H17.1646C13.3727 153.365 10.2988 150.291 10.2988 146.499V118.231Z" fill="white"/>
<path d="M17.1646 111.365V112.223H214.836V111.365V110.507H17.1646V111.365ZM221.702 118.231H220.843V146.499H221.702H222.56V118.231H221.702ZM214.836 153.365V152.507H17.1646V153.365V154.223H214.836V153.365ZM10.2988 146.499H11.157V118.231H10.2988H9.44061V146.499H10.2988ZM17.1646 153.365V152.507C13.8467 152.507 11.157 149.817 11.157 146.499H10.2988H9.44061C9.44061 150.765 12.8987 154.223 17.1646 154.223V153.365ZM221.702 146.499H220.843C220.843 149.817 218.154 152.507 214.836 152.507V153.365V154.223C219.102 154.223 222.56 150.765 222.56 146.499H221.702ZM214.836 111.365V112.223C218.154 112.223 220.843 114.913 220.843 118.231H221.702H222.56C222.56 113.965 219.102 110.507 214.836 110.507V111.365ZM17.1646 111.365V110.507C12.8988 110.507 9.44061 113.965 9.44061 118.231H10.2988H11.157C11.157 114.913 13.8467 112.223 17.1646 112.223V111.365Z" fill="#F3F4F6" mask="url(#path-14-inside-3_528_4405)"/>
<rect x="19.7393" y="128.932" width="6.86576" height="6.86576" rx="3.43288" fill="#F50B0B"/>
<path d="M35.4103 135.968C35.0842 135.968 34.8009 135.914 34.5606 135.805C34.3203 135.696 34.1344 135.542 34.0028 135.342C33.8712 135.136 33.8054 134.898 33.8054 134.629C33.8054 134.372 33.8626 134.143 33.9771 133.943C34.0915 133.737 34.2688 133.565 34.5091 133.428C34.7495 133.291 35.0527 133.193 35.4189 133.136L36.9465 132.887V133.745L35.6334 133.969C35.4103 134.009 35.2444 134.08 35.1356 134.183C35.0269 134.286 34.9726 134.421 34.9726 134.586C34.9726 134.747 35.0327 134.875 35.1528 134.973C35.2787 135.064 35.4332 135.11 35.6163 135.11C35.8508 135.11 36.0568 135.061 36.2342 134.964C36.4173 134.861 36.5574 134.721 36.6547 134.544C36.7577 134.366 36.8092 134.172 36.8092 133.96V132.758C36.8092 132.558 36.7291 132.392 36.5689 132.261C36.4144 132.123 36.2084 132.055 35.951 132.055C35.7107 132.055 35.4961 132.121 35.3073 132.252C35.1242 132.378 34.9898 132.547 34.9039 132.758L33.9856 132.312C34.0772 132.066 34.2202 131.854 34.4147 131.677C34.615 131.494 34.8496 131.351 35.1185 131.248C35.3874 131.145 35.6792 131.094 35.9939 131.094C36.3772 131.094 36.7148 131.165 37.0066 131.308C37.2984 131.445 37.5244 131.64 37.6846 131.892C37.8505 132.138 37.9334 132.427 37.9334 132.758V135.865H36.8693V135.067L37.1096 135.05C36.9894 135.25 36.8464 135.419 36.6804 135.556C36.5145 135.688 36.3257 135.791 36.114 135.865C35.9023 135.934 35.6677 135.968 35.4103 135.968ZM41.0171 135.917C40.4908 135.917 40.0817 135.774 39.7899 135.488C39.5038 135.196 39.3608 134.787 39.3608 134.26V132.201H38.554V131.197H38.6399C38.8687 131.197 39.0461 131.136 39.172 131.016C39.2978 130.896 39.3608 130.722 39.3608 130.493V130.132H40.485V131.197H41.5578V132.201H40.485V134.2C40.485 134.355 40.5108 134.486 40.5623 134.595C40.6195 134.704 40.7053 134.787 40.8197 134.844C40.9399 134.901 41.0915 134.93 41.2746 134.93C41.3147 134.93 41.3604 134.927 41.4119 134.921C41.4691 134.915 41.5235 134.91 41.575 134.904V135.865C41.4949 135.877 41.4033 135.888 41.3003 135.9C41.1974 135.911 41.103 135.917 41.0171 135.917ZM42.4339 135.865V129.369H43.5582V135.865H42.4339ZM46.0123 135.968C45.6862 135.968 45.403 135.914 45.1627 135.805C44.9224 135.696 44.7364 135.542 44.6048 135.342C44.4732 135.136 44.4074 134.898 44.4074 134.629C44.4074 134.372 44.4647 134.143 44.5791 133.943C44.6935 133.737 44.8709 133.565 45.1112 133.428C45.3515 133.291 45.6547 133.193 46.0209 133.136L47.5485 132.887V133.745L46.2354 133.969C46.0123 134.009 45.8464 134.08 45.7377 134.183C45.629 134.286 45.5746 134.421 45.5746 134.586C45.5746 134.747 45.6347 134.875 45.7548 134.973C45.8807 135.064 46.0352 135.11 46.2183 135.11C46.4529 135.11 46.6588 135.061 46.8362 134.964C47.0193 134.861 47.1595 134.721 47.2567 134.544C47.3597 134.366 47.4112 134.172 47.4112 133.96V132.758C47.4112 132.558 47.3311 132.392 47.1709 132.261C47.0164 132.123 46.8105 132.055 46.553 132.055C46.3127 132.055 46.0981 132.121 45.9093 132.252C45.7262 132.378 45.5918 132.547 45.506 132.758L44.5877 132.312C44.6792 132.066 44.8222 131.854 45.0168 131.677C45.217 131.494 45.4516 131.351 45.7205 131.248C45.9894 131.145 46.2812 131.094 46.5959 131.094C46.9792 131.094 47.3168 131.165 47.6086 131.308C47.9004 131.445 48.1264 131.64 48.2866 131.892C48.4525 132.138 48.5355 132.427 48.5355 132.758V135.865H47.4713V135.067L47.7116 135.05C47.5914 135.25 47.4484 135.419 47.2825 135.556C47.1166 135.688 46.9277 135.791 46.7161 135.865C46.5044 135.934 46.2698 135.968 46.0123 135.968ZM49.5746 135.865V131.197H50.6302V132.115L50.5444 131.952C50.6531 131.671 50.8305 131.46 51.0765 131.317C51.3282 131.168 51.62 131.094 51.9519 131.094C52.2951 131.094 52.5984 131.168 52.8616 131.317C53.1305 131.465 53.3393 131.674 53.4881 131.943C53.6368 132.206 53.7112 132.512 53.7112 132.861V135.865H52.5869V133.128C52.5869 132.922 52.5469 132.744 52.4668 132.595C52.3867 132.447 52.2751 132.332 52.1321 132.252C51.9948 132.166 51.8317 132.123 51.6429 132.123C51.4598 132.123 51.2968 132.166 51.1537 132.252C51.0107 132.332 50.8991 132.447 50.819 132.595C50.7389 132.744 50.6989 132.922 50.6989 133.128V135.865H49.5746ZM55.194 135.865V134.664H56.3268V135.865H55.194ZM60.1539 135.968C59.6905 135.968 59.2728 135.862 58.9009 135.651C58.5347 135.433 58.2458 135.141 58.0341 134.775C57.8224 134.403 57.7165 133.986 57.7165 133.522C57.7165 133.059 57.8224 132.644 58.0341 132.278C58.2458 131.912 58.5347 131.623 58.9009 131.411C59.2728 131.199 59.6905 131.094 60.1539 131.094C60.4857 131.094 60.7947 131.154 61.0808 131.274C61.3668 131.388 61.6129 131.548 61.8188 131.754C62.0305 131.955 62.1822 132.195 62.2737 132.475L61.2867 132.904C61.2009 132.67 61.055 132.481 60.8491 132.338C60.6488 132.195 60.4171 132.123 60.1539 132.123C59.9079 132.123 59.6876 132.183 59.4931 132.304C59.3043 132.424 59.1555 132.59 59.0468 132.801C58.9381 133.013 58.8837 133.256 58.8837 133.531C58.8837 133.806 58.9381 134.049 59.0468 134.26C59.1555 134.472 59.3043 134.638 59.4931 134.758C59.6876 134.878 59.9079 134.938 60.1539 134.938C60.4228 134.938 60.6574 134.867 60.8576 134.724C61.0579 134.581 61.2009 134.389 61.2867 134.149L62.2737 134.595C62.1822 134.858 62.0334 135.096 61.8274 135.307C61.6214 135.513 61.3754 135.676 61.0894 135.797C60.8033 135.911 60.4915 135.968 60.1539 135.968ZM65.4096 135.968C64.9519 135.968 64.5342 135.862 64.1566 135.651C63.7847 135.439 63.4872 135.15 63.2641 134.784C63.0467 134.418 62.9379 134 62.9379 133.531C62.9379 133.062 63.0467 132.644 63.2641 132.278C63.4872 131.912 63.7847 131.623 64.1566 131.411C64.5285 131.199 64.9462 131.094 65.4096 131.094C65.8673 131.094 66.2821 131.199 66.654 131.411C67.0259 131.623 67.3206 131.912 67.538 132.278C67.7611 132.638 67.8727 133.056 67.8727 133.531C67.8727 134 67.7611 134.418 67.538 134.784C67.3149 135.15 67.0173 135.439 66.6455 135.651C66.2736 135.862 65.8616 135.968 65.4096 135.968ZM65.4096 134.938C65.6614 134.938 65.8816 134.878 66.0704 134.758C66.265 134.638 66.4166 134.472 66.5253 134.26C66.6397 134.043 66.6969 133.8 66.6969 133.531C66.6969 133.256 66.6397 133.016 66.5253 132.81C66.4166 132.598 66.265 132.432 66.0704 132.312C65.8816 132.186 65.6614 132.123 65.4096 132.123C65.1522 132.123 64.9262 132.186 64.7316 132.312C64.5371 132.432 64.3826 132.598 64.2682 132.81C64.1595 133.016 64.1051 133.256 64.1051 133.531C64.1051 133.8 64.1595 134.043 64.2682 134.26C64.3826 134.472 64.5371 134.638 64.7316 134.758C64.9262 134.878 65.1522 134.938 65.4096 134.938Z" fill="#111827"/>
<rect x="171.963" y="124.648" width="40.2986" height="15.4329" rx="7.71644" fill="#FFD1D1"/>
<path d="M177.792 135.365V129.611H178.41V135.365H177.792ZM181.12 135.458C180.723 135.458 180.376 135.358 180.077 135.157C179.779 134.956 179.562 134.683 179.428 134.338L179.915 134.106C180.033 134.359 180.198 134.559 180.409 134.709C180.626 134.858 180.862 134.933 181.12 134.933C181.367 134.933 181.576 134.873 181.746 134.755C181.916 134.631 182 134.472 182 134.276C182 134.132 181.959 134.019 181.877 133.936C181.795 133.849 181.699 133.782 181.591 133.735C181.483 133.689 181.388 133.656 181.305 133.635L180.711 133.465C180.33 133.357 180.054 133.205 179.884 133.009C179.714 132.814 179.629 132.587 179.629 132.33C179.629 132.088 179.691 131.877 179.815 131.696C179.938 131.516 180.106 131.377 180.317 131.279C180.528 131.181 180.762 131.132 181.02 131.132C181.37 131.132 181.686 131.225 181.97 131.411C182.258 131.591 182.461 131.843 182.58 132.168L182.085 132.399C181.982 132.168 181.833 131.987 181.637 131.859C181.447 131.725 181.233 131.658 180.996 131.658C180.765 131.658 180.579 131.717 180.44 131.835C180.301 131.954 180.232 132.103 180.232 132.283C180.232 132.422 180.268 132.533 180.34 132.615C180.412 132.698 180.494 132.76 180.587 132.801C180.685 132.842 180.77 132.873 180.842 132.894L181.529 133.094C181.864 133.192 182.124 133.344 182.309 133.55C182.5 133.756 182.595 133.998 182.595 134.276C182.595 134.503 182.531 134.706 182.402 134.886C182.279 135.067 182.106 135.208 181.885 135.311C181.663 135.409 181.408 135.458 181.12 135.458ZM185.552 135.458C185.161 135.458 184.805 135.365 184.486 135.18C184.167 134.989 183.912 134.732 183.721 134.407C183.536 134.078 183.443 133.705 183.443 133.287C183.443 132.876 183.536 132.507 183.721 132.183C183.907 131.859 184.156 131.604 184.471 131.418C184.79 131.228 185.15 131.132 185.552 131.132C185.954 131.132 186.311 131.225 186.626 131.411C186.945 131.596 187.195 131.851 187.375 132.175C187.56 132.5 187.653 132.87 187.653 133.287C187.653 133.71 187.558 134.086 187.367 134.415C187.177 134.74 186.922 134.994 186.602 135.18C186.288 135.365 185.938 135.458 185.552 135.458ZM185.552 134.879C185.83 134.879 186.08 134.809 186.301 134.67C186.528 134.531 186.705 134.341 186.834 134.099C186.968 133.856 187.035 133.586 187.035 133.287C187.035 132.989 186.968 132.721 186.834 132.484C186.705 132.247 186.528 132.059 186.301 131.92C186.08 131.781 185.83 131.712 185.552 131.712C185.274 131.712 185.022 131.781 184.795 131.92C184.574 132.059 184.396 132.247 184.262 132.484C184.128 132.721 184.061 132.989 184.061 133.287C184.061 133.586 184.128 133.856 184.262 134.099C184.396 134.341 184.574 134.531 184.795 134.67C185.022 134.809 185.274 134.879 185.552 134.879ZM188.674 135.365V129.518H189.254V135.365H188.674ZM191.637 135.458C191.374 135.458 191.14 135.409 190.934 135.311C190.728 135.208 190.566 135.069 190.447 134.894C190.329 134.719 190.27 134.518 190.27 134.292C190.27 134.075 190.316 133.88 190.409 133.705C190.501 133.524 190.646 133.372 190.841 133.249C191.037 133.125 191.287 133.038 191.59 132.986L193.212 132.716V133.241L191.729 133.488C191.431 133.54 191.215 133.635 191.081 133.774C190.952 133.913 190.888 134.078 190.888 134.268C190.888 134.454 190.96 134.611 191.104 134.74C191.253 134.868 191.444 134.933 191.675 134.933C191.959 134.933 192.206 134.873 192.417 134.755C192.628 134.631 192.793 134.467 192.911 134.261C193.03 134.055 193.089 133.826 193.089 133.573V132.523C193.089 132.276 192.999 132.075 192.819 131.92C192.638 131.766 192.404 131.689 192.116 131.689C191.863 131.689 191.642 131.753 191.451 131.882C191.261 132.005 191.119 132.168 191.027 132.368L190.501 132.083C190.579 131.907 190.7 131.748 190.864 131.604C191.034 131.459 191.227 131.346 191.444 131.264C191.66 131.176 191.884 131.132 192.116 131.132C192.419 131.132 192.687 131.192 192.919 131.31C193.156 131.429 193.339 131.593 193.467 131.804C193.601 132.01 193.668 132.25 193.668 132.523V135.365H193.089V134.539L193.174 134.624C193.102 134.778 192.988 134.92 192.834 135.049C192.685 135.172 192.507 135.273 192.301 135.35C192.1 135.422 191.879 135.458 191.637 135.458ZM196.368 135.412C195.997 135.412 195.711 135.303 195.51 135.087C195.31 134.871 195.209 134.562 195.209 134.16V131.804H194.444V131.225H194.638C194.813 131.225 194.952 131.169 195.055 131.055C195.158 130.937 195.209 130.79 195.209 130.615V130.267H195.788V131.225H196.7V131.804H195.788V134.16C195.788 134.299 195.809 134.423 195.85 134.531C195.891 134.634 195.961 134.716 196.059 134.778C196.162 134.84 196.298 134.871 196.468 134.871C196.509 134.871 196.558 134.868 196.615 134.863C196.672 134.858 196.72 134.853 196.762 134.848V135.365C196.7 135.381 196.63 135.391 196.553 135.396C196.476 135.406 196.414 135.412 196.368 135.412ZM199.513 135.458C199.126 135.458 198.776 135.365 198.462 135.18C198.153 134.989 197.909 134.729 197.728 134.4C197.548 134.07 197.458 133.697 197.458 133.28C197.458 132.863 197.546 132.494 197.721 132.175C197.896 131.851 198.133 131.596 198.431 131.411C198.735 131.225 199.075 131.132 199.451 131.132C199.749 131.132 200.015 131.189 200.246 131.302C200.483 131.411 200.684 131.56 200.849 131.75C201.014 131.936 201.14 132.147 201.227 132.384C201.315 132.615 201.359 132.855 201.359 133.102C201.359 133.154 201.356 133.213 201.351 133.28C201.346 133.342 201.338 133.406 201.328 133.473H197.829V132.932H200.996L200.718 133.164C200.764 132.881 200.73 132.628 200.617 132.407C200.509 132.18 200.352 132.003 200.146 131.874C199.94 131.74 199.708 131.673 199.451 131.673C199.193 131.673 198.954 131.74 198.733 131.874C198.516 132.008 198.346 132.196 198.223 132.438C198.099 132.675 198.05 132.958 198.076 133.287C198.05 133.617 198.102 133.905 198.23 134.153C198.364 134.395 198.545 134.583 198.771 134.716C199.003 134.85 199.25 134.917 199.513 134.917C199.816 134.917 200.071 134.845 200.277 134.701C200.483 134.557 200.651 134.377 200.779 134.16L201.274 134.423C201.191 134.608 201.065 134.781 200.895 134.94C200.725 135.095 200.522 135.221 200.285 135.319C200.053 135.412 199.796 135.458 199.513 135.458ZM204.249 135.458C203.863 135.458 203.515 135.365 203.206 135.18C202.898 134.989 202.653 134.732 202.473 134.407C202.298 134.078 202.21 133.707 202.21 133.295C202.21 132.878 202.298 132.507 202.473 132.183C202.653 131.859 202.895 131.604 203.199 131.418C203.508 131.228 203.858 131.132 204.249 131.132C204.605 131.132 204.921 131.21 205.199 131.364C205.477 131.519 205.696 131.727 205.856 131.99L205.763 132.152V129.518H206.342V135.365H205.763V134.438L205.856 134.523C205.712 134.822 205.495 135.054 205.207 135.218C204.924 135.378 204.605 135.458 204.249 135.458ZM204.28 134.879C204.558 134.879 204.808 134.809 205.029 134.67C205.256 134.531 205.434 134.343 205.562 134.106C205.696 133.864 205.763 133.594 205.763 133.295C205.763 132.997 205.696 132.729 205.562 132.492C205.434 132.25 205.256 132.059 205.029 131.92C204.808 131.781 204.558 131.712 204.28 131.712C204.007 131.712 203.76 131.781 203.539 131.92C203.317 132.059 203.142 132.247 203.013 132.484C202.89 132.721 202.828 132.991 202.828 133.295C202.828 133.594 202.89 133.864 203.013 134.106C203.142 134.343 203.315 134.531 203.531 134.67C203.752 134.809 204.002 134.879 204.28 134.879Z" fill="#101828"/>
</g>
</svg>
