<svg width="40" height="40" viewBox="0 0 40 40" fill="none" xmlns="http://www.w3.org/2000/svg">
<rect width="40" height="40" rx="12" fill="#7C3AED" fill-opacity="0.2"/>
<path d="M11.9844 20.9844C13.1094 20.9844 14 20.0938 14 19.0156C14 17.8906 13.1094 17 11.9844 17C10.9062 17 10.0156 17.8906 10.0156 19.0156C10.0156 20.0938 10.9062 20.9844 11.9844 20.9844ZM13.1094 22.1094C12.7812 22.0625 12.4062 22.0156 11.9844 22.0156C11 22.0156 10.0625 22.2031 9.21875 22.5781C8.46875 22.9062 8 23.6094 8 24.4531V26H12.5V24.4062C12.5 23.5625 12.7344 22.7656 13.1094 22.1094ZM28.0156 20.9844C29.0938 20.9844 29.9844 20.0938 29.9844 19.0156C29.9844 17.8906 29.0938 17 28.0156 17C26.8906 17 26 17.8906 26 19.0156C26 20.0938 26.8906 20.9844 28.0156 20.9844ZM32 24.4531C32 23.6094 31.5312 22.9062 30.7812 22.5781C29.9375 22.2031 29 22.0156 28.0156 22.0156C27.5938 22.0156 27.2188 22.0625 26.8906 22.1094C27.2656 22.7656 27.5 23.5625 27.5 24.4062V26H32V24.4531ZM24.2188 21.6406C23.0469 21.125 21.6406 20.75 20 20.75C18.3594 20.75 16.9531 21.125 15.7812 21.6406C14.7031 22.1094 14 23.1875 14 24.4062V26H26V24.4062C26 23.1875 25.2969 22.1094 24.2188 21.6406ZM16.0625 23.9844C16.1562 23.75 16.2031 23.6094 17 23.3281C17.9375 22.9531 18.9688 22.7656 20 22.7656C21.0312 22.7656 22.0625 22.9531 23 23.3281C23.7969 23.6094 23.8438 23.75 23.9375 23.9844H16.0625ZM20 16.0156C20.5625 16.0156 20.9844 16.4375 20.9844 17C20.9844 17.5625 20.5625 17.9844 20 17.9844C19.4375 17.9844 19.0156 17.5625 19.0156 17C19.0156 16.4375 19.4375 16.0156 20 16.0156ZM20 14C18.3594 14 17 15.3594 17 17C17 18.6406 18.3594 20 20 20C21.6406 20 23 18.6406 23 17C23 15.3594 21.6406 14 20 14Z" fill="#7C3AED"/>
</svg>
