<svg width="20" height="20" viewBox="0 0 20 20" fill="none" xmlns="http://www.w3.org/2000/svg">
<path d="M9.9987 1.66797C6.33203 1.66797 3.33203 4.66797 3.33203 8.33463C3.33203 12.8346 9.16536 17.918 9.41536 18.168C9.7487 18.418 10.1654 18.418 10.4987 18.168C10.832 17.918 16.6654 12.8346 16.6654 8.33463C16.6654 4.66797 13.6654 1.66797 9.9987 1.66797ZM9.9987 11.668C8.16536 11.668 6.66536 10.168 6.66536 8.33463C6.66536 6.5013 8.16536 5.0013 9.9987 5.0013C11.832 5.0013 13.332 6.5013 13.332 8.33463C13.332 10.168 11.832 11.668 9.9987 11.668Z" fill="#302B3A"/>
</svg>
