<svg width="122" height="122" viewBox="0 0 122 122" fill="none" xmlns="http://www.w3.org/2000/svg">
<path fill-rule="evenodd" clip-rule="evenodd" d="M120.535 2.86591C120.34 2.94949 119.315 2.86973 118.125 2.67841C109.164 1.23746 99.2954 2.54425 90.8368 6.29171C86.5086 8.20925 83.3209 10.1065 79.6623 12.9421C77.6462 14.5047 73.1451 18.7353 73.2511 18.9681C73.2756 19.0223 73.7026 19.1443 74.1999 19.2393C75.7503 19.5353 79.0143 20.8306 80.7051 21.8209C86.8491 25.419 90.9646 31.7442 91.4058 38.2668C91.5709 40.7049 91.3995 42.0576 90.6015 44.6163C90.0057 46.5268 89.7749 47.0779 89.1184 48.1597C86.8195 51.9466 83.208 54.61 78.7851 55.7801C76.6877 56.335 74.0093 56.2758 71.7358 55.6245C68.8108 54.7865 66.0136 52.4599 64.1584 49.3222C59.9232 42.1594 61.3655 31.793 67.8981 22.4438C68.5068 21.5728 69.0164 20.8263 69.0307 20.785C69.1204 20.5254 65.1591 20.9031 63.1906 21.3418C53.8206 23.4307 45.5877 30.0563 37.9789 41.6313C36.0717 44.5327 34.9043 46.5059 32.8828 50.2442C28.9477 57.5219 25.9473 64.0415 23.127 71.4422C17.442 86.3605 14.7762 100.84 15.202 114.488C15.2481 115.963 15.3324 117.188 15.3894 117.209C15.5131 117.255 16.2129 116.4 22.3335 108.724C29.006 100.357 30.9139 98.0984 31.4151 97.9735C31.9418 97.8424 32.4489 98.1849 32.5825 98.7621C32.6782 99.1752 32.6031 99.2974 31.2589 100.918C29.0534 103.577 27.2035 105.869 24.7436 108.99C21.4375 113.186 17.9927 117.462 16.4499 119.287C14.9955 121.006 14.3362 121.461 13.8512 121.08C13.7002 120.961 12.6372 119.251 11.4889 117.281C10.3406 115.31 7.427 110.326 5.0143 106.204C0.0577208 97.7374 -0.130993 97.3845 0.037778 96.8963C0.214799 96.3843 1.06943 96.0081 1.42194 96.2872C1.57602 96.409 3.01016 98.752 4.60897 101.494C11.9049 114.004 13.1004 116.031 13.1645 116C13.202 115.982 13.2064 115.093 13.1742 114.025C13.0021 108.322 13.5489 101.146 14.6585 94.5502C16.9757 80.7741 22.0839 66.4538 30.2428 50.8611C39.7612 32.6701 49.7646 22.6483 61.4405 19.6066C63.6451 19.0324 67.3989 18.5737 69.2796 18.6489L70.7251 18.7068L71.5574 17.754C73.1641 15.9147 76.362 12.9192 78.4834 11.2666C89.6579 2.56095 103.899 -1.41006 117.279 0.449197C118.088 0.561641 119.055 0.719931 119.429 0.800856C119.803 0.88194 120.232 0.957097 120.383 0.96795C120.75 0.994458 121.155 1.91154 120.998 2.36418C120.93 2.56015 120.722 2.78595 120.535 2.86591ZM87.51 46.8978C86.6517 48.2956 86.0435 49.0538 84.925 50.1199C81.3394 53.5383 76.4221 54.9504 72.4135 53.7128C67.143 52.0854 63.5266 46.0496 63.6878 39.1488C63.8113 33.8566 66.3079 27.7405 70.6969 21.9785L71.5461 20.8637L72.4677 20.9744C73.0698 21.0468 74.3888 21.4497 76.2712 22.1369C78.8064 23.0622 79.32 23.2982 80.542 24.0993C86.5052 28.0096 89.9242 34.4815 89.4134 40.892C89.2965 42.3574 88.2284 45.7278 87.51 46.8978Z" fill="#5550FF"/>
</svg>
