<svg width="48" height="48" viewBox="0 0 48 48" fill="none" xmlns="http://www.w3.org/2000/svg">
<rect width="48" height="48" rx="6" fill="#EEEEFF"/>
<path d="M20 35.25H15.25C14.5625 35.25 13.974 35.0052 13.4844 34.5156C12.9948 34.026 12.75 33.4375 12.75 32.75V28C13.75 28 14.625 27.6823 15.375 27.0469C16.125 26.4115 16.5 25.6042 16.5 24.625C16.5 23.6458 16.125 22.8385 15.375 22.2031C14.625 21.5677 13.75 21.25 12.75 21.25V16.5C12.75 15.8125 12.9948 15.224 13.4844 14.7344C13.974 14.2448 14.5625 14 15.25 14H20.25C20.25 13.125 20.5521 12.3854 21.1562 11.7812C21.7604 11.1771 22.5 10.875 23.375 10.875C24.25 10.875 24.9896 11.1771 25.5938 11.7812C26.1979 12.3854 26.5 13.125 26.5 14H31.5C32.1875 14 32.776 14.2448 33.2656 14.7344C33.7552 15.224 34 15.8125 34 16.5V21.5C34.875 21.5 35.6146 21.8021 36.2188 22.4062C36.8229 23.0104 37.125 23.75 37.125 24.625C37.125 25.5 36.8229 26.2396 36.2188 26.8438C35.6146 27.4479 34.875 27.75 34 27.75V32.75C34 33.4375 33.7552 34.026 33.2656 34.5156C32.776 35.0052 32.1875 35.25 31.5 35.25H26.75C26.75 34.2083 26.4219 33.3229 25.7656 32.5938C25.1094 31.8646 24.3125 31.5 23.375 31.5C22.4375 31.5 21.6406 31.8646 20.9844 32.5938C20.3281 33.3229 20 34.2083 20 35.25ZM15.25 32.75H17.9062C18.4062 31.375 19.2083 30.4062 20.3125 29.8438C21.4167 29.2812 22.4375 29 23.375 29C24.3125 29 25.3333 29.2812 26.4375 29.8438C27.5417 30.4062 28.3438 31.375 28.8438 32.75H31.5V25.25H34C34.1667 25.25 34.3125 25.1875 34.4375 25.0625C34.5625 24.9375 34.625 24.7917 34.625 24.625C34.625 24.4583 34.5625 24.3125 34.4375 24.1875C34.3125 24.0625 34.1667 24 34 24H31.5V16.5H24V14C24 13.8333 23.9375 13.6875 23.8125 13.5625C23.6875 13.4375 23.5417 13.375 23.375 13.375C23.2083 13.375 23.0625 13.4375 22.9375 13.5625C22.8125 13.6875 22.75 13.8333 22.75 14V16.5H15.25V19.25C16.375 19.6667 17.2812 20.3646 17.9688 21.3438C18.6562 22.3229 19 23.4167 19 24.625C19 25.8125 18.6562 26.8958 17.9688 27.875C17.2812 28.8542 16.375 29.5625 15.25 30V32.75Z" fill="#5550FF"/>
</svg>
