<svg width="32" height="32" viewBox="0 0 32 32" fill="none" xmlns="http://www.w3.org/2000/svg">
<g clip-path="url(#clip0_1834_4574)">
<mask id="mask0_1834_4574" style="mask-type:luminance" maskUnits="userSpaceOnUse" x="0" y="0" width="32" height="32">
<path d="M24 0H8C3.58172 0 0 3.58172 0 8V24C0 28.4183 3.58172 32 8 32H24C28.4183 32 32 28.4183 32 24V8C32 3.58172 28.4183 0 24 0Z" fill="white"/>
</mask>
<g mask="url(#mask0_1834_4574)">
<path d="M24 0H8C3.58172 0 0 3.58172 0 8V24C0 28.4183 3.58172 32 8 32H24C28.4183 32 32 28.4183 32 24V8C32 3.58172 28.4183 0 24 0Z" fill="#302B3A"/>
<path d="M14.6239 17.144C14.6239 16.517 14.1069 16 13.4799 16C12.8529 16 12.3359 16.517 12.3359 17.144C12.3359 17.4474 12.4564 17.7384 12.671 17.9529C12.8855 18.1675 13.1765 18.288 13.4799 18.288C13.7833 18.288 14.0743 18.1675 14.2888 17.9529C14.5034 17.7384 14.6239 17.4474 14.6239 17.144ZM18.2979 19.751C17.8029 20.246 16.7469 20.422 15.9989 20.422C15.2509 20.422 14.1949 20.246 13.6999 19.751C13.6732 19.7224 13.6408 19.6995 13.6048 19.6839C13.5689 19.6683 13.5301 19.6602 13.4909 19.6602C13.4517 19.6602 13.4129 19.6683 13.377 19.6839C13.341 19.6995 13.3087 19.7224 13.2819 19.751C13.2533 19.7778 13.2304 19.8101 13.2148 19.8461C13.1992 19.882 13.1911 19.9208 13.1911 19.96C13.1911 19.9992 13.1992 20.038 13.2148 20.0739C13.2304 20.1099 13.2533 20.1422 13.2819 20.169C14.0629 20.95 15.5589 21.016 15.9989 21.016C16.4389 21.016 17.9349 20.95 18.7159 20.169C18.7446 20.1422 18.7674 20.1099 18.783 20.0739C18.7986 20.038 18.8067 19.9992 18.8067 19.96C18.8067 19.9208 18.7986 19.882 18.783 19.8461C18.7674 19.8101 18.7446 19.7778 18.7159 19.751C18.6059 19.641 18.4189 19.641 18.2979 19.751ZM18.5179 16C17.8909 16 17.3739 16.517 17.3739 17.144C17.3739 17.771 17.8909 18.288 18.5179 18.288C19.1449 18.288 19.6619 17.771 19.6619 17.144C19.6619 16.517 19.1559 16 18.5179 16Z" fill="white"/>
<path d="M16 5C9.928 5 5 9.928 5 16C5 22.072 9.928 27 16 27C22.072 27 27 22.072 27 16C27 9.928 22.072 5 16 5ZM22.38 17.463C22.402 17.617 22.413 17.782 22.413 17.947C22.413 20.411 19.542 22.413 16 22.413C12.458 22.413 9.587 20.411 9.587 17.947C9.587 17.782 9.598 17.617 9.62 17.463C9.059 17.21 8.674 16.649 8.674 16C8.67237 15.6846 8.76398 15.3757 8.93733 15.1122C9.11068 14.8486 9.35804 14.6422 9.64833 14.5188C9.93863 14.3954 10.2589 14.3605 10.569 14.4186C10.879 14.4766 11.165 14.625 11.391 14.845C12.502 14.042 14.042 13.536 15.747 13.481L16.561 9.642C16.572 9.565 16.616 9.499 16.682 9.466C16.748 9.422 16.825 9.411 16.902 9.422L19.564 9.994C19.6543 9.81094 19.7919 9.65536 19.9626 9.54341C20.1333 9.43147 20.3308 9.36722 20.5346 9.35734C20.7385 9.34747 20.9413 9.39232 21.122 9.48724C21.3027 9.58216 21.4547 9.72371 21.5623 9.89719C21.6699 10.0707 21.729 10.2698 21.7337 10.4738C21.7384 10.6779 21.6884 10.8795 21.5889 11.0577C21.4894 11.2359 21.344 11.3843 21.1678 11.4874C20.9917 11.5905 20.7911 11.6445 20.587 11.644C19.971 11.644 19.476 11.16 19.443 10.555L17.056 10.049L16.33 13.481C18.013 13.536 19.52 14.053 20.62 14.845C20.7886 14.684 20.9904 14.5617 21.2112 14.4868C21.432 14.4119 21.6665 14.3862 21.8983 14.4114C22.1301 14.4366 22.3536 14.5121 22.5532 14.6327C22.7527 14.7533 22.9235 14.9161 23.0536 15.1096C23.1837 15.3031 23.2699 15.5227 23.3063 15.753C23.3426 15.9833 23.3282 16.2188 23.264 16.4429C23.1999 16.6671 23.0875 16.8745 22.9348 17.0507C22.7821 17.2269 22.5928 17.3676 22.38 17.463Z" fill="white"/>
<path d="M24 0.5H8C3.85786 0.5 0.5 3.85786 0.5 8V24C0.5 28.1421 3.85786 31.5 8 31.5H24C28.1421 31.5 31.5 28.1421 31.5 24V8C31.5 3.85786 28.1421 0.5 24 0.5Z" stroke="#E6E6E6"/>
</g>
</g>
<defs>
<clipPath id="clip0_1834_4574">
<rect width="32" height="32" fill="white"/>
</clipPath>
</defs>
</svg>
