<svg width="34" height="34" viewBox="0 0 34 34" fill="none" xmlns="http://www.w3.org/2000/svg">
<g filter="url(#filter0_i_623_2412)">
<rect width="34" height="34" rx="17" fill="black" fill-opacity="0.34"/>
<rect x="0.2125" y="0.2125" width="33.575" height="33.575" rx="16.7875" stroke="#EBEBEB" stroke-opacity="0.4" stroke-width="0.425"/>
<path d="M13.6667 22.6667C14.5833 22.6667 15.3333 21.9167 15.3333 21V12.6667C15.3333 11.75 14.5833 11 13.6667 11C12.75 11 12 11.75 12 12.6667V21C12 21.9167 12.75 22.6667 13.6667 22.6667ZM18.6667 12.6667V21C18.6667 21.9167 19.4167 22.6667 20.3333 22.6667C21.25 22.6667 22 21.9167 22 21V12.6667C22 11.75 21.25 11 20.3333 11C19.4167 11 18.6667 11.75 18.6667 12.6667Z" fill="white"/>
</g>
<defs>
<filter id="filter0_i_623_2412" x="0" y="0" width="34" height="34.425" filterUnits="userSpaceOnUse" color-interpolation-filters="sRGB">
<feFlood flood-opacity="0" result="BackgroundImageFix"/>
<feBlend mode="normal" in="SourceGraphic" in2="BackgroundImageFix" result="shape"/>
<feColorMatrix in="SourceAlpha" type="matrix" values="0 0 0 0 0 0 0 0 0 0 0 0 0 0 0 0 0 0 127 0" result="hardAlpha"/>
<feMorphology radius="0.425" operator="erode" in="SourceAlpha" result="effect1_innerShadow_623_2412"/>
<feOffset dy="0.425"/>
<feGaussianBlur stdDeviation="3.6125"/>
<feComposite in2="hardAlpha" operator="arithmetic" k2="-1" k3="1"/>
<feColorMatrix type="matrix" values="0 0 0 0 0 0 0 0 0 0 0 0 0 0 0 0 0 0 0.1 0"/>
<feBlend mode="normal" in2="shape" result="effect1_innerShadow_623_2412"/>
</filter>
</defs>
</svg>
