<svg width="20" height="20" viewBox="0 0 20 20" fill="none" xmlns="http://www.w3.org/2000/svg">
<mask id="path-1-inside-1_573_2068" fill="white">
<path d="M0 10C0 4.47715 4.47715 0 10 0C15.5228 0 20 4.47715 20 10C20 15.5228 15.5228 20 10 20C4.47715 20 0 15.5228 0 10Z"/>
</mask>
<path d="M0 10C0 4.47715 4.47715 0 10 0C15.5228 0 20 4.47715 20 10C20 15.5228 15.5228 20 10 20C4.47715 20 0 15.5228 0 10Z" fill="#22C55E"/>
<path d="M0 10M20 10M20 10M0 10M10 0M20 10M10 20M0 10M10 20V16C6.68629 16 4 13.3137 4 10H0H-4C-4 17.732 2.26801 24 10 24V20ZM20 10H16C16 13.3137 13.3137 16 10 16V20V24C17.732 24 24 17.732 24 10H20ZM10 0V4C13.3137 4 16 6.68629 16 10H20H24C24 2.26801 17.732 -4 10 -4V0ZM10 0V-4C2.26801 -4 -4 2.26801 -4 10H0H4C4 6.68629 6.68629 4 10 4V0Z" fill="white" mask="url(#path-1-inside-1_573_2068)"/>
</svg>
