<svg width="70" height="20" viewBox="0 0 70 20" fill="none" xmlns="http://www.w3.org/2000/svg">
<path d="M7 13.0625L10.6094 15.25L9.65234 11.1484L12.8242 8.38672L8.64062 8.03125L7 4.17578L5.35938 8.03125L1.17578 8.38672L4.34766 11.1484L3.39062 15.25L7 13.0625Z" fill="#FACC15"/>
<path d="M21 13.0625L24.6094 15.25L23.6523 11.1484L26.8242 8.38672L22.6406 8.03125L21 4.17578L19.3594 8.03125L15.1758 8.38672L18.3477 11.1484L17.3906 15.25L21 13.0625Z" fill="#FACC15"/>
<path d="M35 13.0625L38.6094 15.25L37.6523 11.1484L40.8242 8.38672L36.6406 8.03125L35 4.17578L33.3594 8.03125L29.1758 8.38672L32.3477 11.1484L31.3906 15.25L35 13.0625Z" fill="#FACC15"/>
<path d="M49 13.0625L52.6094 15.25L51.6523 11.1484L54.8242 8.38672L50.6406 8.03125L49 4.17578L47.3594 8.03125L43.1758 8.38672L46.3477 11.1484L45.3906 15.25L49 13.0625Z" fill="#FACC15"/>
<path d="M63 13.0625L66.6094 15.25L65.6523 11.1484L68.8242 8.38672L64.6406 8.03125L63 4.17578L61.3594 8.03125L57.1758 8.38672L60.3477 11.1484L59.3906 15.25L63 13.0625Z" fill="#FACC15"/>
</svg>
