<svg width="48" height="48" viewBox="0 0 48 48" fill="none" xmlns="http://www.w3.org/2000/svg">
<rect width="48" height="48" rx="6" fill="#EEEEFF"/>
<path d="M14 27.75C12.9583 27.75 12.0729 27.3854 11.3438 26.6562C10.6146 25.9271 10.25 25.0417 10.25 24C10.25 22.9583 10.6146 22.0729 11.3438 21.3438C12.0729 20.6146 12.9583 20.25 14 20.25V17.75C14 17.0625 14.2448 16.474 14.7344 15.9844C15.224 15.4948 15.8125 15.25 16.5 15.25H20.25C20.25 14.2083 20.6146 13.3229 21.3438 12.5938C22.0729 11.8646 22.9583 11.5 24 11.5C25.0417 11.5 25.9271 11.8646 26.6562 12.5938C27.3854 13.3229 27.75 14.2083 27.75 15.25H31.5C32.1875 15.25 32.776 15.4948 33.2656 15.9844C33.7552 16.474 34 17.0625 34 17.75V20.25C35.0417 20.25 35.9271 20.6146 36.6562 21.3438C37.3854 22.0729 37.75 22.9583 37.75 24C37.75 25.0417 37.3854 25.9271 36.6562 26.6562C35.9271 27.3854 35.0417 27.75 34 27.75V32.75C34 33.4375 33.7552 34.026 33.2656 34.5156C32.776 35.0052 32.1875 35.25 31.5 35.25H16.5C15.8125 35.25 15.224 35.0052 14.7344 34.5156C14.2448 34.026 14 33.4375 14 32.75V27.75ZM20.25 25.25C20.7708 25.25 21.2135 25.0677 21.5781 24.7031C21.9427 24.3385 22.125 23.8958 22.125 23.375C22.125 22.8542 21.9427 22.4115 21.5781 22.0469C21.2135 21.6823 20.7708 21.5 20.25 21.5C19.7292 21.5 19.2865 21.6823 18.9219 22.0469C18.5573 22.4115 18.375 22.8542 18.375 23.375C18.375 23.8958 18.5573 24.3385 18.9219 24.7031C19.2865 25.0677 19.7292 25.25 20.25 25.25ZM27.75 25.25C28.2708 25.25 28.7135 25.0677 29.0781 24.7031C29.4427 24.3385 29.625 23.8958 29.625 23.375C29.625 22.8542 29.4427 22.4115 29.0781 22.0469C28.7135 21.6823 28.2708 21.5 27.75 21.5C27.2292 21.5 26.7865 21.6823 26.4219 22.0469C26.0573 22.4115 25.875 22.8542 25.875 23.375C25.875 23.8958 26.0573 24.3385 26.4219 24.7031C26.7865 25.0677 27.2292 25.25 27.75 25.25ZM19 30.25H29V27.75H19V30.25ZM16.5 32.75H31.5V17.75H16.5V32.75Z" fill="#5550FF"/>
</svg>
