<svg width="232" height="168" viewBox="0 0 232 168" fill="none" xmlns="http://www.w3.org/2000/svg">
<rect width="231.719" height="167.733" rx="13.7315" fill="#FAF5FF"/>
<g filter="url(#filter0_d_1143_8980)">
<mask id="path-2-inside-1_1143_8980" fill="white">
<path d="M13.7344 24.0301C13.7344 18.3423 18.3452 13.7314 24.033 13.7314H207.692C213.38 13.7314 217.991 18.3423 217.991 24.0301V49.0451C217.991 54.7329 213.38 59.3438 207.692 59.3438H24.033C18.3452 59.3438 13.7344 54.7329 13.7344 49.0452V24.0301Z"/>
</mask>
<path d="M13.7344 24.0301C13.7344 18.3423 18.3452 13.7314 24.033 13.7314H207.692C213.38 13.7314 217.991 18.3423 217.991 24.0301V49.0451C217.991 54.7329 213.38 59.3438 207.692 59.3438H24.033C18.3452 59.3438 13.7344 54.7329 13.7344 49.0452V24.0301Z" fill="white" shape-rendering="crispEdges"/>
<path d="M24.033 13.7314V14.5897H207.692V13.7314V12.8732H24.033V13.7314ZM217.991 24.0301H217.132V49.0451H217.991H218.849V24.0301H217.991ZM207.692 59.3438V58.4856H24.033V59.3438V60.202H207.692V59.3438ZM13.7344 49.0452H14.5926V24.0301H13.7344H12.8762V49.0452H13.7344ZM24.033 59.3438V58.4856C18.8192 58.4856 14.5926 54.259 14.5926 49.0452H13.7344H12.8762C12.8762 55.2069 17.8712 60.202 24.033 60.202V59.3438ZM217.991 49.0451H217.132C217.132 54.2589 212.906 58.4856 207.692 58.4856V59.3438V60.202C213.854 60.202 218.849 55.2069 218.849 49.0451H217.991ZM207.692 13.7314V14.5897C212.906 14.5897 217.132 18.8163 217.132 24.0301H217.991H218.849C218.849 17.8683 213.854 12.8732 207.692 12.8732V13.7314ZM24.033 13.7314V12.8732C17.8712 12.8732 12.8762 17.8683 12.8762 24.0301H13.7344H14.5926C14.5926 18.8163 18.8192 14.5897 24.033 14.5897V13.7314Z" fill="#F3F4F6" mask="url(#path-2-inside-1_1143_8980)"/>
<path d="M25.9806 36.7768C25.8547 36.7768 25.7317 36.7653 25.6115 36.7424C25.4914 36.7253 25.3827 36.6909 25.2854 36.6394V35.704C25.3598 35.7211 25.4485 35.7383 25.5515 35.7555C25.6602 35.7726 25.7603 35.7812 25.8518 35.7812C26.1093 35.7812 26.2952 35.7211 26.4097 35.601C26.5298 35.4866 26.6357 35.3321 26.7272 35.1376L27.0362 34.4167L27.019 35.3607L24.985 30.22H26.1951L27.6198 34.0133H27.1907L28.6067 30.22H29.8254L27.7914 35.3607C27.6713 35.6582 27.5254 35.9128 27.3537 36.1245C27.1821 36.3362 26.9818 36.4964 26.753 36.6051C26.5298 36.7195 26.2724 36.7768 25.9806 36.7768ZM32.6418 34.9917C32.1841 34.9917 31.7664 34.8858 31.3888 34.6741C31.0169 34.4624 30.7194 34.1735 30.4963 33.8073C30.2789 33.4411 30.1702 33.0235 30.1702 32.5543C30.1702 32.0852 30.2789 31.6675 30.4963 31.3013C30.7194 30.9351 31.0169 30.6462 31.3888 30.4345C31.7607 30.2228 32.1784 30.117 32.6418 30.117C33.0995 30.117 33.5143 30.2228 33.8862 30.4345C34.2581 30.6462 34.5528 30.9351 34.7702 31.3013C34.9933 31.6618 35.1049 32.0794 35.1049 32.5543C35.1049 33.0235 34.9933 33.4411 34.7702 33.8073C34.5471 34.1735 34.2496 34.4624 33.8777 34.6741C33.5058 34.8858 33.0938 34.9917 32.6418 34.9917ZM32.6418 33.9618C32.8936 33.9618 33.1138 33.9017 33.3027 33.7816C33.4972 33.6614 33.6488 33.4955 33.7575 33.2838C33.8719 33.0664 33.9292 32.8232 33.9292 32.5543C33.9292 32.2797 33.8719 32.0394 33.7575 31.8334C33.6488 31.6217 33.4972 31.4558 33.3027 31.3356C33.1138 31.2098 32.8936 31.1468 32.6418 31.1468C32.3844 31.1468 32.1584 31.2098 31.9638 31.3356C31.7693 31.4558 31.6148 31.6217 31.5004 31.8334C31.3917 32.0394 31.3373 32.2797 31.3373 32.5543C31.3373 32.8232 31.3917 33.0664 31.5004 33.2838C31.6148 33.4955 31.7693 33.6614 31.9638 33.7816C32.1584 33.9017 32.3844 33.9618 32.6418 33.9618ZM37.6224 34.9917C37.262 34.9917 36.9473 34.9116 36.6784 34.7514C36.4152 34.5912 36.2121 34.368 36.0691 34.0819C35.9318 33.7959 35.8631 33.4612 35.8631 33.0778V30.22H36.9874V32.9834C36.9874 33.178 37.0246 33.3496 37.0989 33.4984C37.179 33.6414 37.2906 33.7558 37.4336 33.8416C37.5824 33.9217 37.7483 33.9618 37.9314 33.9618C38.1145 33.9618 38.2776 33.9217 38.4206 33.8416C38.5636 33.7558 38.6752 33.6385 38.7553 33.4898C38.8354 33.341 38.8754 33.1637 38.8754 32.9577V30.22H39.9997V34.8887H38.9355V33.9704L39.0299 34.1334C38.9212 34.4195 38.741 34.6341 38.4893 34.7771C38.2432 34.9201 37.9543 34.9917 37.6224 34.9917ZM41.0448 34.8887V30.22H42.1004V31.2584L42.0146 31.1039C42.1233 30.7549 42.2921 30.5118 42.5209 30.3744C42.7555 30.2371 43.0359 30.1685 43.362 30.1685H43.6366V31.164H43.2333C42.9129 31.164 42.6554 31.2641 42.4609 31.4644C42.2663 31.6589 42.1691 31.9335 42.1691 32.2883V34.8887H41.0448ZM46.5033 34.9917C46.0398 34.9917 45.6222 34.8858 45.2503 34.6741C44.8841 34.4567 44.5952 34.1649 44.3835 33.7987C44.1718 33.4268 44.0659 33.0092 44.0659 32.5457C44.0659 32.0823 44.1718 31.6675 44.3835 31.3013C44.5952 30.9351 44.8841 30.6462 45.2503 30.4345C45.6222 30.2228 46.0398 30.117 46.5033 30.117C46.8351 30.117 47.1441 30.177 47.4302 30.2972C47.7162 30.4116 47.9623 30.5718 48.1682 30.7778C48.3799 30.9781 48.5315 31.2184 48.6231 31.4987L47.6361 31.9278C47.5503 31.6932 47.4044 31.5044 47.1984 31.3614C46.9982 31.2184 46.7665 31.1468 46.5033 31.1468C46.2573 31.1468 46.037 31.2069 45.8425 31.3271C45.6536 31.4472 45.5049 31.6131 45.3962 31.8248C45.2875 32.0365 45.2331 32.2797 45.2331 32.5543C45.2331 32.8289 45.2875 33.0721 45.3962 33.2838C45.5049 33.4955 45.6536 33.6614 45.8425 33.7816C46.037 33.9017 46.2573 33.9618 46.5033 33.9618C46.7722 33.9618 47.0068 33.8903 47.207 33.7472C47.4073 33.6042 47.5503 33.4125 47.6361 33.1722L48.6231 33.6185C48.5315 33.8817 48.3828 34.1191 48.1768 34.3308C47.9708 34.5368 47.7248 34.6999 47.4387 34.82C47.1527 34.9344 46.8408 34.9917 46.5033 34.9917ZM51.759 34.9917C51.3013 34.9917 50.8836 34.8858 50.506 34.6741C50.1341 34.4624 49.8366 34.1735 49.6135 33.8073C49.396 33.4411 49.2873 33.0235 49.2873 32.5543C49.2873 32.0852 49.396 31.6675 49.6135 31.3013C49.8366 30.9351 50.1341 30.6462 50.506 30.4345C50.8779 30.2228 51.2956 30.117 51.759 30.117C52.2167 30.117 52.6315 30.2228 53.0034 30.4345C53.3753 30.6462 53.67 30.9351 53.8874 31.3013C54.1105 31.6618 54.2221 32.0794 54.2221 32.5543C54.2221 33.0235 54.1105 33.4411 53.8874 33.8073C53.6643 34.1735 53.3667 34.4624 52.9948 34.6741C52.6229 34.8858 52.211 34.9917 51.759 34.9917ZM51.759 33.9618C52.0107 33.9618 52.231 33.9017 52.4198 33.7816C52.6144 33.6614 52.766 33.4955 52.8747 33.2838C52.9891 33.0664 53.0463 32.8232 53.0463 32.5543C53.0463 32.2797 52.9891 32.0394 52.8747 31.8334C52.766 31.6217 52.6144 31.4558 52.4198 31.3356C52.231 31.2098 52.0107 31.1468 51.759 31.1468C51.5015 31.1468 51.2755 31.2098 51.081 31.3356C50.8865 31.4558 50.732 31.6217 50.6176 31.8334C50.5089 32.0394 50.4545 32.2797 50.4545 32.5543C50.4545 32.8232 50.5089 33.0664 50.6176 33.2838C50.732 33.4955 50.8865 33.6614 51.081 33.7816C51.2755 33.9017 51.5015 33.9618 51.759 33.9618ZM55.0747 34.8887V30.22H56.1303V31.3013L56.0101 31.1211C56.096 30.7835 56.2676 30.5318 56.5251 30.3659C56.7825 30.1999 57.0858 30.117 57.4348 30.117C57.8181 30.117 58.1557 30.2171 58.4475 30.4173C58.7393 30.6176 58.9281 30.8808 59.0139 31.2069L58.6964 31.2327C58.8394 30.8608 59.054 30.5833 59.34 30.4002C59.6261 30.2114 59.9551 30.117 60.327 30.117C60.6588 30.117 60.9535 30.1913 61.211 30.3401C61.4741 30.4889 61.6801 30.6977 61.8289 30.9666C61.9776 31.2298 62.052 31.5359 62.052 31.8849V34.8887H60.9277V32.151C60.9277 31.945 60.8906 31.7676 60.8162 31.6189C60.7418 31.4701 60.6388 31.3557 60.5072 31.2756C60.3756 31.1897 60.2154 31.1468 60.0266 31.1468C59.8492 31.1468 59.6919 31.1897 59.5546 31.2756C59.4173 31.3557 59.3114 31.4701 59.237 31.6189C59.1627 31.7676 59.1255 31.945 59.1255 32.151V34.8887H58.0012V32.151C58.0012 31.945 57.964 31.7676 57.8896 31.6189C57.8153 31.4701 57.7094 31.3557 57.5721 31.2756C57.4405 31.1897 57.2832 31.1468 57.1001 31.1468C56.9227 31.1468 56.7654 31.1897 56.6281 31.2756C56.4907 31.3557 56.3849 31.4701 56.3105 31.6189C56.2361 31.7676 56.199 31.945 56.199 32.151V34.8887H55.0747ZM63.0032 36.6051V30.22H64.0588V31.1468L63.9558 30.9151C64.116 30.6634 64.3334 30.4688 64.608 30.3315C64.8827 30.1885 65.2002 30.117 65.5607 30.117C66.0012 30.117 66.3988 30.2257 66.7536 30.4431C67.1083 30.6605 67.3887 30.9523 67.5946 31.3185C67.8063 31.6847 67.9122 32.0966 67.9122 32.5543C67.9122 33.0063 67.8092 33.4183 67.6032 33.7902C67.3972 34.162 67.1169 34.4567 66.7622 34.6741C66.4074 34.8858 66.0041 34.9917 65.5521 34.9917C65.2145 34.9917 64.9027 34.9259 64.6166 34.7943C64.3363 34.657 64.1131 34.4624 63.9472 34.2107L64.1274 33.9875V36.6051H63.0032ZM65.4233 33.9618C65.6808 33.9618 65.9097 33.9017 66.1099 33.7816C66.3102 33.6614 66.4646 33.4955 66.5734 33.2838C66.6878 33.0721 66.745 32.8289 66.745 32.5543C66.745 32.2797 66.6878 32.0394 66.5734 31.8334C66.4646 31.6217 66.3102 31.4558 66.1099 31.3356C65.9097 31.2098 65.6808 31.1468 65.4233 31.1468C65.1773 31.1468 64.9542 31.2069 64.7539 31.3271C64.5594 31.4472 64.4049 31.616 64.2905 31.8334C64.1818 32.0451 64.1274 32.2854 64.1274 32.5543C64.1274 32.8289 64.1818 33.0721 64.2905 33.2838C64.4049 33.4955 64.5594 33.6614 64.7539 33.7816C64.9542 33.9017 65.1773 33.9618 65.4233 33.9618ZM70.1854 34.9917C69.8593 34.9917 69.576 34.9373 69.3357 34.8286C69.0954 34.7199 68.9095 34.5654 68.7779 34.3652C68.6463 34.1592 68.5805 33.9217 68.5805 33.6528C68.5805 33.3954 68.6377 33.1665 68.7522 32.9663C68.8666 32.7603 69.044 32.5886 69.2843 32.4513C69.5246 32.314 69.8278 32.2167 70.194 32.1595L71.7216 31.9106V32.7689L70.4085 32.992C70.1854 33.0321 70.0195 33.1036 69.9108 33.2066C69.802 33.3095 69.7477 33.444 69.7477 33.6099C69.7477 33.7701 69.8078 33.8989 69.9279 33.9961C70.0538 34.0877 70.2083 34.1334 70.3914 34.1334C70.6259 34.1334 70.8319 34.0848 71.0093 33.9875C71.1924 33.8846 71.3325 33.7444 71.4298 33.567C71.5328 33.3896 71.5843 33.1951 71.5843 32.9834V31.7819C71.5843 31.5817 71.5042 31.4157 71.344 31.2841C71.1895 31.1468 70.9835 31.0782 70.7261 31.0782C70.4858 31.0782 70.2712 31.144 70.0824 31.2756C69.8993 31.4014 69.7649 31.5702 69.679 31.7819L68.7607 31.3356C68.8523 31.0896 68.9953 30.8779 69.1898 30.7006C69.3901 30.5175 69.6247 30.3744 69.8936 30.2714C70.1625 30.1685 70.4543 30.117 70.769 30.117C71.1523 30.117 71.4899 30.1885 71.7817 30.3315C72.0735 30.4688 72.2995 30.6634 72.4597 30.9151C72.6256 31.1611 72.7086 31.4501 72.7086 31.7819V34.8887H71.6444V34.0905L71.8847 34.0734C71.7645 34.2736 71.6215 34.4424 71.4555 34.5797C71.2896 34.7113 71.1008 34.8143 70.8891 34.8887C70.6774 34.9573 70.4429 34.9917 70.1854 34.9917ZM73.7477 34.8887V30.22H74.8033V31.1383L74.7175 30.9752C74.8262 30.6948 75.0035 30.4831 75.2496 30.3401C75.5013 30.1913 75.7931 30.117 76.1249 30.117C76.4682 30.117 76.7715 30.1913 77.0346 30.3401C77.3036 30.4889 77.5124 30.6977 77.6611 30.9666C77.8099 31.2298 77.8843 31.5359 77.8843 31.8849V34.8887H76.76V32.151C76.76 31.945 76.72 31.7676 76.6399 31.6189C76.5598 31.4701 76.4482 31.3557 76.3052 31.2756C76.1678 31.1897 76.0048 31.1468 75.816 31.1468C75.6329 31.1468 75.4698 31.1897 75.3268 31.2756C75.1838 31.3557 75.0722 31.4701 74.9921 31.6189C74.912 31.7676 74.8719 31.945 74.8719 32.151V34.8887H73.7477ZM79.3176 36.7768C79.1917 36.7768 79.0687 36.7653 78.9485 36.7424C78.8284 36.7253 78.7197 36.6909 78.6224 36.6394V35.704C78.6968 35.7211 78.7855 35.7383 78.8885 35.7555C78.9972 35.7726 79.0973 35.7812 79.1888 35.7812C79.4463 35.7812 79.6323 35.7211 79.7467 35.601C79.8668 35.4866 79.9727 35.3321 80.0642 35.1376L80.3732 34.4167L80.356 35.3607L78.322 30.22H79.5321L80.9568 34.0133H80.5277L81.9437 30.22H83.1624L81.1284 35.3607C81.0083 35.6582 80.8624 35.9128 80.6907 36.1245C80.5191 36.3362 80.3188 36.4964 80.09 36.6051C79.8668 36.7195 79.6094 36.7768 79.3176 36.7768ZM83.9683 34.8887V33.6872H85.1011V34.8887H83.9683ZM88.9282 34.9917C88.4647 34.9917 88.0471 34.8858 87.6752 34.6741C87.309 34.4567 87.0201 34.1649 86.8084 33.7987C86.5967 33.4268 86.4908 33.0092 86.4908 32.5457C86.4908 32.0823 86.5967 31.6675 86.8084 31.3013C87.0201 30.9351 87.309 30.6462 87.6752 30.4345C88.0471 30.2228 88.4647 30.117 88.9282 30.117C89.26 30.117 89.569 30.177 89.855 30.2972C90.1411 30.4116 90.3871 30.5718 90.5931 30.7778C90.8048 30.9781 90.9564 31.2184 91.048 31.4987L90.061 31.9278C89.9752 31.6932 89.8293 31.5044 89.6233 31.3614C89.4231 31.2184 89.1914 31.1468 88.9282 31.1468C88.6821 31.1468 88.4619 31.2069 88.2673 31.3271C88.0785 31.4472 87.9298 31.6131 87.8211 31.8248C87.7124 32.0365 87.658 32.2797 87.658 32.5543C87.658 32.8289 87.7124 33.0721 87.8211 33.2838C87.9298 33.4955 88.0785 33.6614 88.2673 33.7816C88.4619 33.9017 88.6821 33.9618 88.9282 33.9618C89.1971 33.9618 89.4317 33.8903 89.6319 33.7472C89.8322 33.6042 89.9752 33.4125 90.061 33.1722L91.048 33.6185C90.9564 33.8817 90.8077 34.1191 90.6017 34.3308C90.3957 34.5368 90.1497 34.6999 89.8636 34.82C89.5776 34.9344 89.2657 34.9917 88.9282 34.9917ZM94.1839 34.9917C93.7262 34.9917 93.3085 34.8858 92.9309 34.6741C92.559 34.4624 92.2615 34.1735 92.0383 33.8073C91.8209 33.4411 91.7122 33.0235 91.7122 32.5543C91.7122 32.0852 91.8209 31.6675 92.0383 31.3013C92.2615 30.9351 92.559 30.6462 92.9309 30.4345C93.3028 30.2228 93.7205 30.117 94.1839 30.117C94.6416 30.117 95.0564 30.2228 95.4283 30.4345C95.8002 30.6462 96.0949 30.9351 96.3123 31.3013C96.5354 31.6618 96.647 32.0794 96.647 32.5543C96.647 33.0235 96.5354 33.4411 96.3123 33.8073C96.0891 34.1735 95.7916 34.4624 95.4197 34.6741C95.0478 34.8858 94.6359 34.9917 94.1839 34.9917ZM94.1839 33.9618C94.4356 33.9618 94.6559 33.9017 94.8447 33.7816C95.0392 33.6614 95.1909 33.4955 95.2996 33.2838C95.414 33.0664 95.4712 32.8232 95.4712 32.5543C95.4712 32.2797 95.414 32.0394 95.2996 31.8334C95.1909 31.6217 95.0392 31.4558 94.8447 31.3356C94.6559 31.2098 94.4356 31.1468 94.1839 31.1468C93.9264 31.1468 93.7004 31.2098 93.5059 31.3356C93.3114 31.4558 93.1569 31.6217 93.0425 31.8334C92.9337 32.0394 92.8794 32.2797 92.8794 32.5543C92.8794 32.8232 92.9337 33.0664 93.0425 33.2838C93.1569 33.4955 93.3114 33.6614 93.5059 33.7816C93.7004 33.9017 93.9264 33.9618 94.1839 33.9618ZM97.4996 34.8887V30.22H98.5552V31.3013L98.435 31.1211C98.5208 30.7835 98.6925 30.5318 98.95 30.3659C99.2074 30.1999 99.5107 30.117 99.8597 30.117C100.243 30.117 100.581 30.2171 100.872 30.4173C101.164 30.6176 101.353 30.8808 101.439 31.2069L101.121 31.2327C101.264 30.8608 101.479 30.5833 101.765 30.4002C102.051 30.2114 102.38 30.117 102.752 30.117C103.084 30.117 103.378 30.1913 103.636 30.3401C103.899 30.4889 104.105 30.6977 104.254 30.9666C104.403 31.2298 104.477 31.5359 104.477 31.8849V34.8887H103.353V32.151C103.353 31.945 103.315 31.7676 103.241 31.6189C103.167 31.4701 103.064 31.3557 102.932 31.2756C102.801 31.1897 102.64 31.1468 102.451 31.1468C102.274 31.1468 102.117 31.1897 101.979 31.2756C101.842 31.3557 101.736 31.4701 101.662 31.6189C101.588 31.7676 101.55 31.945 101.55 32.151V34.8887H100.426V32.151C100.426 31.945 100.389 31.7676 100.315 31.6189C100.24 31.4701 100.134 31.3557 99.997 31.2756C99.8654 31.1897 99.7081 31.1468 99.525 31.1468C99.3476 31.1468 99.1903 31.1897 99.0529 31.2756C98.9156 31.3557 98.8098 31.4701 98.7354 31.6189C98.661 31.7676 98.6238 31.945 98.6238 32.151V34.8887H97.4996Z" fill="#111827"/>
<path d="M162.458 34.9917C162 34.9917 161.577 34.9087 161.187 34.7428C160.804 34.5769 160.467 34.3451 160.175 34.0476C159.889 33.7501 159.666 33.4011 159.505 33.0006C159.345 32.6001 159.265 32.1624 159.265 31.6875C159.265 31.2126 159.342 30.7749 159.497 30.3744C159.657 29.9682 159.88 29.6192 160.166 29.3274C160.458 29.0299 160.798 28.801 161.187 28.6408C161.577 28.4749 162 28.3919 162.458 28.3919C162.915 28.3919 163.324 28.4692 163.685 28.6237C164.051 28.7781 164.36 28.9841 164.612 29.2416C164.864 29.4933 165.044 29.7708 165.152 30.0741L164.105 30.5632C163.985 30.2428 163.782 29.9797 163.496 29.7737C163.21 29.562 162.864 29.4561 162.458 29.4561C162.057 29.4561 161.702 29.5505 161.393 29.7394C161.09 29.9282 160.853 30.1885 160.681 30.5203C160.515 30.8522 160.432 31.2412 160.432 31.6875C160.432 32.1338 160.515 32.5257 160.681 32.8633C160.853 33.1951 161.09 33.4554 161.393 33.6443C161.702 33.8331 162.057 33.9275 162.458 33.9275C162.864 33.9275 163.21 33.8245 163.496 33.6185C163.782 33.4068 163.985 33.1408 164.105 32.8204L165.152 33.3095C165.044 33.6128 164.864 33.8931 164.612 34.1506C164.36 34.4023 164.051 34.6055 163.685 34.7599C163.324 34.9144 162.915 34.9917 162.458 34.9917ZM168.205 34.9917C167.747 34.9917 167.329 34.8858 166.952 34.6741C166.58 34.4624 166.282 34.1735 166.059 33.8073C165.842 33.4411 165.733 33.0235 165.733 32.5543C165.733 32.0852 165.842 31.6675 166.059 31.3013C166.282 30.9351 166.58 30.6462 166.952 30.4345C167.324 30.2228 167.741 30.117 168.205 30.117C168.662 30.117 169.077 30.2228 169.449 30.4345C169.821 30.6462 170.116 30.9351 170.333 31.3013C170.556 31.6618 170.668 32.0794 170.668 32.5543C170.668 33.0235 170.556 33.4411 170.333 33.8073C170.11 34.1735 169.812 34.4624 169.441 34.6741C169.069 34.8858 168.657 34.9917 168.205 34.9917ZM168.205 33.9618C168.456 33.9618 168.677 33.9017 168.866 33.7816C169.06 33.6614 169.212 33.4955 169.32 33.2838C169.435 33.0664 169.492 32.8232 169.492 32.5543C169.492 32.2797 169.435 32.0394 169.32 31.8334C169.212 31.6217 169.06 31.4558 168.866 31.3356C168.677 31.2098 168.456 31.1468 168.205 31.1468C167.947 31.1468 167.721 31.2098 167.527 31.3356C167.332 31.4558 167.178 31.6217 167.063 31.8334C166.955 32.0394 166.9 32.2797 166.9 32.5543C166.9 32.8232 166.955 33.0664 167.063 33.2838C167.178 33.4955 167.332 33.6614 167.527 33.7816C167.721 33.9017 167.947 33.9618 168.205 33.9618ZM171.52 34.8887V30.22H172.576V31.1383L172.49 30.9752C172.599 30.6948 172.776 30.4831 173.022 30.3401C173.274 30.1913 173.566 30.117 173.898 30.117C174.241 30.117 174.544 30.1913 174.807 30.3401C175.076 30.4889 175.285 30.6977 175.434 30.9666C175.583 31.2298 175.657 31.5359 175.657 31.8849V34.8887H174.533V32.151C174.533 31.945 174.493 31.7676 174.413 31.6189C174.332 31.4701 174.221 31.3557 174.078 31.2756C173.941 31.1897 173.777 31.1468 173.589 31.1468C173.406 31.1468 173.243 31.1897 173.099 31.2756C172.956 31.3557 172.845 31.4701 172.765 31.6189C172.685 31.7676 172.645 31.945 172.645 32.151V34.8887H171.52ZM176.608 34.8887V30.22H177.663V31.1383L177.577 30.9752C177.686 30.6948 177.864 30.4831 178.11 30.3401C178.361 30.1913 178.653 30.117 178.985 30.117C179.328 30.117 179.631 30.1913 179.895 30.3401C180.164 30.4889 180.372 30.6977 180.521 30.9666C180.67 31.2298 180.744 31.5359 180.744 31.8849V34.8887H179.62V32.151C179.62 31.945 179.58 31.7676 179.5 31.6189C179.42 31.4701 179.308 31.3557 179.165 31.2756C179.028 31.1897 178.865 31.1468 178.676 31.1468C178.493 31.1468 178.33 31.1897 178.187 31.2756C178.044 31.3557 177.932 31.4701 177.852 31.6189C177.772 31.7676 177.732 31.945 177.732 32.151V34.8887H176.608ZM183.909 34.9917C183.429 34.9917 183.008 34.883 182.648 34.6655C182.287 34.4481 182.007 34.1535 181.807 33.7816C181.606 33.4097 181.506 32.9977 181.506 32.5457C181.506 32.0766 181.606 31.6618 181.807 31.3013C182.012 30.9351 182.29 30.6462 182.639 30.4345C182.994 30.2228 183.389 30.117 183.823 30.117C184.19 30.117 184.51 30.177 184.785 30.2972C185.065 30.4173 185.302 30.5833 185.497 30.795C185.691 31.0067 185.84 31.2498 185.943 31.5245C186.046 31.7934 186.098 32.0852 186.098 32.3998C186.098 32.4799 186.092 32.5629 186.08 32.6487C186.075 32.7345 186.06 32.8089 186.038 32.8719H182.433V32.0136H185.402L184.87 32.417C184.922 32.1538 184.908 31.9192 184.827 31.7133C184.753 31.5073 184.627 31.3442 184.45 31.2241C184.278 31.1039 184.069 31.0438 183.823 31.0438C183.589 31.0438 183.38 31.1039 183.197 31.2241C183.014 31.3385 182.874 31.5101 182.776 31.739C182.685 31.9621 182.65 32.2339 182.673 32.5543C182.65 32.8404 182.688 33.095 182.785 33.3181C182.888 33.5355 183.037 33.7043 183.231 33.8245C183.431 33.9446 183.66 34.0047 183.918 34.0047C184.175 34.0047 184.393 33.9504 184.57 33.8416C184.753 33.7329 184.896 33.587 184.999 33.404L185.909 33.8502C185.817 34.0734 185.674 34.2708 185.48 34.4424C185.285 34.614 185.053 34.7485 184.785 34.8458C184.521 34.943 184.23 34.9917 183.909 34.9917ZM189.198 34.9917C188.735 34.9917 188.317 34.8858 187.945 34.6741C187.579 34.4567 187.29 34.1649 187.079 33.7987C186.867 33.4268 186.761 33.0092 186.761 32.5457C186.761 32.0823 186.867 31.6675 187.079 31.3013C187.29 30.9351 187.579 30.6462 187.945 30.4345C188.317 30.2228 188.735 30.117 189.198 30.117C189.53 30.117 189.839 30.177 190.125 30.2972C190.411 30.4116 190.657 30.5718 190.863 30.7778C191.075 30.9781 191.227 31.2184 191.318 31.4987L190.331 31.9278C190.245 31.6932 190.1 31.5044 189.894 31.3614C189.693 31.2184 189.462 31.1468 189.198 31.1468C188.952 31.1468 188.732 31.2069 188.538 31.3271C188.349 31.4472 188.2 31.6131 188.091 31.8248C187.983 32.0365 187.928 32.2797 187.928 32.5543C187.928 32.8289 187.983 33.0721 188.091 33.2838C188.2 33.4955 188.349 33.6614 188.538 33.7816C188.732 33.9017 188.952 33.9618 189.198 33.9618C189.467 33.9618 189.702 33.8903 189.902 33.7472C190.102 33.6042 190.245 33.4125 190.331 33.1722L191.318 33.6185C191.227 33.8817 191.078 34.1191 190.872 34.3308C190.666 34.5368 190.42 34.6999 190.134 34.82C189.848 34.9344 189.536 34.9917 189.198 34.9917ZM194.3 34.9402C193.773 34.9402 193.364 34.7971 193.072 34.5111C192.786 34.2193 192.643 33.8102 192.643 33.2838V31.2241H191.837V30.22H191.922C192.151 30.22 192.329 30.1599 192.454 30.0397C192.58 29.9196 192.643 29.7451 192.643 29.5162V29.1558H193.768V30.22H194.84V31.2241H193.768V33.2237C193.768 33.3782 193.793 33.5098 193.845 33.6185C193.902 33.7272 193.988 33.8102 194.102 33.8674C194.222 33.9246 194.374 33.9532 194.557 33.9532C194.597 33.9532 194.643 33.9504 194.694 33.9446C194.752 33.9389 194.806 33.9332 194.857 33.9275V34.8887C194.777 34.9001 194.686 34.9116 194.583 34.923C194.48 34.9344 194.385 34.9402 194.3 34.9402ZM197.889 34.9917C197.408 34.9917 196.988 34.883 196.627 34.6655C196.267 34.4481 195.986 34.1535 195.786 33.7816C195.586 33.4097 195.486 32.9977 195.486 32.5457C195.486 32.0766 195.586 31.6618 195.786 31.3013C195.992 30.9351 196.27 30.6462 196.619 30.4345C196.973 30.2228 197.368 30.117 197.803 30.117C198.169 30.117 198.49 30.177 198.764 30.2972C199.044 30.4173 199.282 30.5833 199.476 30.795C199.671 31.0067 199.82 31.2498 199.923 31.5245C200.026 31.7934 200.077 32.0852 200.077 32.3998C200.077 32.4799 200.071 32.5629 200.06 32.6487C200.054 32.7345 200.04 32.8089 200.017 32.8719H196.413V32.0136H199.382L198.85 32.417C198.901 32.1538 198.887 31.9192 198.807 31.7133C198.733 31.5073 198.607 31.3442 198.429 31.2241C198.258 31.1039 198.049 31.0438 197.803 31.0438C197.568 31.0438 197.36 31.1039 197.176 31.2241C196.993 31.3385 196.853 31.5101 196.756 31.739C196.664 31.9621 196.63 32.2339 196.653 32.5543C196.63 32.8404 196.667 33.095 196.764 33.3181C196.867 33.5355 197.016 33.7043 197.211 33.8245C197.411 33.9446 197.64 34.0047 197.897 34.0047C198.155 34.0047 198.372 33.9504 198.55 33.8416C198.733 33.7329 198.876 33.587 198.979 33.404L199.888 33.8502C199.797 34.0734 199.654 34.2708 199.459 34.4424C199.265 34.614 199.033 34.7485 198.764 34.8458C198.501 34.943 198.209 34.9917 197.889 34.9917ZM203.101 34.9917C202.649 34.9917 202.245 34.8858 201.891 34.6741C201.536 34.4567 201.256 34.162 201.05 33.7902C200.844 33.4183 200.741 33.0063 200.741 32.5543C200.741 32.0966 200.844 31.6847 201.05 31.3185C201.256 30.9523 201.536 30.6605 201.891 30.4431C202.251 30.2257 202.652 30.117 203.092 30.117C203.447 30.117 203.762 30.1885 204.036 30.3315C204.317 30.4688 204.537 30.6634 204.697 30.9151L204.525 31.1468V28.3919H205.65V34.8887H204.585V33.9875L204.706 34.2107C204.545 34.4624 204.322 34.657 204.036 34.7943C203.75 34.9259 203.438 34.9917 203.101 34.9917ZM203.221 33.9618C203.478 33.9618 203.704 33.9017 203.899 33.7816C204.093 33.6614 204.245 33.4955 204.354 33.2838C204.468 33.0721 204.525 32.8289 204.525 32.5543C204.525 32.2854 204.468 32.0451 204.354 31.8334C204.245 31.616 204.093 31.4472 203.899 31.3271C203.704 31.2069 203.478 31.1468 203.221 31.1468C202.969 31.1468 202.743 31.2098 202.543 31.3356C202.343 31.4558 202.185 31.6217 202.071 31.8334C201.962 32.0394 201.908 32.2797 201.908 32.5543C201.908 32.8289 201.962 33.0721 202.071 33.2838C202.185 33.4955 202.343 33.6614 202.543 33.7816C202.743 33.9017 202.969 33.9618 203.221 33.9618Z" fill="#10B981"/>
<rect x="24.8906" y="44.7539" width="181.943" height="3.43288" rx="1.71644" fill="#F3F4F6"/>
<rect x="24.8906" y="44.7539" width="181.943" height="3.43288" rx="1.71644" fill="#10B981"/>
</g>
<rect x="13.7344" y="73.0752" width="204.256" height="80.9261" rx="10.2986" fill="#5550FF"/>
<path d="M31.1027 100.157V97.7733H28.7188V93.0054H31.1027V90.6215H35.8706V93.0054H38.2545V97.7733H35.8706V100.157H31.1027ZM29.6723 94.9125H32.0563C32.1357 94.9125 32.2112 94.9324 32.2827 94.9721C32.3543 95.0119 32.4099 95.0635 32.4496 95.1271L32.8668 95.7469L33.5105 93.8159C33.5423 93.7206 33.5999 93.6411 33.6833 93.5775C33.7668 93.514 33.8601 93.4822 33.9634 93.4822C34.0429 93.4822 34.1184 93.502 34.1899 93.5418C34.2614 93.5815 34.317 93.6332 34.3568 93.6967L35.1673 94.9125H37.3009V93.959H34.917V91.575H32.0563V93.959H29.6723V94.9125ZM32.0563 99.2036H34.917V96.8197H37.3009V95.8661H34.917C34.8375 95.8661 34.762 95.8463 34.6905 95.8065C34.619 95.7668 34.5594 95.7151 34.5117 95.6516L34.1065 95.0317L33.4628 96.9627C33.431 97.0581 33.3714 97.1376 33.284 97.2011C33.1966 97.2647 33.1012 97.2965 32.9979 97.2965C32.9185 97.2965 32.843 97.2766 32.7715 97.2369C32.6999 97.1972 32.6443 97.1455 32.6046 97.0819L31.794 95.8661H29.6723V96.8197H32.0563V99.2036Z" fill="white"/>
<path d="M43.679 99.3887V91.7162H46.1816C46.9917 91.7162 47.6955 91.881 48.2928 92.2105C48.897 92.5332 49.3639 92.9829 49.6934 93.5596C50.023 94.1295 50.1877 94.792 50.1877 95.5473C50.1877 96.2956 50.023 96.9616 49.6934 97.5452C49.3639 98.1219 48.897 98.5751 48.2928 98.9046C47.6955 99.2273 46.9917 99.3887 46.1816 99.3887H43.679ZM45.0796 98.1528H46.2125C46.7343 98.1528 47.184 98.0464 47.5616 97.8336C47.9461 97.6139 48.2447 97.3118 48.4576 96.9273C48.6704 96.5359 48.7768 96.0759 48.7768 95.5473C48.7768 95.0118 48.6704 94.5517 48.4576 94.1673C48.2447 93.7828 47.9461 93.4841 47.5616 93.2713C47.184 93.0584 46.7343 92.952 46.2125 92.952H45.0796V98.1528ZM53.9286 99.5123C53.3793 99.5123 52.8781 99.3852 52.425 99.1312C51.9787 98.8772 51.6217 98.5305 51.3539 98.091C51.093 97.6516 50.9626 97.1504 50.9626 96.5874C50.9626 96.0245 51.093 95.5232 51.3539 95.0838C51.6217 94.6444 51.9787 94.2977 52.425 94.0437C52.8712 93.7896 53.3724 93.6626 53.9286 93.6626C54.4778 93.6626 54.9756 93.7896 55.4219 94.0437C55.8681 94.2977 56.2217 94.6444 56.4826 95.0838C56.7504 95.5164 56.8843 96.0176 56.8843 96.5874C56.8843 97.1504 56.7504 97.6516 56.4826 98.091C56.2149 98.5305 55.8578 98.8772 55.4116 99.1312C54.9653 99.3852 54.471 99.5123 53.9286 99.5123ZM53.9286 98.2764C54.2307 98.2764 54.495 98.2043 54.7216 98.0601C54.955 97.916 55.1369 97.7169 55.2674 97.4628C55.4047 97.2019 55.4734 96.9101 55.4734 96.5874C55.4734 96.2579 55.4047 95.9695 55.2674 95.7224C55.1369 95.4683 54.955 95.2692 54.7216 95.125C54.495 94.974 54.2307 94.8985 53.9286 94.8985C53.6196 94.8985 53.3484 94.974 53.115 95.125C52.8815 95.2692 52.6962 95.4683 52.5588 95.7224C52.4284 95.9695 52.3632 96.2579 52.3632 96.5874C52.3632 96.9101 52.4284 97.2019 52.5588 97.4628C52.6962 97.7169 52.8815 97.916 53.115 98.0601C53.3484 98.2043 53.6196 98.2764 53.9286 98.2764ZM57.9074 99.3887V93.7862H59.1741V95.0838L59.0299 94.8676C59.1329 94.4625 59.3389 94.1604 59.6478 93.9613C59.9568 93.7622 60.3207 93.6626 60.7395 93.6626C61.1995 93.6626 61.6046 93.7828 61.9547 94.0231C62.3049 94.2634 62.5315 94.5792 62.6344 94.9706L62.2534 95.0015C62.425 94.5552 62.6825 94.2222 63.0258 94.0025C63.3691 93.7759 63.7639 93.6626 64.2101 93.6626C64.6084 93.6626 64.9619 93.7519 65.2709 93.9304C65.5867 94.1089 65.8339 94.3595 66.0124 94.6822C66.1909 94.998 66.2802 95.3653 66.2802 95.7841V99.3887H64.931V96.1034C64.931 95.8562 64.8864 95.6434 64.7972 95.4649C64.7079 95.2864 64.5843 95.1491 64.4264 95.0529C64.2685 94.95 64.0763 94.8985 63.8497 94.8985C63.6369 94.8985 63.448 94.95 63.2833 95.0529C63.1185 95.1491 62.9915 95.2864 62.9022 95.4649C62.813 95.6434 62.7683 95.8562 62.7683 96.1034V99.3887H61.4192V96.1034C61.4192 95.8562 61.3746 95.6434 61.2853 95.4649C61.1961 95.2864 61.0691 95.1491 60.9043 95.0529C60.7464 94.95 60.5576 94.8985 60.3379 94.8985C60.125 94.8985 59.9362 94.95 59.7714 95.0529C59.6066 95.1491 59.4796 95.2864 59.3904 95.4649C59.3011 95.6434 59.2565 95.8562 59.2565 96.1034V99.3887H57.9074ZM69.1208 99.5123C68.7295 99.5123 68.3896 99.447 68.1013 99.3166C67.8129 99.1861 67.5898 99.0008 67.4318 98.7605C67.2739 98.5133 67.195 98.2284 67.195 97.9057C67.195 97.5967 67.2636 97.3221 67.4009 97.0818C67.5383 96.8346 67.7511 96.6286 68.0395 96.4639C68.3278 96.2991 68.6917 96.1824 69.1311 96.1137L70.9643 95.815V96.8449L69.3886 97.1127C69.1208 97.1607 68.9217 97.2466 68.7913 97.3701C68.6608 97.4937 68.5956 97.6551 68.5956 97.8542C68.5956 98.0464 68.6677 98.2009 68.8119 98.3176C68.9629 98.4275 69.1483 98.4824 69.368 98.4824C69.6495 98.4824 69.8967 98.424 70.1095 98.3073C70.3292 98.1837 70.4974 98.0155 70.6141 97.8027C70.7377 97.5898 70.7995 97.3564 70.7995 97.1024V95.6606C70.7995 95.4203 70.7034 95.2212 70.5111 95.0632C70.3258 94.8985 70.0786 94.8161 69.7696 94.8161C69.4813 94.8161 69.2238 94.895 68.9972 95.0529C68.7775 95.204 68.6162 95.4065 68.5132 95.6606L67.4112 95.125C67.5211 94.8298 67.6927 94.5758 67.9262 94.3629C68.1665 94.1432 68.448 93.9716 68.7707 93.848C69.0934 93.7244 69.4435 93.6626 69.8211 93.6626C70.2811 93.6626 70.6862 93.7485 71.0364 93.9201C71.3865 94.0849 71.6577 94.3183 71.85 94.6204C72.0491 94.9156 72.1486 95.2624 72.1486 95.6606V99.3887H70.8716V98.4309L71.1599 98.4103C71.0158 98.6506 70.8441 98.8531 70.645 99.0179C70.4459 99.1758 70.2193 99.2994 69.9653 99.3887C69.7113 99.4711 69.4298 99.5123 69.1208 99.5123ZM73.3956 99.3887V93.7862H74.7447V99.3887H73.3956ZM73.3956 93.158V91.7162H74.7447V93.158H73.3956ZM75.9903 99.3887V93.7862H77.2571V94.8882L77.1541 94.6925C77.2845 94.3561 77.4974 94.102 77.7926 93.9304C78.0947 93.7519 78.4448 93.6626 78.8431 93.6626C79.255 93.6626 79.6189 93.7519 79.9347 93.9304C80.2574 94.1089 80.508 94.3595 80.6865 94.6822C80.865 94.998 80.9543 95.3653 80.9543 95.7841V99.3887H79.6052V96.1034C79.6052 95.8562 79.5571 95.6434 79.461 95.4649C79.3649 95.2864 79.231 95.1491 79.0593 95.0529C78.8945 94.95 78.6989 94.8985 78.4723 94.8985C78.2526 94.8985 78.0569 94.95 77.8853 95.0529C77.7136 95.1491 77.5798 95.2864 77.4836 95.4649C77.3875 95.6434 77.3395 95.8562 77.3395 96.1034V99.3887H75.9903ZM84.0388 99.3887V91.7162H85.4394V95.0632H88.7041V91.7162H90.115V99.3887H88.7041V96.2991H85.4394V99.3887H84.0388ZM94.1356 99.5123C93.5588 99.5123 93.0542 99.3818 92.6217 99.1209C92.1891 98.86 91.8527 98.5064 91.6124 98.0601C91.3721 97.6139 91.2519 97.1195 91.2519 96.5771C91.2519 96.0142 91.3721 95.5164 91.6124 95.0838C91.8596 94.6444 92.1926 94.2977 92.6114 94.0437C93.037 93.7896 93.5108 93.6626 94.0326 93.6626C94.472 93.6626 94.8565 93.7347 95.186 93.8789C95.5224 94.0231 95.8074 94.2222 96.0408 94.4762C96.2742 94.7303 96.4528 95.022 96.5763 95.3516C96.6999 95.6743 96.7617 96.0245 96.7617 96.4021C96.7617 96.4982 96.7549 96.5977 96.7411 96.7007C96.7343 96.8037 96.7171 96.893 96.6896 96.9685H92.3642V95.9386H95.9275L95.289 96.4227C95.3508 96.1068 95.3336 95.8253 95.2375 95.5782C95.1483 95.331 94.9972 95.1353 94.7844 94.9912C94.5784 94.847 94.3278 94.7749 94.0326 94.7749C93.7511 94.7749 93.5005 94.847 93.2808 94.9912C93.0611 95.1285 92.8929 95.3344 92.7761 95.6091C92.6663 95.8768 92.6251 96.203 92.6526 96.5874C92.6251 96.9307 92.6697 97.2363 92.7864 97.504C92.91 97.7649 93.0885 97.9675 93.322 98.1116C93.5623 98.2558 93.8369 98.3279 94.1459 98.3279C94.4548 98.3279 94.7157 98.2627 94.9286 98.1322C95.1483 98.0018 95.3199 97.8267 95.4435 97.607L96.5351 98.1425C96.4253 98.4103 96.2537 98.6472 96.0202 98.8531C95.7868 99.0591 95.5087 99.2205 95.186 99.3372C94.8702 99.4539 94.52 99.5123 94.1356 99.5123ZM99.4636 99.5123C99.0722 99.5123 98.7324 99.447 98.444 99.3166C98.1557 99.1861 97.9325 99.0008 97.7746 98.7605C97.6167 98.5133 97.5377 98.2284 97.5377 97.9057C97.5377 97.5967 97.6064 97.3221 97.7437 97.0818C97.881 96.8346 98.0939 96.6286 98.3822 96.4639C98.6706 96.2991 99.0345 96.1824 99.4739 96.1137L101.307 95.815V96.8449L99.7313 97.1127C99.4636 97.1607 99.2645 97.2466 99.134 97.3701C99.0036 97.4937 98.9384 97.6551 98.9384 97.8542C98.9384 98.0464 99.0104 98.2009 99.1546 98.3176C99.3057 98.4275 99.491 98.4824 99.7107 98.4824C99.9922 98.4824 100.239 98.424 100.452 98.3073C100.672 98.1837 100.84 98.0155 100.957 97.8027C101.08 97.5898 101.142 97.3564 101.142 97.1024V95.6606C101.142 95.4203 101.046 95.2212 100.854 95.0632C100.669 94.8985 100.421 94.8161 100.112 94.8161C99.824 94.8161 99.5666 94.895 99.34 95.0529C99.1203 95.204 98.9589 95.4065 98.856 95.6606L97.754 95.125C97.8639 94.8298 98.0355 94.5758 98.2689 94.3629C98.5092 94.1432 98.7907 93.9716 99.1134 93.848C99.4361 93.7244 99.7863 93.6626 100.164 93.6626C100.624 93.6626 101.029 93.7485 101.379 93.9201C101.729 94.0849 102 94.3183 102.193 94.6204C102.392 94.9156 102.491 95.2624 102.491 95.6606V99.3887H101.214V98.4309L101.503 98.4103C101.359 98.6506 101.187 98.8531 100.988 99.0179C100.789 99.1758 100.562 99.2994 100.308 99.3887C100.054 99.4711 99.7725 99.5123 99.4636 99.5123ZM103.738 99.3887V91.5926H105.087V99.3887H103.738ZM108.887 99.4505C108.256 99.4505 107.765 99.2788 107.414 98.9355C107.071 98.5854 106.9 98.0945 106.9 97.4628V94.9912H105.931V93.7862H106.034C106.309 93.7862 106.522 93.7141 106.673 93.5699C106.824 93.4258 106.9 93.2164 106.9 92.9417V92.5092H108.249V93.7862H109.536V94.9912H108.249V97.3907C108.249 97.5761 108.28 97.734 108.341 97.8645C108.41 97.9949 108.513 98.0945 108.65 98.1631C108.794 98.2318 108.976 98.2661 109.196 98.2661C109.244 98.2661 109.299 98.2627 109.361 98.2558C109.43 98.249 109.495 98.2421 109.557 98.2352V99.3887C109.46 99.4024 109.351 99.4161 109.227 99.4299C109.103 99.4436 108.99 99.4505 108.887 99.4505ZM110.587 99.3887V91.5926H111.936V94.8882L111.751 94.6925C111.882 94.3561 112.094 94.102 112.39 93.9304C112.692 93.7519 113.042 93.6626 113.44 93.6626C113.852 93.6626 114.216 93.7519 114.532 93.9304C114.854 94.1089 115.105 94.3595 115.283 94.6822C115.462 94.998 115.551 95.3653 115.551 95.7841V99.3887H114.202V96.1034C114.202 95.8562 114.154 95.6434 114.058 95.4649C113.962 95.2864 113.828 95.1491 113.656 95.0529C113.492 94.95 113.296 94.8985 113.069 94.8985C112.85 94.8985 112.654 94.95 112.482 95.0529C112.311 95.1491 112.177 95.2864 112.081 95.4649C111.984 95.6434 111.936 95.8562 111.936 96.1034V99.3887H110.587Z" fill="white"/>
<g opacity="0.9">
<path d="M29.7945 119.953C29.5199 119.953 29.2739 119.89 29.0565 119.764C28.839 119.638 28.6674 119.467 28.5415 119.249C28.4157 119.032 28.3527 118.786 28.3527 118.511C28.3527 118.248 28.4128 118.013 28.5329 117.807C28.6588 117.596 28.8305 117.43 29.0479 117.31C29.2653 117.184 29.5142 117.121 29.7945 117.121C30.0577 117.121 30.2923 117.184 30.4983 117.31C30.7042 117.43 30.8673 117.596 30.9875 117.807C31.1133 118.019 31.1791 118.254 31.1848 118.511C31.1848 118.786 31.1219 119.032 30.996 119.249C30.8759 119.467 30.71 119.638 30.4983 119.764C30.2923 119.89 30.0577 119.953 29.7945 119.953ZM34.2835 120.837V114.443H36.9697C37.3302 114.443 37.642 114.512 37.9052 114.649C38.1741 114.781 38.3801 114.967 38.5231 115.207C38.6718 115.447 38.7462 115.728 38.7462 116.048C38.7462 116.38 38.6633 116.675 38.4973 116.932C38.3371 117.184 38.1054 117.375 37.8022 117.507L37.7936 117.301C38.0453 117.393 38.2599 117.521 38.4373 117.687C38.6204 117.853 38.7605 118.048 38.8578 118.271C38.9551 118.488 39.0037 118.723 39.0037 118.975C39.0037 119.547 38.8206 120.002 38.4544 120.339C38.094 120.671 37.6019 120.837 36.9783 120.837H34.2835ZM34.9701 120.193H36.9783C37.3845 120.193 37.7078 120.087 37.9481 119.876C38.1941 119.658 38.3171 119.361 38.3171 118.983C38.3171 118.611 38.1941 118.317 37.9481 118.099C37.7078 117.876 37.3845 117.764 36.9783 117.764H34.9701V120.193ZM34.9701 117.147H36.9182C37.2615 117.147 37.5361 117.046 37.7421 116.846C37.9538 116.646 38.0597 116.388 38.0597 116.074C38.0597 115.753 37.9538 115.51 37.7421 115.344C37.5361 115.173 37.2615 115.087 36.9182 115.087H34.9701V117.147ZM40.1396 120.837V114.34H40.7833V120.837H40.1396ZM43.431 120.94C43.1392 120.94 42.8789 120.886 42.6501 120.777C42.4212 120.662 42.241 120.508 42.1094 120.313C41.9778 120.119 41.912 119.896 41.912 119.644C41.912 119.404 41.9635 119.186 42.0665 118.992C42.1695 118.791 42.3297 118.623 42.5471 118.485C42.7645 118.348 43.042 118.251 43.3795 118.194L45.1818 117.893V118.477L43.534 118.751C43.2022 118.809 42.9619 118.915 42.8131 119.069C42.6701 119.223 42.5986 119.407 42.5986 119.618C42.5986 119.824 42.6787 119.999 42.8389 120.142C43.0048 120.285 43.2165 120.356 43.4739 120.356C43.7886 120.356 44.0633 120.291 44.2978 120.159C44.5324 120.022 44.7155 119.839 44.8471 119.61C44.9787 119.381 45.0445 119.126 45.0445 118.846V117.679C45.0445 117.404 44.9444 117.181 44.7441 117.009C44.5439 116.838 44.2835 116.752 43.9631 116.752C43.6828 116.752 43.4368 116.823 43.2251 116.966C43.0134 117.104 42.856 117.284 42.753 117.507L42.1695 117.189C42.2553 116.995 42.3897 116.818 42.5728 116.657C42.7616 116.497 42.9762 116.371 43.2165 116.28C43.4568 116.183 43.7057 116.134 43.9631 116.134C44.3007 116.134 44.5982 116.2 44.8557 116.331C45.1189 116.463 45.322 116.646 45.465 116.881C45.6138 117.109 45.6882 117.375 45.6882 117.679V120.837H45.0445V119.919L45.1389 120.013C45.0588 120.185 44.9329 120.342 44.7613 120.485C44.5954 120.622 44.398 120.734 44.1691 120.82C43.946 120.9 43.6999 120.94 43.431 120.94ZM49.1147 120.94C48.6627 120.94 48.2651 120.834 47.9218 120.622C47.5785 120.411 47.3096 120.125 47.1151 119.764C46.9205 119.398 46.8233 118.986 46.8233 118.528C46.8233 118.071 46.9205 117.662 47.1151 117.301C47.3096 116.941 47.5785 116.657 47.9218 116.451C48.2651 116.24 48.6627 116.134 49.1147 116.134C49.4008 116.134 49.6697 116.185 49.9215 116.288C50.1732 116.391 50.3963 116.532 50.5909 116.709C50.7854 116.881 50.9313 117.081 51.0286 117.31L50.445 117.61C50.3305 117.364 50.156 117.164 49.9215 117.009C49.6869 116.855 49.418 116.778 49.1147 116.778C48.8115 116.778 48.5369 116.855 48.2908 117.009C48.0505 117.158 47.8589 117.367 47.7158 117.636C47.5785 117.899 47.5099 118.199 47.5099 118.537C47.5099 118.869 47.5785 119.169 47.7158 119.438C47.8589 119.701 48.0505 119.91 48.2908 120.065C48.5369 120.219 48.8115 120.296 49.1147 120.296C49.418 120.296 49.684 120.219 49.9129 120.065C50.1475 119.91 50.3248 119.704 50.445 119.447L51.0286 119.764C50.9313 119.987 50.7854 120.188 50.5909 120.365C50.3963 120.542 50.1732 120.682 49.9215 120.785C49.6697 120.888 49.4008 120.94 49.1147 120.94ZM52.1581 120.837V114.34H52.8017V118.889L52.5271 118.846L55.1103 116.237H55.9428L54.1405 118.082L56.1059 120.837H55.3335L53.4883 118.288L53.9002 118.322L52.5872 119.678L52.8017 119.146V120.837H52.1581ZM56.8598 120.837V114.34H57.5035V120.837H56.8598ZM58.821 120.837V116.237H59.4647V120.837H58.821ZM58.821 115.387V114.443H59.4647V115.387H58.821ZM62.3784 120.94C61.9379 120.94 61.5517 120.828 61.2199 120.605C60.888 120.382 60.6477 120.079 60.4989 119.695L61.0396 119.438C61.1712 119.718 61.3543 119.942 61.5889 120.107C61.8292 120.273 62.0924 120.356 62.3784 120.356C62.6531 120.356 62.8848 120.291 63.0736 120.159C63.2624 120.022 63.3568 119.844 63.3568 119.627C63.3568 119.467 63.311 119.341 63.2195 119.249C63.128 119.152 63.0221 119.078 62.902 119.026C62.7818 118.975 62.676 118.937 62.5844 118.915L61.9236 118.726C61.5002 118.606 61.1941 118.437 61.0053 118.219C60.8165 118.002 60.7221 117.75 60.7221 117.464C60.7221 117.195 60.7907 116.961 60.9281 116.76C61.0654 116.56 61.2513 116.406 61.4859 116.297C61.7205 116.188 61.9808 116.134 62.2669 116.134C62.6559 116.134 63.0078 116.237 63.3225 116.443C63.6429 116.643 63.8689 116.923 64.0005 117.284L63.4512 117.541C63.3368 117.284 63.1709 117.084 62.9535 116.941C62.7418 116.792 62.5043 116.717 62.2411 116.717C61.9837 116.717 61.7777 116.783 61.6232 116.915C61.4687 117.046 61.3915 117.212 61.3915 117.413C61.3915 117.567 61.4315 117.69 61.5116 117.782C61.5917 117.873 61.6833 117.942 61.7863 117.988C61.895 118.033 61.9894 118.068 62.0695 118.091L62.8333 118.314C63.2052 118.422 63.4941 118.591 63.7001 118.82C63.9118 119.049 64.0176 119.318 64.0176 119.627C64.0176 119.879 63.9461 120.105 63.8031 120.305C63.6658 120.505 63.4741 120.662 63.2281 120.777C62.9821 120.886 62.6989 120.94 62.3784 120.94ZM66.908 120.888C66.4961 120.888 66.1786 120.768 65.9554 120.528C65.7323 120.288 65.6207 119.944 65.6207 119.498V116.881H64.7711V116.237H64.9856C65.1802 116.237 65.3346 116.174 65.4491 116.048C65.5635 115.916 65.6207 115.753 65.6207 115.559V115.173H66.2644V116.237H67.2771V116.881H66.2644V119.498C66.2644 119.653 66.2873 119.79 66.333 119.91C66.3788 120.024 66.456 120.116 66.5647 120.185C66.6792 120.253 66.8308 120.288 67.0196 120.288C67.0654 120.288 67.1197 120.285 67.1827 120.279C67.2456 120.273 67.3 120.268 67.3457 120.262V120.837C67.2771 120.854 67.1998 120.866 67.114 120.871C67.0282 120.883 66.9595 120.888 66.908 120.888ZM71.5306 120.94C71.09 120.94 70.7038 120.828 70.372 120.605C70.0401 120.382 69.7998 120.079 69.6511 119.695L70.1917 119.438C70.3233 119.718 70.5064 119.942 70.741 120.107C70.9813 120.273 71.2445 120.356 71.5306 120.356C71.8052 120.356 72.0369 120.291 72.2257 120.159C72.4145 120.022 72.5089 119.844 72.5089 119.627C72.5089 119.467 72.4632 119.341 72.3716 119.249C72.2801 119.152 72.1742 119.078 72.0541 119.026C71.9339 118.975 71.8281 118.937 71.7365 118.915L71.0757 118.726C70.6523 118.606 70.3462 118.437 70.1574 118.219C69.9686 118.002 69.8742 117.75 69.8742 117.464C69.8742 117.195 69.9428 116.961 70.0802 116.76C70.2175 116.56 70.4034 116.406 70.638 116.297C70.8726 116.188 71.1329 116.134 71.419 116.134C71.808 116.134 72.1599 116.237 72.4746 116.443C72.795 116.643 73.021 116.923 73.1526 117.284L72.6033 117.541C72.4889 117.284 72.323 117.084 72.1056 116.941C71.8939 116.792 71.6564 116.717 71.3932 116.717C71.1358 116.717 70.9298 116.783 70.7753 116.915C70.6208 117.046 70.5436 117.212 70.5436 117.413C70.5436 117.567 70.5837 117.69 70.6638 117.782C70.7439 117.873 70.8354 117.942 70.9384 117.988C71.0471 118.033 71.1415 118.068 71.2216 118.091L71.9854 118.314C72.3573 118.422 72.6462 118.591 72.8522 118.82C73.0639 119.049 73.1698 119.318 73.1698 119.627C73.1698 119.879 73.0982 120.105 72.9552 120.305C72.8179 120.505 72.6262 120.662 72.3802 120.777C72.1342 120.886 71.851 120.94 71.5306 120.94ZM76.0601 120.888C75.6482 120.888 75.3307 120.768 75.1075 120.528C74.8844 120.288 74.7728 119.944 74.7728 119.498V116.881H73.9232V116.237H74.1377C74.3323 116.237 74.4867 116.174 74.6012 116.048C74.7156 115.916 74.7728 115.753 74.7728 115.559V115.173H75.4165V116.237H76.4292V116.881H75.4165V119.498C75.4165 119.653 75.4394 119.79 75.4851 119.91C75.5309 120.024 75.6081 120.116 75.7169 120.185C75.8313 120.253 75.9829 120.288 76.1717 120.288C76.2175 120.288 76.2718 120.285 76.3348 120.279C76.3977 120.273 76.4521 120.268 76.4978 120.262V120.837C76.4292 120.854 76.3519 120.866 76.2661 120.871C76.1803 120.883 76.1116 120.888 76.0601 120.888ZM78.8745 120.94C78.5827 120.94 78.3224 120.886 78.0935 120.777C77.8647 120.662 77.6844 120.508 77.5528 120.313C77.4213 120.119 77.3555 119.896 77.3555 119.644C77.3555 119.404 77.4069 119.186 77.5099 118.992C77.6129 118.791 77.7731 118.623 77.9905 118.485C78.208 118.348 78.4854 118.251 78.823 118.194L80.6253 117.893V118.477L78.9775 118.751C78.6456 118.809 78.4053 118.915 78.2566 119.069C78.1135 119.223 78.042 119.407 78.042 119.618C78.042 119.824 78.1221 119.999 78.2823 120.142C78.4483 120.285 78.6599 120.356 78.9174 120.356C79.2321 120.356 79.5067 120.291 79.7413 120.159C79.9759 120.022 80.159 119.839 80.2906 119.61C80.4222 119.381 80.488 119.126 80.488 118.846V117.679C80.488 117.404 80.3878 117.181 80.1876 117.009C79.9873 116.838 79.727 116.752 79.4066 116.752C79.1262 116.752 78.8802 116.823 78.6685 116.966C78.4568 117.104 78.2995 117.284 78.1965 117.507L77.6129 117.189C77.6987 116.995 77.8332 116.818 78.0163 116.657C78.2051 116.497 78.4196 116.371 78.6599 116.28C78.9003 116.183 79.1491 116.134 79.4066 116.134C79.7442 116.134 80.0417 116.2 80.2991 116.331C80.5623 116.463 80.7654 116.646 80.9085 116.881C81.0572 117.109 81.1316 117.375 81.1316 117.679V120.837H80.488V119.919L80.5824 120.013C80.5023 120.185 80.3764 120.342 80.2047 120.485C80.0388 120.622 79.8414 120.734 79.6126 120.82C79.3894 120.9 79.1434 120.94 78.8745 120.94ZM84.1311 120.888C83.7192 120.888 83.4016 120.768 83.1785 120.528C82.9553 120.288 82.8438 119.944 82.8438 119.498V116.881H81.9941V116.237H82.2087C82.4032 116.237 82.5577 116.174 82.6721 116.048C82.7866 115.916 82.8438 115.753 82.8438 115.559V115.173H83.4874V116.237H84.5001V116.881H83.4874V119.498C83.4874 119.653 83.5103 119.79 83.5561 119.91C83.6019 120.024 83.6791 120.116 83.7878 120.185C83.9022 120.253 84.0539 120.288 84.2427 120.288C84.2884 120.288 84.3428 120.285 84.4057 120.279C84.4687 120.273 84.523 120.268 84.5688 120.262V120.837C84.5001 120.854 84.4229 120.866 84.3371 120.871C84.2512 120.883 84.1826 120.888 84.1311 120.888ZM87.3296 120.94C87.0092 120.94 86.7174 120.866 86.4543 120.717C86.1911 120.562 85.9822 120.351 85.8278 120.082C85.679 119.807 85.6046 119.492 85.6046 119.138V116.237H86.2483V119.06C86.2483 119.306 86.2969 119.524 86.3942 119.713C86.4972 119.896 86.6373 120.039 86.8147 120.142C86.9978 120.245 87.2066 120.296 87.4412 120.296C87.6758 120.296 87.8846 120.245 88.0677 120.142C88.2508 120.033 88.3938 119.881 88.4968 119.687C88.5998 119.487 88.6513 119.249 88.6513 118.975V116.237H89.295V120.837H88.6513V119.944L88.7972 119.979C88.6885 120.276 88.5025 120.511 88.2394 120.682C87.9762 120.854 87.6729 120.94 87.3296 120.94ZM92.215 120.94C91.7744 120.94 91.3882 120.828 91.0564 120.605C90.7246 120.382 90.4842 120.079 90.3355 119.695L90.8762 119.438C91.0078 119.718 91.1909 119.942 91.4254 120.107C91.6657 120.273 91.9289 120.356 92.215 120.356C92.4896 120.356 92.7213 120.291 92.9102 120.159C93.099 120.022 93.1934 119.844 93.1934 119.627C93.1934 119.467 93.1476 119.341 93.056 119.249C92.9645 119.152 92.8587 119.078 92.7385 119.026C92.6184 118.975 92.5125 118.937 92.421 118.915L91.7601 118.726C91.3367 118.606 91.0306 118.437 90.8418 118.219C90.653 118.002 90.5586 117.75 90.5586 117.464C90.5586 117.195 90.6273 116.961 90.7646 116.76C90.9019 116.56 91.0879 116.406 91.3224 116.297C91.557 116.188 91.8174 116.134 92.1034 116.134C92.4925 116.134 92.8444 116.237 93.159 116.443C93.4794 116.643 93.7054 116.923 93.837 117.284L93.2878 117.541C93.1733 117.284 93.0074 117.084 92.79 116.941C92.5783 116.792 92.3409 116.717 92.0777 116.717C91.8202 116.717 91.6142 116.783 91.4598 116.915C91.3053 117.046 91.228 117.212 91.228 117.413C91.228 117.567 91.2681 117.69 91.3482 117.782C91.4283 117.873 91.5198 117.942 91.6228 117.988C91.7315 118.033 91.8259 118.068 91.906 118.091L92.6698 118.314C93.0417 118.422 93.3307 118.591 93.5367 118.82C93.7483 119.049 93.8542 119.318 93.8542 119.627C93.8542 119.879 93.7827 120.105 93.6396 120.305C93.5023 120.505 93.3107 120.662 93.0646 120.777C92.8186 120.886 92.5354 120.94 92.215 120.94ZM97.6708 120.837L95.8771 116.237H96.598L98.1085 120.27H97.8768L99.3958 116.237H100.125L98.3145 120.837H97.6708ZM102.887 120.94C102.458 120.94 102.069 120.837 101.72 120.631C101.377 120.419 101.105 120.13 100.905 119.764C100.705 119.398 100.604 118.983 100.604 118.52C100.604 118.056 100.702 117.647 100.896 117.292C101.091 116.932 101.354 116.649 101.686 116.443C102.023 116.237 102.401 116.134 102.819 116.134C103.151 116.134 103.445 116.197 103.703 116.323C103.966 116.443 104.189 116.609 104.372 116.82C104.555 117.026 104.695 117.261 104.793 117.524C104.89 117.782 104.938 118.048 104.938 118.322C104.938 118.38 104.936 118.445 104.93 118.52C104.924 118.588 104.916 118.66 104.904 118.734H101.016V118.134H104.535L104.226 118.391C104.278 118.076 104.24 117.796 104.115 117.55C103.994 117.298 103.82 117.101 103.591 116.958C103.362 116.809 103.105 116.735 102.819 116.735C102.533 116.735 102.267 116.809 102.021 116.958C101.78 117.107 101.591 117.315 101.454 117.584C101.317 117.847 101.262 118.162 101.291 118.528C101.262 118.894 101.32 119.215 101.463 119.49C101.611 119.758 101.812 119.967 102.063 120.116C102.321 120.265 102.596 120.339 102.887 120.339C103.225 120.339 103.508 120.259 103.737 120.099C103.966 119.939 104.152 119.738 104.295 119.498L104.844 119.79C104.753 119.996 104.612 120.188 104.424 120.365C104.235 120.537 104.009 120.677 103.746 120.785C103.488 120.888 103.202 120.94 102.887 120.94ZM106.073 120.837V116.237H106.717V116.992L106.631 116.881C106.74 116.663 106.903 116.491 107.12 116.366C107.344 116.24 107.612 116.177 107.927 116.177H108.219V116.82H107.816C107.484 116.82 107.218 116.923 107.017 117.129C106.817 117.335 106.717 117.627 106.717 118.005V120.837H106.073ZM108.973 120.837V116.237H109.617V120.837H108.973ZM108.973 115.387V114.443H109.617V115.387H108.973ZM111.406 120.837V116.881H110.488V116.237H111.406V115.825C111.406 115.505 111.478 115.236 111.621 115.018C111.764 114.795 111.953 114.626 112.187 114.512C112.422 114.397 112.674 114.34 112.943 114.34C113 114.34 113.066 114.346 113.14 114.357C113.214 114.363 113.274 114.372 113.32 114.383V114.967C113.28 114.955 113.226 114.95 113.157 114.95C113.089 114.944 113.04 114.941 113.011 114.941C112.737 114.941 112.508 115.007 112.325 115.138C112.142 115.27 112.05 115.499 112.05 115.825V116.237H114.633V116.881H112.05V120.837H111.406ZM114.093 120.837V116.237H114.736V120.837H114.093ZM118.024 120.94C117.594 120.94 117.205 120.837 116.856 120.631C116.513 120.419 116.241 120.13 116.041 119.764C115.841 119.398 115.741 118.983 115.741 118.52C115.741 118.056 115.838 117.647 116.032 117.292C116.227 116.932 116.49 116.649 116.822 116.443C117.16 116.237 117.537 116.134 117.955 116.134C118.287 116.134 118.581 116.197 118.839 116.323C119.102 116.443 119.325 116.609 119.508 116.82C119.691 117.026 119.832 117.261 119.929 117.524C120.026 117.782 120.075 118.048 120.075 118.322C120.075 118.38 120.072 118.445 120.066 118.52C120.06 118.588 120.052 118.66 120.04 118.734H116.153V118.134H119.671L119.362 118.391C119.414 118.076 119.377 117.796 119.251 117.55C119.131 117.298 118.956 117.101 118.727 116.958C118.498 116.809 118.241 116.735 117.955 116.735C117.669 116.735 117.403 116.809 117.157 116.958C116.916 117.107 116.728 117.315 116.59 117.584C116.453 117.847 116.399 118.162 116.427 118.528C116.399 118.894 116.456 119.215 116.599 119.49C116.748 119.758 116.948 119.967 117.2 120.116C117.457 120.265 117.732 120.339 118.024 120.339C118.361 120.339 118.644 120.259 118.873 120.099C119.102 119.939 119.288 119.738 119.431 119.498L119.98 119.79C119.889 119.996 119.749 120.188 119.56 120.365C119.371 120.537 119.145 120.677 118.882 120.785C118.624 120.888 118.338 120.94 118.024 120.94ZM123.286 120.94C122.857 120.94 122.471 120.837 122.128 120.631C121.785 120.419 121.513 120.133 121.313 119.773C121.118 119.407 121.021 118.995 121.021 118.537C121.021 118.073 121.118 117.662 121.313 117.301C121.513 116.941 121.782 116.657 122.119 116.451C122.463 116.24 122.852 116.134 123.286 116.134C123.681 116.134 124.033 116.22 124.342 116.391C124.651 116.563 124.894 116.795 125.072 117.086L124.969 117.267V114.34H125.612V120.837H124.969V119.807L125.072 119.901C124.911 120.233 124.671 120.491 124.351 120.674C124.036 120.851 123.681 120.94 123.286 120.94ZM123.321 120.296C123.63 120.296 123.907 120.219 124.153 120.065C124.405 119.91 124.602 119.701 124.745 119.438C124.894 119.169 124.969 118.869 124.969 118.537C124.969 118.205 124.894 117.908 124.745 117.644C124.602 117.375 124.405 117.164 124.153 117.009C123.907 116.855 123.63 116.778 123.321 116.778C123.018 116.778 122.743 116.855 122.497 117.009C122.251 117.164 122.056 117.373 121.913 117.636C121.776 117.899 121.707 118.199 121.707 118.537C121.707 118.869 121.776 119.169 121.913 119.438C122.056 119.701 122.248 119.91 122.488 120.065C122.734 120.219 123.012 120.296 123.321 120.296Z" fill="white"/>
<path d="M29.7945 136.386C29.5199 136.386 29.2739 136.323 29.0565 136.197C28.839 136.071 28.6674 135.899 28.5415 135.682C28.4157 135.464 28.3527 135.218 28.3527 134.944C28.3527 134.681 28.4128 134.446 28.5329 134.24C28.6588 134.028 28.8305 133.862 29.0479 133.742C29.2653 133.616 29.5142 133.553 29.7945 133.553C30.0577 133.553 30.2923 133.616 30.4983 133.742C30.7042 133.862 30.8673 134.028 30.9875 134.24C31.1133 134.452 31.1791 134.686 31.1848 134.944C31.1848 135.218 31.1219 135.464 30.996 135.682C30.8759 135.899 30.71 136.071 30.4983 136.197C30.2923 136.323 30.0577 136.386 29.7945 136.386ZM35.0816 137.27V131.477H33.8801V130.876H35.7682V137.27H35.0816ZM39.8627 137.373C39.3592 137.373 38.9158 137.235 38.5325 136.961C38.1549 136.68 37.8602 136.294 37.6485 135.802C37.4368 135.304 37.331 134.726 37.331 134.068C37.331 133.41 37.4368 132.835 37.6485 132.343C37.8602 131.846 38.1549 131.459 38.5325 131.185C38.9101 130.91 39.3506 130.773 39.8541 130.773C40.3576 130.773 40.7982 130.91 41.1758 131.185C41.5534 131.459 41.8481 131.846 42.0598 132.343C42.2715 132.835 42.3773 133.41 42.3773 134.068C42.3773 134.726 42.2715 135.304 42.0598 135.802C41.8538 136.3 41.562 136.686 41.1844 136.961C40.8068 137.235 40.3662 137.373 39.8627 137.373ZM39.8627 136.729C40.2289 136.729 40.5493 136.617 40.8239 136.394C41.0986 136.171 41.3131 135.862 41.4676 135.467C41.6221 135.067 41.6993 134.6 41.6993 134.068C41.6993 133.536 41.6221 133.073 41.4676 132.678C41.3131 132.278 41.0986 131.969 40.8239 131.751C40.5493 131.528 40.226 131.416 39.8541 131.416C39.488 131.416 39.1676 131.528 38.8929 131.751C38.6183 131.969 38.4037 132.278 38.2493 132.678C38.0948 133.073 38.0175 133.536 38.0175 134.068C38.0175 134.595 38.0948 135.058 38.2493 135.459C38.4037 135.859 38.6183 136.171 38.8929 136.394C39.1733 136.617 39.4965 136.729 39.8627 136.729ZM46.1485 137.373C45.645 137.373 45.2016 137.235 44.8183 136.961C44.4406 136.68 44.146 136.294 43.9343 135.802C43.7226 135.304 43.6168 134.726 43.6168 134.068C43.6168 133.41 43.7226 132.835 43.9343 132.343C44.146 131.846 44.4406 131.459 44.8183 131.185C45.1959 130.91 45.6364 130.773 46.1399 130.773C46.6434 130.773 47.084 130.91 47.4616 131.185C47.8392 131.459 48.1339 131.846 48.3455 132.343C48.5572 132.835 48.6631 133.41 48.6631 134.068C48.6631 134.726 48.5572 135.304 48.3455 135.802C48.1396 136.3 47.8478 136.686 47.4702 136.961C47.0925 137.235 46.652 137.373 46.1485 137.373ZM46.1485 136.729C46.5147 136.729 46.8351 136.617 47.1097 136.394C47.3843 136.171 47.5989 135.862 47.7534 135.467C47.9079 135.067 47.9851 134.6 47.9851 134.068C47.9851 133.536 47.9079 133.073 47.7534 132.678C47.5989 132.278 47.3843 131.969 47.1097 131.751C46.8351 131.528 46.5118 131.416 46.1399 131.416C45.7737 131.416 45.4533 131.528 45.1787 131.751C44.9041 131.969 44.6895 132.278 44.5351 132.678C44.3806 133.073 44.3033 133.536 44.3033 134.068C44.3033 134.595 44.3806 135.058 44.5351 135.459C44.6895 135.859 44.9041 136.171 45.1787 136.394C45.4591 136.617 45.7823 136.729 46.1485 136.729ZM50.469 137.27L55.7041 130.876H56.5366L51.3014 137.27H50.469ZM51.4044 134.12C51.0955 134.12 50.8151 134.045 50.5634 133.897C50.3116 133.742 50.1085 133.539 49.954 133.287C49.8053 133.036 49.7309 132.755 49.7309 132.446C49.7309 132.137 49.8053 131.857 49.954 131.605C50.1085 131.348 50.3116 131.145 50.5634 130.996C50.8151 130.847 51.0955 130.773 51.4044 130.773C51.7134 130.773 51.9937 130.847 52.2455 130.996C52.4972 131.145 52.6975 131.348 52.8462 131.605C52.995 131.857 53.0694 132.137 53.0694 132.446C53.0694 132.755 52.995 133.036 52.8462 133.287C52.6975 133.539 52.4972 133.742 52.2455 133.897C51.9937 134.045 51.7134 134.12 51.4044 134.12ZM51.4044 133.502C51.6047 133.502 51.7792 133.453 51.9279 133.356C52.0824 133.253 52.2026 133.121 52.2884 132.961C52.3799 132.795 52.4257 132.624 52.4257 132.446C52.4257 132.263 52.3799 132.092 52.2884 131.931C52.2026 131.771 52.0824 131.642 51.9279 131.545C51.7792 131.442 51.6047 131.391 51.4044 131.391C51.2099 131.391 51.0325 131.442 50.8723 131.545C50.7179 131.642 50.5948 131.771 50.5033 131.931C50.4175 132.092 50.3746 132.263 50.3746 132.446C50.3746 132.624 50.4175 132.795 50.5033 132.961C50.5948 133.121 50.7179 133.253 50.8723 133.356C51.0325 133.453 51.2099 133.502 51.4044 133.502ZM55.5239 137.373C55.2149 137.373 54.9346 137.298 54.6828 137.149C54.4311 136.995 54.228 136.792 54.0735 136.54C53.9247 136.288 53.8504 136.008 53.8504 135.699C53.8504 135.39 53.9247 135.11 54.0735 134.858C54.228 134.6 54.4311 134.397 54.6828 134.249C54.9346 134.1 55.2149 134.025 55.5239 134.025C55.8328 134.025 56.1132 134.1 56.3649 134.249C56.6167 134.397 56.8169 134.6 56.9657 134.858C57.1145 135.11 57.1888 135.39 57.1888 135.699C57.1888 136.008 57.1145 136.288 56.9657 136.54C56.8169 136.792 56.6167 136.995 56.3649 137.149C56.1132 137.298 55.8328 137.373 55.5239 137.373ZM55.5239 136.755C55.7241 136.755 55.8986 136.706 56.0474 136.609C56.2019 136.506 56.322 136.374 56.4079 136.214C56.4994 136.048 56.5452 135.876 56.5452 135.699C56.5452 135.516 56.4994 135.344 56.4079 135.184C56.322 135.024 56.2019 134.895 56.0474 134.798C55.8986 134.695 55.7241 134.643 55.5239 134.643C55.3294 134.643 55.152 134.695 54.9918 134.798C54.8373 134.895 54.7143 135.024 54.6228 135.184C54.5369 135.344 54.494 135.516 54.494 135.699C54.494 135.876 54.5369 136.048 54.6228 136.214C54.7143 136.374 54.8373 136.506 54.9918 136.609C55.152 136.706 55.3294 136.755 55.5239 136.755ZM60.2317 137.27V133.313H59.3134V132.669H60.2317V132.258C60.2317 131.937 60.3032 131.668 60.4462 131.451C60.5893 131.228 60.7781 131.059 61.0127 130.944C61.2473 130.83 61.499 130.773 61.7679 130.773C61.8251 130.773 61.8909 130.779 61.9653 130.79C62.0397 130.796 62.0997 130.804 62.1455 130.816V131.399C62.1055 131.388 62.0511 131.382 61.9825 131.382C61.9138 131.376 61.8652 131.374 61.8366 131.374C61.5619 131.374 61.3331 131.439 61.15 131.571C60.9669 131.703 60.8754 131.931 60.8754 132.258V132.669H61.9996V133.313H60.8754V137.27H60.2317ZM63.045 137.27V132.669H63.6887V133.425L63.6029 133.313C63.7116 133.096 63.8747 132.924 64.0921 132.798C64.3152 132.672 64.5841 132.609 64.8988 132.609H65.1906V133.253H64.7872C64.4554 133.253 64.1893 133.356 63.9891 133.562C63.7888 133.768 63.6887 134.06 63.6887 134.437V137.27H63.045ZM68.0389 137.373C67.6098 137.373 67.2208 137.27 66.8718 137.064C66.5285 136.852 66.2567 136.563 66.0565 136.197C65.8562 135.831 65.7561 135.416 65.7561 134.952C65.7561 134.489 65.8533 134.08 66.0479 133.725C66.2424 133.365 66.5056 133.081 66.8374 132.875C67.175 132.669 67.5526 132.566 67.9703 132.566C68.3021 132.566 68.5968 132.629 68.8543 132.755C69.1174 132.875 69.3406 133.041 69.5237 133.253C69.7068 133.459 69.8469 133.694 69.9442 133.957C70.0415 134.214 70.0901 134.48 70.0901 134.755C70.0901 134.812 70.0872 134.878 70.0815 134.952C70.0758 135.021 70.0672 135.093 70.0558 135.167H66.168V134.566H69.6867L69.3778 134.824C69.4293 134.509 69.3921 134.229 69.2662 133.983C69.146 133.731 68.9715 133.533 68.7427 133.39C68.5138 133.242 68.2564 133.167 67.9703 133.167C67.6842 133.167 67.4182 133.242 67.1721 133.39C66.9318 133.539 66.743 133.748 66.6057 134.017C66.4684 134.28 66.414 134.595 66.4427 134.961C66.414 135.327 66.4713 135.647 66.6143 135.922C66.7631 136.191 66.9633 136.4 67.2151 136.549C67.4725 136.697 67.7471 136.772 68.0389 136.772C68.3765 136.772 68.6597 136.692 68.8886 136.531C69.1174 136.371 69.3034 136.171 69.4464 135.931L69.9957 136.223C69.9041 136.428 69.764 136.62 69.5752 136.798C69.3863 136.969 69.1604 137.109 68.8972 137.218C68.6397 137.321 68.3536 137.373 68.0389 137.373ZM72.8212 137.373C72.3807 137.373 71.9945 137.261 71.6626 137.038C71.3308 136.815 71.0905 136.511 70.9417 136.128L71.4824 135.871C71.614 136.151 71.7971 136.374 72.0317 136.54C72.272 136.706 72.5352 136.789 72.8212 136.789C73.0959 136.789 73.3276 136.723 73.5164 136.592C73.7052 136.454 73.7996 136.277 73.7996 136.059C73.7996 135.899 73.7538 135.773 73.6623 135.682C73.5707 135.585 73.4649 135.51 73.3447 135.459C73.2246 135.407 73.1188 135.37 73.0272 135.347L72.3664 135.158C71.943 135.038 71.6369 134.869 71.4481 134.652C71.2593 134.435 71.1649 134.183 71.1649 133.897C71.1649 133.628 71.2335 133.393 71.3708 133.193C71.5082 132.993 71.6941 132.838 71.9287 132.73C72.1633 132.621 72.4236 132.566 72.7097 132.566C73.0987 132.566 73.4506 132.669 73.7653 132.875C74.0857 133.076 74.3117 133.356 74.4433 133.717L73.894 133.974C73.7796 133.717 73.6137 133.516 73.3962 133.373C73.1845 133.224 72.9471 133.15 72.6839 133.15C72.4265 133.15 72.2205 133.216 72.066 133.347C71.9115 133.479 71.8343 133.645 71.8343 133.845C71.8343 134 71.8743 134.123 71.9544 134.214C72.0345 134.306 72.1261 134.374 72.2291 134.42C72.3378 134.466 72.4322 134.5 72.5123 134.523L73.2761 134.746C73.648 134.855 73.9369 135.024 74.1429 135.253C74.3546 135.482 74.4604 135.75 74.4604 136.059C74.4604 136.311 74.3889 136.537 74.2459 136.737C74.1086 136.938 73.9169 137.095 73.6709 137.209C73.4248 137.318 73.1416 137.373 72.8212 137.373ZM75.5915 137.27V130.773H76.2351V133.562L76.0892 133.528C76.2037 133.23 76.3896 132.996 76.6471 132.824C76.9103 132.652 77.2135 132.566 77.5568 132.566C77.8829 132.566 78.1747 132.641 78.4322 132.79C78.6954 132.938 78.9013 133.144 79.0501 133.408C79.2046 133.665 79.2818 133.957 79.2818 134.283V137.27H78.6382V134.532C78.6382 134.251 78.5867 134.014 78.4837 133.819C78.3807 133.625 78.2377 133.476 78.0546 133.373C77.8772 133.265 77.6741 133.21 77.4452 133.21C77.2164 133.21 77.0104 133.265 76.8273 133.373C76.6442 133.476 76.4983 133.628 76.3896 133.828C76.2866 134.023 76.2351 134.257 76.2351 134.532V137.27H75.5915ZM84.0463 137.373C83.6172 137.373 83.231 137.27 82.8878 137.064C82.5445 136.852 82.2727 136.566 82.0724 136.205C81.8779 135.839 81.7806 135.427 81.7806 134.97C81.7806 134.506 81.8779 134.094 82.0724 133.734C82.2727 133.373 82.5416 133.09 82.8792 132.884C83.2225 132.672 83.6115 132.566 84.0463 132.566C84.4411 132.566 84.793 132.652 85.102 132.824C85.4109 132.996 85.6541 133.227 85.8314 133.519L85.7285 133.699V130.773H86.3721V137.27H85.7285V136.24L85.8314 136.334C85.6712 136.666 85.4309 136.923 85.1105 137.106C84.7959 137.284 84.4411 137.373 84.0463 137.373ZM84.0807 136.729C84.3896 136.729 84.6671 136.652 84.9132 136.497C85.1649 136.343 85.3623 136.134 85.5053 135.871C85.6541 135.602 85.7285 135.301 85.7285 134.97C85.7285 134.638 85.6541 134.34 85.5053 134.077C85.3623 133.808 85.1649 133.596 84.9132 133.442C84.6671 133.287 84.3896 133.21 84.0807 133.21C83.7774 133.21 83.5028 133.287 83.2568 133.442C83.0108 133.596 82.8162 133.805 82.6732 134.068C82.5359 134.332 82.4672 134.632 82.4672 134.97C82.4672 135.301 82.5359 135.602 82.6732 135.871C82.8162 136.134 83.0079 136.343 83.2482 136.497C83.4942 136.652 83.7717 136.729 84.0807 136.729ZM89.8478 137.373C89.413 137.373 89.0182 137.27 88.6635 137.064C88.3088 136.852 88.0256 136.566 87.8139 136.205C87.6079 135.839 87.5049 135.424 87.5049 134.961C87.5049 134.503 87.6079 134.094 87.8139 133.734C88.0198 133.373 88.2973 133.09 88.6463 132.884C89.0011 132.672 89.4016 132.566 89.8478 132.566C90.2941 132.566 90.6918 132.669 91.0408 132.875C91.3955 133.081 91.673 133.365 91.8732 133.725C92.0792 134.086 92.1822 134.497 92.1822 134.961C92.1822 135.43 92.0764 135.848 91.8647 136.214C91.653 136.574 91.3698 136.858 91.015 137.064C90.666 137.27 90.277 137.373 89.8478 137.373ZM89.8478 136.729C90.1568 136.729 90.4343 136.652 90.6803 136.497C90.9321 136.343 91.1295 136.131 91.2725 135.862C91.4213 135.593 91.4956 135.293 91.4956 134.961C91.4956 134.629 91.4213 134.332 91.2725 134.068C91.1295 133.805 90.9321 133.596 90.6803 133.442C90.4343 133.287 90.1568 133.21 89.8478 133.21C89.5389 133.21 89.2585 133.287 89.0068 133.442C88.7608 133.596 88.5634 133.805 88.4146 134.068C88.2659 134.332 88.1915 134.629 88.1915 134.961C88.1915 135.293 88.2659 135.593 88.4146 135.862C88.5634 136.131 88.7608 136.343 89.0068 136.497C89.2585 136.652 89.5389 136.729 89.8478 136.729ZM93.3174 137.27V132.669H93.9611V133.545L93.8581 133.416C93.984 133.147 94.1699 132.938 94.4159 132.79C94.6677 132.641 94.9423 132.566 95.2398 132.566C95.5945 132.566 95.9149 132.667 96.201 132.867C96.4871 133.067 96.6902 133.327 96.8104 133.648L96.6301 133.656C96.7446 133.302 96.9419 133.033 97.2223 132.85C97.5084 132.661 97.8231 132.566 98.1663 132.566C98.4753 132.566 98.7585 132.641 99.016 132.79C99.2792 132.938 99.488 133.144 99.6425 133.408C99.8027 133.665 99.8828 133.957 99.8828 134.283V137.27H99.2391V134.532C99.2391 134.251 99.1876 134.014 99.0846 133.819C98.9874 133.625 98.8529 133.476 98.6813 133.373C98.5096 133.265 98.3122 133.21 98.0891 133.21C97.8717 133.21 97.6743 133.265 97.4969 133.373C97.3196 133.476 97.1794 133.628 97.0764 133.828C96.9734 134.023 96.9219 134.257 96.9219 134.532V137.27H96.2783V134.532C96.2783 134.251 96.2268 134.014 96.1238 133.819C96.0265 133.625 95.8921 133.476 95.7204 133.373C95.5488 133.265 95.3514 133.21 95.1282 133.21C94.9051 133.21 94.7049 133.265 94.5275 133.373C94.3558 133.476 94.2185 133.628 94.1155 133.828C94.0126 134.023 93.9611 134.257 93.9611 134.532V137.27H93.3174ZM102.442 137.373C102.15 137.373 101.89 137.318 101.661 137.209C101.432 137.095 101.252 136.941 101.12 136.746C100.989 136.551 100.923 136.328 100.923 136.077C100.923 135.836 100.974 135.619 101.077 135.424C101.18 135.224 101.341 135.055 101.558 134.918C101.775 134.781 102.053 134.683 102.391 134.626L104.193 134.326V134.909L102.545 135.184C102.213 135.241 101.973 135.347 101.824 135.502C101.681 135.656 101.61 135.839 101.61 136.051C101.61 136.257 101.69 136.431 101.85 136.574C102.016 136.717 102.227 136.789 102.485 136.789C102.8 136.789 103.074 136.723 103.309 136.592C103.543 136.454 103.726 136.271 103.858 136.042C103.99 135.813 104.055 135.559 104.055 135.278V134.111C104.055 133.837 103.955 133.614 103.755 133.442C103.555 133.27 103.295 133.184 102.974 133.184C102.694 133.184 102.448 133.256 102.236 133.399C102.024 133.536 101.867 133.717 101.764 133.94L101.18 133.622C101.266 133.428 101.401 133.25 101.584 133.09C101.773 132.93 101.987 132.804 102.227 132.712C102.468 132.615 102.717 132.566 102.974 132.566C103.312 132.566 103.609 132.632 103.867 132.764C104.13 132.895 104.333 133.079 104.476 133.313C104.625 133.542 104.699 133.808 104.699 134.111V137.27H104.055V136.351L104.15 136.446C104.07 136.617 103.944 136.775 103.772 136.918C103.606 137.055 103.409 137.167 103.18 137.252C102.957 137.332 102.711 137.373 102.442 137.373ZM106.023 137.27V132.669H106.667V137.27H106.023ZM106.023 131.82V130.876H106.667V131.82H106.023ZM107.984 137.27V132.669H108.628V133.562L108.482 133.528C108.596 133.23 108.782 132.996 109.04 132.824C109.303 132.652 109.606 132.566 109.95 132.566C110.276 132.566 110.567 132.641 110.825 132.79C111.088 132.938 111.294 133.144 111.443 133.408C111.597 133.665 111.675 133.957 111.675 134.283V137.27H111.031V134.532C111.031 134.251 110.979 134.014 110.876 133.819C110.779 133.625 110.639 133.476 110.456 133.373C110.279 133.265 110.073 133.21 109.838 133.21C109.603 133.21 109.395 133.265 109.211 133.373C109.028 133.476 108.885 133.628 108.782 133.828C108.679 134.023 108.628 134.257 108.628 134.532V137.27H107.984ZM114.5 137.373C114.06 137.373 113.673 137.261 113.342 137.038C113.01 136.815 112.769 136.511 112.621 136.128L113.161 135.871C113.293 136.151 113.476 136.374 113.711 136.54C113.951 136.706 114.214 136.789 114.5 136.789C114.775 136.789 115.007 136.723 115.195 136.592C115.384 136.454 115.479 136.277 115.479 136.059C115.479 135.899 115.433 135.773 115.341 135.682C115.25 135.585 115.144 135.51 115.024 135.459C114.904 135.407 114.798 135.37 114.706 135.347L114.045 135.158C113.622 135.038 113.316 134.869 113.127 134.652C112.938 134.435 112.844 134.183 112.844 133.897C112.844 133.628 112.912 133.393 113.05 133.193C113.187 132.993 113.373 132.838 113.608 132.73C113.842 132.621 114.103 132.566 114.389 132.566C114.778 132.566 115.13 132.669 115.444 132.875C115.765 133.076 115.991 133.356 116.122 133.717L115.573 133.974C115.459 133.717 115.293 133.516 115.075 133.373C114.864 133.224 114.626 133.15 114.363 133.15C114.105 133.15 113.899 133.216 113.745 133.347C113.59 133.479 113.513 133.645 113.513 133.845C113.513 134 113.553 134.123 113.633 134.214C113.714 134.306 113.805 134.374 113.908 134.42C114.017 134.466 114.111 134.5 114.191 134.523L114.955 134.746C115.327 134.855 115.616 135.024 115.822 135.253C116.034 135.482 116.139 135.75 116.139 136.059C116.139 136.311 116.068 136.537 115.925 136.737C115.788 136.938 115.596 137.095 115.35 137.209C115.104 137.318 114.821 137.373 114.5 137.373Z" fill="white"/>
</g>
<defs>
<filter id="filter0_d_1143_8980" x="12.0179" y="12.8732" width="207.691" height="49.0452" filterUnits="userSpaceOnUse" color-interpolation-filters="sRGB">
<feFlood flood-opacity="0" result="BackgroundImageFix"/>
<feColorMatrix in="SourceAlpha" type="matrix" values="0 0 0 0 0 0 0 0 0 0 0 0 0 0 0 0 0 0 127 0" result="hardAlpha"/>
<feOffset dy="0.85822"/>
<feGaussianBlur stdDeviation="0.85822"/>
<feComposite in2="hardAlpha" operator="out"/>
<feColorMatrix type="matrix" values="0 0 0 0 0 0 0 0 0 0 0 0 0 0 0 0 0 0 0.05 0"/>
<feBlend mode="normal" in2="BackgroundImageFix" result="effect1_dropShadow_1143_8980"/>
<feBlend mode="normal" in="SourceGraphic" in2="effect1_dropShadow_1143_8980" result="shape"/>
</filter>
</defs>
</svg>
