<svg width="232" height="168" viewBox="0 0 232 168" fill="none" xmlns="http://www.w3.org/2000/svg">
<rect width="231.719" height="167.733" rx="13.7315" fill="#FAF5FF"/>
<g filter="url(#filter0_d_528_4376)">
<mask id="path-2-inside-1_528_4376" fill="white">
<path d="M13.7314 24.0311C13.7314 18.3433 18.3423 13.7324 24.0301 13.7324H207.689C213.377 13.7324 217.988 18.3433 217.988 24.0311V49.0461C217.988 54.7339 213.377 59.3448 207.689 59.3448H24.0301C18.3423 59.3448 13.7314 54.7339 13.7314 49.0461V24.0311Z"/>
</mask>
<path d="M13.7314 24.0311C13.7314 18.3433 18.3423 13.7324 24.0301 13.7324H207.689C213.377 13.7324 217.988 18.3433 217.988 24.0311V49.0461C217.988 54.7339 213.377 59.3448 207.689 59.3448H24.0301C18.3423 59.3448 13.7314 54.7339 13.7314 49.0461V24.0311Z" fill="white" shape-rendering="crispEdges"/>
<path d="M24.0301 13.7324V14.5906H207.689V13.7324V12.8742H24.0301V13.7324ZM217.988 24.0311H217.13V49.0461H217.988H218.846V24.0311H217.988ZM207.689 59.3448V58.4866H24.0301V59.3448V60.203H207.689V59.3448ZM13.7314 49.0461H14.5897V24.0311H13.7314H12.8732V49.0461H13.7314ZM24.0301 59.3448V58.4866C18.8163 58.4866 14.5897 54.2599 14.5897 49.0461H13.7314H12.8732C12.8732 55.2079 17.8683 60.203 24.0301 60.203V59.3448ZM217.988 49.0461H217.13C217.13 54.2599 212.903 58.4866 207.689 58.4866V59.3448V60.203C213.851 60.203 218.846 55.2079 218.846 49.0461H217.988ZM207.689 13.7324V14.5906C212.903 14.5906 217.13 18.8173 217.13 24.0311H217.988H218.846C218.846 17.8693 213.851 12.8742 207.689 12.8742V13.7324ZM24.0301 13.7324V12.8742C17.8683 12.8742 12.8732 17.8693 12.8732 24.0311H13.7314H14.5897C14.5897 18.8173 18.8163 14.5906 24.0301 14.5906V13.7324Z" fill="#F3F4F6" mask="url(#path-2-inside-1_528_4376)"/>
<path d="M25.9786 36.7768C25.8527 36.7768 25.7297 36.7653 25.6096 36.7424C25.4894 36.7253 25.3807 36.6909 25.2835 36.6394V35.704C25.3578 35.7211 25.4465 35.7383 25.5495 35.7555C25.6582 35.7726 25.7583 35.7812 25.8499 35.7812C26.1073 35.7812 26.2933 35.7211 26.4077 35.601C26.5279 35.4866 26.6337 35.3321 26.7253 35.1376L27.0342 34.4167L27.0171 35.3607L24.9831 30.22H26.1932L27.6178 34.0133H27.1887L28.6048 30.22H29.8234L27.7895 35.3607C27.6693 35.6582 27.5234 35.9128 27.3518 36.1245C27.1801 36.3362 26.9799 36.4964 26.751 36.6051C26.5279 36.7195 26.2704 36.7768 25.9786 36.7768ZM32.6399 34.9917C32.1822 34.9917 31.7645 34.8858 31.3869 34.6741C31.015 34.4624 30.7175 34.1735 30.4943 33.8073C30.2769 33.4411 30.1682 33.0235 30.1682 32.5543C30.1682 32.0852 30.2769 31.6675 30.4943 31.3013C30.7175 30.9351 31.015 30.6462 31.3869 30.4345C31.7588 30.2228 32.1764 30.117 32.6399 30.117C33.0976 30.117 33.5124 30.2228 33.8843 30.4345C34.2562 30.6462 34.5508 30.9351 34.7683 31.3013C34.9914 31.6618 35.103 32.0794 35.103 32.5543C35.103 33.0235 34.9914 33.4411 34.7683 33.8073C34.5451 34.1735 34.2476 34.4624 33.8757 34.6741C33.5038 34.8858 33.0919 34.9917 32.6399 34.9917ZM32.6399 33.9618C32.8916 33.9618 33.1119 33.9017 33.3007 33.7816C33.4952 33.6614 33.6468 33.4955 33.7556 33.2838C33.87 33.0664 33.9272 32.8232 33.9272 32.5543C33.9272 32.2797 33.87 32.0394 33.7556 31.8334C33.6468 31.6217 33.4952 31.4558 33.3007 31.3356C33.1119 31.2098 32.8916 31.1468 32.6399 31.1468C32.3824 31.1468 32.1564 31.2098 31.9619 31.3356C31.7673 31.4558 31.6129 31.6217 31.4984 31.8334C31.3897 32.0394 31.3354 32.2797 31.3354 32.5543C31.3354 32.8232 31.3897 33.0664 31.4984 33.2838C31.6129 33.4955 31.7673 33.6614 31.9619 33.7816C32.1564 33.9017 32.3824 33.9618 32.6399 33.9618ZM37.6205 34.9917C37.26 34.9917 36.9454 34.9116 36.6765 34.7514C36.4133 34.5912 36.2102 34.368 36.0671 34.0819C35.9298 33.7959 35.8611 33.4612 35.8611 33.0778V30.22H36.9854V32.9834C36.9854 33.178 37.0226 33.3496 37.097 33.4984C37.1771 33.6414 37.2887 33.7558 37.4317 33.8416C37.5804 33.9217 37.7464 33.9618 37.9295 33.9618C38.1125 33.9618 38.2756 33.9217 38.4186 33.8416C38.5617 33.7558 38.6732 33.6385 38.7533 33.4898C38.8334 33.341 38.8735 33.1637 38.8735 32.9577V30.22H39.9978V34.8887H38.9336V33.9704L39.028 34.1334C38.9193 34.4195 38.739 34.6341 38.4873 34.7771C38.2413 34.9201 37.9523 34.9917 37.6205 34.9917ZM41.0428 34.8887V30.22H42.0985V31.2584L42.0126 31.1039C42.1213 30.7549 42.2901 30.5118 42.519 30.3744C42.7536 30.2371 43.0339 30.1685 43.36 30.1685H43.6347V31.164H43.2313C42.9109 31.164 42.6534 31.2641 42.4589 31.4644C42.2644 31.6589 42.1671 31.9335 42.1671 32.2883V34.8887H41.0428ZM46.5013 34.9917C46.0379 34.9917 45.6202 34.8858 45.2483 34.6741C44.8822 34.4567 44.5932 34.1649 44.3815 33.7987C44.1698 33.4268 44.064 33.0092 44.064 32.5457C44.064 32.0823 44.1698 31.6675 44.3815 31.3013C44.5932 30.9351 44.8822 30.6462 45.2483 30.4345C45.6202 30.2228 46.0379 30.117 46.5013 30.117C46.8332 30.117 47.1421 30.177 47.4282 30.2972C47.7143 30.4116 47.9603 30.5718 48.1663 30.7778C48.378 30.9781 48.5296 31.2184 48.6211 31.4987L47.6342 31.9278C47.5484 31.6932 47.4025 31.5044 47.1965 31.3614C46.9962 31.2184 46.7645 31.1468 46.5013 31.1468C46.2553 31.1468 46.035 31.2069 45.8405 31.3271C45.6517 31.4472 45.5029 31.6131 45.3942 31.8248C45.2855 32.0365 45.2312 32.2797 45.2312 32.5543C45.2312 32.8289 45.2855 33.0721 45.3942 33.2838C45.5029 33.4955 45.6517 33.6614 45.8405 33.7816C46.035 33.9017 46.2553 33.9618 46.5013 33.9618C46.7702 33.9618 47.0048 33.8903 47.2051 33.7472C47.4053 33.6042 47.5484 33.4125 47.6342 33.1722L48.6211 33.6185C48.5296 33.8817 48.3808 34.1191 48.1749 34.3308C47.9689 34.5368 47.7229 34.6999 47.4368 34.82C47.1507 34.9344 46.8389 34.9917 46.5013 34.9917ZM51.7571 34.9917C51.2993 34.9917 50.8817 34.8858 50.504 34.6741C50.1322 34.4624 49.8346 34.1735 49.6115 33.8073C49.3941 33.4411 49.2854 33.0235 49.2854 32.5543C49.2854 32.0852 49.3941 31.6675 49.6115 31.3013C49.8346 30.9351 50.1322 30.6462 50.504 30.4345C50.8759 30.2228 51.2936 30.117 51.7571 30.117C52.2148 30.117 52.6296 30.2228 53.0015 30.4345C53.3734 30.6462 53.668 30.9351 53.8854 31.3013C54.1086 31.6618 54.2201 32.0794 54.2201 32.5543C54.2201 33.0235 54.1086 33.4411 53.8854 33.8073C53.6623 34.1735 53.3648 34.4624 52.9929 34.6741C52.621 34.8858 52.209 34.9917 51.7571 34.9917ZM51.7571 33.9618C52.0088 33.9618 52.2291 33.9017 52.4179 33.7816C52.6124 33.6614 52.764 33.4955 52.8727 33.2838C52.9872 33.0664 53.0444 32.8232 53.0444 32.5543C53.0444 32.2797 52.9872 32.0394 52.8727 31.8334C52.764 31.6217 52.6124 31.4558 52.4179 31.3356C52.2291 31.2098 52.0088 31.1468 51.7571 31.1468C51.4996 31.1468 51.2736 31.2098 51.0791 31.3356C50.8845 31.4558 50.73 31.6217 50.6156 31.8334C50.5069 32.0394 50.4526 32.2797 50.4526 32.5543C50.4526 32.8232 50.5069 33.0664 50.6156 33.2838C50.73 33.4955 50.8845 33.6614 51.0791 33.7816C51.2736 33.9017 51.4996 33.9618 51.7571 33.9618ZM55.0727 34.8887V30.22H56.1283V31.3013L56.0082 31.1211C56.094 30.7835 56.2657 30.5318 56.5231 30.3659C56.7806 30.1999 57.0838 30.117 57.4328 30.117C57.8162 30.117 58.1537 30.2171 58.4455 30.4173C58.7373 30.6176 58.9261 30.8808 59.012 31.2069L58.6944 31.2327C58.8375 30.8608 59.052 30.5833 59.3381 30.4002C59.6242 30.2114 59.9531 30.117 60.325 30.117C60.6569 30.117 60.9515 30.1913 61.209 30.3401C61.4722 30.4889 61.6782 30.6977 61.8269 30.9666C61.9757 31.2298 62.0501 31.5359 62.0501 31.8849V34.8887H60.9258V32.151C60.9258 31.945 60.8886 31.7676 60.8142 31.6189C60.7398 31.4701 60.6369 31.3557 60.5053 31.2756C60.3737 31.1897 60.2135 31.1468 60.0247 31.1468C59.8473 31.1468 59.69 31.1897 59.5526 31.2756C59.4153 31.3557 59.3095 31.4701 59.2351 31.6189C59.1607 31.7676 59.1235 31.945 59.1235 32.151V34.8887H57.9993V32.151C57.9993 31.945 57.9621 31.7676 57.8877 31.6189C57.8133 31.4701 57.7075 31.3557 57.5701 31.2756C57.4386 31.1897 57.2812 31.1468 57.0981 31.1468C56.9208 31.1468 56.7634 31.1897 56.6261 31.2756C56.4888 31.3557 56.3829 31.4701 56.3086 31.6189C56.2342 31.7676 56.197 31.945 56.197 32.151V34.8887H55.0727ZM63.0012 36.6051V30.22H64.0568V31.1468L63.9538 30.9151C64.114 30.6634 64.3314 30.4688 64.6061 30.3315C64.8807 30.1885 65.1982 30.117 65.5587 30.117C65.9993 30.117 66.3969 30.2257 66.7516 30.4431C67.1064 30.6605 67.3867 30.9523 67.5927 31.3185C67.8044 31.6847 67.9102 32.0966 67.9102 32.5543C67.9102 33.0063 67.8072 33.4183 67.6013 33.7902C67.3953 34.162 67.1149 34.4567 66.7602 34.6741C66.4055 34.8858 66.0021 34.9917 65.5501 34.9917C65.2126 34.9917 64.9007 34.9259 64.6147 34.7943C64.3343 34.657 64.1112 34.4624 63.9452 34.2107L64.1255 33.9875V36.6051H63.0012ZM65.4214 33.9618C65.6789 33.9618 65.9077 33.9017 66.108 33.7816C66.3082 33.6614 66.4627 33.4955 66.5714 33.2838C66.6858 33.0721 66.743 32.8289 66.743 32.5543C66.743 32.2797 66.6858 32.0394 66.5714 31.8334C66.4627 31.6217 66.3082 31.4558 66.108 31.3356C65.9077 31.2098 65.6789 31.1468 65.4214 31.1468C65.1754 31.1468 64.9522 31.2069 64.752 31.3271C64.5574 31.4472 64.403 31.616 64.2885 31.8334C64.1798 32.0451 64.1255 32.2854 64.1255 32.5543C64.1255 32.8289 64.1798 33.0721 64.2885 33.2838C64.403 33.4955 64.5574 33.6614 64.752 33.7816C64.9522 33.9017 65.1754 33.9618 65.4214 33.9618ZM70.1834 34.9917C69.8573 34.9917 69.5741 34.9373 69.3338 34.8286C69.0935 34.7199 68.9075 34.5654 68.776 34.3652C68.6444 34.1592 68.5786 33.9217 68.5786 33.6528C68.5786 33.3954 68.6358 33.1665 68.7502 32.9663C68.8646 32.7603 69.042 32.5886 69.2823 32.4513C69.5226 32.314 69.8258 32.2167 70.192 32.1595L71.7196 31.9106V32.7689L70.4066 32.992C70.1834 33.0321 70.0175 33.1036 69.9088 33.2066C69.8001 33.3095 69.7457 33.444 69.7457 33.6099C69.7457 33.7701 69.8058 33.8989 69.926 33.9961C70.0518 34.0877 70.2063 34.1334 70.3894 34.1334C70.624 34.1334 70.83 34.0848 71.0073 33.9875C71.1904 33.8846 71.3306 33.7444 71.4278 33.567C71.5308 33.3896 71.5823 33.1951 71.5823 32.9834V31.7819C71.5823 31.5817 71.5022 31.4157 71.342 31.2841C71.1875 31.1468 70.9816 31.0782 70.7241 31.0782C70.4838 31.0782 70.2693 31.144 70.0804 31.2756C69.8974 31.4014 69.7629 31.5702 69.6771 31.7819L68.7588 31.3356C68.8503 31.0896 68.9934 30.8779 69.1879 30.7006C69.3881 30.5175 69.6227 30.3744 69.8916 30.2714C70.1605 30.1685 70.4523 30.117 70.767 30.117C71.1504 30.117 71.4879 30.1885 71.7797 30.3315C72.0715 30.4688 72.2975 30.6634 72.4577 30.9151C72.6236 31.1611 72.7066 31.4501 72.7066 31.7819V34.8887H71.6424V34.0905L71.8827 34.0734C71.7626 34.2736 71.6195 34.4424 71.4536 34.5797C71.2877 34.7113 71.0989 34.8143 70.8872 34.8887C70.6755 34.9573 70.4409 34.9917 70.1834 34.9917ZM73.7457 34.8887V30.22H74.8013V31.1383L74.7155 30.9752C74.8242 30.6948 75.0016 30.4831 75.2476 30.3401C75.4993 30.1913 75.7911 30.117 76.123 30.117C76.4663 30.117 76.7695 30.1913 77.0327 30.3401C77.3016 30.4889 77.5104 30.6977 77.6592 30.9666C77.808 31.2298 77.8823 31.5359 77.8823 31.8849V34.8887H76.7581V32.151C76.7581 31.945 76.718 31.7676 76.6379 31.6189C76.5578 31.4701 76.4462 31.3557 76.3032 31.2756C76.1659 31.1897 76.0028 31.1468 75.814 31.1468C75.6309 31.1468 75.4679 31.1897 75.3248 31.2756C75.1818 31.3557 75.0702 31.4701 74.9901 31.6189C74.91 31.7676 74.87 31.945 74.87 32.151V34.8887H73.7457ZM79.3156 36.7768C79.1898 36.7768 79.0667 36.7653 78.9466 36.7424C78.8264 36.7253 78.7177 36.6909 78.6205 36.6394V35.704C78.6948 35.7211 78.7835 35.7383 78.8865 35.7555C78.9952 35.7726 79.0953 35.7812 79.1869 35.7812C79.4444 35.7812 79.6303 35.7211 79.7447 35.601C79.8649 35.4866 79.9707 35.3321 80.0623 35.1376L80.3712 34.4167L80.3541 35.3607L78.3201 30.22H79.5302L80.9548 34.0133H80.5257L81.9418 30.22H83.1604L81.1265 35.3607C81.0063 35.6582 80.8604 35.9128 80.6888 36.1245C80.5171 36.3362 80.3169 36.4964 80.088 36.6051C79.8649 36.7195 79.6074 36.7768 79.3156 36.7768ZM83.9663 34.8887V33.6872H85.0992V34.8887H83.9663ZM88.9262 34.9917C88.4628 34.9917 88.0451 34.8858 87.6732 34.6741C87.307 34.4567 87.0181 34.1649 86.8064 33.7987C86.5947 33.4268 86.4889 33.0092 86.4889 32.5457C86.4889 32.0823 86.5947 31.6675 86.8064 31.3013C87.0181 30.9351 87.307 30.6462 87.6732 30.4345C88.0451 30.2228 88.4628 30.117 88.9262 30.117C89.2581 30.117 89.567 30.177 89.8531 30.2972C90.1392 30.4116 90.3852 30.5718 90.5912 30.7778C90.8029 30.9781 90.9545 31.2184 91.046 31.4987L90.0591 31.9278C89.9732 31.6932 89.8273 31.5044 89.6214 31.3614C89.4211 31.2184 89.1894 31.1468 88.9262 31.1468C88.6802 31.1468 88.4599 31.2069 88.2654 31.3271C88.0766 31.4472 87.9278 31.6131 87.8191 31.8248C87.7104 32.0365 87.656 32.2797 87.656 32.5543C87.656 32.8289 87.7104 33.0721 87.8191 33.2838C87.9278 33.4955 88.0766 33.6614 88.2654 33.7816C88.4599 33.9017 88.6802 33.9618 88.9262 33.9618C89.1951 33.9618 89.4297 33.8903 89.63 33.7472C89.8302 33.6042 89.9732 33.4125 90.0591 33.1722L91.046 33.6185C90.9545 33.8817 90.8057 34.1191 90.5997 34.3308C90.3938 34.5368 90.1477 34.6999 89.8617 34.82C89.5756 34.9344 89.2638 34.9917 88.9262 34.9917ZM94.1819 34.9917C93.7242 34.9917 93.3066 34.8858 92.9289 34.6741C92.557 34.4624 92.2595 34.1735 92.0364 33.8073C91.819 33.4411 91.7103 33.0235 91.7103 32.5543C91.7103 32.0852 91.819 31.6675 92.0364 31.3013C92.2595 30.9351 92.557 30.6462 92.9289 30.4345C93.3008 30.2228 93.7185 30.117 94.1819 30.117C94.6397 30.117 95.0545 30.2228 95.4264 30.4345C95.7982 30.6462 96.0929 30.9351 96.3103 31.3013C96.5335 31.6618 96.645 32.0794 96.645 32.5543C96.645 33.0235 96.5335 33.4411 96.3103 33.8073C96.0872 34.1735 95.7897 34.4624 95.4178 34.6741C95.0459 34.8858 94.6339 34.9917 94.1819 34.9917ZM94.1819 33.9618C94.4337 33.9618 94.654 33.9017 94.8428 33.7816C95.0373 33.6614 95.1889 33.4955 95.2976 33.2838C95.4121 33.0664 95.4693 32.8232 95.4693 32.5543C95.4693 32.2797 95.4121 32.0394 95.2976 31.8334C95.1889 31.6217 95.0373 31.4558 94.8428 31.3356C94.654 31.2098 94.4337 31.1468 94.1819 31.1468C93.9245 31.1468 93.6985 31.2098 93.5039 31.3356C93.3094 31.4558 93.1549 31.6217 93.0405 31.8334C92.9318 32.0394 92.8774 32.2797 92.8774 32.5543C92.8774 32.8232 92.9318 33.0664 93.0405 33.2838C93.1549 33.4955 93.3094 33.6614 93.5039 33.7816C93.6985 33.9017 93.9245 33.9618 94.1819 33.9618ZM97.4976 34.8887V30.22H98.5532V31.3013L98.4331 31.1211C98.5189 30.7835 98.6905 30.5318 98.948 30.3659C99.2055 30.1999 99.5087 30.117 99.8577 30.117C100.241 30.117 100.579 30.2171 100.87 30.4173C101.162 30.6176 101.351 30.8808 101.437 31.2069L101.119 31.2327C101.262 30.8608 101.477 30.5833 101.763 30.4002C102.049 30.2114 102.378 30.117 102.75 30.117C103.082 30.117 103.376 30.1913 103.634 30.3401C103.897 30.4889 104.103 30.6977 104.252 30.9666C104.401 31.2298 104.475 31.5359 104.475 31.8849V34.8887H103.351V32.151C103.351 31.945 103.313 31.7676 103.239 31.6189C103.165 31.4701 103.062 31.3557 102.93 31.2756C102.799 31.1897 102.638 31.1468 102.45 31.1468C102.272 31.1468 102.115 31.1897 101.978 31.2756C101.84 31.3557 101.734 31.4701 101.66 31.6189C101.586 31.7676 101.548 31.945 101.548 32.151V34.8887H100.424V32.151C100.424 31.945 100.387 31.7676 100.313 31.6189C100.238 31.4701 100.132 31.3557 99.995 31.2756C99.8634 31.1897 99.7061 31.1468 99.523 31.1468C99.3456 31.1468 99.1883 31.1897 99.051 31.2756C98.9137 31.3557 98.8078 31.4701 98.7334 31.6189C98.6591 31.7676 98.6219 31.945 98.6219 32.151V34.8887H97.4976Z" fill="#111827"/>
<path d="M162.453 34.9917C161.995 34.9917 161.572 34.9087 161.183 34.7428C160.799 34.5769 160.462 34.3451 160.17 34.0476C159.884 33.7501 159.661 33.4011 159.5 33.0006C159.34 32.6001 159.26 32.1624 159.26 31.6875C159.26 31.2126 159.337 30.7749 159.492 30.3744C159.652 29.9682 159.875 29.6192 160.161 29.3274C160.453 29.0299 160.794 28.801 161.183 28.6408C161.572 28.4749 161.995 28.3919 162.453 28.3919C162.91 28.3919 163.32 28.4692 163.68 28.6237C164.046 28.7781 164.355 28.9841 164.607 29.2416C164.859 29.4933 165.039 29.7708 165.148 30.0741L164.101 30.5632C163.98 30.2428 163.777 29.9797 163.491 29.7737C163.205 29.562 162.859 29.4561 162.453 29.4561C162.052 29.4561 161.698 29.5505 161.389 29.7394C161.085 29.9282 160.848 30.1885 160.676 30.5203C160.51 30.8522 160.427 31.2412 160.427 31.6875C160.427 32.1338 160.51 32.5257 160.676 32.8633C160.848 33.1951 161.085 33.4554 161.389 33.6443C161.698 33.8331 162.052 33.9275 162.453 33.9275C162.859 33.9275 163.205 33.8245 163.491 33.6185C163.777 33.4068 163.98 33.1408 164.101 32.8204L165.148 33.3095C165.039 33.6128 164.859 33.8931 164.607 34.1506C164.355 34.4023 164.046 34.6055 163.68 34.7599C163.32 34.9144 162.91 34.9917 162.453 34.9917ZM168.2 34.9917C167.742 34.9917 167.324 34.8858 166.947 34.6741C166.575 34.4624 166.277 34.1735 166.054 33.8073C165.837 33.4411 165.728 33.0235 165.728 32.5543C165.728 32.0852 165.837 31.6675 166.054 31.3013C166.277 30.9351 166.575 30.6462 166.947 30.4345C167.319 30.2228 167.736 30.117 168.2 30.117C168.658 30.117 169.072 30.2228 169.444 30.4345C169.816 30.6462 170.111 30.9351 170.328 31.3013C170.551 31.6618 170.663 32.0794 170.663 32.5543C170.663 33.0235 170.551 33.4411 170.328 33.8073C170.105 34.1735 169.808 34.4624 169.436 34.6741C169.064 34.8858 168.652 34.9917 168.2 34.9917ZM168.2 33.9618C168.452 33.9618 168.672 33.9017 168.861 33.7816C169.055 33.6614 169.207 33.4955 169.315 33.2838C169.43 33.0664 169.487 32.8232 169.487 32.5543C169.487 32.2797 169.43 32.0394 169.315 31.8334C169.207 31.6217 169.055 31.4558 168.861 31.3356C168.672 31.2098 168.452 31.1468 168.2 31.1468C167.942 31.1468 167.716 31.2098 167.522 31.3356C167.327 31.4558 167.173 31.6217 167.058 31.8334C166.95 32.0394 166.895 32.2797 166.895 32.5543C166.895 32.8232 166.95 33.0664 167.058 33.2838C167.173 33.4955 167.327 33.6614 167.522 33.7816C167.716 33.9017 167.942 33.9618 168.2 33.9618ZM171.515 34.8887V30.22H172.571V31.1383L172.485 30.9752C172.594 30.6948 172.771 30.4831 173.017 30.3401C173.269 30.1913 173.561 30.117 173.893 30.117C174.236 30.117 174.539 30.1913 174.802 30.3401C175.071 30.4889 175.28 30.6977 175.429 30.9666C175.578 31.2298 175.652 31.5359 175.652 31.8849V34.8887H174.528V32.151C174.528 31.945 174.488 31.7676 174.408 31.6189C174.328 31.4701 174.216 31.3557 174.073 31.2756C173.936 31.1897 173.773 31.1468 173.584 31.1468C173.401 31.1468 173.238 31.1897 173.095 31.2756C172.952 31.3557 172.84 31.4701 172.76 31.6189C172.68 31.7676 172.64 31.945 172.64 32.151V34.8887H171.515ZM176.603 34.8887V30.22H177.658V31.1383L177.573 30.9752C177.681 30.6948 177.859 30.4831 178.105 30.3401C178.356 30.1913 178.648 30.117 178.98 30.117C179.323 30.117 179.627 30.1913 179.89 30.3401C180.159 30.4889 180.367 30.6977 180.516 30.9666C180.665 31.2298 180.739 31.5359 180.739 31.8849V34.8887H179.615V32.151C179.615 31.945 179.575 31.7676 179.495 31.6189C179.415 31.4701 179.303 31.3557 179.16 31.2756C179.023 31.1897 178.86 31.1468 178.671 31.1468C178.488 31.1468 178.325 31.1897 178.182 31.2756C178.039 31.3557 177.927 31.4701 177.847 31.6189C177.767 31.7676 177.727 31.945 177.727 32.151V34.8887H176.603ZM183.904 34.9917C183.424 34.9917 183.003 34.883 182.643 34.6655C182.282 34.4481 182.002 34.1535 181.802 33.7816C181.601 33.4097 181.501 32.9977 181.501 32.5457C181.501 32.0766 181.601 31.6618 181.802 31.3013C182.008 30.9351 182.285 30.6462 182.634 30.4345C182.989 30.2228 183.384 30.117 183.818 30.117C184.185 30.117 184.505 30.177 184.78 30.2972C185.06 30.4173 185.297 30.5833 185.492 30.795C185.687 31.0067 185.835 31.2498 185.938 31.5245C186.041 31.7934 186.093 32.0852 186.093 32.3998C186.093 32.4799 186.087 32.5629 186.076 32.6487C186.07 32.7345 186.056 32.8089 186.033 32.8719H182.428V32.0136H185.398L184.865 32.417C184.917 32.1538 184.903 31.9192 184.823 31.7133C184.748 31.5073 184.622 31.3442 184.445 31.2241C184.273 31.1039 184.064 31.0438 183.818 31.0438C183.584 31.0438 183.375 31.1039 183.192 31.2241C183.009 31.3385 182.869 31.5101 182.771 31.739C182.68 31.9621 182.646 32.2339 182.668 32.5543C182.646 32.8404 182.683 33.095 182.78 33.3181C182.883 33.5355 183.032 33.7043 183.226 33.8245C183.427 33.9446 183.655 34.0047 183.913 34.0047C184.17 34.0047 184.388 33.9504 184.565 33.8416C184.748 33.7329 184.891 33.587 184.994 33.404L185.904 33.8502C185.812 34.0734 185.669 34.2708 185.475 34.4424C185.28 34.614 185.049 34.7485 184.78 34.8458C184.516 34.943 184.225 34.9917 183.904 34.9917ZM189.194 34.9917C188.73 34.9917 188.312 34.8858 187.941 34.6741C187.574 34.4567 187.285 34.1649 187.074 33.7987C186.862 33.4268 186.756 33.0092 186.756 32.5457C186.756 32.0823 186.862 31.6675 187.074 31.3013C187.285 30.9351 187.574 30.6462 187.941 30.4345C188.312 30.2228 188.73 30.117 189.194 30.117C189.525 30.117 189.834 30.177 190.12 30.2972C190.406 30.4116 190.653 30.5718 190.858 30.7778C191.07 30.9781 191.222 31.2184 191.313 31.4987L190.326 31.9278C190.241 31.6932 190.095 31.5044 189.889 31.3614C189.688 31.2184 189.457 31.1468 189.194 31.1468C188.948 31.1468 188.727 31.2069 188.533 31.3271C188.344 31.4472 188.195 31.6131 188.086 31.8248C187.978 32.0365 187.923 32.2797 187.923 32.5543C187.923 32.8289 187.978 33.0721 188.086 33.2838C188.195 33.4955 188.344 33.6614 188.533 33.7816C188.727 33.9017 188.948 33.9618 189.194 33.9618C189.462 33.9618 189.697 33.8903 189.897 33.7472C190.098 33.6042 190.241 33.4125 190.326 33.1722L191.313 33.6185C191.222 33.8817 191.073 34.1191 190.867 34.3308C190.661 34.5368 190.415 34.6999 190.129 34.82C189.843 34.9344 189.531 34.9917 189.194 34.9917ZM194.295 34.9402C193.768 34.9402 193.359 34.7971 193.068 34.5111C192.781 34.2193 192.638 33.8102 192.638 33.2838V31.2241H191.832V30.22H191.918C192.146 30.22 192.324 30.1599 192.45 30.0397C192.575 29.9196 192.638 29.7451 192.638 29.5162V29.1558H193.763V30.22H194.835V31.2241H193.763V33.2237C193.763 33.3782 193.788 33.5098 193.84 33.6185C193.897 33.7272 193.983 33.8102 194.097 33.8674C194.218 33.9246 194.369 33.9532 194.552 33.9532C194.592 33.9532 194.638 33.9504 194.69 33.9446C194.747 33.9389 194.801 33.9332 194.853 33.9275V34.8887C194.773 34.9001 194.681 34.9116 194.578 34.923C194.475 34.9344 194.381 34.9402 194.295 34.9402ZM197.884 34.9917C197.403 34.9917 196.983 34.883 196.622 34.6655C196.262 34.4481 195.981 34.1535 195.781 33.7816C195.581 33.4097 195.481 32.9977 195.481 32.5457C195.481 32.0766 195.581 31.6618 195.781 31.3013C195.987 30.9351 196.265 30.6462 196.614 30.4345C196.968 30.2228 197.363 30.117 197.798 30.117C198.164 30.117 198.485 30.177 198.759 30.2972C199.04 30.4173 199.277 30.5833 199.472 30.795C199.666 31.0067 199.815 31.2498 199.918 31.5245C200.021 31.7934 200.072 32.0852 200.072 32.3998C200.072 32.4799 200.067 32.5629 200.055 32.6487C200.049 32.7345 200.035 32.8089 200.012 32.8719H196.408V32.0136H199.377L198.845 32.417C198.897 32.1538 198.882 31.9192 198.802 31.7133C198.728 31.5073 198.602 31.3442 198.425 31.2241C198.253 31.1039 198.044 31.0438 197.798 31.0438C197.563 31.0438 197.355 31.1039 197.172 31.2241C196.988 31.3385 196.848 31.5101 196.751 31.739C196.659 31.9621 196.625 32.2339 196.648 32.5543C196.625 32.8404 196.662 33.095 196.76 33.3181C196.863 33.5355 197.011 33.7043 197.206 33.8245C197.406 33.9446 197.635 34.0047 197.892 34.0047C198.15 34.0047 198.367 33.9504 198.545 33.8416C198.728 33.7329 198.871 33.587 198.974 33.404L199.884 33.8502C199.792 34.0734 199.649 34.2708 199.454 34.4424C199.26 34.614 199.028 34.7485 198.759 34.8458C198.496 34.943 198.204 34.9917 197.884 34.9917ZM203.096 34.9917C202.644 34.9917 202.241 34.8858 201.886 34.6741C201.531 34.4567 201.251 34.162 201.045 33.7902C200.839 33.4183 200.736 33.0063 200.736 32.5543C200.736 32.0966 200.839 31.6847 201.045 31.3185C201.251 30.9523 201.531 30.6605 201.886 30.4431C202.246 30.2257 202.647 30.117 203.087 30.117C203.442 30.117 203.757 30.1885 204.031 30.3315C204.312 30.4688 204.532 30.6634 204.692 30.9151L204.521 31.1468V28.3919H205.645V34.8887H204.581V33.9875L204.701 34.2107C204.541 34.4624 204.317 34.657 204.031 34.7943C203.745 34.9259 203.433 34.9917 203.096 34.9917ZM203.216 33.9618C203.474 33.9618 203.699 33.9017 203.894 33.7816C204.089 33.6614 204.24 33.4955 204.349 33.2838C204.463 33.0721 204.521 32.8289 204.521 32.5543C204.521 32.2854 204.463 32.0451 204.349 31.8334C204.24 31.616 204.089 31.4472 203.894 31.3271C203.699 31.2069 203.474 31.1468 203.216 31.1468C202.964 31.1468 202.738 31.2098 202.538 31.3356C202.338 31.4558 202.18 31.6217 202.066 31.8334C201.957 32.0394 201.903 32.2797 201.903 32.5543C201.903 32.8289 201.957 33.0721 202.066 33.2838C202.18 33.4955 202.338 33.6614 202.538 33.7816C202.738 33.9017 202.964 33.9618 203.216 33.9618Z" fill="#10B981"/>
<rect x="24.8887" y="44.7559" width="181.943" height="3.43288" rx="1.71644" fill="#F3F4F6"/>
<rect x="24.8887" y="44.7559" width="181.943" height="3.43288" rx="1.71644" fill="#10B981"/>
</g>
<rect x="13.7314" y="73.0762" width="204.256" height="80.9261" rx="10.2986" fill="#581ADF"/>
<path d="M31.0949 100.158V97.7743H28.7109V93.0064H31.0949V90.6224H35.8628V93.0064H38.2467V97.7743H35.8628V100.158H31.0949ZM29.6645 94.9135H32.0485C32.1279 94.9135 32.2034 94.9334 32.2749 94.9731C32.3465 95.0129 32.4021 95.0645 32.4418 95.1281L32.859 95.7479L33.5027 93.8169C33.5345 93.7216 33.5921 93.6421 33.6755 93.5785C33.7589 93.5149 33.8523 93.4832 33.9556 93.4832C34.0351 93.4832 34.1106 93.503 34.1821 93.5428C34.2536 93.5825 34.3092 93.6341 34.349 93.6977L35.1595 94.9135H37.2931V93.9599H34.9092V91.576H32.0485V93.9599H29.6645V94.9135ZM32.0485 99.2046H34.9092V96.8207H37.2931V95.8671H34.9092C34.8297 95.8671 34.7542 95.8472 34.6827 95.8075C34.6112 95.7678 34.5516 95.7161 34.5039 95.6525L34.0987 95.0327L33.455 96.9637C33.4232 97.0591 33.3636 97.1385 33.2762 97.2021C33.1888 97.2657 33.0934 97.2975 32.9901 97.2975C32.9107 97.2975 32.8352 97.2776 32.7636 97.2379C32.6921 97.1981 32.6365 97.1465 32.5968 97.0829L31.7862 95.8671H29.6645V96.8207H32.0485V99.2046Z" fill="white"/>
<path d="M43.6692 99.3906V91.7181H46.1718C46.982 91.7181 47.6857 91.8829 48.283 92.2125C48.8872 92.5352 49.3541 92.9849 49.6836 93.5616C50.0132 94.1315 50.178 94.794 50.178 95.5492C50.178 96.2976 50.0132 96.9636 49.6836 97.5472C49.3541 98.1239 48.8872 98.577 48.283 98.9066C47.6857 99.2293 46.982 99.3906 46.1718 99.3906H43.6692ZM45.0699 98.1548H46.2027C46.7245 98.1548 47.1742 98.0484 47.5518 97.8355C47.9363 97.6158 48.235 97.3137 48.4478 96.9293C48.6606 96.5379 48.7671 96.0779 48.7671 95.5492C48.7671 95.0137 48.6606 94.5537 48.4478 94.1692C48.235 93.7847 47.9363 93.4861 47.5518 93.2732C47.1742 93.0604 46.7245 92.954 46.2027 92.954H45.0699V98.1548ZM53.9188 99.5142C53.3695 99.5142 52.8683 99.3872 52.4152 99.1332C51.9689 98.8791 51.6119 98.5324 51.3441 98.093C51.0832 97.6536 50.9528 97.1524 50.9528 96.5894C50.9528 96.0264 51.0832 95.5252 51.3441 95.0858C51.6119 94.6464 51.9689 94.2997 52.4152 94.0456C52.8615 93.7916 53.3627 93.6646 53.9188 93.6646C54.4681 93.6646 54.9658 93.7916 55.4121 94.0456C55.8584 94.2997 56.212 94.6464 56.4729 95.0858C56.7406 95.5183 56.8745 96.0195 56.8745 96.5894C56.8745 97.1524 56.7406 97.6536 56.4729 98.093C56.2051 98.5324 55.8481 98.8791 55.4018 99.1332C54.9555 99.3872 54.4612 99.5142 53.9188 99.5142ZM53.9188 98.2784C54.2209 98.2784 54.4852 98.2063 54.7118 98.0621C54.9452 97.9179 55.1272 97.7188 55.2576 97.4648C55.3949 97.2039 55.4636 96.9121 55.4636 96.5894C55.4636 96.2598 55.3949 95.9715 55.2576 95.7243C55.1272 95.4703 54.9452 95.2712 54.7118 95.127C54.4852 94.9759 54.2209 94.9004 53.9188 94.9004C53.6098 94.9004 53.3386 94.9759 53.1052 95.127C52.8718 95.2712 52.6864 95.4703 52.5491 95.7243C52.4186 95.9715 52.3534 96.2598 52.3534 96.5894C52.3534 96.9121 52.4186 97.2039 52.5491 97.4648C52.6864 97.7188 52.8718 97.9179 53.1052 98.0621C53.3386 98.2063 53.6098 98.2784 53.9188 98.2784ZM57.8976 99.3906V93.7882H59.1643V95.0858L59.0202 94.8695C59.1231 94.4644 59.3291 94.1623 59.6381 93.9632C59.947 93.7641 60.3109 93.6646 60.7297 93.6646C61.1897 93.6646 61.5948 93.7847 61.945 94.025C62.2951 94.2653 62.5217 94.5812 62.6247 94.9725L62.2436 95.0034C62.4153 94.5571 62.6727 94.2241 63.016 94.0044C63.3593 93.7779 63.7541 93.6646 64.2004 93.6646C64.5986 93.6646 64.9522 93.7538 65.2611 93.9323C65.577 94.1109 65.8241 94.3615 66.0026 94.6841C66.1811 95 66.2704 95.3673 66.2704 95.7861V99.3906H64.9213V96.1054C64.9213 95.8582 64.8767 95.6454 64.7874 95.4668C64.6981 95.2883 64.5746 95.151 64.4166 95.0549C64.2587 94.9519 64.0665 94.9004 63.8399 94.9004C63.6271 94.9004 63.4383 94.9519 63.2735 95.0549C63.1087 95.151 62.9817 95.2883 62.8924 95.4668C62.8032 95.6454 62.7586 95.8582 62.7586 96.1054V99.3906H61.4094V96.1054C61.4094 95.8582 61.3648 95.6454 61.2756 95.4668C61.1863 95.2883 61.0593 95.151 60.8945 95.0549C60.7366 94.9519 60.5478 94.9004 60.3281 94.9004C60.1152 94.9004 59.9264 94.9519 59.7617 95.0549C59.5969 95.151 59.4699 95.2883 59.3806 95.4668C59.2914 95.6454 59.2467 95.8582 59.2467 96.1054V99.3906H57.8976ZM69.1111 99.5142C68.7197 99.5142 68.3799 99.449 68.0915 99.3185C67.8031 99.1881 67.58 99.0027 67.4221 98.7624C67.2642 98.5152 67.1852 98.2303 67.1852 97.9076C67.1852 97.5987 67.2539 97.324 67.3912 97.0837C67.5285 96.8366 67.7413 96.6306 68.0297 96.4658C68.3181 96.301 68.6819 96.1843 69.1214 96.1157L70.9545 95.817V96.8469L69.3788 97.1146C69.1111 97.1627 68.9119 97.2485 68.7815 97.3721C68.651 97.4957 68.5858 97.657 68.5858 97.8561C68.5858 98.0484 68.6579 98.2028 68.8021 98.3196C68.9531 98.4294 69.1385 98.4843 69.3582 98.4843C69.6397 98.4843 69.8869 98.426 70.0997 98.3093C70.3194 98.1857 70.4876 98.0175 70.6044 97.8046C70.7279 97.5918 70.7897 97.3584 70.7897 97.1043V95.6625C70.7897 95.4222 70.6936 95.2231 70.5014 95.0652C70.316 94.9004 70.0688 94.818 69.7599 94.818C69.4715 94.818 69.214 94.897 68.9875 95.0549C68.7678 95.2059 68.6064 95.4085 68.5034 95.6625L67.4015 95.127C67.5113 94.8318 67.683 94.5777 67.9164 94.3649C68.1567 94.1452 68.4382 93.9735 68.7609 93.85C69.0836 93.7264 69.4337 93.6646 69.8114 93.6646C70.2714 93.6646 70.6764 93.7504 71.0266 93.922C71.3768 94.0868 71.648 94.3203 71.8402 94.6224C72.0393 94.9176 72.1389 95.2643 72.1389 95.6625V99.3906H70.8618V98.4329L71.1502 98.4123C71.006 98.6526 70.8344 98.8551 70.6353 99.0199C70.4361 99.1778 70.2096 99.3014 69.9555 99.3906C69.7015 99.473 69.42 99.5142 69.1111 99.5142ZM73.3858 99.3906V93.7882H74.7349V99.3906H73.3858ZM73.3858 93.1599V91.7181H74.7349V93.1599H73.3858ZM75.9806 99.3906V93.7882H77.2473V94.8901L77.1443 94.6944C77.2748 94.358 77.4876 94.104 77.7828 93.9323C78.0849 93.7538 78.4351 93.6646 78.8333 93.6646C79.2452 93.6646 79.6091 93.7538 79.9249 93.9323C80.2476 94.1109 80.4982 94.3615 80.6767 94.6841C80.8553 95 80.9445 95.3673 80.9445 95.7861V99.3906H79.5954V96.1054C79.5954 95.8582 79.5473 95.6454 79.4512 95.4668C79.3551 95.2883 79.2212 95.151 79.0496 95.0549C78.8848 94.9519 78.6891 94.9004 78.4625 94.9004C78.2428 94.9004 78.0472 94.9519 77.8755 95.0549C77.7039 95.151 77.57 95.2883 77.4739 95.4668C77.3777 95.6454 77.3297 95.8582 77.3297 96.1054V99.3906H75.9806ZM84.029 99.3906V91.7181H85.4296V95.0652H88.6943V91.7181H90.1052V99.3906H88.6943V96.301H85.4296V99.3906H84.029ZM94.1258 99.5142C93.5491 99.5142 93.0444 99.3838 92.6119 99.1229C92.1794 98.862 91.8429 98.5084 91.6026 98.0621C91.3623 97.6158 91.2422 97.1215 91.2422 96.5791C91.2422 96.0161 91.3623 95.5183 91.6026 95.0858C91.8498 94.6464 92.1828 94.2997 92.6016 94.0456C93.0273 93.7916 93.501 93.6646 94.0228 93.6646C94.4622 93.6646 94.8467 93.7367 95.1763 93.8809C95.5127 94.025 95.7976 94.2241 96.031 94.4782C96.2645 94.7322 96.443 95.024 96.5666 95.3536C96.6902 95.6762 96.752 96.0264 96.752 96.404C96.752 96.5001 96.7451 96.5997 96.7314 96.7027C96.7245 96.8057 96.7073 96.8949 96.6799 96.9704H92.3544V95.9406H95.9178L95.2792 96.4246C95.341 96.1088 95.3239 95.8273 95.2278 95.5801C95.1385 95.333 94.9875 95.1373 94.7746 94.9931C94.5686 94.8489 94.318 94.7768 94.0228 94.7768C93.7413 94.7768 93.4907 94.8489 93.271 94.9931C93.0513 95.1304 92.8831 95.3364 92.7664 95.611C92.6565 95.8788 92.6153 96.2049 92.6428 96.5894C92.6153 96.9327 92.66 97.2382 92.7767 97.506C92.9003 97.7669 93.0788 97.9694 93.3122 98.1136C93.5525 98.2578 93.8271 98.3299 94.1361 98.3299C94.4451 98.3299 94.706 98.2646 94.9188 98.1342C95.1385 98.0037 95.3101 97.8287 95.4337 97.609L96.5254 98.1445C96.4155 98.4123 96.2439 98.6491 96.0105 98.8551C95.777 99.0611 95.499 99.2224 95.1763 99.3391C94.8604 99.4558 94.5103 99.5142 94.1258 99.5142ZM99.4538 99.5142C99.0625 99.5142 98.7226 99.449 98.4343 99.3185C98.1459 99.1881 97.9228 99.0027 97.7648 98.7624C97.6069 98.5152 97.528 98.2303 97.528 97.9076C97.528 97.5987 97.5966 97.324 97.7339 97.0837C97.8713 96.8366 98.0841 96.6306 98.3725 96.4658C98.6608 96.301 99.0247 96.1843 99.4641 96.1157L101.297 95.817V96.8469L99.7216 97.1146C99.4538 97.1627 99.2547 97.2485 99.1243 97.3721C98.9938 97.4957 98.9286 97.657 98.9286 97.8561C98.9286 98.0484 99.0007 98.2028 99.1449 98.3196C99.2959 98.4294 99.4813 98.4843 99.701 98.4843C99.9825 98.4843 100.23 98.426 100.442 98.3093C100.662 98.1857 100.83 98.0175 100.947 97.8046C101.071 97.5918 101.132 97.3584 101.132 97.1043V95.6625C101.132 95.4222 101.036 95.2231 100.844 95.0652C100.659 94.9004 100.412 94.818 100.103 94.818C99.8143 94.818 99.5568 94.897 99.3302 95.0549C99.1105 95.2059 98.9492 95.4085 98.8462 95.6625L97.7442 95.127C97.8541 94.8318 98.0257 94.5777 98.2592 94.3649C98.4995 94.1452 98.781 93.9735 99.1037 93.85C99.4264 93.7264 99.7765 93.6646 100.154 93.6646C100.614 93.6646 101.019 93.7504 101.369 93.922C101.72 94.0868 101.991 94.3203 102.183 94.6224C102.382 94.9176 102.482 95.2643 102.482 95.6625V99.3906H101.205V98.4329L101.493 98.4123C101.349 98.6526 101.177 98.8551 100.978 99.0199C100.779 99.1778 100.552 99.3014 100.298 99.3906C100.044 99.473 99.7628 99.5142 99.4538 99.5142ZM103.729 99.3906V91.5946H105.078V99.3906H103.729ZM108.877 99.4524C108.246 99.4524 107.755 99.2808 107.405 98.9375C107.061 98.5873 106.89 98.0964 106.89 97.4648V94.9931H105.922V93.7882H106.025C106.299 93.7882 106.512 93.7161 106.663 93.5719C106.814 93.4277 106.89 93.2183 106.89 92.9437V92.5111H108.239V93.7882H109.526V94.9931H108.239V97.3927C108.239 97.5781 108.27 97.736 108.332 97.8664C108.4 97.9969 108.503 98.0964 108.641 98.1651C108.785 98.2337 108.967 98.2681 109.186 98.2681C109.234 98.2681 109.289 98.2646 109.351 98.2578C109.42 98.2509 109.485 98.244 109.547 98.2372V99.3906C109.451 99.4044 109.341 99.4181 109.217 99.4318C109.094 99.4456 108.98 99.4524 108.877 99.4524ZM110.578 99.3906V91.5946H111.927V94.8901L111.741 94.6944C111.872 94.358 112.085 94.104 112.38 93.9323C112.682 93.7538 113.032 93.6646 113.43 93.6646C113.842 93.6646 114.206 93.7538 114.522 93.9323C114.845 94.1109 115.095 94.3615 115.274 94.6841C115.452 95 115.541 95.3673 115.541 95.7861V99.3906H114.192V96.1054C114.192 95.8582 114.144 95.6454 114.048 95.4668C113.952 95.2883 113.818 95.151 113.647 95.0549C113.482 94.9519 113.286 94.9004 113.06 94.9004C112.84 94.9004 112.644 94.9519 112.472 95.0549C112.301 95.151 112.167 95.2883 112.071 95.4668C111.975 95.6454 111.927 95.8582 111.927 96.1054V99.3906H110.578Z" fill="white"/>
<g opacity="0.9">
<path d="M29.7887 119.954C29.514 119.954 29.268 119.891 29.0506 119.765C28.8332 119.639 28.6615 119.468 28.5357 119.25C28.4098 119.033 28.3469 118.787 28.3469 118.512C28.3469 118.249 28.4069 118.014 28.5271 117.808C28.653 117.597 28.8246 117.431 29.042 117.311C29.2594 117.185 29.5083 117.122 29.7887 117.122C30.0519 117.122 30.2864 117.185 30.4924 117.311C30.6984 117.431 30.8614 117.597 30.9816 117.808C31.1075 118.02 31.1733 118.255 31.179 118.512C31.179 118.787 31.116 119.033 30.9902 119.25C30.87 119.468 30.7041 119.639 30.4924 119.765C30.2864 119.891 30.0519 119.954 29.7887 119.954ZM34.2776 120.838V114.444H36.9639C37.3243 114.444 37.6361 114.513 37.8993 114.65C38.1682 114.782 38.3742 114.968 38.5172 115.208C38.666 115.448 38.7404 115.729 38.7404 116.049C38.7404 116.381 38.6574 116.676 38.4915 116.933C38.3313 117.185 38.0996 117.376 37.7963 117.508L37.7877 117.302C38.0395 117.394 38.254 117.522 38.4314 117.688C38.6145 117.854 38.7547 118.049 38.8519 118.272C38.9492 118.489 38.9978 118.724 38.9978 118.976C38.9978 119.548 38.8147 120.003 38.4486 120.34C38.0881 120.672 37.5961 120.838 36.9724 120.838H34.2776ZM34.9642 120.194H36.9724C37.3787 120.194 37.7019 120.088 37.9422 119.877C38.1882 119.659 38.3113 119.362 38.3113 118.984C38.3113 118.612 38.1882 118.318 37.9422 118.1C37.7019 117.877 37.3787 117.765 36.9724 117.765H34.9642V120.194ZM34.9642 117.148H36.9124C37.2556 117.148 37.5303 117.047 37.7363 116.847C37.9479 116.647 38.0538 116.389 38.0538 116.075C38.0538 115.754 37.9479 115.511 37.7363 115.345C37.5303 115.174 37.2556 115.088 36.9124 115.088H34.9642V117.148ZM40.1338 120.838V114.341H40.7774V120.838H40.1338ZM43.4252 120.941C43.1334 120.941 42.8731 120.887 42.6442 120.778C42.4153 120.663 42.2351 120.509 42.1035 120.314C41.9719 120.12 41.9061 119.897 41.9061 119.645C41.9061 119.405 41.9576 119.187 42.0606 118.993C42.1636 118.792 42.3238 118.624 42.5412 118.486C42.7586 118.349 43.0361 118.252 43.3737 118.195L45.1759 117.894V118.478L43.5282 118.752C43.1963 118.81 42.956 118.915 42.8073 119.07C42.6642 119.224 42.5927 119.408 42.5927 119.619C42.5927 119.825 42.6728 120 42.833 120.143C42.9989 120.286 43.2106 120.357 43.4681 120.357C43.7828 120.357 44.0574 120.291 44.292 120.16C44.5266 120.023 44.7096 119.839 44.8412 119.611C44.9728 119.382 45.0386 119.127 45.0386 118.847V117.68C45.0386 117.405 44.9385 117.182 44.7383 117.01C44.538 116.839 44.2777 116.753 43.9573 116.753C43.6769 116.753 43.4309 116.824 43.2192 116.967C43.0075 117.105 42.8502 117.285 42.7472 117.508L42.1636 117.19C42.2494 116.996 42.3839 116.819 42.567 116.658C42.7558 116.498 42.9703 116.372 43.2106 116.281C43.4509 116.183 43.6998 116.135 43.9573 116.135C44.2948 116.135 44.5924 116.201 44.8498 116.332C45.113 116.464 45.3161 116.647 45.4592 116.881C45.6079 117.11 45.6823 117.376 45.6823 117.68V120.838H45.0386V119.92L45.133 120.014C45.0529 120.186 44.9271 120.343 44.7554 120.486C44.5895 120.623 44.3921 120.735 44.1632 120.821C43.9401 120.901 43.6941 120.941 43.4252 120.941ZM49.1089 120.941C48.6569 120.941 48.2592 120.835 47.9159 120.623C47.5727 120.412 47.3037 120.126 47.1092 119.765C46.9147 119.399 46.8174 118.987 46.8174 118.529C46.8174 118.072 46.9147 117.662 47.1092 117.302C47.3037 116.942 47.5727 116.658 47.9159 116.452C48.2592 116.241 48.6569 116.135 49.1089 116.135C49.3949 116.135 49.6638 116.186 49.9156 116.289C50.1673 116.392 50.3905 116.532 50.585 116.71C50.7795 116.881 50.9254 117.082 51.0227 117.311L50.4391 117.611C50.3247 117.365 50.1502 117.165 49.9156 117.01C49.681 116.856 49.4121 116.779 49.1089 116.779C48.8056 116.779 48.531 116.856 48.285 117.01C48.0447 117.159 47.853 117.368 47.71 117.637C47.5727 117.9 47.504 118.2 47.504 118.538C47.504 118.87 47.5727 119.17 47.71 119.439C47.853 119.702 48.0447 119.911 48.285 120.065C48.531 120.22 48.8056 120.297 49.1089 120.297C49.4121 120.297 49.6782 120.22 49.907 120.065C50.1416 119.911 50.319 119.705 50.4391 119.448L51.0227 119.765C50.9254 119.988 50.7795 120.189 50.585 120.366C50.3905 120.543 50.1673 120.683 49.9156 120.786C49.6638 120.889 49.3949 120.941 49.1089 120.941ZM52.1522 120.838V114.341H52.7959V118.89L52.5212 118.847L55.1045 116.238H55.9369L54.1347 118.083L56.1 120.838H55.3276L53.4824 118.289L53.8944 118.323L52.5813 119.679L52.7959 119.147V120.838H52.1522ZM56.854 120.838V114.341H57.4976V120.838H56.854ZM58.8151 120.838V116.238H59.4588V120.838H58.8151ZM58.8151 115.388V114.444H59.4588V115.388H58.8151ZM62.3726 120.941C61.932 120.941 61.5458 120.829 61.214 120.606C60.8821 120.383 60.6418 120.08 60.4931 119.696L61.0338 119.439C61.1654 119.719 61.3484 119.942 61.583 120.108C61.8233 120.274 62.0865 120.357 62.3726 120.357C62.6472 120.357 62.8789 120.291 63.0677 120.16C63.2566 120.023 63.351 119.845 63.351 119.628C63.351 119.468 63.3052 119.342 63.2136 119.25C63.1221 119.153 63.0163 119.079 62.8961 119.027C62.776 118.976 62.6701 118.938 62.5786 118.915L61.9177 118.727C61.4943 118.607 61.1882 118.438 60.9994 118.22C60.8106 118.003 60.7162 117.751 60.7162 117.465C60.7162 117.196 60.7849 116.962 60.9222 116.761C61.0595 116.561 61.2455 116.407 61.48 116.298C61.7146 116.189 61.9749 116.135 62.261 116.135C62.6501 116.135 63.002 116.238 63.3166 116.444C63.637 116.644 63.863 116.924 63.9946 117.285L63.4454 117.542C63.3309 117.285 63.165 117.085 62.9476 116.942C62.7359 116.793 62.4985 116.718 62.2353 116.718C61.9778 116.718 61.7718 116.784 61.6174 116.916C61.4629 117.047 61.3856 117.213 61.3856 117.414C61.3856 117.568 61.4257 117.691 61.5058 117.783C61.5859 117.874 61.6774 117.943 61.7804 117.989C61.8891 118.034 61.9835 118.069 62.0636 118.092L62.8274 118.315C63.1993 118.423 63.4883 118.592 63.6942 118.821C63.9059 119.05 64.0118 119.319 64.0118 119.628C64.0118 119.88 63.9403 120.106 63.7972 120.306C63.6599 120.506 63.4682 120.663 63.2222 120.778C62.9762 120.887 62.693 120.941 62.3726 120.941ZM66.9022 120.889C66.4902 120.889 66.1727 120.769 65.9496 120.529C65.7264 120.289 65.6148 119.945 65.6148 119.499V116.881H64.7652V116.238H64.9798C65.1743 116.238 65.3288 116.175 65.4432 116.049C65.5576 115.917 65.6148 115.754 65.6148 115.56V115.174H66.2585V116.238H67.2712V116.881H66.2585V119.499C66.2585 119.654 66.2814 119.791 66.3272 119.911C66.3729 120.025 66.4502 120.117 66.5589 120.186C66.6733 120.254 66.8249 120.289 67.0137 120.289C67.0595 120.289 67.1139 120.286 67.1768 120.28C67.2397 120.274 67.2941 120.269 67.3399 120.263V120.838C67.2712 120.855 67.194 120.866 67.1082 120.872C67.0223 120.884 66.9537 120.889 66.9022 120.889ZM71.5247 120.941C71.0841 120.941 70.6979 120.829 70.3661 120.606C70.0343 120.383 69.794 120.08 69.6452 119.696L70.1859 119.439C70.3175 119.719 70.5006 119.942 70.7351 120.108C70.9754 120.274 71.2386 120.357 71.5247 120.357C71.7993 120.357 72.031 120.291 72.2199 120.16C72.4087 120.023 72.5031 119.845 72.5031 119.628C72.5031 119.468 72.4573 119.342 72.3658 119.25C72.2742 119.153 72.1684 119.079 72.0482 119.027C71.9281 118.976 71.8222 118.938 71.7307 118.915L71.0698 118.727C70.6465 118.607 70.3404 118.438 70.1515 118.22C69.9627 118.003 69.8683 117.751 69.8683 117.465C69.8683 117.196 69.937 116.962 70.0743 116.761C70.2116 116.561 70.3976 116.407 70.6321 116.298C70.8667 116.189 71.1271 116.135 71.4131 116.135C71.8022 116.135 72.1541 116.238 72.4687 116.444C72.7891 116.644 73.0151 116.924 73.1467 117.285L72.5975 117.542C72.483 117.285 72.3171 117.085 72.0997 116.942C71.888 116.793 71.6506 116.718 71.3874 116.718C71.1299 116.718 70.9239 116.784 70.7695 116.916C70.615 117.047 70.5377 117.213 70.5377 117.414C70.5377 117.568 70.5778 117.691 70.6579 117.783C70.738 117.874 70.8295 117.943 70.9325 117.989C71.0412 118.034 71.1356 118.069 71.2157 118.092L71.9796 118.315C72.3514 118.423 72.6404 118.592 72.8464 118.821C73.058 119.05 73.1639 119.319 73.1639 119.628C73.1639 119.88 73.0924 120.106 72.9493 120.306C72.812 120.506 72.6204 120.663 72.3743 120.778C72.1283 120.887 71.8451 120.941 71.5247 120.941ZM76.0543 120.889C75.6423 120.889 75.3248 120.769 75.1017 120.529C74.8785 120.289 74.767 119.945 74.767 119.499V116.881H73.9173V116.238H74.1319C74.3264 116.238 74.4809 116.175 74.5953 116.049C74.7097 115.917 74.767 115.754 74.767 115.56V115.174H75.4106V116.238H76.4233V116.881H75.4106V119.499C75.4106 119.654 75.4335 119.791 75.4793 119.911C75.525 120.025 75.6023 120.117 75.711 120.186C75.8254 120.254 75.977 120.289 76.1659 120.289C76.2116 120.289 76.266 120.286 76.3289 120.28C76.3919 120.274 76.4462 120.269 76.492 120.263V120.838C76.4233 120.855 76.3461 120.866 76.2603 120.872C76.1744 120.884 76.1058 120.889 76.0543 120.889ZM78.8686 120.941C78.5769 120.941 78.3165 120.887 78.0877 120.778C77.8588 120.663 77.6786 120.509 77.547 120.314C77.4154 120.12 77.3496 119.897 77.3496 119.645C77.3496 119.405 77.4011 119.187 77.5041 118.993C77.6071 118.792 77.7673 118.624 77.9847 118.486C78.2021 118.349 78.4796 118.252 78.8172 118.195L80.6194 117.894V118.478L78.9716 118.752C78.6398 118.81 78.3995 118.915 78.2507 119.07C78.1077 119.224 78.0362 119.408 78.0362 119.619C78.0362 119.825 78.1163 120 78.2765 120.143C78.4424 120.286 78.6541 120.357 78.9116 120.357C79.2262 120.357 79.5009 120.291 79.7354 120.16C79.97 120.023 80.1531 119.839 80.2847 119.611C80.4163 119.382 80.4821 119.127 80.4821 118.847V117.68C80.4821 117.405 80.382 117.182 80.1817 117.01C79.9815 116.839 79.7211 116.753 79.4007 116.753C79.1204 116.753 78.8744 116.824 78.6627 116.967C78.451 117.105 78.2936 117.285 78.1907 117.508L77.6071 117.19C77.6929 116.996 77.8273 116.819 78.0104 116.658C78.1992 116.498 78.4138 116.372 78.6541 116.281C78.8944 116.183 79.1433 116.135 79.4007 116.135C79.7383 116.135 80.0358 116.201 80.2933 116.332C80.5565 116.464 80.7596 116.647 80.9026 116.881C81.0514 117.11 81.1258 117.376 81.1258 117.68V120.838H80.4821V119.92L80.5765 120.014C80.4964 120.186 80.3705 120.343 80.1989 120.486C80.033 120.623 79.8356 120.735 79.6067 120.821C79.3836 120.901 79.1376 120.941 78.8686 120.941ZM84.1252 120.889C83.7133 120.889 83.3958 120.769 83.1726 120.529C82.9495 120.289 82.8379 119.945 82.8379 119.499V116.881H81.9883V116.238H82.2028C82.3974 116.238 82.5518 116.175 82.6663 116.049C82.7807 115.917 82.8379 115.754 82.8379 115.56V115.174H83.4816V116.238H84.4943V116.881H83.4816V119.499C83.4816 119.654 83.5045 119.791 83.5502 119.911C83.596 120.025 83.6732 120.117 83.782 120.186C83.8964 120.254 84.048 120.289 84.2368 120.289C84.2826 120.289 84.3369 120.286 84.3999 120.28C84.4628 120.274 84.5172 120.269 84.5629 120.263V120.838C84.4943 120.855 84.417 120.866 84.3312 120.872C84.2454 120.884 84.1767 120.889 84.1252 120.889ZM87.3238 120.941C87.0034 120.941 86.7116 120.866 86.4484 120.718C86.1852 120.563 85.9764 120.352 85.8219 120.083C85.6731 119.808 85.5988 119.493 85.5988 119.139V116.238H86.2424V119.061C86.2424 119.307 86.2911 119.525 86.3883 119.714C86.4913 119.897 86.6315 120.04 86.8089 120.143C86.9919 120.246 87.2008 120.297 87.4354 120.297C87.6699 120.297 87.8788 120.246 88.0619 120.143C88.2449 120.034 88.388 119.882 88.491 119.688C88.5939 119.488 88.6454 119.25 88.6454 118.976V116.238H89.2891V120.838H88.6454V119.945L88.7913 119.98C88.6826 120.277 88.4967 120.512 88.2335 120.683C87.9703 120.855 87.6671 120.941 87.3238 120.941ZM92.2091 120.941C91.7686 120.941 91.3824 120.829 91.0505 120.606C90.7187 120.383 90.4784 120.08 90.3296 119.696L90.8703 119.439C91.0019 119.719 91.185 119.942 91.4196 120.108C91.6599 120.274 91.9231 120.357 92.2091 120.357C92.4838 120.357 92.7155 120.291 92.9043 120.16C93.0931 120.023 93.1875 119.845 93.1875 119.628C93.1875 119.468 93.1417 119.342 93.0502 119.25C92.9586 119.153 92.8528 119.079 92.7326 119.027C92.6125 118.976 92.5066 118.938 92.4151 118.915L91.7543 118.727C91.3309 118.607 91.0248 118.438 90.836 118.22C90.6472 118.003 90.5528 117.751 90.5528 117.465C90.5528 117.196 90.6214 116.962 90.7587 116.761C90.8961 116.561 91.082 116.407 91.3166 116.298C91.5512 116.189 91.8115 116.135 92.0976 116.135C92.4866 116.135 92.8385 116.238 93.1532 116.444C93.4736 116.644 93.6996 116.924 93.8312 117.285L93.2819 117.542C93.1675 117.285 93.0016 117.085 92.7841 116.942C92.5724 116.793 92.335 116.718 92.0718 116.718C91.8144 116.718 91.6084 116.784 91.4539 116.916C91.2994 117.047 91.2222 117.213 91.2222 117.414C91.2222 117.568 91.2622 117.691 91.3423 117.783C91.4224 117.874 91.514 117.943 91.617 117.989C91.7257 118.034 91.8201 118.069 91.9002 118.092L92.664 118.315C93.0359 118.423 93.3248 118.592 93.5308 118.821C93.7425 119.05 93.8483 119.319 93.8483 119.628C93.8483 119.88 93.7768 120.106 93.6338 120.306C93.4965 120.506 93.3048 120.663 93.0588 120.778C92.8127 120.887 92.5295 120.941 92.2091 120.941ZM97.6649 120.838L95.8713 116.238H96.5922L98.1026 120.271H97.8709L99.39 116.238H100.119L98.3086 120.838H97.6649ZM102.881 120.941C102.452 120.941 102.063 120.838 101.714 120.632C101.371 120.42 101.099 120.131 100.899 119.765C100.699 119.399 100.599 118.984 100.599 118.521C100.599 118.057 100.696 117.648 100.89 117.293C101.085 116.933 101.348 116.65 101.68 116.444C102.018 116.238 102.395 116.135 102.813 116.135C103.145 116.135 103.439 116.198 103.697 116.324C103.96 116.444 104.183 116.61 104.366 116.821C104.549 117.027 104.689 117.262 104.787 117.525C104.884 117.783 104.933 118.049 104.933 118.323C104.933 118.381 104.93 118.446 104.924 118.521C104.918 118.589 104.91 118.661 104.898 118.735H101.011V118.134H104.529L104.22 118.392C104.272 118.077 104.235 117.797 104.109 117.551C103.989 117.299 103.814 117.102 103.585 116.959C103.356 116.81 103.099 116.736 102.813 116.736C102.527 116.736 102.261 116.81 102.015 116.959C101.774 117.107 101.586 117.316 101.448 117.585C101.311 117.848 101.257 118.163 101.285 118.529C101.257 118.895 101.314 119.216 101.457 119.49C101.606 119.759 101.806 119.968 102.058 120.117C102.315 120.266 102.59 120.34 102.881 120.34C103.219 120.34 103.502 120.26 103.731 120.1C103.96 119.94 104.146 119.739 104.289 119.499L104.838 119.791C104.747 119.997 104.607 120.189 104.418 120.366C104.229 120.538 104.003 120.678 103.74 120.786C103.482 120.889 103.196 120.941 102.881 120.941ZM106.068 120.838V116.238H106.711V116.993L106.625 116.881C106.734 116.664 106.897 116.492 107.115 116.367C107.338 116.241 107.607 116.178 107.921 116.178H108.213V116.821H107.81C107.478 116.821 107.212 116.924 107.012 117.13C106.811 117.336 106.711 117.628 106.711 118.006V120.838H106.068ZM108.967 120.838V116.238H109.611V120.838H108.967ZM108.967 115.388V114.444H109.611V115.388H108.967ZM111.401 120.838V116.881H110.482V116.238H111.401V115.826C111.401 115.505 111.472 115.237 111.615 115.019C111.758 114.796 111.947 114.627 112.182 114.513C112.416 114.398 112.668 114.341 112.937 114.341C112.994 114.341 113.06 114.347 113.134 114.358C113.209 114.364 113.269 114.373 113.314 114.384V114.968C113.274 114.956 113.22 114.951 113.151 114.951C113.083 114.945 113.034 114.942 113.005 114.942C112.731 114.942 112.502 115.008 112.319 115.139C112.136 115.271 112.044 115.5 112.044 115.826V116.238H114.627V116.881H112.044V120.838H111.401ZM114.087 120.838V116.238H114.73V120.838H114.087ZM118.018 120.941C117.589 120.941 117.2 120.838 116.851 120.632C116.507 120.42 116.235 120.131 116.035 119.765C115.835 119.399 115.735 118.984 115.735 118.521C115.735 118.057 115.832 117.648 116.027 117.293C116.221 116.933 116.484 116.65 116.816 116.444C117.154 116.238 117.531 116.135 117.949 116.135C118.281 116.135 118.576 116.198 118.833 116.324C119.096 116.444 119.319 116.61 119.502 116.821C119.685 117.027 119.826 117.262 119.923 117.525C120.02 117.783 120.069 118.049 120.069 118.323C120.069 118.381 120.066 118.446 120.06 118.521C120.055 118.589 120.046 118.661 120.034 118.735H116.147V118.134H119.665L119.357 118.392C119.408 118.077 119.371 117.797 119.245 117.551C119.125 117.299 118.95 117.102 118.721 116.959C118.493 116.81 118.235 116.736 117.949 116.736C117.663 116.736 117.397 116.81 117.151 116.959C116.911 117.107 116.722 117.316 116.584 117.585C116.447 117.848 116.393 118.163 116.421 118.529C116.393 118.895 116.45 119.216 116.593 119.49C116.742 119.759 116.942 119.968 117.194 120.117C117.451 120.266 117.726 120.34 118.018 120.34C118.355 120.34 118.638 120.26 118.867 120.1C119.096 119.94 119.282 119.739 119.425 119.499L119.974 119.791C119.883 119.997 119.743 120.189 119.554 120.366C119.365 120.538 119.139 120.678 118.876 120.786C118.618 120.889 118.332 120.941 118.018 120.941ZM123.281 120.941C122.851 120.941 122.465 120.838 122.122 120.632C121.779 120.42 121.507 120.134 121.307 119.774C121.112 119.408 121.015 118.996 121.015 118.538C121.015 118.074 121.112 117.662 121.307 117.302C121.507 116.942 121.776 116.658 122.113 116.452C122.457 116.241 122.846 116.135 123.281 116.135C123.675 116.135 124.027 116.221 124.336 116.392C124.645 116.564 124.888 116.796 125.066 117.087L124.963 117.268V114.341H125.606V120.838H124.963V119.808L125.066 119.902C124.905 120.234 124.665 120.492 124.345 120.675C124.03 120.852 123.675 120.941 123.281 120.941ZM123.315 120.297C123.624 120.297 123.901 120.22 124.147 120.065C124.399 119.911 124.597 119.702 124.74 119.439C124.888 119.17 124.963 118.87 124.963 118.538C124.963 118.206 124.888 117.909 124.74 117.645C124.597 117.376 124.399 117.165 124.147 117.01C123.901 116.856 123.624 116.779 123.315 116.779C123.012 116.779 122.737 116.856 122.491 117.01C122.245 117.165 122.05 117.374 121.907 117.637C121.77 117.9 121.701 118.2 121.701 118.538C121.701 118.87 121.77 119.17 121.907 119.439C122.05 119.702 122.242 119.911 122.482 120.065C122.728 120.22 123.006 120.297 123.315 120.297Z" fill="white"/>
<path d="M29.7887 136.388C29.514 136.388 29.268 136.325 29.0506 136.199C28.8332 136.073 28.6615 135.901 28.5357 135.684C28.4098 135.466 28.3469 135.22 28.3469 134.946C28.3469 134.683 28.4069 134.448 28.5271 134.242C28.653 134.03 28.8246 133.864 29.042 133.744C29.2594 133.618 29.5083 133.555 29.7887 133.555C30.0519 133.555 30.2864 133.618 30.4924 133.744C30.6984 133.864 30.8614 134.03 30.9816 134.242C31.1075 134.454 31.1733 134.688 31.179 134.946C31.179 135.22 31.116 135.466 30.9902 135.684C30.87 135.901 30.7041 136.073 30.4924 136.199C30.2864 136.325 30.0519 136.388 29.7887 136.388ZM35.0758 137.271V131.479H33.8743V130.878H35.7623V137.271H35.0758ZM39.8569 137.374C39.3534 137.374 38.91 137.237 38.5266 136.963C38.149 136.682 37.8543 136.296 37.6427 135.804C37.431 135.306 37.3251 134.728 37.3251 134.07C37.3251 133.412 37.431 132.837 37.6427 132.345C37.8543 131.848 38.149 131.461 38.5266 131.187C38.9042 130.912 39.3448 130.775 39.8483 130.775C40.3518 130.775 40.7923 130.912 41.1699 131.187C41.5476 131.461 41.8422 131.848 42.0539 132.345C42.2656 132.837 42.3714 133.412 42.3714 134.07C42.3714 134.728 42.2656 135.306 42.0539 135.804C41.8479 136.302 41.5561 136.688 41.1785 136.963C40.8009 137.237 40.3603 137.374 39.8569 137.374ZM39.8569 136.731C40.223 136.731 40.5434 136.619 40.8181 136.396C41.0927 136.173 41.3072 135.864 41.4617 135.469C41.6162 135.069 41.6934 134.602 41.6934 134.07C41.6934 133.538 41.6162 133.075 41.4617 132.68C41.3072 132.28 41.0927 131.971 40.8181 131.753C40.5434 131.53 40.2202 131.418 39.8483 131.418C39.4821 131.418 39.1617 131.53 38.8871 131.753C38.6124 131.971 38.3979 132.28 38.2434 132.68C38.0889 133.075 38.0117 133.538 38.0117 134.07C38.0117 134.597 38.0889 135.06 38.2434 135.461C38.3979 135.861 38.6124 136.173 38.8871 136.396C39.1674 136.619 39.4907 136.731 39.8569 136.731ZM46.1426 137.374C45.6392 137.374 45.1957 137.237 44.8124 136.963C44.4348 136.682 44.1401 136.296 43.9284 135.804C43.7167 135.306 43.6109 134.728 43.6109 134.07C43.6109 133.412 43.7167 132.837 43.9284 132.345C44.1401 131.848 44.4348 131.461 44.8124 131.187C45.19 130.912 45.6306 130.775 46.1341 130.775C46.6376 130.775 47.0781 130.912 47.4557 131.187C47.8333 131.461 48.128 131.848 48.3397 132.345C48.5514 132.837 48.6572 133.412 48.6572 134.07C48.6572 134.728 48.5514 135.306 48.3397 135.804C48.1337 136.302 47.8419 136.688 47.4643 136.963C47.0867 137.237 46.6461 137.374 46.1426 137.374ZM46.1426 136.731C46.5088 136.731 46.8292 136.619 47.1039 136.396C47.3785 136.173 47.593 135.864 47.7475 135.469C47.902 135.069 47.9792 134.602 47.9792 134.07C47.9792 133.538 47.902 133.075 47.7475 132.68C47.593 132.28 47.3785 131.971 47.1039 131.753C46.8292 131.53 46.506 131.418 46.1341 131.418C45.7679 131.418 45.4475 131.53 45.1729 131.753C44.8982 131.971 44.6837 132.28 44.5292 132.68C44.3747 133.075 44.2975 133.538 44.2975 134.07C44.2975 134.597 44.3747 135.06 44.5292 135.461C44.6837 135.861 44.8982 136.173 45.1729 136.396C45.4532 136.619 45.7765 136.731 46.1426 136.731ZM50.4631 137.271L55.6983 130.878H56.5307L51.2956 137.271H50.4631ZM51.3986 134.122C51.0896 134.122 50.8093 134.047 50.5575 133.899C50.3058 133.744 50.1027 133.541 49.9482 133.289C49.7994 133.038 49.725 132.757 49.725 132.448C49.725 132.139 49.7994 131.859 49.9482 131.607C50.1027 131.35 50.3058 131.147 50.5575 130.998C50.8093 130.849 51.0896 130.775 51.3986 130.775C51.7075 130.775 51.9879 130.849 52.2396 130.998C52.4914 131.147 52.6916 131.35 52.8404 131.607C52.9891 131.859 53.0635 132.139 53.0635 132.448C53.0635 132.757 52.9891 133.038 52.8404 133.289C52.6916 133.541 52.4914 133.744 52.2396 133.899C51.9879 134.047 51.7075 134.122 51.3986 134.122ZM51.3986 133.504C51.5988 133.504 51.7733 133.455 51.9221 133.358C52.0766 133.255 52.1967 133.123 52.2825 132.963C52.3741 132.797 52.4199 132.626 52.4199 132.448C52.4199 132.265 52.3741 132.094 52.2825 131.933C52.1967 131.773 52.0766 131.644 51.9221 131.547C51.7733 131.444 51.5988 131.393 51.3986 131.393C51.204 131.393 51.0267 131.444 50.8665 131.547C50.712 131.644 50.589 131.773 50.4974 131.933C50.4116 132.094 50.3687 132.265 50.3687 132.448C50.3687 132.626 50.4116 132.797 50.4974 132.963C50.589 133.123 50.712 133.255 50.8665 133.358C51.0267 133.455 51.204 133.504 51.3986 133.504ZM55.518 137.374C55.2091 137.374 54.9287 137.3 54.677 137.151C54.4252 136.997 54.2221 136.794 54.0676 136.542C53.9189 136.29 53.8445 136.01 53.8445 135.701C53.8445 135.392 53.9189 135.112 54.0676 134.86C54.2221 134.602 54.4252 134.399 54.677 134.251C54.9287 134.102 55.2091 134.027 55.518 134.027C55.827 134.027 56.1073 134.102 56.3591 134.251C56.6108 134.399 56.8111 134.602 56.9598 134.86C57.1086 135.112 57.183 135.392 57.183 135.701C57.183 136.01 57.1086 136.29 56.9598 136.542C56.8111 136.794 56.6108 136.997 56.3591 137.151C56.1073 137.3 55.827 137.374 55.518 137.374ZM55.518 136.757C55.7183 136.757 55.8928 136.708 56.0415 136.611C56.196 136.508 56.3162 136.376 56.402 136.216C56.4935 136.05 56.5393 135.878 56.5393 135.701C56.5393 135.518 56.4935 135.346 56.402 135.186C56.3162 135.026 56.196 134.897 56.0415 134.8C55.8928 134.697 55.7183 134.645 55.518 134.645C55.3235 134.645 55.1461 134.697 54.9859 134.8C54.8315 134.897 54.7084 135.026 54.6169 135.186C54.5311 135.346 54.4882 135.518 54.4882 135.701C54.4882 135.878 54.5311 136.05 54.6169 136.216C54.7084 136.376 54.8315 136.508 54.9859 136.611C55.1461 136.708 55.3235 136.757 55.518 136.757ZM60.2258 137.271V133.315H59.3075V132.671H60.2258V132.259C60.2258 131.939 60.2973 131.67 60.4404 131.453C60.5834 131.23 60.7722 131.061 61.0068 130.946C61.2414 130.832 61.4931 130.775 61.762 130.775C61.8193 130.775 61.8851 130.78 61.9594 130.792C62.0338 130.798 62.0939 130.806 62.1397 130.818V131.401C62.0996 131.39 62.0453 131.384 61.9766 131.384C61.9079 131.378 61.8593 131.376 61.8307 131.376C61.5561 131.376 61.3272 131.441 61.1441 131.573C60.961 131.704 60.8695 131.933 60.8695 132.259V132.671H61.9938V133.315H60.8695V137.271H60.2258ZM63.0392 137.271V132.671H63.6828V133.427L63.597 133.315C63.7057 133.098 63.8688 132.926 64.0862 132.8C64.3093 132.674 64.5783 132.611 64.8929 132.611H65.1847V133.255H64.7814C64.4495 133.255 64.1835 133.358 63.9832 133.564C63.783 133.77 63.6828 134.062 63.6828 134.439V137.271H63.0392ZM68.0331 137.374C67.604 137.374 67.2149 137.271 66.8659 137.066C66.5226 136.854 66.2508 136.565 66.0506 136.199C65.8503 135.833 65.7502 135.418 65.7502 134.954C65.7502 134.491 65.8475 134.082 66.042 133.727C66.2365 133.367 66.4997 133.083 66.8316 132.877C67.1691 132.671 67.5468 132.568 67.9644 132.568C68.2963 132.568 68.5909 132.631 68.8484 132.757C69.1116 132.877 69.3347 133.043 69.5178 133.255C69.7009 133.461 69.8411 133.696 69.9383 133.959C70.0356 134.216 70.0842 134.482 70.0842 134.757C70.0842 134.814 70.0814 134.88 70.0756 134.954C70.0699 135.023 70.0613 135.094 70.0499 135.169H66.1622V134.568H69.6809L69.3719 134.826C69.4234 134.511 69.3862 134.231 69.2603 133.985C69.1402 133.733 68.9657 133.535 68.7368 133.392C68.508 133.244 68.2505 133.169 67.9644 133.169C67.6784 133.169 67.4123 133.244 67.1663 133.392C66.926 133.541 66.7372 133.75 66.5999 134.019C66.4625 134.282 66.4082 134.597 66.4368 134.963C66.4082 135.329 66.4654 135.649 66.6084 135.924C66.7572 136.193 66.9574 136.402 67.2092 136.551C67.4667 136.699 67.7413 136.774 68.0331 136.774C68.3707 136.774 68.6539 136.694 68.8827 136.533C69.1116 136.373 69.2975 136.173 69.4406 135.933L69.9898 136.224C69.8983 136.43 69.7581 136.622 69.5693 136.799C69.3805 136.971 69.1545 137.111 68.8913 137.22C68.6338 137.323 68.3478 137.374 68.0331 137.374ZM72.8154 137.374C72.3748 137.374 71.9886 137.263 71.6568 137.04C71.3249 136.817 71.0846 136.513 70.9359 136.13L71.4766 135.873C71.6081 136.153 71.7912 136.376 72.0258 136.542C72.2661 136.708 72.5293 136.791 72.8154 136.791C73.09 136.791 73.3217 136.725 73.5105 136.593C73.6993 136.456 73.7937 136.279 73.7937 136.061C73.7937 135.901 73.748 135.775 73.6564 135.684C73.5649 135.587 73.459 135.512 73.3389 135.461C73.2187 135.409 73.1129 135.372 73.0213 135.349L72.3605 135.16C71.9371 135.04 71.631 134.871 71.4422 134.654C71.2534 134.436 71.159 134.185 71.159 133.899C71.159 133.63 71.2277 133.395 71.365 133.195C71.5023 132.995 71.6882 132.84 71.9228 132.732C72.1574 132.623 72.4177 132.568 72.7038 132.568C73.0929 132.568 73.4447 132.671 73.7594 132.877C74.0798 133.078 74.3058 133.358 74.4374 133.718L73.8882 133.976C73.7737 133.718 73.6078 133.518 73.3904 133.375C73.1787 133.226 72.9412 133.152 72.6781 133.152C72.4206 133.152 72.2146 133.218 72.0601 133.349C71.9057 133.481 71.8284 133.647 71.8284 133.847C71.8284 134.002 71.8685 134.125 71.9486 134.216C72.0287 134.308 72.1202 134.376 72.2232 134.422C72.3319 134.468 72.4263 134.502 72.5064 134.525L73.2702 134.748C73.6421 134.857 73.9311 135.026 74.137 135.255C74.3487 135.484 74.4546 135.752 74.4546 136.061C74.4546 136.313 74.3831 136.539 74.24 136.739C74.1027 136.94 73.911 137.097 73.665 137.211C73.419 137.32 73.1358 137.374 72.8154 137.374ZM75.5856 137.271V130.775H76.2293V133.564L76.0834 133.53C76.1978 133.232 76.3838 132.998 76.6412 132.826C76.9044 132.654 77.2077 132.568 77.5509 132.568C77.8771 132.568 78.1689 132.643 78.4263 132.792C78.6895 132.94 78.8955 133.146 79.0442 133.409C79.1987 133.667 79.276 133.959 79.276 134.285V137.271H78.6323V134.534C78.6323 134.253 78.5808 134.016 78.4778 133.821C78.3748 133.627 78.2318 133.478 78.0487 133.375C77.8713 133.266 77.6682 133.212 77.4394 133.212C77.2105 133.212 77.0045 133.266 76.8215 133.375C76.6384 133.478 76.4925 133.63 76.3838 133.83C76.2808 134.025 76.2293 134.259 76.2293 134.534V137.271H75.5856ZM84.0405 137.374C83.6114 137.374 83.2252 137.271 82.8819 137.066C82.5386 136.854 82.2668 136.568 82.0666 136.207C81.8721 135.841 81.7748 135.429 81.7748 134.971C81.7748 134.508 81.8721 134.096 82.0666 133.736C82.2668 133.375 82.5357 133.092 82.8733 132.886C83.2166 132.674 83.6057 132.568 84.0405 132.568C84.4353 132.568 84.7871 132.654 85.0961 132.826C85.4051 132.998 85.6482 133.229 85.8256 133.521L85.7226 133.701V130.775H86.3663V137.271H85.7226V136.242L85.8256 136.336C85.6654 136.668 85.4251 136.925 85.1047 137.108C84.79 137.286 84.4353 137.374 84.0405 137.374ZM84.0748 136.731C84.3838 136.731 84.6613 136.654 84.9073 136.499C85.159 136.345 85.3564 136.136 85.4995 135.873C85.6482 135.604 85.7226 135.303 85.7226 134.971C85.7226 134.64 85.6482 134.342 85.4995 134.079C85.3564 133.81 85.159 133.598 84.9073 133.444C84.6613 133.289 84.3838 133.212 84.0748 133.212C83.7716 133.212 83.497 133.289 83.2509 133.444C83.0049 133.598 82.8104 133.807 82.6673 134.07C82.53 134.334 82.4614 134.634 82.4614 134.971C82.4614 135.303 82.53 135.604 82.6673 135.873C82.8104 136.136 83.002 136.345 83.2423 136.499C83.4884 136.654 83.7659 136.731 84.0748 136.731ZM89.842 137.374C89.4072 137.374 89.0124 137.271 88.6576 137.066C88.3029 136.854 88.0197 136.568 87.808 136.207C87.602 135.841 87.499 135.426 87.499 134.963C87.499 134.505 87.602 134.096 87.808 133.736C88.014 133.375 88.2915 133.092 88.6405 132.886C88.9952 132.674 89.3957 132.568 89.842 132.568C90.2883 132.568 90.6859 132.671 91.0349 132.877C91.3896 133.083 91.6671 133.367 91.8674 133.727C92.0734 134.087 92.1763 134.499 92.1763 134.963C92.1763 135.432 92.0705 135.85 91.8588 136.216C91.6471 136.576 91.3639 136.86 91.0092 137.066C90.6602 137.271 90.2711 137.374 89.842 137.374ZM89.842 136.731C90.1509 136.731 90.4284 136.654 90.6745 136.499C90.9262 136.345 91.1236 136.133 91.2666 135.864C91.4154 135.595 91.4898 135.295 91.4898 134.963C91.4898 134.631 91.4154 134.334 91.2666 134.07C91.1236 133.807 90.9262 133.598 90.6745 133.444C90.4284 133.289 90.1509 133.212 89.842 133.212C89.533 133.212 89.2527 133.289 89.0009 133.444C88.7549 133.598 88.5575 133.807 88.4088 134.07C88.26 134.334 88.1856 134.631 88.1856 134.963C88.1856 135.295 88.26 135.595 88.4088 135.864C88.5575 136.133 88.7549 136.345 89.0009 136.499C89.2527 136.654 89.533 136.731 89.842 136.731ZM93.3115 137.271V132.671H93.9552V133.547L93.8522 133.418C93.9781 133.149 94.164 132.94 94.4101 132.792C94.6618 132.643 94.9364 132.568 95.234 132.568C95.5887 132.568 95.9091 132.669 96.1952 132.869C96.4812 133.069 96.6843 133.329 96.8045 133.65L96.6243 133.658C96.7387 133.304 96.9361 133.035 97.2164 132.852C97.5025 132.663 97.8172 132.568 98.1605 132.568C98.4694 132.568 98.7527 132.643 99.0101 132.792C99.2733 132.94 99.4821 133.146 99.6366 133.409C99.7968 133.667 99.8769 133.959 99.8769 134.285V137.271H99.2333V134.534C99.2333 134.253 99.1818 134.016 99.0788 133.821C98.9815 133.627 98.8471 133.478 98.6754 133.375C98.5038 133.266 98.3064 133.212 98.0832 133.212C97.8658 133.212 97.6684 133.266 97.4911 133.375C97.3137 133.478 97.1735 133.63 97.0705 133.83C96.9676 134.025 96.9161 134.259 96.9161 134.534V137.271H96.2724V134.534C96.2724 134.253 96.2209 134.016 96.1179 133.821C96.0207 133.627 95.8862 133.478 95.7146 133.375C95.5429 133.266 95.3455 133.212 95.1224 133.212C94.8992 133.212 94.699 133.266 94.5216 133.375C94.35 133.478 94.2127 133.63 94.1097 133.83C94.0067 134.025 93.9552 134.259 93.9552 134.534V137.271H93.3115ZM102.436 137.374C102.144 137.374 101.884 137.32 101.655 137.211C101.426 137.097 101.246 136.943 101.115 136.748C100.983 136.553 100.917 136.33 100.917 136.079C100.917 135.838 100.969 135.621 101.072 135.426C101.175 135.226 101.335 135.057 101.552 134.92C101.77 134.783 102.047 134.685 102.385 134.628L104.187 134.328V134.911L102.539 135.186C102.207 135.243 101.967 135.349 101.818 135.504C101.675 135.658 101.604 135.841 101.604 136.053C101.604 136.259 101.684 136.433 101.844 136.576C102.01 136.719 102.222 136.791 102.479 136.791C102.794 136.791 103.068 136.725 103.303 136.593C103.538 136.456 103.721 136.273 103.852 136.044C103.984 135.815 104.05 135.561 104.05 135.28V134.113C104.05 133.839 103.949 133.615 103.749 133.444C103.549 133.272 103.289 133.186 102.968 133.186C102.688 133.186 102.442 133.258 102.23 133.401C102.018 133.538 101.861 133.718 101.758 133.942L101.175 133.624C101.26 133.43 101.395 133.252 101.578 133.092C101.767 132.932 101.981 132.806 102.222 132.714C102.462 132.617 102.711 132.568 102.968 132.568C103.306 132.568 103.603 132.634 103.861 132.766C104.124 132.897 104.327 133.081 104.47 133.315C104.619 133.544 104.693 133.81 104.693 134.113V137.271H104.05V136.353L104.144 136.448C104.064 136.619 103.938 136.777 103.766 136.92C103.6 137.057 103.403 137.168 103.174 137.254C102.951 137.334 102.705 137.374 102.436 137.374ZM106.017 137.271V132.671H106.661V137.271H106.017ZM106.017 131.822V130.878H106.661V131.822H106.017ZM107.978 137.271V132.671H108.622V133.564L108.476 133.53C108.591 133.232 108.777 132.998 109.034 132.826C109.297 132.654 109.6 132.568 109.944 132.568C110.27 132.568 110.562 132.643 110.819 132.792C111.082 132.94 111.288 133.146 111.437 133.409C111.591 133.667 111.669 133.959 111.669 134.285V137.271H111.025V134.534C111.025 134.253 110.974 134.016 110.871 133.821C110.773 133.627 110.633 133.478 110.45 133.375C110.273 133.266 110.067 133.212 109.832 133.212C109.598 133.212 109.389 133.266 109.206 133.375C109.023 133.478 108.88 133.63 108.777 133.83C108.674 134.025 108.622 134.259 108.622 134.534V137.271H107.978ZM114.494 137.374C114.054 137.374 113.668 137.263 113.336 137.04C113.004 136.817 112.764 136.513 112.615 136.13L113.156 135.873C113.287 136.153 113.47 136.376 113.705 136.542C113.945 136.708 114.208 136.791 114.494 136.791C114.769 136.791 115.001 136.725 115.19 136.593C115.378 136.456 115.473 136.279 115.473 136.061C115.473 135.901 115.427 135.775 115.335 135.684C115.244 135.587 115.138 135.512 115.018 135.461C114.898 135.409 114.792 135.372 114.7 135.349L114.039 135.16C113.616 135.04 113.31 134.871 113.121 134.654C112.932 134.436 112.838 134.185 112.838 133.899C112.838 133.63 112.907 133.395 113.044 133.195C113.181 132.995 113.367 132.84 113.602 132.732C113.836 132.623 114.097 132.568 114.383 132.568C114.772 132.568 115.124 132.671 115.438 132.877C115.759 133.078 115.985 133.358 116.116 133.718L115.567 133.976C115.453 133.718 115.287 133.518 115.069 133.375C114.858 133.226 114.62 133.152 114.357 133.152C114.1 133.152 113.894 133.218 113.739 133.349C113.585 133.481 113.507 133.647 113.507 133.847C113.507 134.002 113.547 134.125 113.628 134.216C113.708 134.308 113.799 134.376 113.902 134.422C114.011 134.468 114.105 134.502 114.185 134.525L114.949 134.748C115.321 134.857 115.61 135.026 115.816 135.255C116.028 135.484 116.134 135.752 116.134 136.061C116.134 136.313 116.062 136.539 115.919 136.739C115.782 136.94 115.59 137.097 115.344 137.211C115.098 137.32 114.815 137.374 114.494 137.374Z" fill="white"/>
</g>
<defs>
<filter id="filter0_d_528_4376" x="12.015" y="12.8742" width="207.689" height="49.0462" filterUnits="userSpaceOnUse" color-interpolation-filters="sRGB">
<feFlood flood-opacity="0" result="BackgroundImageFix"/>
<feColorMatrix in="SourceAlpha" type="matrix" values="0 0 0 0 0 0 0 0 0 0 0 0 0 0 0 0 0 0 127 0" result="hardAlpha"/>
<feOffset dy="0.85822"/>
<feGaussianBlur stdDeviation="0.85822"/>
<feComposite in2="hardAlpha" operator="out"/>
<feColorMatrix type="matrix" values="0 0 0 0 0 0 0 0 0 0 0 0 0 0 0 0 0 0 0.05 0"/>
<feBlend mode="normal" in2="BackgroundImageFix" result="effect1_dropShadow_528_4376"/>
<feBlend mode="normal" in="SourceGraphic" in2="effect1_dropShadow_528_4376" result="shape"/>
</filter>
</defs>
</svg>
