<svg width="24" height="24" viewBox="0 0 24 24" fill="none" xmlns="http://www.w3.org/2000/svg">
<path d="M17 12.6253C17 15.7503 14.8125 17.3128 12.2125 18.219C12.0764 18.2652 11.9285 18.263 11.7938 18.2128C9.1875 17.3128 7 15.7503 7 12.6253V8.25028C7 8.08452 7.06585 7.92555 7.18306 7.80834C7.30027 7.69113 7.45924 7.62528 7.625 7.62528C8.875 7.62528 10.4375 6.87528 11.525 5.92528C11.6574 5.81216 11.8258 5.75 12 5.75C12.1742 5.75 12.3426 5.81216 12.475 5.92528C13.5688 6.88153 15.125 7.62528 16.375 7.62528C16.5408 7.62528 16.6997 7.69113 16.8169 7.80834C16.9342 7.92555 17 8.08452 17 8.25028V12.6253Z" stroke="white" stroke-width="1.25" stroke-linecap="round" stroke-linejoin="round"/>
</svg>
