<svg width="32" height="32" viewBox="0 0 32 32" fill="none" xmlns="http://www.w3.org/2000/svg">
<rect width="32" height="32" rx="16" fill="#F1F5F9"/>
<path d="M14.2515 13.8402C14.2633 13.5443 14.1769 13.3158 13.9923 13.1548C13.81 12.9938 13.5342 12.9134 13.1649 12.9134C12.9139 12.9134 12.6961 12.9489 12.5115 13.0199C12.3268 13.0885 12.1788 13.1844 12.0676 13.3075C11.9587 13.4283 11.8912 13.5679 11.8651 13.7266C11.8391 13.8568 11.8474 13.9704 11.89 14.0675C11.935 14.1645 12.0048 14.2486 12.0995 14.3196C12.1966 14.3883 12.3114 14.4486 12.444 14.5007C12.5766 14.5504 12.7174 14.593 12.8666 14.6286L13.4916 14.7848C13.797 14.8558 14.0716 14.9505 14.3154 15.0689C14.5616 15.1873 14.7676 15.3329 14.9333 15.5057C15.1014 15.6785 15.2198 15.8821 15.2884 16.1165C15.3571 16.3509 15.3666 16.6196 15.3169 16.9226C15.2411 17.3677 15.0647 17.7536 14.7877 18.0803C14.5107 18.4046 14.1473 18.6567 13.6975 18.8366C13.2477 19.0142 12.7269 19.103 12.135 19.103C11.5479 19.103 11.0519 19.013 10.6471 18.8331C10.2423 18.6532 9.94753 18.3868 9.76287 18.0341C9.58058 17.679 9.52613 17.2398 9.59952 16.7166H11.0874C11.0614 16.9605 11.0969 17.1641 11.194 17.3274C11.2934 17.4884 11.4414 17.6103 11.6379 17.6932C11.8344 17.7737 12.0652 17.8139 12.3303 17.8139C12.5931 17.8139 12.8263 17.776 13.0299 17.7003C13.2359 17.6245 13.4028 17.5192 13.5306 17.3842C13.6585 17.2493 13.7366 17.0942 13.765 16.919C13.7934 16.7557 13.7686 16.6184 13.6904 16.5071C13.6123 16.3958 13.4868 16.3011 13.314 16.223C13.1436 16.1425 12.9317 16.0715 12.6784 16.0099L11.9184 15.8111C11.3313 15.6619 10.8874 15.4287 10.5867 15.1115C10.2861 14.7943 10.1784 14.367 10.2636 13.8295C10.3393 13.3892 10.5228 13.0045 10.814 12.6754C11.1076 12.344 11.4769 12.0871 11.922 11.9048C12.3694 11.7202 12.8583 11.6278 13.3886 11.6278C13.9284 11.6278 14.3841 11.7214 14.7558 11.9084C15.1275 12.093 15.3985 12.3511 15.569 12.6825C15.7394 13.014 15.7915 13.3999 15.7252 13.8402H14.2515ZM16.0067 19L17.214 11.7273H18.7517L18.2226 14.9339H18.3184L21.4648 11.7273H23.3078L20.0798 14.9837L22.1324 19H20.2929L18.8085 16.0099L17.8923 16.9403L17.5443 19H16.0067Z" fill="#64748B"/>
</svg>
