<svg width="32" height="32" viewBox="0 0 32 32" fill="none" xmlns="http://www.w3.org/2000/svg">
<g clip-path="url(#clip0_623_2542)">
<rect width="32" height="32" rx="8" fill="white"/>
<g clip-path="url(#clip1_623_2542)">
<g clip-path="url(#clip2_623_2542)">
<path d="M10.3036 18.7367C10.302 19.2931 10.0802 19.8263 9.68674 20.2198C9.29325 20.6133 8.76003 20.8351 8.20356 20.8367C7.64692 20.8356 7.11333 20.6142 6.71945 20.2209C6.32556 19.8276 6.10341 19.2943 6.10156 18.7377C6.10156 17.5807 7.04656 16.6367 8.20256 16.6367H10.3036V18.7367ZM11.3616 18.7367C11.3616 17.5797 12.3066 16.6357 13.4636 16.6357C14.6196 16.6357 15.5636 17.5797 15.5636 18.7357V23.9977C15.5625 24.5544 15.3409 25.088 14.9474 25.4818C14.5538 25.8755 14.0203 26.0973 13.4636 26.0987C12.9069 26.0973 12.3734 25.8757 11.9797 25.4822C11.586 25.0887 11.3641 24.5553 11.3626 23.9987V18.7377L11.3616 18.7367ZM13.4636 10.2997C12.9069 10.2983 12.3734 10.0767 11.9797 9.68318C11.586 9.28967 11.3641 8.7563 11.3626 8.19966C11.3631 7.64285 11.5843 7.10896 11.9777 6.71496C12.3712 6.32096 12.9048 6.09898 13.4616 6.09766C14.6186 6.09766 15.5626 7.04266 15.5626 8.19866V10.2997H13.4636ZM13.4636 11.3577C14.6196 11.3577 15.5636 12.3027 15.5636 13.4597C15.562 14.0161 15.3402 14.5493 14.9467 14.9428C14.5533 15.3363 14.02 15.5581 13.4636 15.5597H8.20356C7.64692 15.5586 7.11333 15.3372 6.71945 14.9439C6.32556 14.5506 6.10341 14.0173 6.10156 13.4607C6.10156 12.3037 7.04656 11.3597 8.20256 11.3597H13.4626L13.4636 11.3577ZM21.8996 13.4597C21.8996 12.3027 22.8446 11.3587 24.0006 11.3587C25.1576 11.3587 26.1016 12.3027 26.1016 13.4587C26.1005 14.0155 25.879 14.5492 25.4854 14.9431C25.0919 15.337 24.5584 15.5591 24.0016 15.5607H21.8996V13.4597ZM20.8416 13.4597C20.8416 14.6157 19.8966 15.5597 18.7396 15.5597C17.5836 15.5597 16.6396 14.6157 16.6396 13.4597V8.19966C16.6396 7.04266 17.5836 6.09766 18.7396 6.09766C19.8966 6.09766 20.8406 7.04266 20.8406 8.19866V13.4587L20.8416 13.4597ZM18.7396 21.8957C19.8966 21.8957 20.8406 22.8407 20.8406 23.9957C20.8395 24.5525 20.618 25.0862 20.2244 25.4801C19.8309 25.874 19.2974 26.0961 18.7406 26.0977C18.1837 26.0963 17.6499 25.8746 17.256 25.4809C16.8621 25.0872 16.6401 24.5536 16.6386 23.9967V21.8957H18.7396ZM18.7396 20.8377C17.5836 20.8377 16.6396 19.8927 16.6396 18.7367C16.6396 17.5797 17.5836 16.6357 18.7396 16.6357H24.0016C25.1576 16.6357 26.1026 17.5797 26.1026 18.7357C26.1015 19.2926 25.8798 19.8265 25.4861 20.2205C25.0923 20.6144 24.5585 20.8363 24.0016 20.8377H18.7416H18.7396Z" fill="#0B0A35"/>
</g>
</g>
<rect x="0.5" y="0.5" width="31" height="31" rx="7.5" stroke="#E6E6E6"/>
</g>
<defs>
<clipPath id="clip0_623_2542">
<rect width="32" height="32" rx="8" fill="white"/>
</clipPath>
<clipPath id="clip1_623_2542">
<rect width="21" height="21" fill="white" transform="translate(5.5 5.5)"/>
</clipPath>
<clipPath id="clip2_623_2542">
<rect width="21" height="21" fill="white" transform="translate(5.5 5.5)"/>
</clipPath>
</defs>
</svg>
