<svg width="48" height="48" viewBox="0 0 48 48" fill="none" xmlns="http://www.w3.org/2000/svg">
<rect width="48" height="48" rx="6" fill="#EEEEFF"/>
<path d="M24.625 23.9375C25.2292 23.2708 25.6927 22.5104 26.0156 21.6562C26.3385 20.8021 26.5 19.9167 26.5 19C26.5 18.0833 26.3385 17.1979 26.0156 16.3438C25.6927 15.4896 25.2292 14.7292 24.625 14.0625C25.875 14.2292 26.9167 14.7812 27.75 15.7188C28.5833 16.6562 29 17.75 29 19C29 20.25 28.5833 21.3438 27.75 22.2812C26.9167 23.2188 25.875 23.7708 24.625 23.9375ZM31.5 34V30.25C31.5 29.5 31.3333 28.7865 31 28.1094C30.6667 27.4323 30.2292 26.8333 29.6875 26.3125C30.75 26.6875 31.7344 27.1719 32.6406 27.7656C33.5469 28.3594 34 29.1875 34 30.25V34H31.5ZM34 25.25V22.75H31.5V20.25H34V17.75H36.5V20.25H39V22.75H36.5V25.25H34ZM19 24C17.625 24 16.4479 23.5104 15.4688 22.5312C14.4896 21.5521 14 20.375 14 19C14 17.625 14.4896 16.4479 15.4688 15.4688C16.4479 14.4896 17.625 14 19 14C20.375 14 21.5521 14.4896 22.5312 15.4688C23.5104 16.4479 24 17.625 24 19C24 20.375 23.5104 21.5521 22.5312 22.5312C21.5521 23.5104 20.375 24 19 24ZM9 34V30.5C9 29.7917 9.18229 29.1406 9.54688 28.5469C9.91146 27.9531 10.3958 27.5 11 27.1875C12.2917 26.5417 13.6042 26.0573 14.9375 25.7344C16.2708 25.4115 17.625 25.25 19 25.25C20.375 25.25 21.7292 25.4115 23.0625 25.7344C24.3958 26.0573 25.7083 26.5417 27 27.1875C27.6042 27.5 28.0885 27.9531 28.4531 28.5469C28.8177 29.1406 29 29.7917 29 30.5V34H9ZM19 21.5C19.6875 21.5 20.276 21.2552 20.7656 20.7656C21.2552 20.276 21.5 19.6875 21.5 19C21.5 18.3125 21.2552 17.724 20.7656 17.2344C20.276 16.7448 19.6875 16.5 19 16.5C18.3125 16.5 17.724 16.7448 17.2344 17.2344C16.7448 17.724 16.5 18.3125 16.5 19C16.5 19.6875 16.7448 20.276 17.2344 20.7656C17.724 21.2552 18.3125 21.5 19 21.5ZM11.5 31.5H26.5V30.5C26.5 30.2708 26.4427 30.0625 26.3281 29.875C26.2135 29.6875 26.0625 29.5417 25.875 29.4375C24.75 28.875 23.6146 28.4531 22.4688 28.1719C21.3229 27.8906 20.1667 27.75 19 27.75C17.8333 27.75 16.6771 27.8906 15.5312 28.1719C14.3854 28.4531 13.25 28.875 12.125 29.4375C11.9375 29.5417 11.7865 29.6875 11.6719 29.875C11.5573 30.0625 11.5 30.2708 11.5 30.5V31.5Z" fill="#5550FF"/>
</svg>
