<svg width="20" height="20" viewBox="0 0 20 20" fill="none" xmlns="http://www.w3.org/2000/svg">
<path d="M7.16536 18.75L5.58203 16.0833L2.58203 15.4167L2.8737 12.3333L0.832031 10L2.8737 7.66667L2.58203 4.58333L5.58203 3.91667L7.16536 1.25L9.9987 2.45833L12.832 1.25L14.4154 3.91667L17.4154 4.58333L17.1237 7.66667L19.1654 10L17.1237 12.3333L17.4154 15.4167L14.4154 16.0833L12.832 18.75L9.9987 17.5417L7.16536 18.75ZM7.8737 16.625L9.9987 15.7083L12.1654 16.625L13.332 14.625L15.6237 14.0833L15.4154 11.75L16.957 10L15.4154 8.20833L15.6237 5.875L13.332 5.375L12.1237 3.375L9.9987 4.29167L7.83203 3.375L6.66536 5.375L4.3737 5.875L4.58203 8.20833L3.04036 10L4.58203 11.75L4.3737 14.125L6.66536 14.625L7.8737 16.625ZM9.1237 12.9583L13.832 8.25L12.6654 7.04167L9.1237 10.5833L7.33203 8.83333L6.16536 10L9.1237 12.9583Z" fill="#6366F1"/>
</svg>
