<svg width="32" height="32" viewBox="0 0 32 32" fill="none" xmlns="http://www.w3.org/2000/svg">
<g clip-path="url(#clip0_2046_4555)">
<rect width="32" height="32" rx="8" fill="#302B3A"/>
<rect x="0.5" y="0.5" width="31" height="31" rx="7.5" stroke="#E6E6E6"/>
<g clip-path="url(#clip1_2046_4555)">
<path fill-rule="evenodd" clip-rule="evenodd" d="M23.4915 8.90417C21.622 7.03232 19.1357 6.00095 16.4865 6C11.0277 6 6.585 10.4422 6.5831 15.9025C6.58215 17.648 7.03848 19.3518 7.90508 20.8533L6.5 25.9854L11.7499 24.6083C13.1963 25.3976 14.825 25.813 16.4823 25.8135H16.4865C21.9444 25.8135 26.3876 21.3708 26.3895 15.9106C26.3904 13.2643 25.3614 10.7765 23.4915 8.90465V8.90417ZM16.4865 24.1411H16.4832C15.0064 24.1407 13.5577 23.7436 12.2936 22.9939L11.9931 22.8154L8.87757 23.6325L9.70903 20.5949L9.51339 20.2834C8.68953 18.9729 8.25409 17.4581 8.25504 15.903C8.25694 11.3648 11.9494 7.67241 16.4899 7.67241C18.6884 7.67336 20.755 8.53047 22.3091 10.0865C23.8633 11.6422 24.7185 13.7106 24.7176 15.9096C24.7156 20.4482 21.0233 24.1407 16.4865 24.1407V24.1411ZM21.0014 17.9766C20.754 17.8527 19.5375 17.2544 19.3104 17.1718C19.0835 17.0891 18.9187 17.0478 18.7539 17.2957C18.5892 17.5436 18.1148 18.1011 17.9704 18.2658C17.8261 18.4311 17.6817 18.4515 17.4343 18.3275C17.187 18.2036 16.3897 17.9424 15.4443 17.0996C14.7087 16.4433 14.212 15.6333 14.0677 15.3854C13.9233 15.1375 14.0525 15.0036 14.1759 14.8806C14.287 14.7695 14.4233 14.5914 14.5472 14.4471C14.6712 14.3027 14.712 14.1992 14.7946 14.0344C14.8773 13.8692 14.836 13.7249 14.7743 13.6009C14.7125 13.477 14.2177 12.259 14.0112 11.7637C13.8103 11.2813 13.6061 11.3468 13.4546 11.3387C13.3103 11.3316 13.1455 11.3302 12.9803 11.3302C12.815 11.3302 12.5472 11.3919 12.3202 11.6398C12.0933 11.8876 11.4541 12.4864 11.4541 13.7039C11.4541 14.9214 12.3407 16.0986 12.4646 16.2639C12.5885 16.4291 14.2096 18.9282 16.6917 20.0004C17.2819 20.2554 17.743 20.4078 18.1024 20.5218C18.6951 20.7103 19.2345 20.6838 19.6609 20.6201C20.1362 20.5489 21.1249 20.0213 21.3309 19.4434C21.537 18.8655 21.537 18.3698 21.4753 18.2667C21.4136 18.1637 21.2483 18.1015 21.0009 17.9776L21.0014 17.9766Z" fill="white"/>
</g>
</g>
<defs>
<clipPath id="clip0_2046_4555">
<rect width="32" height="32" rx="8" fill="white"/>
</clipPath>
<clipPath id="clip1_2046_4555">
<rect width="19.8895" height="20" fill="white" transform="translate(6.5 6)"/>
</clipPath>
</defs>
</svg>
